G04 #@! TF.GenerationSoftware,KiCad,Pcbnew,7.0.7*
G04 #@! TF.CreationDate,2024-05-07T13:52:07+01:00*
G04 #@! TF.ProjectId,QA403 Impedance Fixture,51413430-3320-4496-9d70-6564616e6365,rev?*
G04 #@! TF.SameCoordinates,Original*
G04 #@! TF.FileFunction,Copper,L1,Top*
G04 #@! TF.FilePolarity,Positive*
%FSLAX46Y46*%
G04 Gerber Fmt 4.6, Leading zero omitted, Abs format (unit mm)*
G04 Created by KiCad (PCBNEW 7.0.7) date 2024-05-07 13:52:07*
%MOMM*%
%LPD*%
G01*
G04 APERTURE LIST*
G04 Aperture macros list*
%AMRoundRect*
0 Rectangle with rounded corners*
0 $1 Rounding radius*
0 $2 $3 $4 $5 $6 $7 $8 $9 X,Y pos of 4 corners*
0 Add a 4 corners polygon primitive as box body*
4,1,4,$2,$3,$4,$5,$6,$7,$8,$9,$2,$3,0*
0 Add four circle primitives for the rounded corners*
1,1,$1+$1,$2,$3*
1,1,$1+$1,$4,$5*
1,1,$1+$1,$6,$7*
1,1,$1+$1,$8,$9*
0 Add four rect primitives between the rounded corners*
20,1,$1+$1,$2,$3,$4,$5,0*
20,1,$1+$1,$4,$5,$6,$7,0*
20,1,$1+$1,$6,$7,$8,$9,0*
20,1,$1+$1,$8,$9,$2,$3,0*%
%AMFreePoly0*
4,1,6,1.000000,0.000000,0.500000,-0.750000,-0.500000,-0.750000,-0.500000,0.750000,0.500000,0.750000,1.000000,0.000000,1.000000,0.000000,$1*%
%AMFreePoly1*
4,1,6,0.500000,-0.750000,-0.650000,-0.750000,-0.150000,0.000000,-0.650000,0.750000,0.500000,0.750000,0.500000,-0.750000,0.500000,-0.750000,$1*%
G04 Aperture macros list end*
G04 #@! TA.AperFunction,ComponentPad*
%ADD10C,3.000000*%
G04 #@! TD*
G04 #@! TA.AperFunction,ComponentPad*
%ADD11R,2.600000X2.600000*%
G04 #@! TD*
G04 #@! TA.AperFunction,ComponentPad*
%ADD12C,2.600000*%
G04 #@! TD*
G04 #@! TA.AperFunction,SMDPad,CuDef*
%ADD13RoundRect,0.250000X0.312500X0.625000X-0.312500X0.625000X-0.312500X-0.625000X0.312500X-0.625000X0*%
G04 #@! TD*
G04 #@! TA.AperFunction,SMDPad,CuDef*
%ADD14RoundRect,0.250000X-0.312500X-0.625000X0.312500X-0.625000X0.312500X0.625000X-0.312500X0.625000X0*%
G04 #@! TD*
G04 #@! TA.AperFunction,ComponentPad*
%ADD15C,2.400000*%
G04 #@! TD*
G04 #@! TA.AperFunction,ComponentPad*
%ADD16O,2.400000X2.400000*%
G04 #@! TD*
G04 #@! TA.AperFunction,ComponentPad*
%ADD17C,1.605000*%
G04 #@! TD*
G04 #@! TA.AperFunction,ComponentPad*
%ADD18C,2.595000*%
G04 #@! TD*
G04 #@! TA.AperFunction,SMDPad,CuDef*
%ADD19FreePoly0,0.000000*%
G04 #@! TD*
G04 #@! TA.AperFunction,SMDPad,CuDef*
%ADD20FreePoly1,0.000000*%
G04 #@! TD*
G04 #@! TA.AperFunction,SMDPad,CuDef*
%ADD21RoundRect,0.237500X-0.250000X-0.237500X0.250000X-0.237500X0.250000X0.237500X-0.250000X0.237500X0*%
G04 #@! TD*
G04 #@! TA.AperFunction,SMDPad,CuDef*
%ADD22RoundRect,0.250000X-0.400000X-0.625000X0.400000X-0.625000X0.400000X0.625000X-0.400000X0.625000X0*%
G04 #@! TD*
G04 #@! TA.AperFunction,SMDPad,CuDef*
%ADD23RoundRect,0.250000X-0.350000X-0.450000X0.350000X-0.450000X0.350000X0.450000X-0.350000X0.450000X0*%
G04 #@! TD*
G04 #@! TA.AperFunction,Conductor*
%ADD24C,0.800000*%
G04 #@! TD*
G04 #@! TA.AperFunction,Conductor*
%ADD25C,1.600000*%
G04 #@! TD*
G04 #@! TA.AperFunction,Conductor*
%ADD26C,0.500000*%
G04 #@! TD*
G04 APERTURE END LIST*
D10*
X86835000Y-66730000D03*
X86835000Y-50500000D03*
X80485000Y-66730000D03*
D11*
X80519000Y-56168000D03*
D10*
X80485000Y-50500000D03*
X93185000Y-66730000D03*
D12*
X80519000Y-61248000D03*
D10*
X93185000Y-50500000D03*
X138684000Y-50438000D03*
X138684000Y-66668000D03*
X145034000Y-50438000D03*
D11*
X145000000Y-61000000D03*
D10*
X145034000Y-66668000D03*
X132334000Y-50438000D03*
D12*
X145000000Y-55920000D03*
D10*
X132334000Y-66668000D03*
D13*
X86112500Y-42000000D03*
X83187500Y-42000000D03*
D14*
X138537500Y-44400000D03*
X141462500Y-44400000D03*
D13*
X104462500Y-44400000D03*
X101537500Y-44400000D03*
D14*
X83187500Y-44400000D03*
X86112500Y-44400000D03*
D13*
X122862500Y-44400000D03*
X119937500Y-44400000D03*
X141462500Y-42000000D03*
X138537500Y-42000000D03*
D14*
X138537500Y-46800000D03*
X141462500Y-46800000D03*
X101537500Y-42000000D03*
X104462500Y-42000000D03*
D13*
X104462500Y-46800000D03*
X101537500Y-46800000D03*
D14*
X83200000Y-46800000D03*
X86125000Y-46800000D03*
X119937500Y-42000000D03*
X122862500Y-42000000D03*
D13*
X122862500Y-46800000D03*
X119937500Y-46800000D03*
D15*
X108600000Y-59000000D03*
D16*
X116600000Y-59000000D03*
D17*
X139700000Y-34165000D03*
D18*
X139700000Y-29845000D03*
X143430000Y-36325000D03*
X135970000Y-36325000D03*
D19*
X143350000Y-46800000D03*
D20*
X144800000Y-46800000D03*
D17*
X121300396Y-34210000D03*
D18*
X121300396Y-29890000D03*
X125030396Y-36370000D03*
X117570396Y-36370000D03*
D17*
X102900793Y-34165000D03*
D18*
X102900793Y-29845000D03*
X106630793Y-36325000D03*
X99170793Y-36325000D03*
D21*
X111737500Y-52400000D03*
X113562500Y-52400000D03*
D19*
X124750000Y-46800000D03*
D20*
X126200000Y-46800000D03*
D19*
X112059314Y-59000000D03*
D20*
X113509314Y-59000000D03*
D17*
X84455000Y-34165000D03*
D18*
X84455000Y-29845000D03*
X88185000Y-36325000D03*
X80725000Y-36325000D03*
D22*
X111100000Y-56400000D03*
X114200000Y-56400000D03*
D19*
X106350000Y-46800000D03*
D20*
X107800000Y-46800000D03*
D19*
X87950000Y-46800000D03*
D20*
X89400000Y-46800000D03*
D23*
X111650000Y-54200000D03*
X113650000Y-54200000D03*
D24*
X83200000Y-46800000D02*
X84675000Y-48275000D01*
X84675000Y-48275000D02*
X86789582Y-48275000D01*
X86789582Y-48275000D02*
X87950000Y-47114582D01*
X87950000Y-47114582D02*
X87950000Y-46800000D01*
X111100000Y-56400000D02*
X111100000Y-58040686D01*
X111100000Y-58040686D02*
X112059314Y-59000000D01*
X111650000Y-54200000D02*
X111650000Y-55850000D01*
X111650000Y-55850000D02*
X111100000Y-56400000D01*
X111737500Y-52400000D02*
X111737500Y-54112500D01*
X111737500Y-54112500D02*
X111650000Y-54200000D01*
D25*
X108600000Y-59000000D02*
X112059314Y-59000000D01*
X116600000Y-59000000D02*
X114059314Y-59000000D01*
D24*
X114200000Y-56400000D02*
X113659314Y-56940686D01*
X113659314Y-56940686D02*
X113659314Y-59000000D01*
X113650000Y-54200000D02*
X113650000Y-55850000D01*
X113650000Y-55850000D02*
X114200000Y-56400000D01*
X113562500Y-52400000D02*
X113562500Y-54112500D01*
X113562500Y-54112500D02*
X113650000Y-54200000D01*
X111737500Y-52400000D02*
X107950000Y-48612500D01*
X107950000Y-48612500D02*
X107950000Y-45487500D01*
X107950000Y-45487500D02*
X104462500Y-42000000D01*
X138537500Y-46800000D02*
X139322918Y-46800000D01*
X140797918Y-48275000D02*
X142525000Y-48275000D01*
X142525000Y-48275000D02*
X143350000Y-47450000D01*
X139322918Y-46800000D02*
X140797918Y-48275000D01*
X143350000Y-47450000D02*
X143350000Y-46800000D01*
X132762000Y-50438000D02*
X132800000Y-50400000D01*
X132334000Y-50438000D02*
X132762000Y-50438000D01*
X132800000Y-50400000D02*
X134937500Y-50400000D01*
X134937500Y-50400000D02*
X138537500Y-46800000D01*
X141462500Y-44400000D02*
X141462500Y-46800000D01*
X141462500Y-42000000D02*
X141462500Y-44400000D01*
X138537500Y-42000000D02*
X140012500Y-40525000D01*
X140012500Y-40525000D02*
X142525000Y-40525000D01*
X144950000Y-42950000D02*
X144950000Y-46800000D01*
X142525000Y-40525000D02*
X144950000Y-42950000D01*
X138537500Y-42000000D02*
X138537500Y-35327500D01*
X138537500Y-35327500D02*
X139700000Y-34165000D01*
X138537500Y-44400000D02*
X135970000Y-41832500D01*
X135970000Y-41832500D02*
X135970000Y-36325000D01*
X122862500Y-42000000D02*
X126350000Y-45487500D01*
X126350000Y-45487500D02*
X126350000Y-46800000D01*
X122862500Y-42000000D02*
X122862500Y-35772104D01*
X122862500Y-35772104D02*
X121300396Y-34210000D01*
X122862500Y-44400000D02*
X122800000Y-44400000D01*
X122800000Y-44400000D02*
X121100000Y-42700000D01*
X121100000Y-42700000D02*
X121100000Y-39899604D01*
X121100000Y-39899604D02*
X117570396Y-36370000D01*
X119937500Y-44400000D02*
X119937500Y-42000000D01*
X119937500Y-46800000D02*
X119937500Y-44400000D01*
X122862500Y-46800000D02*
X126500500Y-50438000D01*
X126500500Y-50438000D02*
X132334000Y-50438000D01*
X124750000Y-46800000D02*
X122862500Y-46800000D01*
X104462500Y-46800000D02*
X102987500Y-48275000D01*
X102987500Y-48275000D02*
X100675000Y-48275000D01*
X100675000Y-48275000D02*
X100200000Y-47800000D01*
X100200000Y-47800000D02*
X100200000Y-38200000D01*
X102900793Y-35499207D02*
X102900793Y-34165000D01*
X100200000Y-38200000D02*
X102900793Y-35499207D01*
X104462500Y-44400000D02*
X103300000Y-43237500D01*
X103300000Y-43237500D02*
X103300000Y-39655793D01*
X103300000Y-39655793D02*
X106630793Y-36325000D01*
X104462500Y-46800000D02*
X106350000Y-46800000D01*
X83187500Y-44400000D02*
X80725000Y-41937500D01*
X80725000Y-41937500D02*
X80725000Y-36325000D01*
X83187500Y-42000000D02*
X84662500Y-40525000D01*
X84662500Y-40525000D02*
X86777082Y-40525000D01*
X89550000Y-43297918D02*
X89550000Y-46800000D01*
X86777082Y-40525000D02*
X89550000Y-43297918D01*
X101537500Y-44400000D02*
X101537500Y-46800000D01*
X101537500Y-42000000D02*
X101537500Y-44400000D01*
X83187500Y-44400000D02*
X82800000Y-44400000D01*
X86112500Y-44400000D02*
X86112500Y-46787500D01*
X86112500Y-46787500D02*
X86125000Y-46800000D01*
X86112500Y-42000000D02*
X86112500Y-44400000D01*
X83187500Y-42000000D02*
X83000000Y-42000000D01*
X83000000Y-42000000D02*
X83000000Y-35620000D01*
X83000000Y-35620000D02*
X84455000Y-34165000D01*
D25*
X92750000Y-66730000D02*
X92750000Y-66750000D01*
X92750000Y-66750000D02*
X93000000Y-67000000D01*
D26*
X86400000Y-50500000D02*
X86835000Y-50500000D01*
G04 #@! TA.AperFunction,Conductor*
G36*
X147631106Y-25500191D02*
G01*
X147672018Y-25503410D01*
X147853606Y-25517701D01*
X147872816Y-25520744D01*
X148082722Y-25571138D01*
X148101214Y-25577146D01*
X148260399Y-25643083D01*
X148300650Y-25659756D01*
X148317987Y-25668590D01*
X148502035Y-25781375D01*
X148517776Y-25792811D01*
X148687490Y-25937760D01*
X148691066Y-25941066D01*
X149058933Y-26308933D01*
X149062239Y-26312509D01*
X149207188Y-26482223D01*
X149218624Y-26497964D01*
X149331409Y-26682012D01*
X149340243Y-26699349D01*
X149422850Y-26898778D01*
X149428863Y-26917284D01*
X149479254Y-27127178D01*
X149482298Y-27146396D01*
X149499809Y-27368894D01*
X149500000Y-27373760D01*
X149500000Y-66376239D01*
X149499809Y-66381105D01*
X149482298Y-66603603D01*
X149479254Y-66622821D01*
X149428863Y-66832715D01*
X149422850Y-66851221D01*
X149340243Y-67050650D01*
X149331409Y-67067987D01*
X149218624Y-67252035D01*
X149207188Y-67267776D01*
X149062239Y-67437490D01*
X149058933Y-67441066D01*
X148441066Y-68058933D01*
X148437490Y-68062239D01*
X148267776Y-68207188D01*
X148252035Y-68218624D01*
X148067987Y-68331409D01*
X148050650Y-68340243D01*
X147851221Y-68422850D01*
X147832715Y-68428863D01*
X147622821Y-68479254D01*
X147603603Y-68482298D01*
X147381106Y-68499809D01*
X147376240Y-68500000D01*
X146296645Y-68500000D01*
X146229606Y-68480315D01*
X146183851Y-68427511D01*
X146173907Y-68358353D01*
X146202932Y-68294797D01*
X146222334Y-68276733D01*
X146260562Y-68248115D01*
X145433254Y-67420807D01*
X145399769Y-67359484D01*
X145404753Y-67289792D01*
X145446625Y-67233859D01*
X145450460Y-67231100D01*
X145501595Y-67195806D01*
X145608615Y-67075005D01*
X145667801Y-67037881D01*
X145737666Y-67038649D01*
X145789108Y-67069554D01*
X146614115Y-67894562D01*
X146614116Y-67894561D01*
X146720803Y-67752047D01*
X146857908Y-67500958D01*
X146957890Y-67232895D01*
X147018699Y-66953362D01*
X147039109Y-66668001D01*
X147039109Y-66667998D01*
X147018699Y-66382637D01*
X146957890Y-66103104D01*
X146857908Y-65835041D01*
X146720808Y-65583961D01*
X146720807Y-65583960D01*
X146614115Y-65441436D01*
X145789108Y-66266444D01*
X145727785Y-66299929D01*
X145658093Y-66294945D01*
X145608612Y-66260990D01*
X145501599Y-66140198D01*
X145501597Y-66140196D01*
X145501595Y-66140194D01*
X145496047Y-66136365D01*
X145450495Y-66104922D01*
X145406505Y-66050639D01*
X145398845Y-65981190D01*
X145429949Y-65918625D01*
X145433254Y-65915191D01*
X146260562Y-65087883D01*
X146260561Y-65087882D01*
X146118046Y-64981196D01*
X146118038Y-64981191D01*
X145866957Y-64844091D01*
X145866958Y-64844091D01*
X145598895Y-64744109D01*
X145319362Y-64683300D01*
X145034001Y-64662891D01*
X145033999Y-64662891D01*
X144748637Y-64683300D01*
X144469104Y-64744109D01*
X144201041Y-64844091D01*
X143949961Y-64981191D01*
X143949953Y-64981196D01*
X143807436Y-65087882D01*
X143807436Y-65087883D01*
X144634745Y-65915192D01*
X144668230Y-65976515D01*
X144663246Y-66046207D01*
X144621374Y-66102140D01*
X144617504Y-66104923D01*
X144566407Y-66140192D01*
X144566404Y-66140194D01*
X144459387Y-66260992D01*
X144400197Y-66298118D01*
X144330332Y-66297350D01*
X144278891Y-66266445D01*
X143453883Y-65441436D01*
X143453882Y-65441437D01*
X143347196Y-65583953D01*
X143347191Y-65583961D01*
X143210091Y-65835041D01*
X143110109Y-66103104D01*
X143049300Y-66382637D01*
X143028891Y-66667998D01*
X143028891Y-66668001D01*
X143049300Y-66953362D01*
X143110109Y-67232895D01*
X143210091Y-67500958D01*
X143347191Y-67752038D01*
X143347196Y-67752046D01*
X143453882Y-67894561D01*
X143453883Y-67894562D01*
X144278890Y-67069554D01*
X144340213Y-67036069D01*
X144409904Y-67041053D01*
X144459386Y-67075007D01*
X144566404Y-67195805D01*
X144566406Y-67195807D01*
X144607144Y-67223926D01*
X144617501Y-67231075D01*
X144617503Y-67231076D01*
X144661493Y-67285358D01*
X144669153Y-67354807D01*
X144638050Y-67417372D01*
X144634744Y-67420807D01*
X143807436Y-68248114D01*
X143845666Y-68276733D01*
X143887537Y-68332667D01*
X143892521Y-68402358D01*
X143859036Y-68463681D01*
X143797713Y-68497166D01*
X143771355Y-68500000D01*
X141437097Y-68500000D01*
X141370058Y-68480315D01*
X141324303Y-68427511D01*
X141314359Y-68358353D01*
X141322536Y-68328547D01*
X141330172Y-68310114D01*
X141393670Y-68156817D01*
X141400541Y-68138191D01*
X141405326Y-68123463D01*
X141412690Y-68100803D01*
X141418079Y-68081696D01*
X141473104Y-67852497D01*
X141476977Y-67833027D01*
X141483127Y-67794199D01*
X141485461Y-67774481D01*
X141504530Y-67532181D01*
X141505500Y-67507476D01*
X141505500Y-62347844D01*
X143200000Y-62347844D01*
X143206401Y-62407372D01*
X143206403Y-62407379D01*
X143256645Y-62542086D01*
X143256649Y-62542093D01*
X143342809Y-62657187D01*
X143342812Y-62657190D01*
X143457906Y-62743350D01*
X143457913Y-62743354D01*
X143592620Y-62793596D01*
X143592627Y-62793598D01*
X143652155Y-62799999D01*
X143652172Y-62800000D01*
X144750000Y-62800000D01*
X144750000Y-61766753D01*
X144769685Y-61699714D01*
X144822489Y-61653959D01*
X144891647Y-61644015D01*
X144904816Y-61646644D01*
X144917886Y-61650000D01*
X144917890Y-61650000D01*
X145040892Y-61650000D01*
X145040894Y-61650000D01*
X145040899Y-61649999D01*
X145040903Y-61649999D01*
X145088270Y-61644015D01*
X145110458Y-61641212D01*
X145179436Y-61652338D01*
X145231448Y-61698991D01*
X145250000Y-61764234D01*
X145250000Y-62800000D01*
X146347828Y-62800000D01*
X146347844Y-62799999D01*
X146407372Y-62793598D01*
X146407379Y-62793596D01*
X146542086Y-62743354D01*
X146542093Y-62743350D01*
X146657187Y-62657190D01*
X146657190Y-62657187D01*
X146743350Y-62542093D01*
X146743354Y-62542086D01*
X146793596Y-62407379D01*
X146793598Y-62407372D01*
X146799999Y-62347844D01*
X146800000Y-62347827D01*
X146800000Y-61250000D01*
X145763921Y-61250000D01*
X145696882Y-61230315D01*
X145651127Y-61177511D01*
X145641183Y-61108353D01*
X145642117Y-61102766D01*
X145642659Y-61099919D01*
X145653873Y-61041138D01*
X145643847Y-60881784D01*
X145659283Y-60813643D01*
X145709109Y-60764663D01*
X145767602Y-60750000D01*
X146800000Y-60750000D01*
X146800000Y-59652172D01*
X146799999Y-59652155D01*
X146793598Y-59592627D01*
X146793596Y-59592620D01*
X146743354Y-59457913D01*
X146743350Y-59457906D01*
X146657190Y-59342812D01*
X146657187Y-59342809D01*
X146542093Y-59256649D01*
X146542086Y-59256645D01*
X146407379Y-59206403D01*
X146407372Y-59206401D01*
X146347844Y-59200000D01*
X145250000Y-59200000D01*
X145250000Y-60233246D01*
X145230315Y-60300285D01*
X145177511Y-60346040D01*
X145108353Y-60355984D01*
X145095165Y-60353351D01*
X145082115Y-60350000D01*
X145082114Y-60350000D01*
X144959106Y-60350000D01*
X144959094Y-60350000D01*
X144889541Y-60358787D01*
X144820563Y-60347660D01*
X144768551Y-60301006D01*
X144750000Y-60235765D01*
X144750000Y-59200000D01*
X143652155Y-59200000D01*
X143592627Y-59206401D01*
X143592620Y-59206403D01*
X143457913Y-59256645D01*
X143457906Y-59256649D01*
X143342812Y-59342809D01*
X143342809Y-59342812D01*
X143256649Y-59457906D01*
X143256645Y-59457913D01*
X143206403Y-59592620D01*
X143206401Y-59592627D01*
X143200000Y-59652155D01*
X143200000Y-60750000D01*
X144236079Y-60750000D01*
X144303118Y-60769685D01*
X144348873Y-60822489D01*
X144358817Y-60891647D01*
X144357883Y-60897234D01*
X144346127Y-60958862D01*
X144355532Y-61108353D01*
X144356153Y-61118214D01*
X144340717Y-61186357D01*
X144290891Y-61235337D01*
X144232398Y-61250000D01*
X143200000Y-61250000D01*
X143200000Y-62347844D01*
X141505500Y-62347844D01*
X141505500Y-58879500D01*
X141525185Y-58812461D01*
X141577989Y-58766706D01*
X141629500Y-58755500D01*
X146007477Y-58755500D01*
X146032182Y-58754530D01*
X146153331Y-58744995D01*
X146274482Y-58735461D01*
X146294200Y-58733127D01*
X146333027Y-58726977D01*
X146352497Y-58723104D01*
X146463166Y-58696535D01*
X146581696Y-58668079D01*
X146600803Y-58662690D01*
X146623463Y-58655326D01*
X146638191Y-58650541D01*
X146656817Y-58643670D01*
X146874591Y-58553464D01*
X146892624Y-58545151D01*
X146927651Y-58527303D01*
X146935299Y-58523020D01*
X146944971Y-58517604D01*
X147145944Y-58394446D01*
X147162455Y-58383413D01*
X147194259Y-58360305D01*
X147209846Y-58348018D01*
X147389082Y-58194937D01*
X147403661Y-58181460D01*
X147431460Y-58153661D01*
X147444937Y-58139082D01*
X147598018Y-57959846D01*
X147610305Y-57944259D01*
X147633413Y-57912455D01*
X147644446Y-57895944D01*
X147767604Y-57694971D01*
X147777302Y-57677652D01*
X147795151Y-57642624D01*
X147803464Y-57624591D01*
X147893670Y-57406817D01*
X147900541Y-57388191D01*
X147905326Y-57373463D01*
X147912690Y-57350803D01*
X147918079Y-57331696D01*
X147973104Y-57102497D01*
X147976977Y-57083027D01*
X147983127Y-57044199D01*
X147985461Y-57024481D01*
X148004530Y-56782181D01*
X148005500Y-56757476D01*
X148005500Y-55242523D01*
X148004530Y-55217818D01*
X147991828Y-55056422D01*
X147985461Y-54975517D01*
X147983127Y-54955799D01*
X147976977Y-54916972D01*
X147973104Y-54897502D01*
X147940242Y-54760620D01*
X147918079Y-54668303D01*
X147912690Y-54649196D01*
X147905122Y-54625906D01*
X147900541Y-54611808D01*
X147893670Y-54593182D01*
X147803464Y-54375408D01*
X147795151Y-54357375D01*
X147777303Y-54322348D01*
X147773035Y-54314726D01*
X147767604Y-54305028D01*
X147644446Y-54104055D01*
X147633413Y-54087544D01*
X147610305Y-54055740D01*
X147598018Y-54040153D01*
X147444937Y-53860917D01*
X147431460Y-53846338D01*
X147403661Y-53818539D01*
X147389082Y-53805062D01*
X147209846Y-53651981D01*
X147194259Y-53639694D01*
X147162455Y-53616586D01*
X147145944Y-53605553D01*
X146944971Y-53482395D01*
X146927651Y-53472696D01*
X146892625Y-53454848D01*
X146884311Y-53451015D01*
X146874590Y-53446534D01*
X146656812Y-53356328D01*
X146638193Y-53349459D01*
X146600820Y-53337315D01*
X146595427Y-53335793D01*
X146581704Y-53331922D01*
X146407521Y-53290105D01*
X146352494Y-53276894D01*
X146333028Y-53273022D01*
X146294208Y-53266873D01*
X146274485Y-53264538D01*
X146032180Y-53245470D01*
X146007477Y-53244500D01*
X141629500Y-53244500D01*
X141562461Y-53224815D01*
X141516706Y-53172011D01*
X141505500Y-53120500D01*
X141505500Y-50438001D01*
X143028891Y-50438001D01*
X143049300Y-50723362D01*
X143110109Y-51002895D01*
X143210091Y-51270958D01*
X143347191Y-51522038D01*
X143347196Y-51522046D01*
X143453882Y-51664561D01*
X143453883Y-51664562D01*
X144278890Y-50839554D01*
X144340213Y-50806069D01*
X144409904Y-50811053D01*
X144459386Y-50845007D01*
X144566404Y-50965805D01*
X144566406Y-50965807D01*
X144611869Y-50997187D01*
X144617501Y-51001075D01*
X144617503Y-51001076D01*
X144661493Y-51055358D01*
X144669153Y-51124807D01*
X144638050Y-51187372D01*
X144634744Y-51190807D01*
X143807436Y-52018114D01*
X143807436Y-52018115D01*
X143949960Y-52124807D01*
X143949961Y-52124808D01*
X144201042Y-52261908D01*
X144201041Y-52261908D01*
X144469104Y-52361890D01*
X144748637Y-52422699D01*
X145033999Y-52443109D01*
X145034001Y-52443109D01*
X145319362Y-52422699D01*
X145598895Y-52361890D01*
X145866958Y-52261908D01*
X146118047Y-52124803D01*
X146260561Y-52018116D01*
X146260562Y-52018115D01*
X145433254Y-51190807D01*
X145399769Y-51129484D01*
X145404753Y-51059792D01*
X145446625Y-51003859D01*
X145450460Y-51001100D01*
X145501595Y-50965806D01*
X145608615Y-50845005D01*
X145667801Y-50807881D01*
X145737666Y-50808649D01*
X145789108Y-50839554D01*
X146614115Y-51664562D01*
X146614116Y-51664561D01*
X146720803Y-51522047D01*
X146857908Y-51270958D01*
X146957890Y-51002895D01*
X147018699Y-50723362D01*
X147039109Y-50438001D01*
X147039109Y-50437998D01*
X147018699Y-50152637D01*
X146957890Y-49873104D01*
X146857908Y-49605041D01*
X146720808Y-49353961D01*
X146720807Y-49353960D01*
X146614115Y-49211436D01*
X145789108Y-50036444D01*
X145727785Y-50069929D01*
X145658093Y-50064945D01*
X145608612Y-50030990D01*
X145501599Y-49910198D01*
X145501597Y-49910196D01*
X145501595Y-49910194D01*
X145484252Y-49898223D01*
X145450495Y-49874922D01*
X145406505Y-49820639D01*
X145398845Y-49751190D01*
X145429949Y-49688625D01*
X145433254Y-49685191D01*
X146260562Y-48857883D01*
X146260561Y-48857882D01*
X146118046Y-48751196D01*
X146118038Y-48751191D01*
X145866957Y-48614091D01*
X145866958Y-48614091D01*
X145598895Y-48514109D01*
X145319362Y-48453300D01*
X145034001Y-48432891D01*
X145033999Y-48432891D01*
X144748637Y-48453300D01*
X144469104Y-48514109D01*
X144201041Y-48614091D01*
X143949961Y-48751191D01*
X143949953Y-48751196D01*
X143807436Y-48857882D01*
X143807436Y-48857883D01*
X144634745Y-49685192D01*
X144668230Y-49746515D01*
X144663246Y-49816207D01*
X144621374Y-49872140D01*
X144617504Y-49874923D01*
X144566407Y-49910192D01*
X144566404Y-49910194D01*
X144459387Y-50030992D01*
X144400197Y-50068118D01*
X144330332Y-50067350D01*
X144278891Y-50036445D01*
X143453883Y-49211436D01*
X143453882Y-49211437D01*
X143347196Y-49353953D01*
X143347191Y-49353961D01*
X143210091Y-49605041D01*
X143110109Y-49873104D01*
X143049300Y-50152637D01*
X143028891Y-50437998D01*
X143028891Y-50438001D01*
X141505500Y-50438001D01*
X141505500Y-49742523D01*
X141504530Y-49717818D01*
X141485461Y-49475518D01*
X141485461Y-49475513D01*
X141483127Y-49455799D01*
X141476977Y-49416972D01*
X141473104Y-49397502D01*
X141456525Y-49328444D01*
X141460016Y-49258665D01*
X141500679Y-49201847D01*
X141565606Y-49176034D01*
X141577099Y-49175500D01*
X142444373Y-49175500D01*
X142463772Y-49177027D01*
X142477612Y-49179219D01*
X142546959Y-49175584D01*
X142550203Y-49175500D01*
X142572191Y-49175500D01*
X142572192Y-49175500D01*
X142588988Y-49173734D01*
X142594064Y-49173201D01*
X142597284Y-49172947D01*
X142666646Y-49169313D01*
X142680187Y-49165683D01*
X142699313Y-49162138D01*
X142713256Y-49160674D01*
X142779306Y-49139212D01*
X142782368Y-49138304D01*
X142849488Y-49120320D01*
X142861976Y-49113956D01*
X142879950Y-49106510D01*
X142893284Y-49102179D01*
X142953476Y-49067425D01*
X142956222Y-49065934D01*
X143018149Y-49034383D01*
X143029031Y-49025569D01*
X143045083Y-49014537D01*
X143057216Y-49007533D01*
X143108847Y-48961043D01*
X143111260Y-48958982D01*
X143128380Y-48945119D01*
X143143929Y-48929568D01*
X143146277Y-48927341D01*
X143197888Y-48880871D01*
X143206130Y-48869525D01*
X143218760Y-48854737D01*
X143929737Y-48143760D01*
X143944525Y-48131130D01*
X143955871Y-48122888D01*
X143987440Y-48087825D01*
X144046923Y-48051178D01*
X144097232Y-48048060D01*
X144150000Y-48055647D01*
X144150003Y-48055647D01*
X145300000Y-48055647D01*
X145371961Y-48050500D01*
X145371963Y-48050499D01*
X145371965Y-48050499D01*
X145510050Y-48009954D01*
X145510050Y-48009953D01*
X145510053Y-48009953D01*
X145631128Y-47932143D01*
X145725377Y-47823373D01*
X145785165Y-47692457D01*
X145805647Y-47550000D01*
X145805647Y-47100307D01*
X145811715Y-47061992D01*
X145835674Y-46988256D01*
X145850500Y-46847192D01*
X145850500Y-43030626D01*
X145852027Y-43011225D01*
X145854219Y-42997388D01*
X145850584Y-42928040D01*
X145850500Y-42924797D01*
X145850500Y-42902809D01*
X145850499Y-42902800D01*
X145848201Y-42880936D01*
X145847947Y-42877720D01*
X145844313Y-42808355D01*
X145840685Y-42794814D01*
X145837139Y-42775688D01*
X145835674Y-42761744D01*
X145814209Y-42695682D01*
X145813296Y-42692601D01*
X145795320Y-42625512D01*
X145788956Y-42613022D01*
X145781511Y-42595050D01*
X145777179Y-42581716D01*
X145763240Y-42557573D01*
X145742453Y-42521569D01*
X145740903Y-42518714D01*
X145729472Y-42496279D01*
X145709383Y-42456851D01*
X145700557Y-42445952D01*
X145689540Y-42429920D01*
X145687065Y-42425633D01*
X145682533Y-42417784D01*
X145651649Y-42383484D01*
X145636058Y-42366168D01*
X145633964Y-42363716D01*
X145620120Y-42346620D01*
X145604568Y-42331068D01*
X145602348Y-42328730D01*
X145567337Y-42289846D01*
X145555874Y-42277115D01*
X145555869Y-42277110D01*
X145544529Y-42268871D01*
X145529736Y-42256236D01*
X143218764Y-39945265D01*
X143206126Y-39930468D01*
X143197887Y-39919128D01*
X143146277Y-39872657D01*
X143143922Y-39870423D01*
X143128382Y-39854882D01*
X143111295Y-39841043D01*
X143108831Y-39838939D01*
X143057220Y-39792470D01*
X143057213Y-39792465D01*
X143045070Y-39785454D01*
X143029043Y-39774438D01*
X143018153Y-39765620D01*
X143018151Y-39765619D01*
X143018149Y-39765617D01*
X142999259Y-39755992D01*
X142956266Y-39734085D01*
X142953414Y-39732537D01*
X142893282Y-39697820D01*
X142879949Y-39693488D01*
X142861978Y-39686043D01*
X142849498Y-39679684D01*
X142849486Y-39679679D01*
X142782409Y-39661705D01*
X142779309Y-39660787D01*
X142713256Y-39639326D01*
X142713251Y-39639325D01*
X142713249Y-39639325D01*
X142699314Y-39637860D01*
X142680189Y-39634315D01*
X142666653Y-39630688D01*
X142666643Y-39630686D01*
X142597290Y-39627051D01*
X142594059Y-39626797D01*
X142579537Y-39625271D01*
X142572192Y-39624500D01*
X142572189Y-39624500D01*
X142550203Y-39624500D01*
X142546959Y-39624415D01*
X142477612Y-39620781D01*
X142477611Y-39620781D01*
X142463772Y-39622973D01*
X142444373Y-39624500D01*
X140093127Y-39624500D01*
X140073728Y-39622973D01*
X140059888Y-39620781D01*
X139990540Y-39624415D01*
X139987297Y-39624500D01*
X139965308Y-39624500D01*
X139959059Y-39625156D01*
X139943441Y-39626797D01*
X139940210Y-39627051D01*
X139870852Y-39630686D01*
X139857312Y-39634315D01*
X139838186Y-39637860D01*
X139824245Y-39639325D01*
X139824242Y-39639326D01*
X139758192Y-39660785D01*
X139755084Y-39661706D01*
X139688012Y-39679680D01*
X139675520Y-39686045D01*
X139657553Y-39693487D01*
X139644213Y-39697821D01*
X139624000Y-39709492D01*
X139556100Y-39725965D01*
X139490073Y-39703112D01*
X139446882Y-39648191D01*
X139438000Y-39602105D01*
X139438000Y-36325004D01*
X141626958Y-36325004D01*
X141647094Y-36593719D01*
X141647095Y-36593724D01*
X141707058Y-36856442D01*
X141707060Y-36856451D01*
X141707062Y-36856456D01*
X141805515Y-37107311D01*
X141940257Y-37340690D01*
X141977851Y-37387831D01*
X142108280Y-37551384D01*
X142285773Y-37716072D01*
X142305822Y-37734675D01*
X142528479Y-37886480D01*
X142528484Y-37886482D01*
X142528485Y-37886483D01*
X142528486Y-37886484D01*
X142621929Y-37931483D01*
X142771271Y-38003402D01*
X142771272Y-38003402D01*
X142771275Y-38003404D01*
X143028785Y-38082836D01*
X143028786Y-38082836D01*
X143028789Y-38082837D01*
X143295251Y-38122999D01*
X143295256Y-38122999D01*
X143295259Y-38123000D01*
X143295260Y-38123000D01*
X143564740Y-38123000D01*
X143564741Y-38123000D01*
X143564748Y-38122999D01*
X143831210Y-38082837D01*
X143831211Y-38082836D01*
X143831215Y-38082836D01*
X144088725Y-38003404D01*
X144294544Y-37904287D01*
X144331513Y-37886484D01*
X144331513Y-37886483D01*
X144331521Y-37886480D01*
X144554178Y-37734675D01*
X144751723Y-37551380D01*
X144919743Y-37340690D01*
X145054485Y-37107311D01*
X145152938Y-36856456D01*
X145212904Y-36593729D01*
X145212905Y-36593719D01*
X145233042Y-36325004D01*
X145233042Y-36324995D01*
X145212905Y-36056280D01*
X145212904Y-36056275D01*
X145212904Y-36056271D01*
X145152938Y-35793544D01*
X145054485Y-35542689D01*
X144919743Y-35309310D01*
X144751723Y-35098620D01*
X144751722Y-35098619D01*
X144751719Y-35098615D01*
X144554178Y-34915325D01*
X144554177Y-34915324D01*
X144331521Y-34763520D01*
X144331517Y-34763518D01*
X144331514Y-34763516D01*
X144331513Y-34763515D01*
X144088727Y-34646597D01*
X144088729Y-34646597D01*
X143831216Y-34567164D01*
X143831210Y-34567162D01*
X143564748Y-34527000D01*
X143564741Y-34527000D01*
X143295259Y-34527000D01*
X143295251Y-34527000D01*
X143028789Y-34567162D01*
X143028783Y-34567164D01*
X142771271Y-34646597D01*
X142528486Y-34763515D01*
X142528485Y-34763516D01*
X142305821Y-34915325D01*
X142108280Y-35098615D01*
X141940257Y-35309310D01*
X141805515Y-35542688D01*
X141707064Y-35793538D01*
X141707058Y-35793557D01*
X141647095Y-36056275D01*
X141647094Y-36056280D01*
X141626958Y-36324995D01*
X141626958Y-36325004D01*
X139438000Y-36325004D01*
X139438000Y-35751860D01*
X139457685Y-35684821D01*
X139474313Y-35664184D01*
X139630304Y-35508193D01*
X139691624Y-35474711D01*
X139707170Y-35472349D01*
X139927128Y-35453106D01*
X140147354Y-35394096D01*
X140353989Y-35297741D01*
X140540751Y-35166969D01*
X140701969Y-35005751D01*
X140832741Y-34818989D01*
X140929096Y-34612354D01*
X140988106Y-34392128D01*
X141007977Y-34165000D01*
X140988106Y-33937872D01*
X140929096Y-33717646D01*
X140832741Y-33511012D01*
X140701969Y-33324249D01*
X140540751Y-33163031D01*
X140540747Y-33163028D01*
X140540746Y-33163027D01*
X140353993Y-33032261D01*
X140353989Y-33032259D01*
X140243857Y-32980904D01*
X140147354Y-32935904D01*
X140147351Y-32935903D01*
X140147349Y-32935902D01*
X139927129Y-32876894D01*
X139927122Y-32876893D01*
X139700002Y-32857023D01*
X139699998Y-32857023D01*
X139472877Y-32876893D01*
X139472870Y-32876894D01*
X139252642Y-32935905D01*
X139046013Y-33032258D01*
X139046011Y-33032259D01*
X138859246Y-33163032D01*
X138698032Y-33324246D01*
X138567259Y-33511011D01*
X138567258Y-33511013D01*
X138470905Y-33717642D01*
X138411894Y-33937870D01*
X138411893Y-33937876D01*
X138392650Y-34157823D01*
X138367197Y-34222891D01*
X138356803Y-34234696D01*
X137957763Y-34633736D01*
X137942974Y-34646369D01*
X137931626Y-34654614D01*
X137885166Y-34706213D01*
X137882935Y-34708565D01*
X137867390Y-34724110D01*
X137867375Y-34724127D01*
X137853539Y-34741210D01*
X137851436Y-34743672D01*
X137804969Y-34795281D01*
X137804966Y-34795285D01*
X137797958Y-34807423D01*
X137786944Y-34823448D01*
X137778126Y-34834337D01*
X137778116Y-34834353D01*
X137746582Y-34896240D01*
X137745033Y-34899092D01*
X137710321Y-34959213D01*
X137705987Y-34972553D01*
X137698545Y-34990520D01*
X137692180Y-35003012D01*
X137674206Y-35070084D01*
X137673285Y-35073192D01*
X137651826Y-35139242D01*
X137651825Y-35139245D01*
X137650360Y-35153186D01*
X137646815Y-35172312D01*
X137643186Y-35185852D01*
X137642900Y-35191321D01*
X137619730Y-35257237D01*
X137564601Y-35300162D01*
X137495016Y-35306469D01*
X137433069Y-35274153D01*
X137422128Y-35262143D01*
X137291723Y-35098620D01*
X137291722Y-35098619D01*
X137291719Y-35098615D01*
X137094178Y-34915325D01*
X137094178Y-34915324D01*
X136871521Y-34763520D01*
X136871517Y-34763518D01*
X136871514Y-34763516D01*
X136871513Y-34763515D01*
X136628727Y-34646597D01*
X136628729Y-34646597D01*
X136371216Y-34567164D01*
X136371210Y-34567162D01*
X136104748Y-34527000D01*
X136104741Y-34527000D01*
X135835259Y-34527000D01*
X135835251Y-34527000D01*
X135568789Y-34567162D01*
X135568783Y-34567164D01*
X135311271Y-34646597D01*
X135068486Y-34763515D01*
X135068485Y-34763516D01*
X134845821Y-34915325D01*
X134648280Y-35098615D01*
X134480257Y-35309310D01*
X134345515Y-35542688D01*
X134247064Y-35793538D01*
X134247058Y-35793557D01*
X134187095Y-36056275D01*
X134187094Y-36056280D01*
X134166958Y-36324995D01*
X134166958Y-36325004D01*
X134187094Y-36593719D01*
X134187095Y-36593724D01*
X134247058Y-36856442D01*
X134247060Y-36856451D01*
X134247062Y-36856456D01*
X134345515Y-37107311D01*
X134480257Y-37340690D01*
X134517851Y-37387831D01*
X134648280Y-37551384D01*
X134825773Y-37716072D01*
X134845822Y-37734675D01*
X135015353Y-37850259D01*
X135059654Y-37904287D01*
X135069500Y-37952712D01*
X135069500Y-41751873D01*
X135067973Y-41771272D01*
X135065781Y-41785111D01*
X135069415Y-41854456D01*
X135069500Y-41857701D01*
X135069500Y-41879689D01*
X135071797Y-41901559D01*
X135072051Y-41904790D01*
X135075686Y-41974143D01*
X135075688Y-41974153D01*
X135079315Y-41987689D01*
X135082860Y-42006814D01*
X135084325Y-42020749D01*
X135084326Y-42020756D01*
X135103297Y-42079146D01*
X135105784Y-42086798D01*
X135106705Y-42089909D01*
X135124679Y-42156986D01*
X135124684Y-42156998D01*
X135131043Y-42169478D01*
X135138488Y-42187449D01*
X135142820Y-42200782D01*
X135177537Y-42260914D01*
X135179085Y-42263766D01*
X135200494Y-42305782D01*
X135210617Y-42325649D01*
X135210619Y-42325651D01*
X135210620Y-42325653D01*
X135219438Y-42336543D01*
X135230454Y-42352570D01*
X135237465Y-42364713D01*
X135237470Y-42364720D01*
X135283939Y-42416331D01*
X135286043Y-42418795D01*
X135299882Y-42435882D01*
X135315423Y-42451422D01*
X135317657Y-42453777D01*
X135364128Y-42505387D01*
X135375468Y-42513626D01*
X135390265Y-42526264D01*
X137438181Y-44574180D01*
X137471666Y-44635503D01*
X137474500Y-44661861D01*
X137474500Y-45075001D01*
X137474501Y-45075019D01*
X137485000Y-45177796D01*
X137485001Y-45177799D01*
X137540185Y-45344331D01*
X137540187Y-45344336D01*
X137541120Y-45345848D01*
X137618538Y-45471364D01*
X137632289Y-45493657D01*
X137650951Y-45512319D01*
X137684436Y-45573642D01*
X137679452Y-45643334D01*
X137650951Y-45687681D01*
X137632289Y-45706342D01*
X137540187Y-45855663D01*
X137540185Y-45855668D01*
X137540115Y-45855880D01*
X137485001Y-46022203D01*
X137485001Y-46022204D01*
X137485000Y-46022204D01*
X137474500Y-46124983D01*
X137474500Y-46538137D01*
X137454815Y-46605176D01*
X137438181Y-46625818D01*
X136355819Y-47708181D01*
X136294496Y-47741666D01*
X136268138Y-47744500D01*
X132829146Y-47744500D01*
X132811280Y-47745138D01*
X132808823Y-47745269D01*
X132793269Y-47746103D01*
X132793253Y-47746105D01*
X132652677Y-47776686D01*
X132652672Y-47776687D01*
X132652671Y-47776688D01*
X132652119Y-47776894D01*
X132587205Y-47801105D01*
X132587201Y-47801107D01*
X132460931Y-47870056D01*
X132460930Y-47870057D01*
X132421304Y-47909682D01*
X132359980Y-47943166D01*
X132290289Y-47938180D01*
X132252423Y-47915712D01*
X132170164Y-47844433D01*
X132170161Y-47844431D01*
X132170159Y-47844430D01*
X132039293Y-47784664D01*
X132039288Y-47784662D01*
X132039287Y-47784662D01*
X132016686Y-47778025D01*
X131972253Y-47764978D01*
X131972247Y-47764976D01*
X131886242Y-47752611D01*
X131829828Y-47744500D01*
X131242523Y-47744500D01*
X131217820Y-47745470D01*
X130975515Y-47764538D01*
X130955796Y-47766872D01*
X130916980Y-47773020D01*
X130897508Y-47776893D01*
X130668293Y-47831924D01*
X130659961Y-47834273D01*
X130649186Y-47837312D01*
X130611824Y-47849452D01*
X130604084Y-47852307D01*
X130593194Y-47856325D01*
X130515272Y-47888601D01*
X130375403Y-47946535D01*
X130365680Y-47951018D01*
X130357362Y-47954853D01*
X130338210Y-47964613D01*
X130322342Y-47972699D01*
X130305029Y-47982395D01*
X130104054Y-48105554D01*
X130087544Y-48116586D01*
X130076671Y-48124486D01*
X130059638Y-48136862D01*
X130055740Y-48139694D01*
X130040153Y-48151981D01*
X129860917Y-48305062D01*
X129846338Y-48318539D01*
X129818539Y-48346338D01*
X129805062Y-48360917D01*
X129651981Y-48540153D01*
X129643216Y-48551272D01*
X129639693Y-48555741D01*
X129629384Y-48569930D01*
X129616586Y-48587544D01*
X129605554Y-48604054D01*
X129482399Y-48805024D01*
X129472705Y-48822332D01*
X129454857Y-48857355D01*
X129446538Y-48875400D01*
X129424574Y-48928425D01*
X129398690Y-48990915D01*
X129356325Y-49093195D01*
X129349452Y-49111824D01*
X129337312Y-49149186D01*
X129334273Y-49159961D01*
X129331924Y-49168293D01*
X129276893Y-49397508D01*
X129273020Y-49416980D01*
X129270499Y-49432898D01*
X129240570Y-49496033D01*
X129181258Y-49532964D01*
X129148026Y-49537500D01*
X126924861Y-49537500D01*
X126857822Y-49517815D01*
X126837180Y-49501181D01*
X125603327Y-48267328D01*
X125569842Y-48206005D01*
X125574826Y-48136313D01*
X125616698Y-48080380D01*
X125682162Y-48055963D01*
X125691008Y-48055647D01*
X126700000Y-48055647D01*
X126771961Y-48050500D01*
X126771963Y-48050499D01*
X126771965Y-48050499D01*
X126910050Y-48009954D01*
X126910050Y-48009953D01*
X126910053Y-48009953D01*
X127031128Y-47932143D01*
X127125377Y-47823373D01*
X127185165Y-47692457D01*
X127205647Y-47550000D01*
X127205647Y-47100307D01*
X127211715Y-47061992D01*
X127235674Y-46988256D01*
X127250500Y-46847192D01*
X127250500Y-45568126D01*
X127252027Y-45548725D01*
X127254219Y-45534888D01*
X127250584Y-45465540D01*
X127250500Y-45462297D01*
X127250500Y-45440309D01*
X127250499Y-45440300D01*
X127248201Y-45418436D01*
X127247947Y-45415220D01*
X127244313Y-45345855D01*
X127240685Y-45332314D01*
X127237139Y-45313188D01*
X127235674Y-45299244D01*
X127214209Y-45233182D01*
X127213296Y-45230101D01*
X127195320Y-45163012D01*
X127188956Y-45150522D01*
X127181511Y-45132550D01*
X127177179Y-45119216D01*
X127177174Y-45119207D01*
X127142453Y-45059069D01*
X127140903Y-45056214D01*
X127109383Y-44994351D01*
X127100557Y-44983452D01*
X127089540Y-44967420D01*
X127087065Y-44963133D01*
X127082533Y-44955284D01*
X127056514Y-44926387D01*
X127036058Y-44903668D01*
X127033964Y-44901216D01*
X127020120Y-44884120D01*
X127004568Y-44868568D01*
X127002348Y-44866230D01*
X126955871Y-44814612D01*
X126955869Y-44814610D01*
X126944529Y-44806371D01*
X126929736Y-44793736D01*
X123961818Y-41825818D01*
X123928333Y-41764495D01*
X123925499Y-41738137D01*
X123925499Y-41324998D01*
X123925498Y-41324981D01*
X123914999Y-41222203D01*
X123914998Y-41222200D01*
X123859814Y-41055666D01*
X123781461Y-40928634D01*
X123763000Y-40863538D01*
X123763000Y-39398377D01*
X123763000Y-37916645D01*
X123782684Y-37849610D01*
X123835488Y-37803855D01*
X123904646Y-37793911D01*
X123956847Y-37814193D01*
X124128875Y-37931480D01*
X124128880Y-37931482D01*
X124128881Y-37931483D01*
X124128882Y-37931484D01*
X124257830Y-37993581D01*
X124371667Y-38048402D01*
X124371668Y-38048402D01*
X124371671Y-38048404D01*
X124629181Y-38127836D01*
X124629182Y-38127836D01*
X124629185Y-38127837D01*
X124895647Y-38167999D01*
X124895652Y-38167999D01*
X124895655Y-38168000D01*
X124895656Y-38168000D01*
X125165136Y-38168000D01*
X125165137Y-38168000D01*
X125165144Y-38167999D01*
X125431606Y-38127837D01*
X125431607Y-38127836D01*
X125431611Y-38127836D01*
X125689121Y-38048404D01*
X125931917Y-37931480D01*
X126154574Y-37779675D01*
X126352119Y-37596380D01*
X126520139Y-37385690D01*
X126654881Y-37152311D01*
X126753334Y-36901456D01*
X126813300Y-36638729D01*
X126816672Y-36593729D01*
X126833438Y-36370004D01*
X126833438Y-36369995D01*
X126813301Y-36101280D01*
X126813300Y-36101275D01*
X126813300Y-36101271D01*
X126753334Y-35838544D01*
X126654881Y-35587689D01*
X126520139Y-35354310D01*
X126352119Y-35143620D01*
X126352118Y-35143619D01*
X126352115Y-35143615D01*
X126154574Y-34960325D01*
X126123104Y-34938869D01*
X125931917Y-34808520D01*
X125931913Y-34808518D01*
X125931910Y-34808516D01*
X125931909Y-34808515D01*
X125689123Y-34691597D01*
X125689125Y-34691597D01*
X125431612Y-34612164D01*
X125431606Y-34612162D01*
X125165144Y-34572000D01*
X125165137Y-34572000D01*
X124895655Y-34572000D01*
X124895647Y-34572000D01*
X124629185Y-34612162D01*
X124629179Y-34612164D01*
X124371667Y-34691597D01*
X124128882Y-34808515D01*
X124128881Y-34808516D01*
X123906217Y-34960325D01*
X123708671Y-35143621D01*
X123705934Y-35147054D01*
X123648742Y-35187190D01*
X123578931Y-35190035D01*
X123521311Y-35157415D01*
X123517066Y-35153170D01*
X123514831Y-35150815D01*
X123468375Y-35099219D01*
X123468369Y-35099214D01*
X123457029Y-35090975D01*
X123442236Y-35078340D01*
X122643592Y-34279696D01*
X122610107Y-34218373D01*
X122607745Y-34202822D01*
X122588502Y-33982877D01*
X122588502Y-33982872D01*
X122529492Y-33762646D01*
X122433137Y-33556012D01*
X122302365Y-33369249D01*
X122141147Y-33208031D01*
X122141143Y-33208028D01*
X122141142Y-33208027D01*
X121954389Y-33077261D01*
X121954385Y-33077259D01*
X121954383Y-33077258D01*
X121747750Y-32980904D01*
X121747747Y-32980903D01*
X121747745Y-32980902D01*
X121527525Y-32921894D01*
X121527518Y-32921893D01*
X121300398Y-32902023D01*
X121300394Y-32902023D01*
X121073273Y-32921893D01*
X121073266Y-32921894D01*
X120853038Y-32980905D01*
X120646409Y-33077258D01*
X120646407Y-33077259D01*
X120459642Y-33208032D01*
X120298428Y-33369246D01*
X120167655Y-33556011D01*
X120167654Y-33556013D01*
X120071301Y-33762642D01*
X120012290Y-33982870D01*
X120012289Y-33982877D01*
X119992419Y-34209998D01*
X119992419Y-34210001D01*
X120012289Y-34437122D01*
X120012290Y-34437129D01*
X120071298Y-34657349D01*
X120071299Y-34657351D01*
X120071300Y-34657354D01*
X120135618Y-34795285D01*
X120167655Y-34863989D01*
X120167657Y-34863993D01*
X120298423Y-35050746D01*
X120298428Y-35050752D01*
X120459643Y-35211967D01*
X120459649Y-35211972D01*
X120646402Y-35342738D01*
X120646404Y-35342739D01*
X120646407Y-35342741D01*
X120853042Y-35439096D01*
X121073268Y-35498106D01*
X121268689Y-35515203D01*
X121293218Y-35517349D01*
X121358287Y-35542801D01*
X121370092Y-35553196D01*
X121925681Y-36108784D01*
X121959166Y-36170107D01*
X121962000Y-36196465D01*
X121962000Y-39188144D01*
X121942315Y-39255183D01*
X121889511Y-39300938D01*
X121820353Y-39310882D01*
X121756797Y-39281857D01*
X121745850Y-39271116D01*
X121705876Y-39226720D01*
X121705869Y-39226714D01*
X121694529Y-39218475D01*
X121679736Y-39205840D01*
X119357034Y-36883138D01*
X119323549Y-36821815D01*
X119323823Y-36767869D01*
X119353300Y-36638729D01*
X119356672Y-36593729D01*
X119373438Y-36370004D01*
X119373438Y-36369995D01*
X119353301Y-36101280D01*
X119353300Y-36101275D01*
X119353300Y-36101271D01*
X119293334Y-35838544D01*
X119194881Y-35587689D01*
X119060139Y-35354310D01*
X118892119Y-35143620D01*
X118892118Y-35143619D01*
X118892115Y-35143615D01*
X118694574Y-34960325D01*
X118663104Y-34938869D01*
X118471917Y-34808520D01*
X118471913Y-34808518D01*
X118471910Y-34808516D01*
X118471909Y-34808515D01*
X118229123Y-34691597D01*
X118229125Y-34691597D01*
X117971612Y-34612164D01*
X117971606Y-34612162D01*
X117705144Y-34572000D01*
X117705137Y-34572000D01*
X117435655Y-34572000D01*
X117435647Y-34572000D01*
X117169185Y-34612162D01*
X117169179Y-34612164D01*
X116911667Y-34691597D01*
X116668882Y-34808515D01*
X116668881Y-34808516D01*
X116446217Y-34960325D01*
X116248676Y-35143615D01*
X116080653Y-35354310D01*
X115945911Y-35587688D01*
X115847460Y-35838538D01*
X115847454Y-35838557D01*
X115787491Y-36101275D01*
X115787490Y-36101280D01*
X115767354Y-36369995D01*
X115767354Y-36370004D01*
X115787490Y-36638719D01*
X115787491Y-36638724D01*
X115847454Y-36901442D01*
X115847456Y-36901451D01*
X115847458Y-36901456D01*
X115945911Y-37152311D01*
X116080653Y-37385690D01*
X116160009Y-37485199D01*
X116248676Y-37596384D01*
X116435158Y-37769413D01*
X116446218Y-37779675D01*
X116668875Y-37931480D01*
X116668880Y-37931482D01*
X116668881Y-37931483D01*
X116668882Y-37931484D01*
X116797830Y-37993581D01*
X116911667Y-38048402D01*
X116911668Y-38048402D01*
X116911671Y-38048404D01*
X117169181Y-38127836D01*
X117169182Y-38127836D01*
X117169185Y-38127837D01*
X117435647Y-38167999D01*
X117435652Y-38167999D01*
X117435655Y-38168000D01*
X117435656Y-38168000D01*
X117705136Y-38168000D01*
X117705137Y-38168000D01*
X117971611Y-38127836D01*
X117971642Y-38127826D01*
X117972447Y-38127643D01*
X117972761Y-38127662D01*
X117976199Y-38127144D01*
X117976309Y-38127878D01*
X118042187Y-38131903D01*
X118087745Y-38160848D01*
X120163181Y-40236284D01*
X120196666Y-40297607D01*
X120199500Y-40323966D01*
X120199499Y-40500501D01*
X120179814Y-40567540D01*
X120127010Y-40613295D01*
X120075499Y-40624500D01*
X119574998Y-40624500D01*
X119574980Y-40624501D01*
X119472203Y-40635000D01*
X119472200Y-40635001D01*
X119305668Y-40690185D01*
X119305663Y-40690187D01*
X119156342Y-40782289D01*
X119032289Y-40906342D01*
X118940187Y-41055663D01*
X118940185Y-41055666D01*
X118940186Y-41055666D01*
X118885001Y-41222203D01*
X118885001Y-41222204D01*
X118885000Y-41222204D01*
X118874500Y-41324983D01*
X118874500Y-42675001D01*
X118874501Y-42675018D01*
X118885000Y-42777796D01*
X118885001Y-42777799D01*
X118940185Y-42944331D01*
X118940187Y-42944336D01*
X118950431Y-42960944D01*
X119018539Y-43071366D01*
X119037000Y-43136461D01*
X119037000Y-43263538D01*
X119018539Y-43328634D01*
X118940189Y-43455659D01*
X118940185Y-43455666D01*
X118940186Y-43455666D01*
X118885001Y-43622203D01*
X118885001Y-43622204D01*
X118885000Y-43622204D01*
X118874500Y-43724983D01*
X118874500Y-45075001D01*
X118874501Y-45075018D01*
X118885000Y-45177796D01*
X118885001Y-45177799D01*
X118940185Y-45344331D01*
X118940187Y-45344336D01*
X118941120Y-45345848D01*
X119018539Y-45471365D01*
X119037000Y-45536461D01*
X119037000Y-45663538D01*
X119018539Y-45728634D01*
X118940189Y-45855659D01*
X118940185Y-45855668D01*
X118940115Y-45855880D01*
X118885001Y-46022203D01*
X118885001Y-46022204D01*
X118885000Y-46022204D01*
X118874500Y-46124983D01*
X118874500Y-47475001D01*
X118874501Y-47475018D01*
X118885000Y-47577796D01*
X118885001Y-47577799D01*
X118940185Y-47744331D01*
X118940187Y-47744336D01*
X118957881Y-47773022D01*
X119032288Y-47893656D01*
X119156344Y-48017712D01*
X119305666Y-48109814D01*
X119472203Y-48164999D01*
X119574991Y-48175500D01*
X120300008Y-48175499D01*
X120300016Y-48175498D01*
X120300019Y-48175498D01*
X120356302Y-48169748D01*
X120402797Y-48164999D01*
X120569334Y-48109814D01*
X120718656Y-48017712D01*
X120842712Y-47893656D01*
X120934814Y-47744334D01*
X120989999Y-47577797D01*
X121000500Y-47475009D01*
X121000499Y-46124992D01*
X120989999Y-46022203D01*
X120934814Y-45855666D01*
X120885367Y-45775499D01*
X120856461Y-45728634D01*
X120838000Y-45663538D01*
X120838000Y-45536461D01*
X120856461Y-45471365D01*
X120934814Y-45344334D01*
X120989999Y-45177797D01*
X121000500Y-45075009D01*
X121000499Y-44173359D01*
X121020183Y-44106321D01*
X121072987Y-44060566D01*
X121142146Y-44050622D01*
X121205702Y-44079647D01*
X121212180Y-44085679D01*
X121763181Y-44636680D01*
X121796666Y-44698003D01*
X121799500Y-44724361D01*
X121799500Y-45075001D01*
X121799501Y-45075019D01*
X121810000Y-45177796D01*
X121810001Y-45177799D01*
X121865185Y-45344331D01*
X121865187Y-45344336D01*
X121866120Y-45345848D01*
X121943538Y-45471364D01*
X121957289Y-45493657D01*
X121975951Y-45512319D01*
X122009436Y-45573642D01*
X122004452Y-45643334D01*
X121975951Y-45687681D01*
X121957289Y-45706342D01*
X121865187Y-45855663D01*
X121865185Y-45855668D01*
X121865115Y-45855880D01*
X121810001Y-46022203D01*
X121810001Y-46022204D01*
X121810000Y-46022204D01*
X121799500Y-46124983D01*
X121799500Y-47475001D01*
X121799501Y-47475018D01*
X121810000Y-47577796D01*
X121810001Y-47577799D01*
X121865185Y-47744331D01*
X121865187Y-47744336D01*
X121882881Y-47773022D01*
X121957288Y-47893656D01*
X122081344Y-48017712D01*
X122230666Y-48109814D01*
X122397203Y-48164999D01*
X122499991Y-48175500D01*
X122913138Y-48175499D01*
X122980177Y-48195183D01*
X123000819Y-48211818D01*
X125806735Y-51017734D01*
X125819372Y-51032529D01*
X125827613Y-51043872D01*
X125879222Y-51090341D01*
X125881578Y-51092577D01*
X125897119Y-51108118D01*
X125914202Y-51121952D01*
X125916670Y-51124060D01*
X125968281Y-51170531D01*
X125968282Y-51170531D01*
X125968284Y-51170533D01*
X125980418Y-51177538D01*
X125996455Y-51188560D01*
X126007349Y-51197382D01*
X126007351Y-51197383D01*
X126069247Y-51228920D01*
X126072052Y-51230443D01*
X126091498Y-51241670D01*
X126132207Y-51265175D01*
X126132212Y-51265177D01*
X126132213Y-51265177D01*
X126132216Y-51265179D01*
X126145550Y-51269511D01*
X126163522Y-51276956D01*
X126176012Y-51283320D01*
X126176014Y-51283320D01*
X126176015Y-51283321D01*
X126194428Y-51288254D01*
X126243101Y-51301296D01*
X126246182Y-51302209D01*
X126312244Y-51323674D01*
X126326188Y-51325139D01*
X126345314Y-51328685D01*
X126354941Y-51331264D01*
X126358855Y-51332313D01*
X126428220Y-51335947D01*
X126431435Y-51336200D01*
X126453308Y-51338500D01*
X126475298Y-51338500D01*
X126478541Y-51338584D01*
X126547888Y-51342219D01*
X126561727Y-51340027D01*
X126581127Y-51338500D01*
X129120500Y-51338500D01*
X129187539Y-51358185D01*
X129233294Y-51410989D01*
X129244500Y-51462500D01*
X129244500Y-67507477D01*
X129245470Y-67532180D01*
X129264538Y-67774478D01*
X129266871Y-67794192D01*
X129273020Y-67833016D01*
X129276893Y-67852490D01*
X129331923Y-68081705D01*
X129337314Y-68100819D01*
X129341949Y-68115081D01*
X129349459Y-68138193D01*
X129355240Y-68153865D01*
X129356328Y-68156812D01*
X129427463Y-68328548D01*
X129434932Y-68398017D01*
X129403657Y-68460496D01*
X129343568Y-68496148D01*
X129312902Y-68500000D01*
X95687097Y-68500000D01*
X95620058Y-68480315D01*
X95574303Y-68427511D01*
X95564359Y-68358353D01*
X95572536Y-68328547D01*
X95580172Y-68310114D01*
X95643670Y-68156817D01*
X95650541Y-68138191D01*
X95655326Y-68123463D01*
X95662690Y-68100803D01*
X95668079Y-68081696D01*
X95723104Y-67852497D01*
X95726977Y-67833026D01*
X95729984Y-67814046D01*
X95733127Y-67794201D01*
X95735461Y-67774484D01*
X95743249Y-67675533D01*
X95739915Y-67565717D01*
X95732479Y-67512654D01*
X95705497Y-67406147D01*
X95682519Y-67364068D01*
X95636546Y-67279876D01*
X95636537Y-67279861D01*
X95594679Y-67223947D01*
X95594676Y-67223944D01*
X95594669Y-67223934D01*
X95566540Y-67195805D01*
X95492936Y-67122201D01*
X95366659Y-67053248D01*
X95366652Y-67053245D01*
X95301188Y-67028827D01*
X95301167Y-67028824D01*
X95276246Y-67023402D01*
X95214924Y-66989916D01*
X95181441Y-66928591D01*
X95178924Y-66893391D01*
X95190610Y-66730001D01*
X95190610Y-66729999D01*
X95186176Y-66668001D01*
X95180686Y-66591250D01*
X95195538Y-66522979D01*
X95244943Y-66473573D01*
X95269432Y-66463429D01*
X95387504Y-66428760D01*
X95508543Y-66350972D01*
X95561347Y-66305217D01*
X95655567Y-66196483D01*
X95715338Y-66065606D01*
X95729620Y-66016965D01*
X95735022Y-65998572D01*
X95735023Y-65998566D01*
X95735024Y-65998563D01*
X95755500Y-65856147D01*
X95755500Y-51373852D01*
X95739796Y-51248832D01*
X95724626Y-51189400D01*
X95678484Y-51072137D01*
X95678484Y-51072136D01*
X95678482Y-51072134D01*
X95645296Y-51027808D01*
X95592254Y-50956959D01*
X95542846Y-50907556D01*
X95427663Y-50821340D01*
X95427661Y-50821339D01*
X95292853Y-50771065D01*
X95278079Y-50767852D01*
X95216755Y-50734368D01*
X95183269Y-50673045D01*
X95180751Y-50637841D01*
X95190610Y-50500000D01*
X95186175Y-50437998D01*
X95178744Y-50334094D01*
X95193596Y-50265821D01*
X95243001Y-50216416D01*
X95275206Y-50204273D01*
X95285029Y-50202063D01*
X95285031Y-50202062D01*
X95285059Y-50202051D01*
X95287038Y-50201346D01*
X95287885Y-50200973D01*
X95419477Y-50150819D01*
X95534040Y-50063774D01*
X95583091Y-50014017D01*
X95583094Y-50014011D01*
X95583100Y-50014006D01*
X95659661Y-49910194D01*
X95668490Y-49898223D01*
X95717807Y-49763059D01*
X95732171Y-49694681D01*
X95732171Y-49694679D01*
X95732171Y-49694666D01*
X95732263Y-49693789D01*
X95732299Y-49692687D01*
X95741409Y-49551096D01*
X95735460Y-49475512D01*
X95733126Y-49455794D01*
X95726976Y-49416969D01*
X95724388Y-49403958D01*
X95723104Y-49397499D01*
X95668079Y-49168304D01*
X95662690Y-49149196D01*
X95653307Y-49120321D01*
X95650541Y-49111808D01*
X95643670Y-49093182D01*
X95553464Y-48875408D01*
X95545151Y-48857375D01*
X95527303Y-48822348D01*
X95522175Y-48813191D01*
X95517604Y-48805028D01*
X95394446Y-48604055D01*
X95383413Y-48587544D01*
X95370615Y-48569930D01*
X95360306Y-48555741D01*
X95356783Y-48551272D01*
X95348018Y-48540153D01*
X95194937Y-48360917D01*
X95181460Y-48346338D01*
X95153661Y-48318539D01*
X95139082Y-48305062D01*
X94959846Y-48151981D01*
X94944259Y-48139694D01*
X94940361Y-48136862D01*
X94923328Y-48124486D01*
X94912455Y-48116586D01*
X94895944Y-48105553D01*
X94694971Y-47982395D01*
X94677651Y-47972696D01*
X94642625Y-47954848D01*
X94634311Y-47951015D01*
X94624590Y-47946534D01*
X94406812Y-47856328D01*
X94388193Y-47849459D01*
X94350820Y-47837315D01*
X94345427Y-47835793D01*
X94331704Y-47831922D01*
X94134858Y-47784664D01*
X94102494Y-47776894D01*
X94083028Y-47773022D01*
X94044208Y-47766873D01*
X94024485Y-47764538D01*
X93782180Y-47745470D01*
X93757477Y-47744500D01*
X93219359Y-47744500D01*
X93192320Y-47745949D01*
X93192312Y-47745949D01*
X93192309Y-47745950D01*
X93192307Y-47745950D01*
X93181978Y-47747061D01*
X93151081Y-47746509D01*
X93137110Y-47744500D01*
X93137102Y-47744500D01*
X90520786Y-47744500D01*
X90453747Y-47724815D01*
X90407992Y-47672011D01*
X90398048Y-47602854D01*
X90401650Y-47577797D01*
X90405647Y-47550000D01*
X90405647Y-47100307D01*
X90411715Y-47061992D01*
X90435674Y-46988256D01*
X90450500Y-46847192D01*
X90450500Y-43378543D01*
X90452027Y-43359143D01*
X90454219Y-43345306D01*
X90450585Y-43275965D01*
X90450500Y-43272720D01*
X90450500Y-43250731D01*
X90450500Y-43250726D01*
X90448199Y-43228839D01*
X90447946Y-43225629D01*
X90444312Y-43156272D01*
X90444311Y-43156266D01*
X90440687Y-43142743D01*
X90437139Y-43123602D01*
X90435953Y-43112319D01*
X90435674Y-43109662D01*
X90414214Y-43043617D01*
X90413291Y-43040503D01*
X90408030Y-43020868D01*
X90395320Y-42973430D01*
X90388954Y-42960937D01*
X90381508Y-42942960D01*
X90377178Y-42929632D01*
X90377175Y-42929625D01*
X90347193Y-42877698D01*
X90342443Y-42869470D01*
X90340920Y-42866665D01*
X90309383Y-42804769D01*
X90309382Y-42804767D01*
X90300560Y-42793873D01*
X90289538Y-42777836D01*
X90289517Y-42777799D01*
X90282533Y-42765702D01*
X90282531Y-42765700D01*
X90282531Y-42765699D01*
X90236060Y-42714088D01*
X90233952Y-42711620D01*
X90220118Y-42694537D01*
X90204577Y-42678996D01*
X90202341Y-42676640D01*
X90155872Y-42625031D01*
X90155871Y-42625030D01*
X90144525Y-42616787D01*
X90129734Y-42604153D01*
X87470846Y-39945265D01*
X87458208Y-39930468D01*
X87449969Y-39919128D01*
X87398359Y-39872657D01*
X87396004Y-39870423D01*
X87380464Y-39854882D01*
X87363377Y-39841043D01*
X87360913Y-39838939D01*
X87309302Y-39792470D01*
X87309295Y-39792465D01*
X87297152Y-39785454D01*
X87281125Y-39774438D01*
X87270235Y-39765620D01*
X87270233Y-39765619D01*
X87270231Y-39765617D01*
X87251341Y-39755992D01*
X87208348Y-39734085D01*
X87205496Y-39732537D01*
X87145364Y-39697820D01*
X87132031Y-39693488D01*
X87114060Y-39686043D01*
X87101580Y-39679684D01*
X87101568Y-39679679D01*
X87034491Y-39661705D01*
X87031391Y-39660787D01*
X86965338Y-39639326D01*
X86965333Y-39639325D01*
X86965331Y-39639325D01*
X86951396Y-39637860D01*
X86932271Y-39634315D01*
X86918735Y-39630688D01*
X86918725Y-39630686D01*
X86849372Y-39627051D01*
X86846141Y-39626797D01*
X86831619Y-39625271D01*
X86824274Y-39624500D01*
X86824271Y-39624500D01*
X86802285Y-39624500D01*
X86799041Y-39624415D01*
X86729694Y-39620781D01*
X86729693Y-39620781D01*
X86715854Y-39622973D01*
X86696455Y-39624500D01*
X84743127Y-39624500D01*
X84723728Y-39622973D01*
X84709888Y-39620781D01*
X84640540Y-39624415D01*
X84637297Y-39624500D01*
X84615308Y-39624500D01*
X84609059Y-39625156D01*
X84593441Y-39626797D01*
X84590210Y-39627051D01*
X84520852Y-39630686D01*
X84507312Y-39634315D01*
X84488186Y-39637860D01*
X84474245Y-39639325D01*
X84474242Y-39639326D01*
X84408192Y-39660785D01*
X84405084Y-39661706D01*
X84338012Y-39679680D01*
X84325520Y-39686045D01*
X84307553Y-39693487D01*
X84294213Y-39697821D01*
X84234092Y-39732533D01*
X84231240Y-39734082D01*
X84169353Y-39765616D01*
X84169337Y-39765626D01*
X84158448Y-39774444D01*
X84142423Y-39785458D01*
X84130285Y-39792466D01*
X84130281Y-39792468D01*
X84107470Y-39813008D01*
X84044478Y-39843236D01*
X83975143Y-39834610D01*
X83921478Y-39789867D01*
X83900522Y-39723214D01*
X83900500Y-39720856D01*
X83900500Y-36325004D01*
X86381958Y-36325004D01*
X86402094Y-36593719D01*
X86402095Y-36593724D01*
X86462058Y-36856442D01*
X86462060Y-36856451D01*
X86462062Y-36856456D01*
X86560515Y-37107311D01*
X86695257Y-37340690D01*
X86732851Y-37387831D01*
X86863280Y-37551384D01*
X87040773Y-37716072D01*
X87060822Y-37734675D01*
X87283479Y-37886480D01*
X87283484Y-37886482D01*
X87283485Y-37886483D01*
X87283486Y-37886484D01*
X87376929Y-37931483D01*
X87526271Y-38003402D01*
X87526272Y-38003402D01*
X87526275Y-38003404D01*
X87783785Y-38082836D01*
X87783786Y-38082836D01*
X87783789Y-38082837D01*
X88050251Y-38122999D01*
X88050256Y-38122999D01*
X88050259Y-38123000D01*
X88050260Y-38123000D01*
X88319740Y-38123000D01*
X88319741Y-38123000D01*
X88319748Y-38122999D01*
X88586210Y-38082837D01*
X88586211Y-38082836D01*
X88586215Y-38082836D01*
X88843725Y-38003404D01*
X89049544Y-37904287D01*
X89086513Y-37886484D01*
X89086513Y-37886483D01*
X89086521Y-37886480D01*
X89309178Y-37734675D01*
X89506723Y-37551380D01*
X89674743Y-37340690D01*
X89809485Y-37107311D01*
X89907938Y-36856456D01*
X89967904Y-36593729D01*
X89967905Y-36593719D01*
X89988042Y-36325004D01*
X97367751Y-36325004D01*
X97387887Y-36593719D01*
X97387888Y-36593724D01*
X97447851Y-36856442D01*
X97447853Y-36856451D01*
X97447855Y-36856456D01*
X97546308Y-37107311D01*
X97681050Y-37340690D01*
X97718644Y-37387831D01*
X97849073Y-37551384D01*
X98026566Y-37716072D01*
X98046615Y-37734675D01*
X98269272Y-37886480D01*
X98269277Y-37886482D01*
X98269278Y-37886483D01*
X98269279Y-37886484D01*
X98362722Y-37931483D01*
X98512064Y-38003402D01*
X98512065Y-38003402D01*
X98512068Y-38003404D01*
X98769578Y-38082836D01*
X98769579Y-38082836D01*
X98769582Y-38082837D01*
X99036044Y-38122999D01*
X99036049Y-38122999D01*
X99036052Y-38123000D01*
X99171631Y-38123000D01*
X99238670Y-38142685D01*
X99284425Y-38195489D01*
X99293112Y-38241023D01*
X99295441Y-38240901D01*
X99295780Y-38247385D01*
X99297973Y-38261225D01*
X99299500Y-38280626D01*
X99299500Y-47719373D01*
X99297973Y-47738772D01*
X99297093Y-47744331D01*
X99295781Y-47752612D01*
X99298744Y-47809163D01*
X99299415Y-47821956D01*
X99299500Y-47825201D01*
X99299500Y-47847192D01*
X99299738Y-47849453D01*
X99301797Y-47869059D01*
X99302051Y-47872290D01*
X99305686Y-47941643D01*
X99305688Y-47941653D01*
X99309315Y-47955189D01*
X99312860Y-47974314D01*
X99312972Y-47975376D01*
X99314326Y-47988256D01*
X99335485Y-48053380D01*
X99335784Y-48054298D01*
X99336705Y-48057409D01*
X99354679Y-48124486D01*
X99354684Y-48124498D01*
X99361043Y-48136978D01*
X99368488Y-48154949D01*
X99372820Y-48168282D01*
X99407537Y-48228414D01*
X99409085Y-48231266D01*
X99430992Y-48274259D01*
X99440617Y-48293149D01*
X99440619Y-48293151D01*
X99440620Y-48293153D01*
X99449438Y-48304043D01*
X99460454Y-48320070D01*
X99467465Y-48332213D01*
X99467470Y-48332220D01*
X99513939Y-48383831D01*
X99516043Y-48386295D01*
X99529882Y-48403382D01*
X99545423Y-48418922D01*
X99547657Y-48421277D01*
X99594128Y-48472887D01*
X99605468Y-48481126D01*
X99620265Y-48493764D01*
X99981235Y-48854734D01*
X99993869Y-48869525D01*
X99998137Y-48875400D01*
X100002113Y-48880872D01*
X100053722Y-48927341D01*
X100056071Y-48929570D01*
X100071620Y-48945119D01*
X100088684Y-48958938D01*
X100088702Y-48958952D01*
X100091170Y-48961060D01*
X100142781Y-49007531D01*
X100142782Y-49007531D01*
X100142784Y-49007533D01*
X100142786Y-49007534D01*
X100154918Y-49014538D01*
X100170955Y-49025560D01*
X100181849Y-49034382D01*
X100181851Y-49034383D01*
X100243747Y-49065920D01*
X100246552Y-49067443D01*
X100265998Y-49078670D01*
X100306707Y-49102175D01*
X100306715Y-49102178D01*
X100306716Y-49102179D01*
X100320046Y-49106510D01*
X100338019Y-49113954D01*
X100350512Y-49120320D01*
X100417590Y-49138292D01*
X100420699Y-49139214D01*
X100433933Y-49143514D01*
X100486744Y-49160674D01*
X100497116Y-49161763D01*
X100500684Y-49162139D01*
X100519825Y-49165687D01*
X100533348Y-49169311D01*
X100533354Y-49169312D01*
X100602711Y-49172946D01*
X100605921Y-49173199D01*
X100627808Y-49175500D01*
X100649803Y-49175500D01*
X100653046Y-49175584D01*
X100722388Y-49179219D01*
X100736227Y-49177027D01*
X100755627Y-49175500D01*
X102906873Y-49175500D01*
X102926272Y-49177027D01*
X102940112Y-49179219D01*
X103009459Y-49175584D01*
X103012703Y-49175500D01*
X103034691Y-49175500D01*
X103034692Y-49175500D01*
X103051488Y-49173734D01*
X103056564Y-49173201D01*
X103059784Y-49172947D01*
X103129146Y-49169313D01*
X103142687Y-49165683D01*
X103161813Y-49162138D01*
X103175756Y-49160674D01*
X103241806Y-49139212D01*
X103244868Y-49138304D01*
X103311988Y-49120320D01*
X103324476Y-49113956D01*
X103342450Y-49106510D01*
X103355784Y-49102179D01*
X103415976Y-49067425D01*
X103418722Y-49065934D01*
X103480649Y-49034383D01*
X103491531Y-49025569D01*
X103507583Y-49014537D01*
X103519716Y-49007533D01*
X103571347Y-48961043D01*
X103573760Y-48958982D01*
X103590880Y-48945119D01*
X103606429Y-48929568D01*
X103608777Y-48927341D01*
X103660388Y-48880871D01*
X103668630Y-48869525D01*
X103681260Y-48854737D01*
X104324180Y-48211817D01*
X104385503Y-48178333D01*
X104411861Y-48175499D01*
X104825002Y-48175499D01*
X104825008Y-48175499D01*
X104927797Y-48164999D01*
X105094334Y-48109814D01*
X105243656Y-48017712D01*
X105339284Y-47922083D01*
X105400603Y-47888601D01*
X105470295Y-47893585D01*
X105508162Y-47916052D01*
X105576627Y-47975377D01*
X105707543Y-48035165D01*
X105850000Y-48055647D01*
X105850003Y-48055647D01*
X106850000Y-48055647D01*
X106913541Y-48051639D01*
X106913541Y-48051638D01*
X106917694Y-48051377D01*
X106985839Y-48066802D01*
X107034828Y-48116621D01*
X107049500Y-48175131D01*
X107049500Y-48531873D01*
X107047972Y-48551272D01*
X107045781Y-48565112D01*
X107046956Y-48587543D01*
X107049415Y-48634456D01*
X107049500Y-48637701D01*
X107049500Y-48659689D01*
X107051797Y-48681559D01*
X107052051Y-48684790D01*
X107055686Y-48754143D01*
X107055688Y-48754153D01*
X107059315Y-48767689D01*
X107062860Y-48786814D01*
X107064325Y-48800749D01*
X107064326Y-48800756D01*
X107084106Y-48861636D01*
X107085784Y-48866798D01*
X107086705Y-48869909D01*
X107104679Y-48936986D01*
X107104684Y-48936998D01*
X107111043Y-48949478D01*
X107118488Y-48967449D01*
X107122820Y-48980782D01*
X107157537Y-49040914D01*
X107159085Y-49043766D01*
X107180992Y-49086759D01*
X107190617Y-49105649D01*
X107190619Y-49105651D01*
X107190620Y-49105653D01*
X107199438Y-49116543D01*
X107210454Y-49132570D01*
X107217465Y-49144713D01*
X107217470Y-49144720D01*
X107263939Y-49196331D01*
X107266043Y-49198795D01*
X107279882Y-49215882D01*
X107295423Y-49231422D01*
X107297657Y-49233777D01*
X107344128Y-49285387D01*
X107355468Y-49293626D01*
X107370265Y-49306264D01*
X110486380Y-52422380D01*
X110519865Y-52483703D01*
X110522694Y-52511125D01*
X110501672Y-54961609D01*
X110481414Y-55028477D01*
X110428219Y-55073777D01*
X110416683Y-55078250D01*
X110380668Y-55090184D01*
X110231342Y-55182289D01*
X110107289Y-55306342D01*
X110015187Y-55455663D01*
X110015185Y-55455668D01*
X109960000Y-55622204D01*
X109957226Y-55649357D01*
X109946664Y-55688259D01*
X109934664Y-55714535D01*
X109934658Y-55714553D01*
X109914978Y-55781575D01*
X109914976Y-55781580D01*
X109894500Y-55924001D01*
X109894500Y-56970500D01*
X109874815Y-57037539D01*
X109822011Y-57083294D01*
X109770500Y-57094500D01*
X107324000Y-57094500D01*
X107323991Y-57094500D01*
X107323990Y-57094501D01*
X107216549Y-57106052D01*
X107216537Y-57106054D01*
X107165027Y-57117260D01*
X107062502Y-57151383D01*
X107062496Y-57151386D01*
X106941462Y-57229171D01*
X106941451Y-57229179D01*
X106888659Y-57274923D01*
X106794433Y-57383664D01*
X106794430Y-57383668D01*
X106734664Y-57514534D01*
X106714978Y-57581575D01*
X106714976Y-57581580D01*
X106706200Y-57642624D01*
X106694500Y-57724000D01*
X106694500Y-60276000D01*
X106694501Y-60276009D01*
X106706052Y-60383450D01*
X106706054Y-60383462D01*
X106717260Y-60434972D01*
X106751383Y-60537497D01*
X106751386Y-60537503D01*
X106829171Y-60658537D01*
X106829179Y-60658548D01*
X106874923Y-60711340D01*
X106874926Y-60711343D01*
X106874930Y-60711347D01*
X106983664Y-60805567D01*
X106983667Y-60805568D01*
X106983668Y-60805569D01*
X107077925Y-60848616D01*
X107114541Y-60865338D01*
X107155054Y-60877234D01*
X107181575Y-60885022D01*
X107181580Y-60885023D01*
X107181584Y-60885024D01*
X107324000Y-60905500D01*
X107324003Y-60905500D01*
X111710304Y-60905500D01*
X111710314Y-60905500D01*
X111817770Y-60893947D01*
X111869281Y-60882741D01*
X111921577Y-60865335D01*
X111971816Y-60848614D01*
X111971818Y-60848613D01*
X112016829Y-60819686D01*
X112083868Y-60800000D01*
X113144499Y-60800000D01*
X113196010Y-60811205D01*
X113314541Y-60865338D01*
X113355054Y-60877234D01*
X113381575Y-60885022D01*
X113381580Y-60885023D01*
X113381584Y-60885024D01*
X113524000Y-60905500D01*
X113524003Y-60905500D01*
X117910304Y-60905500D01*
X117910314Y-60905500D01*
X118017770Y-60893947D01*
X118069281Y-60882741D01*
X118103511Y-60871347D01*
X118171811Y-60848616D01*
X118171815Y-60848613D01*
X118171818Y-60848613D01*
X118292857Y-60770825D01*
X118345661Y-60725070D01*
X118439881Y-60616336D01*
X118499652Y-60485459D01*
X118514478Y-60434967D01*
X118519336Y-60418425D01*
X118519337Y-60418419D01*
X118519338Y-60418416D01*
X118539814Y-60276000D01*
X118539814Y-57724000D01*
X118528261Y-57616544D01*
X118517055Y-57565033D01*
X118516951Y-57564722D01*
X118482930Y-57462502D01*
X118482927Y-57462496D01*
X118405142Y-57341462D01*
X118405139Y-57341457D01*
X118396680Y-57331695D01*
X118359390Y-57288659D01*
X118359386Y-57288656D01*
X118359384Y-57288653D01*
X118250650Y-57194433D01*
X118250647Y-57194431D01*
X118250645Y-57194430D01*
X118119779Y-57134664D01*
X118119774Y-57134662D01*
X118119773Y-57134662D01*
X118097172Y-57128025D01*
X118052739Y-57114978D01*
X118052733Y-57114976D01*
X117965935Y-57102497D01*
X117910314Y-57094500D01*
X117910312Y-57094500D01*
X115474500Y-57094500D01*
X115407461Y-57074815D01*
X115361706Y-57022011D01*
X115350500Y-56970500D01*
X115350499Y-55724998D01*
X115350498Y-55724981D01*
X115339999Y-55622203D01*
X115339998Y-55622200D01*
X115307452Y-55523984D01*
X115284814Y-55455666D01*
X115192712Y-55306344D01*
X115068656Y-55182288D01*
X114919334Y-55090186D01*
X114817440Y-55056421D01*
X114759997Y-55016649D01*
X114733174Y-54952133D01*
X114732451Y-54939791D01*
X114731673Y-54849007D01*
X114737963Y-54808939D01*
X114739999Y-54802797D01*
X114750500Y-54700009D01*
X114750499Y-53699992D01*
X114739999Y-53597203D01*
X114739845Y-53596739D01*
X114726550Y-53556616D01*
X114720261Y-53518677D01*
X114706537Y-51918618D01*
X114706536Y-51918611D01*
X114706536Y-51918600D01*
X114694537Y-51813366D01*
X114692929Y-51806125D01*
X114683338Y-51762925D01*
X114683334Y-51762911D01*
X114660893Y-51695970D01*
X114649673Y-51662496D01*
X114571885Y-51541457D01*
X114571880Y-51541451D01*
X114526136Y-51488659D01*
X114526132Y-51488656D01*
X114526130Y-51488653D01*
X114417396Y-51394433D01*
X114417393Y-51394431D01*
X114417391Y-51394430D01*
X114286525Y-51334664D01*
X114286520Y-51334662D01*
X114286519Y-51334662D01*
X114263918Y-51328025D01*
X114219485Y-51314978D01*
X114219479Y-51314976D01*
X114124293Y-51301291D01*
X114077060Y-51294500D01*
X113124000Y-51294500D01*
X113123991Y-51294500D01*
X113123990Y-51294501D01*
X113016549Y-51306052D01*
X113016537Y-51306054D01*
X112965027Y-51317260D01*
X112862502Y-51351383D01*
X112862496Y-51351386D01*
X112741462Y-51429171D01*
X112741458Y-51429173D01*
X112697303Y-51467435D01*
X112633747Y-51496460D01*
X112564589Y-51486516D01*
X112534897Y-51467434D01*
X112450653Y-51394435D01*
X112450645Y-51394430D01*
X112319779Y-51334664D01*
X112319774Y-51334662D01*
X112319773Y-51334662D01*
X112297172Y-51328025D01*
X112252739Y-51314978D01*
X112252733Y-51314976D01*
X112157547Y-51301291D01*
X112110314Y-51294500D01*
X112110312Y-51294500D01*
X111956862Y-51294500D01*
X111889823Y-51274815D01*
X111869181Y-51258181D01*
X108886819Y-48275818D01*
X108853334Y-48214495D01*
X108850500Y-48188137D01*
X108850500Y-45568126D01*
X108852027Y-45548725D01*
X108854219Y-45534888D01*
X108850584Y-45465540D01*
X108850500Y-45462297D01*
X108850500Y-45440309D01*
X108850499Y-45440300D01*
X108848201Y-45418436D01*
X108847947Y-45415220D01*
X108844313Y-45345855D01*
X108840685Y-45332314D01*
X108837139Y-45313188D01*
X108835674Y-45299244D01*
X108814209Y-45233182D01*
X108813296Y-45230101D01*
X108795320Y-45163012D01*
X108788956Y-45150522D01*
X108781511Y-45132550D01*
X108777179Y-45119216D01*
X108777174Y-45119207D01*
X108742453Y-45059069D01*
X108740903Y-45056214D01*
X108709383Y-44994351D01*
X108700557Y-44983452D01*
X108689540Y-44967420D01*
X108687065Y-44963133D01*
X108682533Y-44955284D01*
X108656514Y-44926387D01*
X108636058Y-44903668D01*
X108633964Y-44901216D01*
X108620120Y-44884120D01*
X108604568Y-44868568D01*
X108602348Y-44866230D01*
X108555871Y-44814612D01*
X108555869Y-44814610D01*
X108544529Y-44806371D01*
X108529736Y-44793736D01*
X105561818Y-41825818D01*
X105528333Y-41764495D01*
X105525499Y-41738137D01*
X105525499Y-41324998D01*
X105525498Y-41324981D01*
X105514999Y-41222203D01*
X105514998Y-41222200D01*
X105459814Y-41055666D01*
X105367712Y-40906344D01*
X105243656Y-40782288D01*
X105094334Y-40690186D01*
X104927797Y-40635001D01*
X104927795Y-40635000D01*
X104825016Y-40624500D01*
X104825009Y-40624500D01*
X104324500Y-40624500D01*
X104257461Y-40604815D01*
X104211706Y-40552011D01*
X104200500Y-40500500D01*
X104200500Y-40080154D01*
X104220185Y-40013115D01*
X104236819Y-39992473D01*
X105159789Y-39069503D01*
X106113445Y-38115846D01*
X106174766Y-38082363D01*
X106224917Y-38082622D01*
X106224990Y-38082144D01*
X106228278Y-38082639D01*
X106228736Y-38082642D01*
X106229548Y-38082826D01*
X106229578Y-38082836D01*
X106448601Y-38115848D01*
X106496044Y-38122999D01*
X106496049Y-38122999D01*
X106496052Y-38123000D01*
X106496053Y-38123000D01*
X106765533Y-38123000D01*
X106765534Y-38123000D01*
X106765541Y-38122999D01*
X107032003Y-38082837D01*
X107032004Y-38082836D01*
X107032008Y-38082836D01*
X107289518Y-38003404D01*
X107495337Y-37904287D01*
X107532306Y-37886484D01*
X107532306Y-37886483D01*
X107532314Y-37886480D01*
X107754971Y-37734675D01*
X107952516Y-37551380D01*
X108120536Y-37340690D01*
X108255278Y-37107311D01*
X108353731Y-36856456D01*
X108413697Y-36593729D01*
X108413698Y-36593719D01*
X108433835Y-36325004D01*
X108433835Y-36324995D01*
X108413698Y-36056280D01*
X108413697Y-36056275D01*
X108413697Y-36056271D01*
X108353731Y-35793544D01*
X108255278Y-35542689D01*
X108120536Y-35309310D01*
X107952516Y-35098620D01*
X107952515Y-35098619D01*
X107952512Y-35098615D01*
X107754971Y-34915325D01*
X107532314Y-34763520D01*
X107532310Y-34763518D01*
X107532307Y-34763516D01*
X107532306Y-34763515D01*
X107289520Y-34646597D01*
X107289522Y-34646597D01*
X107032009Y-34567164D01*
X107032003Y-34567162D01*
X106765541Y-34527000D01*
X106765534Y-34527000D01*
X106496052Y-34527000D01*
X106496044Y-34527000D01*
X106229582Y-34567162D01*
X106229576Y-34567164D01*
X105972064Y-34646597D01*
X105729279Y-34763515D01*
X105729278Y-34763516D01*
X105506614Y-34915325D01*
X105309073Y-35098615D01*
X105141050Y-35309310D01*
X105006308Y-35542688D01*
X104907857Y-35793538D01*
X104907851Y-35793557D01*
X104847888Y-36056275D01*
X104847887Y-36056280D01*
X104827751Y-36324995D01*
X104827751Y-36325004D01*
X104847888Y-36593726D01*
X104877363Y-36722864D01*
X104873090Y-36792603D01*
X104844153Y-36838138D01*
X102720263Y-38962029D01*
X102705474Y-38974662D01*
X102694126Y-38982907D01*
X102647666Y-39034506D01*
X102645435Y-39036858D01*
X102629890Y-39052403D01*
X102629875Y-39052420D01*
X102616039Y-39069503D01*
X102613936Y-39071965D01*
X102567469Y-39123574D01*
X102567466Y-39123578D01*
X102560458Y-39135716D01*
X102549444Y-39151741D01*
X102540626Y-39162630D01*
X102540616Y-39162646D01*
X102509082Y-39224533D01*
X102507533Y-39227385D01*
X102472821Y-39287506D01*
X102468487Y-39300846D01*
X102461045Y-39318813D01*
X102454680Y-39331305D01*
X102436706Y-39398377D01*
X102435785Y-39401485D01*
X102414326Y-39467535D01*
X102414325Y-39467538D01*
X102412860Y-39481479D01*
X102409315Y-39500605D01*
X102405686Y-39514145D01*
X102402051Y-39583503D01*
X102401797Y-39586734D01*
X102399500Y-39608603D01*
X102399500Y-39630590D01*
X102399415Y-39633835D01*
X102395781Y-39703180D01*
X102397973Y-39717018D01*
X102399500Y-39736419D01*
X102399500Y-40609978D01*
X102379815Y-40677017D01*
X102327011Y-40722772D01*
X102257853Y-40732716D01*
X102210405Y-40715518D01*
X102187912Y-40701645D01*
X102169334Y-40690186D01*
X102002797Y-40635001D01*
X102002795Y-40635000D01*
X101900016Y-40624500D01*
X101224499Y-40624500D01*
X101157460Y-40604815D01*
X101111705Y-40552011D01*
X101100499Y-40500504D01*
X101100499Y-38624359D01*
X101120184Y-38557321D01*
X101136813Y-38536684D01*
X103480530Y-36192967D01*
X103495318Y-36180337D01*
X103506664Y-36172095D01*
X103553140Y-36120477D01*
X103555363Y-36118135D01*
X103570912Y-36102587D01*
X103584775Y-36085467D01*
X103586842Y-36083048D01*
X103633326Y-36031423D01*
X103640331Y-36019287D01*
X103651363Y-36003238D01*
X103660174Y-35992358D01*
X103660176Y-35992356D01*
X103667836Y-35977322D01*
X103691727Y-35930429D01*
X103693218Y-35927683D01*
X103727972Y-35867491D01*
X103732303Y-35854157D01*
X103739749Y-35836183D01*
X103746113Y-35823695D01*
X103764097Y-35756575D01*
X103765009Y-35753502D01*
X103786467Y-35687463D01*
X103787931Y-35673520D01*
X103791476Y-35654394D01*
X103795106Y-35640853D01*
X103798740Y-35571491D01*
X103798994Y-35568271D01*
X103799527Y-35563195D01*
X103801293Y-35546399D01*
X103801293Y-35524372D01*
X103801375Y-35521205D01*
X103805012Y-35451819D01*
X103802820Y-35437979D01*
X103801293Y-35418580D01*
X103801293Y-35158582D01*
X103820978Y-35091543D01*
X103837612Y-35070901D01*
X103857767Y-35050746D01*
X103902762Y-35005751D01*
X104033534Y-34818989D01*
X104129889Y-34612354D01*
X104188899Y-34392128D01*
X104208770Y-34165000D01*
X104188899Y-33937872D01*
X104129889Y-33717646D01*
X104033534Y-33511012D01*
X103902762Y-33324249D01*
X103741544Y-33163031D01*
X103741540Y-33163028D01*
X103741539Y-33163027D01*
X103554786Y-33032261D01*
X103554782Y-33032259D01*
X103444650Y-32980904D01*
X103348147Y-32935904D01*
X103348144Y-32935903D01*
X103348142Y-32935902D01*
X103127922Y-32876894D01*
X103127915Y-32876893D01*
X102900795Y-32857023D01*
X102900791Y-32857023D01*
X102673670Y-32876893D01*
X102673663Y-32876894D01*
X102453435Y-32935905D01*
X102246806Y-33032258D01*
X102246804Y-33032259D01*
X102060039Y-33163032D01*
X101898825Y-33324246D01*
X101768052Y-33511011D01*
X101768051Y-33511013D01*
X101671698Y-33717642D01*
X101612687Y-33937870D01*
X101612686Y-33937877D01*
X101592816Y-34164998D01*
X101592816Y-34165001D01*
X101612686Y-34392122D01*
X101612687Y-34392129D01*
X101671695Y-34612349D01*
X101671696Y-34612351D01*
X101671697Y-34612354D01*
X101731783Y-34741210D01*
X101768052Y-34818989D01*
X101768054Y-34818993D01*
X101898820Y-35005746D01*
X101898825Y-35005752D01*
X101922105Y-35029032D01*
X101955590Y-35090355D01*
X101950606Y-35160047D01*
X101922105Y-35204394D01*
X101133999Y-35992500D01*
X101072676Y-36025985D01*
X101002984Y-36021001D01*
X100947051Y-35979129D01*
X100925427Y-35932412D01*
X100904002Y-35838544D01*
X100893731Y-35793544D01*
X100795278Y-35542689D01*
X100660536Y-35309310D01*
X100492516Y-35098620D01*
X100492515Y-35098619D01*
X100492512Y-35098615D01*
X100294971Y-34915325D01*
X100294970Y-34915324D01*
X100072314Y-34763520D01*
X100072310Y-34763518D01*
X100072307Y-34763516D01*
X100072306Y-34763515D01*
X99829520Y-34646597D01*
X99829522Y-34646597D01*
X99572009Y-34567164D01*
X99572003Y-34567162D01*
X99305541Y-34527000D01*
X99305534Y-34527000D01*
X99036052Y-34527000D01*
X99036044Y-34527000D01*
X98769582Y-34567162D01*
X98769576Y-34567164D01*
X98512064Y-34646597D01*
X98269279Y-34763515D01*
X98269278Y-34763516D01*
X98046614Y-34915325D01*
X97849073Y-35098615D01*
X97681050Y-35309310D01*
X97546308Y-35542688D01*
X97447857Y-35793538D01*
X97447851Y-35793557D01*
X97387888Y-36056275D01*
X97387887Y-36056280D01*
X97367751Y-36324995D01*
X97367751Y-36325004D01*
X89988042Y-36325004D01*
X89988042Y-36324995D01*
X89967905Y-36056280D01*
X89967904Y-36056275D01*
X89967904Y-36056271D01*
X89907938Y-35793544D01*
X89809485Y-35542689D01*
X89674743Y-35309310D01*
X89506723Y-35098620D01*
X89506722Y-35098619D01*
X89506719Y-35098615D01*
X89309178Y-34915325D01*
X89309177Y-34915325D01*
X89086521Y-34763520D01*
X89086517Y-34763518D01*
X89086514Y-34763516D01*
X89086513Y-34763515D01*
X88843727Y-34646597D01*
X88843729Y-34646597D01*
X88586216Y-34567164D01*
X88586210Y-34567162D01*
X88319748Y-34527000D01*
X88319741Y-34527000D01*
X88050259Y-34527000D01*
X88050251Y-34527000D01*
X87783789Y-34567162D01*
X87783783Y-34567164D01*
X87526271Y-34646597D01*
X87283486Y-34763515D01*
X87283485Y-34763516D01*
X87060821Y-34915325D01*
X86863280Y-35098615D01*
X86695257Y-35309310D01*
X86560515Y-35542688D01*
X86462064Y-35793538D01*
X86462058Y-35793557D01*
X86402095Y-36056275D01*
X86402094Y-36056280D01*
X86381958Y-36324995D01*
X86381958Y-36325004D01*
X83900500Y-36325004D01*
X83900500Y-36044361D01*
X83920185Y-35977322D01*
X83936819Y-35956680D01*
X84141639Y-35751860D01*
X84385304Y-35508194D01*
X84446625Y-35474711D01*
X84462173Y-35472349D01*
X84682128Y-35453106D01*
X84902354Y-35394096D01*
X85108989Y-35297741D01*
X85295751Y-35166969D01*
X85456969Y-35005751D01*
X85587741Y-34818989D01*
X85684096Y-34612354D01*
X85743106Y-34392128D01*
X85762977Y-34165000D01*
X85743106Y-33937872D01*
X85684096Y-33717646D01*
X85587741Y-33511012D01*
X85456969Y-33324249D01*
X85295751Y-33163031D01*
X85295747Y-33163028D01*
X85295746Y-33163027D01*
X85108993Y-33032261D01*
X85108989Y-33032259D01*
X84998857Y-32980904D01*
X84902354Y-32935904D01*
X84902351Y-32935903D01*
X84902349Y-32935902D01*
X84682129Y-32876894D01*
X84682122Y-32876893D01*
X84455002Y-32857023D01*
X84454998Y-32857023D01*
X84227877Y-32876893D01*
X84227870Y-32876894D01*
X84007642Y-32935905D01*
X83801013Y-33032258D01*
X83801011Y-33032259D01*
X83614246Y-33163032D01*
X83453032Y-33324246D01*
X83322259Y-33511011D01*
X83322258Y-33511013D01*
X83225905Y-33717642D01*
X83166894Y-33937870D01*
X83166893Y-33937876D01*
X83147650Y-34157822D01*
X83122197Y-34222890D01*
X83111803Y-34234695D01*
X82420263Y-34926236D01*
X82405474Y-34938869D01*
X82394126Y-34947114D01*
X82347666Y-34998713D01*
X82345435Y-35001065D01*
X82329890Y-35016610D01*
X82329875Y-35016627D01*
X82316039Y-35033710D01*
X82313936Y-35036172D01*
X82267469Y-35087781D01*
X82267468Y-35087781D01*
X82262073Y-35097127D01*
X82211504Y-35145341D01*
X82142896Y-35158561D01*
X82078032Y-35132591D01*
X82057743Y-35112438D01*
X82052714Y-35106132D01*
X82046723Y-35098620D01*
X82046720Y-35098617D01*
X82046721Y-35098617D01*
X81849178Y-34915325D01*
X81849178Y-34915324D01*
X81626521Y-34763520D01*
X81626517Y-34763518D01*
X81626514Y-34763516D01*
X81626513Y-34763515D01*
X81383727Y-34646597D01*
X81383729Y-34646597D01*
X81126216Y-34567164D01*
X81126210Y-34567162D01*
X80859748Y-34527000D01*
X80859741Y-34527000D01*
X80590259Y-34527000D01*
X80590251Y-34527000D01*
X80323789Y-34567162D01*
X80323783Y-34567164D01*
X80066271Y-34646597D01*
X79823486Y-34763515D01*
X79823485Y-34763516D01*
X79600821Y-34915325D01*
X79403280Y-35098615D01*
X79235257Y-35309310D01*
X79100515Y-35542688D01*
X79002064Y-35793538D01*
X79002058Y-35793557D01*
X78942095Y-36056275D01*
X78942094Y-36056280D01*
X78921958Y-36324995D01*
X78921958Y-36325004D01*
X78942094Y-36593719D01*
X78942095Y-36593724D01*
X79002058Y-36856442D01*
X79002060Y-36856451D01*
X79002062Y-36856456D01*
X79100515Y-37107311D01*
X79235257Y-37340690D01*
X79272851Y-37387831D01*
X79403280Y-37551384D01*
X79580773Y-37716072D01*
X79600822Y-37734675D01*
X79770353Y-37850259D01*
X79814654Y-37904287D01*
X79824500Y-37952712D01*
X79824500Y-41856873D01*
X79822973Y-41876272D01*
X79820781Y-41890111D01*
X79824415Y-41959456D01*
X79824500Y-41962701D01*
X79824500Y-41984689D01*
X79826797Y-42006559D01*
X79827051Y-42009790D01*
X79830686Y-42079143D01*
X79830688Y-42079153D01*
X79834315Y-42092689D01*
X79837860Y-42111814D01*
X79839325Y-42125749D01*
X79839326Y-42125756D01*
X79856356Y-42178172D01*
X79860784Y-42191798D01*
X79861705Y-42194909D01*
X79879679Y-42261986D01*
X79879684Y-42261998D01*
X79886043Y-42274478D01*
X79893488Y-42292449D01*
X79897820Y-42305782D01*
X79932537Y-42365914D01*
X79934085Y-42368766D01*
X79954381Y-42408597D01*
X79965617Y-42430649D01*
X79965619Y-42430651D01*
X79965620Y-42430653D01*
X79974438Y-42441543D01*
X79985454Y-42457570D01*
X79992465Y-42469713D01*
X79992470Y-42469720D01*
X80038939Y-42521331D01*
X80041043Y-42523795D01*
X80054882Y-42540882D01*
X80070423Y-42556422D01*
X80072657Y-42558777D01*
X80119128Y-42610387D01*
X80119129Y-42610388D01*
X80127941Y-42616790D01*
X80130468Y-42618626D01*
X80145265Y-42631264D01*
X81863181Y-44349180D01*
X81896666Y-44410503D01*
X81899500Y-44436861D01*
X81899500Y-44494645D01*
X81938855Y-44679802D01*
X81938857Y-44679807D01*
X82015848Y-44852729D01*
X82015850Y-44852733D01*
X82100819Y-44969684D01*
X82124298Y-45035490D01*
X82124500Y-45042565D01*
X82124500Y-45074998D01*
X82124501Y-45075019D01*
X82135000Y-45177796D01*
X82135001Y-45177799D01*
X82190185Y-45344331D01*
X82190187Y-45344336D01*
X82191120Y-45345848D01*
X82268538Y-45471364D01*
X82282289Y-45493657D01*
X82307554Y-45518922D01*
X82341039Y-45580245D01*
X82336055Y-45649937D01*
X82307557Y-45694282D01*
X82295183Y-45706656D01*
X82203143Y-45855875D01*
X82203141Y-45855880D01*
X82147994Y-46022302D01*
X82147993Y-46022309D01*
X82137500Y-46125013D01*
X82137500Y-46550000D01*
X84262499Y-46550000D01*
X84262499Y-46125028D01*
X84262498Y-46125013D01*
X84252005Y-46022302D01*
X84196858Y-45855880D01*
X84196856Y-45855875D01*
X84104815Y-45706654D01*
X84079945Y-45681784D01*
X84046460Y-45620461D01*
X84051444Y-45550769D01*
X84079948Y-45506419D01*
X84092712Y-45493656D01*
X84184814Y-45344334D01*
X84239999Y-45177797D01*
X84250500Y-45075009D01*
X84250499Y-43724992D01*
X84239999Y-43622203D01*
X84184814Y-43455666D01*
X84092712Y-43306344D01*
X84074048Y-43287680D01*
X84040563Y-43226357D01*
X84045547Y-43156665D01*
X84074045Y-43112322D01*
X84092712Y-43093656D01*
X84184814Y-42944334D01*
X84239999Y-42777797D01*
X84250500Y-42675009D01*
X84250499Y-42261859D01*
X84270183Y-42194821D01*
X84286813Y-42174184D01*
X84837820Y-41623178D01*
X84899142Y-41589694D01*
X84968834Y-41594678D01*
X85024767Y-41636550D01*
X85049184Y-41702014D01*
X85049500Y-41710860D01*
X85049500Y-42675001D01*
X85049501Y-42675018D01*
X85060000Y-42777796D01*
X85060001Y-42777799D01*
X85115185Y-42944331D01*
X85115187Y-42944336D01*
X85125431Y-42960944D01*
X85193539Y-43071366D01*
X85212000Y-43136461D01*
X85212000Y-43263538D01*
X85193539Y-43328634D01*
X85115189Y-43455659D01*
X85115185Y-43455666D01*
X85115186Y-43455666D01*
X85060001Y-43622203D01*
X85060001Y-43622204D01*
X85060000Y-43622204D01*
X85049500Y-43724983D01*
X85049500Y-45075001D01*
X85049501Y-45075018D01*
X85060000Y-45177796D01*
X85060001Y-45177799D01*
X85115185Y-45344331D01*
X85115189Y-45344340D01*
X85193538Y-45471365D01*
X85211999Y-45536461D01*
X85211999Y-45683804D01*
X85193538Y-45748899D01*
X85127686Y-45855666D01*
X85072501Y-46022203D01*
X85072501Y-46022204D01*
X85072500Y-46022204D01*
X85062000Y-46124983D01*
X85062000Y-47475001D01*
X85062001Y-47475018D01*
X85072500Y-47577796D01*
X85072501Y-47577799D01*
X85127685Y-47744331D01*
X85127687Y-47744336D01*
X85145381Y-47773022D01*
X85219788Y-47893656D01*
X85343844Y-48017712D01*
X85493166Y-48109814D01*
X85659703Y-48164999D01*
X85762491Y-48175500D01*
X86487508Y-48175499D01*
X86487516Y-48175498D01*
X86487519Y-48175498D01*
X86543802Y-48169748D01*
X86590297Y-48164999D01*
X86756834Y-48109814D01*
X86906156Y-48017712D01*
X87030212Y-47893656D01*
X87122314Y-47744334D01*
X87177499Y-47577797D01*
X87188000Y-47475009D01*
X87187999Y-46124992D01*
X87177499Y-46022203D01*
X87122314Y-45855666D01*
X87122310Y-45855659D01*
X87031461Y-45708368D01*
X87013000Y-45643272D01*
X87013000Y-45536461D01*
X87031461Y-45471365D01*
X87109814Y-45344334D01*
X87164999Y-45177797D01*
X87175500Y-45075009D01*
X87175499Y-43724992D01*
X87164999Y-43622203D01*
X87109814Y-43455666D01*
X87059665Y-43374361D01*
X87031461Y-43328634D01*
X87013000Y-43263538D01*
X87013000Y-43136461D01*
X87031460Y-43071366D01*
X87109814Y-42944334D01*
X87164999Y-42777797D01*
X87175500Y-42675009D01*
X87175499Y-42496276D01*
X87195183Y-42429239D01*
X87247987Y-42383484D01*
X87317145Y-42373540D01*
X87380701Y-42402565D01*
X87387180Y-42408597D01*
X88613181Y-43634598D01*
X88646666Y-43695921D01*
X88649500Y-43722279D01*
X88649500Y-45465852D01*
X88629815Y-45532891D01*
X88577011Y-45578646D01*
X88562432Y-45584225D01*
X88532247Y-45593642D01*
X88412494Y-45673476D01*
X88320089Y-45783811D01*
X88262509Y-45915716D01*
X88244423Y-46058493D01*
X88267295Y-46200584D01*
X88267296Y-46200588D01*
X88329274Y-46330480D01*
X88596432Y-46731216D01*
X88617240Y-46797915D01*
X88598685Y-46865276D01*
X88596432Y-46868782D01*
X88329276Y-47269517D01*
X88329277Y-47269516D01*
X88290048Y-47339944D01*
X88290044Y-47339954D01*
X88249500Y-47478038D01*
X88249500Y-47620500D01*
X88229815Y-47687539D01*
X88177011Y-47733294D01*
X88125500Y-47744500D01*
X87843062Y-47744500D01*
X87816023Y-47745949D01*
X87816015Y-47745949D01*
X87816012Y-47745950D01*
X87790944Y-47748645D01*
X87776203Y-47750231D01*
X87722799Y-47758884D01*
X87587986Y-47809164D01*
X87587984Y-47809165D01*
X87526669Y-47842644D01*
X87526654Y-47842654D01*
X87411486Y-47928867D01*
X87411468Y-47928883D01*
X87234799Y-48105553D01*
X87085020Y-48255332D01*
X87085019Y-48255333D01*
X87029202Y-48321663D01*
X87004806Y-48356295D01*
X87004805Y-48356296D01*
X86959627Y-48433783D01*
X86908854Y-48481782D01*
X86843662Y-48495009D01*
X86835005Y-48494390D01*
X86834999Y-48494390D01*
X86549566Y-48514804D01*
X86269960Y-48575629D01*
X86269955Y-48575630D01*
X86269954Y-48575631D01*
X86193749Y-48604054D01*
X86053597Y-48656328D01*
X85983906Y-48661312D01*
X85929061Y-48633859D01*
X85894664Y-48604054D01*
X85855287Y-48569933D01*
X85855284Y-48569931D01*
X85855282Y-48569930D01*
X85724416Y-48510164D01*
X85724411Y-48510162D01*
X85724410Y-48510162D01*
X85696110Y-48501852D01*
X85657376Y-48490478D01*
X85657370Y-48490476D01*
X85571917Y-48478190D01*
X85514951Y-48470000D01*
X84690423Y-48470000D01*
X84690420Y-48470000D01*
X84674415Y-48470483D01*
X84652044Y-48469131D01*
X84637063Y-48466854D01*
X84608229Y-48458817D01*
X84591485Y-48451879D01*
X84543263Y-48433593D01*
X84514172Y-48424524D01*
X84514169Y-48424523D01*
X84514170Y-48424523D01*
X84484616Y-48417230D01*
X84470428Y-48413728D01*
X84410517Y-48402724D01*
X84266671Y-48405807D01*
X84197738Y-48417230D01*
X84060600Y-48460709D01*
X84060596Y-48460711D01*
X83941246Y-48541075D01*
X83889446Y-48587940D01*
X83889447Y-48587940D01*
X83889441Y-48587945D01*
X83889438Y-48587948D01*
X83889434Y-48587952D01*
X83797563Y-48698682D01*
X83765387Y-48751191D01*
X83732398Y-48805025D01*
X83722704Y-48822333D01*
X83704857Y-48857355D01*
X83696538Y-48875400D01*
X83617322Y-49066646D01*
X83606325Y-49093195D01*
X83599452Y-49111824D01*
X83587312Y-49149186D01*
X83584273Y-49159961D01*
X83581924Y-49168293D01*
X83526893Y-49397508D01*
X83523020Y-49416980D01*
X83516872Y-49455796D01*
X83514539Y-49475512D01*
X83514538Y-49475517D01*
X83495470Y-49717817D01*
X83494500Y-49742520D01*
X83494500Y-58370500D01*
X83474815Y-58437539D01*
X83422011Y-58483294D01*
X83370500Y-58494500D01*
X78992523Y-58494500D01*
X78967820Y-58495470D01*
X78725515Y-58514538D01*
X78705796Y-58516872D01*
X78666980Y-58523020D01*
X78647508Y-58526893D01*
X78418293Y-58581924D01*
X78409961Y-58584273D01*
X78399186Y-58587312D01*
X78361824Y-58599452D01*
X78354084Y-58602307D01*
X78343194Y-58606325D01*
X78253034Y-58643670D01*
X78125403Y-58696535D01*
X78115680Y-58701018D01*
X78107362Y-58704853D01*
X78072341Y-58722698D01*
X78072342Y-58722699D01*
X78055029Y-58732395D01*
X77854054Y-58855554D01*
X77837544Y-58866586D01*
X77805740Y-58889694D01*
X77790153Y-58901981D01*
X77610917Y-59055062D01*
X77596338Y-59068539D01*
X77568539Y-59096338D01*
X77555062Y-59110917D01*
X77401981Y-59290153D01*
X77392294Y-59302441D01*
X77389693Y-59305741D01*
X77366587Y-59337543D01*
X77355554Y-59354054D01*
X77232399Y-59555024D01*
X77222705Y-59572332D01*
X77204857Y-59607355D01*
X77204857Y-59607356D01*
X77196538Y-59625401D01*
X77106325Y-59843195D01*
X77099452Y-59861824D01*
X77087312Y-59899186D01*
X77084941Y-59907591D01*
X77081924Y-59918293D01*
X77069413Y-59970403D01*
X77026892Y-60147514D01*
X77023016Y-60166998D01*
X77016869Y-60205820D01*
X77014538Y-60225526D01*
X77013732Y-60235765D01*
X76995470Y-60467820D01*
X76994500Y-60492522D01*
X76994500Y-62007477D01*
X76995470Y-62032180D01*
X77014538Y-62274478D01*
X77016871Y-62294192D01*
X77023020Y-62333016D01*
X77026893Y-62352491D01*
X77068452Y-62525596D01*
X77081922Y-62581703D01*
X77081923Y-62581705D01*
X77087315Y-62600820D01*
X77099459Y-62638193D01*
X77106328Y-62656812D01*
X77196534Y-62874590D01*
X77201015Y-62884311D01*
X77204848Y-62892625D01*
X77222696Y-62927651D01*
X77232395Y-62944971D01*
X77355553Y-63145944D01*
X77366586Y-63162455D01*
X77389694Y-63194259D01*
X77401981Y-63209846D01*
X77555062Y-63389082D01*
X77568539Y-63403661D01*
X77596338Y-63431460D01*
X77610917Y-63444937D01*
X77790153Y-63598018D01*
X77805740Y-63610305D01*
X77837544Y-63633413D01*
X77854055Y-63644446D01*
X78055028Y-63767604D01*
X78064727Y-63773035D01*
X78072348Y-63777303D01*
X78107375Y-63795151D01*
X78125408Y-63803464D01*
X78343182Y-63893670D01*
X78361808Y-63900541D01*
X78376535Y-63905326D01*
X78399196Y-63912690D01*
X78418303Y-63918079D01*
X78647502Y-63973104D01*
X78666972Y-63976977D01*
X78705799Y-63983127D01*
X78725517Y-63985461D01*
X78846668Y-63994995D01*
X78967818Y-64004530D01*
X78992523Y-64005500D01*
X83370500Y-64005500D01*
X83437539Y-64025185D01*
X83483294Y-64077989D01*
X83494500Y-64129500D01*
X83494500Y-67507477D01*
X83495470Y-67532180D01*
X83514538Y-67774478D01*
X83516871Y-67794192D01*
X83523020Y-67833016D01*
X83526893Y-67852490D01*
X83581922Y-68081704D01*
X83585793Y-68095427D01*
X83587315Y-68100820D01*
X83599459Y-68138193D01*
X83606328Y-68156812D01*
X83611246Y-68168688D01*
X83614724Y-68177084D01*
X83677462Y-68328547D01*
X83684931Y-68398017D01*
X83653656Y-68460496D01*
X83593567Y-68496148D01*
X83562901Y-68500000D01*
X81830466Y-68500000D01*
X81763427Y-68480315D01*
X81717672Y-68427511D01*
X81708928Y-68366700D01*
X81707522Y-68366600D01*
X81707984Y-68360135D01*
X81707728Y-68358353D01*
X81708183Y-68357356D01*
X81711562Y-68310115D01*
X80884254Y-67482807D01*
X80850769Y-67421484D01*
X80855753Y-67351792D01*
X80897625Y-67295859D01*
X80901460Y-67293100D01*
X80952595Y-67257806D01*
X81059615Y-67137005D01*
X81118801Y-67099881D01*
X81188666Y-67100649D01*
X81240108Y-67131554D01*
X82065115Y-67956562D01*
X82065116Y-67956561D01*
X82171803Y-67814047D01*
X82308908Y-67562958D01*
X82408890Y-67294895D01*
X82469699Y-67015362D01*
X82490109Y-66730001D01*
X82490109Y-66729998D01*
X82469699Y-66444637D01*
X82408890Y-66165104D01*
X82308908Y-65897041D01*
X82171808Y-65645961D01*
X82171807Y-65645960D01*
X82065115Y-65503436D01*
X81240108Y-66328444D01*
X81178785Y-66361929D01*
X81109093Y-66356945D01*
X81059612Y-66322990D01*
X80952599Y-66202198D01*
X80952597Y-66202196D01*
X80952595Y-66202194D01*
X80901496Y-66166923D01*
X80901495Y-66166922D01*
X80857505Y-66112639D01*
X80849845Y-66043190D01*
X80880949Y-65980625D01*
X80884254Y-65977191D01*
X81711562Y-65149883D01*
X81711561Y-65149882D01*
X81569046Y-65043196D01*
X81569038Y-65043191D01*
X81317957Y-64906091D01*
X81317958Y-64906091D01*
X81049895Y-64806109D01*
X80770362Y-64745300D01*
X80485001Y-64724891D01*
X80484999Y-64724891D01*
X80199637Y-64745300D01*
X79920104Y-64806109D01*
X79652041Y-64906091D01*
X79400961Y-65043191D01*
X79400953Y-65043196D01*
X79258436Y-65149882D01*
X79258436Y-65149883D01*
X80085745Y-65977192D01*
X80119230Y-66038515D01*
X80114246Y-66108207D01*
X80072374Y-66164140D01*
X80068504Y-66166923D01*
X80017407Y-66202192D01*
X80017404Y-66202194D01*
X79910387Y-66322992D01*
X79851197Y-66360118D01*
X79781332Y-66359350D01*
X79729891Y-66328445D01*
X78904883Y-65503436D01*
X78904882Y-65503437D01*
X78798196Y-65645953D01*
X78798191Y-65645961D01*
X78661091Y-65897041D01*
X78561109Y-66165104D01*
X78500300Y-66444637D01*
X78479891Y-66729998D01*
X78479891Y-66730001D01*
X78500300Y-67015362D01*
X78561109Y-67294895D01*
X78661091Y-67562958D01*
X78798191Y-67814038D01*
X78798196Y-67814046D01*
X78904882Y-67956561D01*
X78904883Y-67956562D01*
X79729890Y-67131554D01*
X79791213Y-67098069D01*
X79860904Y-67103053D01*
X79910386Y-67137007D01*
X80017404Y-67257805D01*
X80017406Y-67257807D01*
X80049366Y-67279867D01*
X80068501Y-67293075D01*
X80068503Y-67293076D01*
X80112493Y-67347358D01*
X80120153Y-67416807D01*
X80089050Y-67479372D01*
X80085744Y-67482807D01*
X79258436Y-68310114D01*
X79262477Y-68366600D01*
X79258163Y-68366908D01*
X79260698Y-68402363D01*
X79227211Y-68463685D01*
X79165887Y-68497167D01*
X79139533Y-68500000D01*
X78045773Y-68500000D01*
X78040393Y-68499766D01*
X77794611Y-68478368D01*
X77773425Y-68474651D01*
X77542865Y-68413187D01*
X77522640Y-68405864D01*
X77515079Y-68402358D01*
X77306180Y-68305486D01*
X77287524Y-68294778D01*
X77085002Y-68153865D01*
X77080720Y-68150600D01*
X76991245Y-68076037D01*
X76541787Y-67701489D01*
X76537792Y-67697851D01*
X76361275Y-67522408D01*
X76347288Y-67505830D01*
X76287929Y-67421484D01*
X76244297Y-67359484D01*
X76208759Y-67308986D01*
X76197872Y-67290218D01*
X76095774Y-67072234D01*
X76088331Y-67051872D01*
X76025791Y-66819418D01*
X76022013Y-66798079D01*
X76000237Y-66550144D01*
X76000000Y-66544724D01*
X76000000Y-57515844D01*
X78719000Y-57515844D01*
X78725401Y-57575372D01*
X78725403Y-57575379D01*
X78775645Y-57710086D01*
X78775649Y-57710093D01*
X78861809Y-57825187D01*
X78861812Y-57825190D01*
X78976906Y-57911350D01*
X78976913Y-57911354D01*
X79111620Y-57961596D01*
X79111627Y-57961598D01*
X79171155Y-57967999D01*
X79171172Y-57968000D01*
X80269000Y-57968000D01*
X80269000Y-56934753D01*
X80288685Y-56867714D01*
X80341489Y-56821959D01*
X80410647Y-56812015D01*
X80423816Y-56814644D01*
X80436886Y-56818000D01*
X80436890Y-56818000D01*
X80559892Y-56818000D01*
X80559894Y-56818000D01*
X80559899Y-56817999D01*
X80559903Y-56817999D01*
X80607270Y-56812015D01*
X80629458Y-56809212D01*
X80698436Y-56820338D01*
X80750448Y-56866991D01*
X80769000Y-56932234D01*
X80769000Y-57968000D01*
X81866828Y-57968000D01*
X81866844Y-57967999D01*
X81926372Y-57961598D01*
X81926379Y-57961596D01*
X82061086Y-57911354D01*
X82061093Y-57911350D01*
X82176187Y-57825190D01*
X82176190Y-57825187D01*
X82262350Y-57710093D01*
X82262354Y-57710086D01*
X82312596Y-57575379D01*
X82312598Y-57575372D01*
X82318999Y-57515844D01*
X82319000Y-57515827D01*
X82319000Y-56418000D01*
X81282921Y-56418000D01*
X81215882Y-56398315D01*
X81170127Y-56345511D01*
X81160183Y-56276353D01*
X81161117Y-56270766D01*
X81161659Y-56267919D01*
X81172873Y-56209138D01*
X81162847Y-56049784D01*
X81178283Y-55981643D01*
X81228109Y-55932663D01*
X81286602Y-55918000D01*
X82319000Y-55918000D01*
X82319000Y-54820172D01*
X82318999Y-54820155D01*
X82312598Y-54760627D01*
X82312596Y-54760620D01*
X82262354Y-54625913D01*
X82262350Y-54625906D01*
X82176190Y-54510812D01*
X82176187Y-54510809D01*
X82061093Y-54424649D01*
X82061086Y-54424645D01*
X81926379Y-54374403D01*
X81926372Y-54374401D01*
X81866844Y-54368000D01*
X80769000Y-54368000D01*
X80769000Y-55401246D01*
X80749315Y-55468285D01*
X80696511Y-55514040D01*
X80627353Y-55523984D01*
X80614165Y-55521351D01*
X80601115Y-55518000D01*
X80601114Y-55518000D01*
X80478106Y-55518000D01*
X80478094Y-55518000D01*
X80408541Y-55526787D01*
X80339563Y-55515660D01*
X80287551Y-55469006D01*
X80269000Y-55403765D01*
X80269000Y-54368000D01*
X79171155Y-54368000D01*
X79111627Y-54374401D01*
X79111620Y-54374403D01*
X78976913Y-54424645D01*
X78976906Y-54424649D01*
X78861812Y-54510809D01*
X78861809Y-54510812D01*
X78775649Y-54625906D01*
X78775645Y-54625913D01*
X78725403Y-54760620D01*
X78725401Y-54760627D01*
X78719000Y-54820155D01*
X78719000Y-55918000D01*
X79755079Y-55918000D01*
X79822118Y-55937685D01*
X79867873Y-55990489D01*
X79877817Y-56059647D01*
X79876883Y-56065234D01*
X79865127Y-56126862D01*
X79874532Y-56276353D01*
X79875153Y-56286214D01*
X79859717Y-56354357D01*
X79809891Y-56403337D01*
X79751398Y-56418000D01*
X78719000Y-56418000D01*
X78719000Y-57515844D01*
X76000000Y-57515844D01*
X76000000Y-50500001D01*
X78479891Y-50500001D01*
X78500300Y-50785362D01*
X78561109Y-51064895D01*
X78661091Y-51332958D01*
X78798191Y-51584038D01*
X78798196Y-51584046D01*
X78904882Y-51726561D01*
X78904883Y-51726562D01*
X79729890Y-50901554D01*
X79791213Y-50868069D01*
X79860904Y-50873053D01*
X79910386Y-50907007D01*
X80017404Y-51027805D01*
X80017406Y-51027807D01*
X80040679Y-51043871D01*
X80068501Y-51063075D01*
X80068503Y-51063076D01*
X80112493Y-51117358D01*
X80120153Y-51186807D01*
X80089050Y-51249372D01*
X80085744Y-51252807D01*
X79258436Y-52080114D01*
X79258436Y-52080115D01*
X79400960Y-52186807D01*
X79400961Y-52186808D01*
X79652042Y-52323908D01*
X79652041Y-52323908D01*
X79920104Y-52423890D01*
X80199637Y-52484699D01*
X80484999Y-52505109D01*
X80485001Y-52505109D01*
X80770362Y-52484699D01*
X81049895Y-52423890D01*
X81317958Y-52323908D01*
X81569047Y-52186803D01*
X81711561Y-52080116D01*
X81711562Y-52080115D01*
X80884254Y-51252807D01*
X80850769Y-51191484D01*
X80855753Y-51121792D01*
X80897625Y-51065859D01*
X80901460Y-51063100D01*
X80952595Y-51027806D01*
X81059615Y-50907005D01*
X81118801Y-50869881D01*
X81188666Y-50870649D01*
X81240108Y-50901554D01*
X82065115Y-51726562D01*
X82065116Y-51726561D01*
X82171803Y-51584047D01*
X82308908Y-51332958D01*
X82408890Y-51064895D01*
X82469699Y-50785362D01*
X82490109Y-50500001D01*
X82490109Y-50499998D01*
X82469699Y-50214637D01*
X82408890Y-49935104D01*
X82308908Y-49667041D01*
X82171808Y-49415961D01*
X82171807Y-49415960D01*
X82065115Y-49273436D01*
X81240108Y-50098444D01*
X81178785Y-50131929D01*
X81109093Y-50126945D01*
X81059612Y-50092990D01*
X80952599Y-49972198D01*
X80952597Y-49972196D01*
X80952595Y-49972194D01*
X80901496Y-49936923D01*
X80901495Y-49936922D01*
X80857505Y-49882639D01*
X80849845Y-49813190D01*
X80880949Y-49750625D01*
X80884254Y-49747191D01*
X81711562Y-48919883D01*
X81711561Y-48919882D01*
X81569046Y-48813196D01*
X81569038Y-48813191D01*
X81317957Y-48676091D01*
X81317958Y-48676091D01*
X81049895Y-48576109D01*
X80770362Y-48515300D01*
X80485001Y-48494891D01*
X80484999Y-48494891D01*
X80199637Y-48515300D01*
X79920104Y-48576109D01*
X79652041Y-48676091D01*
X79400961Y-48813191D01*
X79400953Y-48813196D01*
X79258436Y-48919882D01*
X79258436Y-48919883D01*
X80085745Y-49747192D01*
X80119230Y-49808515D01*
X80114246Y-49878207D01*
X80072374Y-49934140D01*
X80068504Y-49936923D01*
X80017407Y-49972192D01*
X80017404Y-49972194D01*
X79910387Y-50092992D01*
X79851197Y-50130118D01*
X79781332Y-50129350D01*
X79729891Y-50098445D01*
X78904883Y-49273436D01*
X78904882Y-49273437D01*
X78798196Y-49415953D01*
X78798191Y-49415961D01*
X78661091Y-49667041D01*
X78561109Y-49935104D01*
X78500300Y-50214637D01*
X78479891Y-50499998D01*
X78479891Y-50500001D01*
X76000000Y-50500001D01*
X76000000Y-47050000D01*
X82137501Y-47050000D01*
X82137501Y-47474986D01*
X82147994Y-47577697D01*
X82203141Y-47744119D01*
X82203143Y-47744124D01*
X82295184Y-47893345D01*
X82419154Y-48017315D01*
X82568375Y-48109356D01*
X82568380Y-48109358D01*
X82734802Y-48164505D01*
X82734809Y-48164506D01*
X82837519Y-48174999D01*
X82949999Y-48174999D01*
X82950000Y-48174998D01*
X82950000Y-47050000D01*
X83450000Y-47050000D01*
X83450000Y-48174999D01*
X83562472Y-48174999D01*
X83562486Y-48174998D01*
X83665197Y-48164505D01*
X83831619Y-48109358D01*
X83831624Y-48109356D01*
X83980845Y-48017315D01*
X84104815Y-47893345D01*
X84196856Y-47744124D01*
X84196858Y-47744119D01*
X84252005Y-47577697D01*
X84252006Y-47577690D01*
X84262499Y-47474986D01*
X84262500Y-47474973D01*
X84262500Y-47050000D01*
X83450000Y-47050000D01*
X82950000Y-47050000D01*
X82137501Y-47050000D01*
X76000000Y-47050000D01*
X76000000Y-29845004D01*
X82651958Y-29845004D01*
X82672094Y-30113719D01*
X82672095Y-30113724D01*
X82732058Y-30376442D01*
X82732060Y-30376451D01*
X82732062Y-30376456D01*
X82830515Y-30627311D01*
X82965257Y-30860690D01*
X83100964Y-31030861D01*
X83133280Y-31071384D01*
X83319762Y-31244413D01*
X83330822Y-31254675D01*
X83553479Y-31406480D01*
X83553484Y-31406482D01*
X83553485Y-31406483D01*
X83553486Y-31406484D01*
X83646929Y-31451483D01*
X83796271Y-31523402D01*
X83796272Y-31523402D01*
X83796275Y-31523404D01*
X84053785Y-31602836D01*
X84053786Y-31602836D01*
X84053789Y-31602837D01*
X84320251Y-31642999D01*
X84320256Y-31642999D01*
X84320259Y-31643000D01*
X84320260Y-31643000D01*
X84589740Y-31643000D01*
X84589741Y-31643000D01*
X84589748Y-31642999D01*
X84856210Y-31602837D01*
X84856211Y-31602836D01*
X84856215Y-31602836D01*
X85113725Y-31523404D01*
X85356521Y-31406480D01*
X85579178Y-31254675D01*
X85776723Y-31071380D01*
X85944743Y-30860690D01*
X86079485Y-30627311D01*
X86177938Y-30376456D01*
X86237904Y-30113729D01*
X86237905Y-30113719D01*
X86258042Y-29845004D01*
X101097751Y-29845004D01*
X101117887Y-30113719D01*
X101117888Y-30113724D01*
X101177851Y-30376442D01*
X101177853Y-30376451D01*
X101177855Y-30376456D01*
X101276308Y-30627311D01*
X101411050Y-30860690D01*
X101546757Y-31030861D01*
X101579073Y-31071384D01*
X101765555Y-31244413D01*
X101776615Y-31254675D01*
X101999272Y-31406480D01*
X101999277Y-31406482D01*
X101999278Y-31406483D01*
X101999279Y-31406484D01*
X102092722Y-31451483D01*
X102242064Y-31523402D01*
X102242065Y-31523402D01*
X102242068Y-31523404D01*
X102499578Y-31602836D01*
X102499579Y-31602836D01*
X102499582Y-31602837D01*
X102766044Y-31642999D01*
X102766049Y-31642999D01*
X102766052Y-31643000D01*
X102766053Y-31643000D01*
X103035533Y-31643000D01*
X103035534Y-31643000D01*
X103035541Y-31642999D01*
X103302003Y-31602837D01*
X103302004Y-31602836D01*
X103302008Y-31602836D01*
X103559518Y-31523404D01*
X103802314Y-31406480D01*
X104024971Y-31254675D01*
X104222516Y-31071380D01*
X104390536Y-30860690D01*
X104525278Y-30627311D01*
X104623731Y-30376456D01*
X104683697Y-30113729D01*
X104683698Y-30113719D01*
X104700463Y-29890004D01*
X119497354Y-29890004D01*
X119517490Y-30158719D01*
X119517491Y-30158724D01*
X119577454Y-30421442D01*
X119577456Y-30421451D01*
X119577458Y-30421456D01*
X119675911Y-30672311D01*
X119810653Y-30905690D01*
X119942787Y-31071380D01*
X119978676Y-31116384D01*
X120165158Y-31289413D01*
X120176218Y-31299675D01*
X120398875Y-31451480D01*
X120398880Y-31451482D01*
X120398881Y-31451483D01*
X120398882Y-31451484D01*
X120527830Y-31513581D01*
X120641667Y-31568402D01*
X120641668Y-31568402D01*
X120641671Y-31568404D01*
X120899181Y-31647836D01*
X120899182Y-31647836D01*
X120899185Y-31647837D01*
X121165647Y-31687999D01*
X121165652Y-31687999D01*
X121165655Y-31688000D01*
X121165656Y-31688000D01*
X121435136Y-31688000D01*
X121435137Y-31688000D01*
X121435144Y-31687999D01*
X121701606Y-31647837D01*
X121701607Y-31647836D01*
X121701611Y-31647836D01*
X121959121Y-31568404D01*
X122201917Y-31451480D01*
X122424574Y-31299675D01*
X122622119Y-31116380D01*
X122790139Y-30905690D01*
X122924881Y-30672311D01*
X123023334Y-30421456D01*
X123083300Y-30158729D01*
X123103438Y-29890000D01*
X123100066Y-29845004D01*
X137896958Y-29845004D01*
X137917094Y-30113719D01*
X137917095Y-30113724D01*
X137977058Y-30376442D01*
X137977060Y-30376451D01*
X137977062Y-30376456D01*
X138075515Y-30627311D01*
X138210257Y-30860690D01*
X138345964Y-31030861D01*
X138378280Y-31071384D01*
X138564762Y-31244413D01*
X138575822Y-31254675D01*
X138798479Y-31406480D01*
X138798484Y-31406482D01*
X138798485Y-31406483D01*
X138798486Y-31406484D01*
X138891929Y-31451483D01*
X139041271Y-31523402D01*
X139041272Y-31523402D01*
X139041275Y-31523404D01*
X139298785Y-31602836D01*
X139298786Y-31602836D01*
X139298789Y-31602837D01*
X139565251Y-31642999D01*
X139565256Y-31642999D01*
X139565259Y-31643000D01*
X139565260Y-31643000D01*
X139834740Y-31643000D01*
X139834741Y-31643000D01*
X139834748Y-31642999D01*
X140101210Y-31602837D01*
X140101211Y-31602836D01*
X140101215Y-31602836D01*
X140358725Y-31523404D01*
X140601521Y-31406480D01*
X140824178Y-31254675D01*
X141021723Y-31071380D01*
X141189743Y-30860690D01*
X141324485Y-30627311D01*
X141422938Y-30376456D01*
X141482904Y-30113729D01*
X141482905Y-30113719D01*
X141503042Y-29845004D01*
X141503042Y-29844995D01*
X141482905Y-29576280D01*
X141482904Y-29576275D01*
X141482904Y-29576271D01*
X141422938Y-29313544D01*
X141324485Y-29062689D01*
X141189743Y-28829310D01*
X141021723Y-28618620D01*
X141021722Y-28618619D01*
X141021719Y-28618615D01*
X140824178Y-28435325D01*
X140824177Y-28435324D01*
X140601521Y-28283520D01*
X140601517Y-28283518D01*
X140601514Y-28283516D01*
X140601513Y-28283515D01*
X140358727Y-28166597D01*
X140358729Y-28166597D01*
X140101216Y-28087164D01*
X140101210Y-28087162D01*
X139834748Y-28047000D01*
X139834741Y-28047000D01*
X139565259Y-28047000D01*
X139565251Y-28047000D01*
X139298789Y-28087162D01*
X139298783Y-28087164D01*
X139041271Y-28166597D01*
X138798486Y-28283515D01*
X138798485Y-28283516D01*
X138575821Y-28435325D01*
X138378280Y-28618615D01*
X138210257Y-28829310D01*
X138075515Y-29062688D01*
X137977064Y-29313538D01*
X137977058Y-29313557D01*
X137917095Y-29576275D01*
X137917094Y-29576280D01*
X137896958Y-29844995D01*
X137896958Y-29845004D01*
X123100066Y-29845004D01*
X123100065Y-29844995D01*
X123083301Y-29621280D01*
X123083300Y-29621275D01*
X123083300Y-29621271D01*
X123023334Y-29358544D01*
X122924881Y-29107689D01*
X122790139Y-28874310D01*
X122622119Y-28663620D01*
X122622118Y-28663619D01*
X122622115Y-28663615D01*
X122424574Y-28480325D01*
X122358571Y-28435325D01*
X122201917Y-28328520D01*
X122201913Y-28328518D01*
X122201910Y-28328516D01*
X122201909Y-28328515D01*
X121959123Y-28211597D01*
X121959125Y-28211597D01*
X121701612Y-28132164D01*
X121701606Y-28132162D01*
X121435144Y-28092000D01*
X121435137Y-28092000D01*
X121165655Y-28092000D01*
X121165647Y-28092000D01*
X120899185Y-28132162D01*
X120899179Y-28132164D01*
X120641667Y-28211597D01*
X120398882Y-28328515D01*
X120398881Y-28328516D01*
X120176217Y-28480325D01*
X119978676Y-28663615D01*
X119810653Y-28874310D01*
X119675911Y-29107688D01*
X119577460Y-29358538D01*
X119577454Y-29358557D01*
X119517491Y-29621275D01*
X119517490Y-29621280D01*
X119497354Y-29889995D01*
X119497354Y-29890004D01*
X104700463Y-29890004D01*
X104703835Y-29845004D01*
X104703835Y-29844995D01*
X104683698Y-29576280D01*
X104683697Y-29576275D01*
X104683697Y-29576271D01*
X104623731Y-29313544D01*
X104525278Y-29062689D01*
X104390536Y-28829310D01*
X104222516Y-28618620D01*
X104222515Y-28618619D01*
X104222512Y-28618615D01*
X104024971Y-28435325D01*
X103802314Y-28283520D01*
X103802310Y-28283518D01*
X103802307Y-28283516D01*
X103802306Y-28283515D01*
X103559520Y-28166597D01*
X103559522Y-28166597D01*
X103302009Y-28087164D01*
X103302003Y-28087162D01*
X103035541Y-28047000D01*
X103035534Y-28047000D01*
X102766052Y-28047000D01*
X102766044Y-28047000D01*
X102499582Y-28087162D01*
X102499576Y-28087164D01*
X102242064Y-28166597D01*
X101999279Y-28283515D01*
X101999278Y-28283516D01*
X101776614Y-28435325D01*
X101579073Y-28618615D01*
X101411050Y-28829310D01*
X101276308Y-29062688D01*
X101177857Y-29313538D01*
X101177851Y-29313557D01*
X101117888Y-29576275D01*
X101117887Y-29576280D01*
X101097751Y-29844995D01*
X101097751Y-29845004D01*
X86258042Y-29845004D01*
X86258042Y-29844995D01*
X86237905Y-29576280D01*
X86237904Y-29576275D01*
X86237904Y-29576271D01*
X86177938Y-29313544D01*
X86079485Y-29062689D01*
X85944743Y-28829310D01*
X85776723Y-28618620D01*
X85776722Y-28618619D01*
X85776719Y-28618615D01*
X85579178Y-28435325D01*
X85579177Y-28435325D01*
X85356521Y-28283520D01*
X85356517Y-28283518D01*
X85356514Y-28283516D01*
X85356513Y-28283515D01*
X85113727Y-28166597D01*
X85113729Y-28166597D01*
X84856216Y-28087164D01*
X84856210Y-28087162D01*
X84589748Y-28047000D01*
X84589741Y-28047000D01*
X84320259Y-28047000D01*
X84320251Y-28047000D01*
X84053789Y-28087162D01*
X84053783Y-28087164D01*
X83796271Y-28166597D01*
X83553486Y-28283515D01*
X83553485Y-28283516D01*
X83330821Y-28435325D01*
X83133280Y-28618615D01*
X82965257Y-28829310D01*
X82830515Y-29062688D01*
X82732064Y-29313538D01*
X82732058Y-29313557D01*
X82672095Y-29576275D01*
X82672094Y-29576280D01*
X82651958Y-29844995D01*
X82651958Y-29845004D01*
X76000000Y-29845004D01*
X76000000Y-27373760D01*
X76000191Y-27368894D01*
X76017701Y-27146397D01*
X76020743Y-27127185D01*
X76071139Y-26917273D01*
X76077145Y-26898788D01*
X76159757Y-26699346D01*
X76168590Y-26682012D01*
X76281375Y-26497964D01*
X76292811Y-26482223D01*
X76437770Y-26312497D01*
X76441053Y-26308946D01*
X76808946Y-25941053D01*
X76812497Y-25937770D01*
X76982226Y-25792808D01*
X76997964Y-25781375D01*
X77182015Y-25668588D01*
X77199346Y-25659757D01*
X77398788Y-25577145D01*
X77417273Y-25571139D01*
X77627185Y-25520743D01*
X77646391Y-25517701D01*
X77834662Y-25502884D01*
X77868894Y-25500191D01*
X77873760Y-25500000D01*
X147626240Y-25500000D01*
X147631106Y-25500191D01*
G37*
G04 #@! TD.AperFunction*
G04 #@! TA.AperFunction,Conductor*
G36*
X131896867Y-48269685D02*
G01*
X131942622Y-48322489D01*
X131952566Y-48391647D01*
X131923541Y-48455203D01*
X131864763Y-48492977D01*
X131856186Y-48495166D01*
X131769104Y-48514109D01*
X131501041Y-48614091D01*
X131249961Y-48751191D01*
X131249953Y-48751196D01*
X131107436Y-48857882D01*
X131107436Y-48857883D01*
X131934745Y-49685192D01*
X131968230Y-49746515D01*
X131963246Y-49816207D01*
X131921374Y-49872140D01*
X131917504Y-49874923D01*
X131866407Y-49910192D01*
X131866404Y-49910194D01*
X131759387Y-50030992D01*
X131700197Y-50068118D01*
X131630332Y-50067350D01*
X131578891Y-50036445D01*
X130753883Y-49211436D01*
X130753882Y-49211437D01*
X130647196Y-49353953D01*
X130647191Y-49353961D01*
X130510091Y-49605041D01*
X130410109Y-49873104D01*
X130349300Y-50152637D01*
X130328891Y-50437998D01*
X130328891Y-50438001D01*
X130349300Y-50723362D01*
X130410109Y-51002895D01*
X130510091Y-51270958D01*
X130647191Y-51522038D01*
X130647196Y-51522046D01*
X130753882Y-51664561D01*
X130753883Y-51664562D01*
X131578890Y-50839554D01*
X131640213Y-50806069D01*
X131709904Y-50811053D01*
X131759386Y-50845007D01*
X131866404Y-50965805D01*
X131866406Y-50965807D01*
X131911869Y-50997187D01*
X131917501Y-51001075D01*
X131917503Y-51001076D01*
X131961493Y-51055358D01*
X131969153Y-51124807D01*
X131938050Y-51187372D01*
X131934744Y-51190807D01*
X131107436Y-52018114D01*
X131107436Y-52018115D01*
X131249960Y-52124807D01*
X131249961Y-52124808D01*
X131501042Y-52261908D01*
X131501041Y-52261908D01*
X131769104Y-52361890D01*
X132048637Y-52422699D01*
X132333999Y-52443109D01*
X132334001Y-52443109D01*
X132619362Y-52422699D01*
X132898895Y-52361890D01*
X133166958Y-52261908D01*
X133418047Y-52124803D01*
X133560561Y-52018116D01*
X133560562Y-52018115D01*
X132733254Y-51190807D01*
X132699769Y-51129484D01*
X132704753Y-51059792D01*
X132746625Y-51003859D01*
X132750460Y-51001100D01*
X132801595Y-50965806D01*
X132908615Y-50845005D01*
X132967801Y-50807881D01*
X133037666Y-50808649D01*
X133089108Y-50839554D01*
X133914115Y-51664562D01*
X133914116Y-51664561D01*
X134020803Y-51522047D01*
X134157908Y-51270958D01*
X134257890Y-51002895D01*
X134318699Y-50723362D01*
X134339109Y-50438001D01*
X134339109Y-50437998D01*
X134318699Y-50152637D01*
X134257890Y-49873104D01*
X134157908Y-49605041D01*
X134020808Y-49353961D01*
X134020807Y-49353960D01*
X133914115Y-49211436D01*
X133089108Y-50036444D01*
X133027785Y-50069929D01*
X132958093Y-50064945D01*
X132908612Y-50030990D01*
X132801599Y-49910198D01*
X132801597Y-49910196D01*
X132801595Y-49910194D01*
X132750496Y-49874923D01*
X132750495Y-49874922D01*
X132706505Y-49820639D01*
X132698845Y-49751190D01*
X132729949Y-49688625D01*
X132733254Y-49685191D01*
X133560562Y-48857883D01*
X133560561Y-48857882D01*
X133418046Y-48751196D01*
X133418038Y-48751191D01*
X133166957Y-48614091D01*
X133166958Y-48614091D01*
X132898895Y-48514109D01*
X132811814Y-48495166D01*
X132750491Y-48461681D01*
X132717006Y-48400358D01*
X132721990Y-48330666D01*
X132763862Y-48274733D01*
X132829326Y-48250316D01*
X132838172Y-48250000D01*
X138177476Y-48250000D01*
X138244515Y-48269685D01*
X138290270Y-48322489D01*
X138300214Y-48391647D01*
X138271189Y-48455203D01*
X138212411Y-48492977D01*
X138203834Y-48495166D01*
X138118962Y-48513628D01*
X137850833Y-48613635D01*
X137599690Y-48750770D01*
X137599682Y-48750775D01*
X137370612Y-48922254D01*
X137370594Y-48922270D01*
X137168270Y-49124594D01*
X137168254Y-49124612D01*
X136996775Y-49353682D01*
X136996770Y-49353690D01*
X136859635Y-49604833D01*
X136759628Y-49872962D01*
X136698804Y-50152566D01*
X136678390Y-50437998D01*
X136678390Y-50438001D01*
X136698804Y-50723433D01*
X136759628Y-51003037D01*
X136759630Y-51003043D01*
X136759631Y-51003046D01*
X136859557Y-51270958D01*
X136859635Y-51271166D01*
X136996770Y-51522309D01*
X136996775Y-51522317D01*
X137168254Y-51751387D01*
X137168270Y-51751405D01*
X137370594Y-51953729D01*
X137370612Y-51953745D01*
X137599682Y-52125224D01*
X137599690Y-52125229D01*
X137850833Y-52262364D01*
X137850832Y-52262364D01*
X137850836Y-52262365D01*
X137850839Y-52262367D01*
X138118954Y-52362369D01*
X138118960Y-52362370D01*
X138118962Y-52362371D01*
X138398566Y-52423195D01*
X138398568Y-52423195D01*
X138398572Y-52423196D01*
X138652220Y-52441337D01*
X138683999Y-52443610D01*
X138684000Y-52443610D01*
X138684001Y-52443610D01*
X138712595Y-52441564D01*
X138969428Y-52423196D01*
X139249046Y-52362369D01*
X139517161Y-52262367D01*
X139768315Y-52125226D01*
X139997395Y-51953739D01*
X140199739Y-51751395D01*
X140371226Y-51522315D01*
X140508367Y-51271161D01*
X140608369Y-51003046D01*
X140650657Y-50808649D01*
X140669195Y-50723433D01*
X140669195Y-50723432D01*
X140669196Y-50723428D01*
X140689610Y-50438000D01*
X140669196Y-50152572D01*
X140650824Y-50068118D01*
X140608371Y-49872962D01*
X140608370Y-49872960D01*
X140608369Y-49872954D01*
X140508367Y-49604839D01*
X140464812Y-49525075D01*
X140371229Y-49353690D01*
X140371224Y-49353682D01*
X140199745Y-49124612D01*
X140199729Y-49124594D01*
X139997405Y-48922270D01*
X139997387Y-48922254D01*
X139768317Y-48750775D01*
X139768309Y-48750770D01*
X139517166Y-48613635D01*
X139517167Y-48613635D01*
X139296619Y-48531375D01*
X139249046Y-48513631D01*
X139249043Y-48513630D01*
X139249037Y-48513628D01*
X139164166Y-48495166D01*
X139102843Y-48461681D01*
X139069358Y-48400358D01*
X139074342Y-48330666D01*
X139116214Y-48274733D01*
X139181678Y-48250316D01*
X139190524Y-48250000D01*
X139497560Y-48250000D01*
X139502426Y-48250191D01*
X139543373Y-48253413D01*
X139724927Y-48267701D01*
X139744137Y-48270744D01*
X139954042Y-48321138D01*
X139972534Y-48327147D01*
X140128252Y-48391647D01*
X140171971Y-48409756D01*
X140189308Y-48418590D01*
X140373355Y-48531375D01*
X140389096Y-48542812D01*
X140553238Y-48683002D01*
X140566997Y-48696761D01*
X140707187Y-48860903D01*
X140718624Y-48876644D01*
X140831409Y-49060691D01*
X140840243Y-49078028D01*
X140922850Y-49277458D01*
X140928863Y-49295964D01*
X140979254Y-49505857D01*
X140982298Y-49525075D01*
X140999809Y-49747574D01*
X141000000Y-49752440D01*
X141000000Y-53750000D01*
X145997560Y-53750000D01*
X146002426Y-53750191D01*
X146043373Y-53753413D01*
X146224927Y-53767701D01*
X146244137Y-53770744D01*
X146454042Y-53821138D01*
X146472534Y-53827147D01*
X146634813Y-53894364D01*
X146671971Y-53909756D01*
X146689308Y-53918590D01*
X146873355Y-54031375D01*
X146889096Y-54042812D01*
X147053238Y-54183002D01*
X147066997Y-54196761D01*
X147207187Y-54360903D01*
X147218624Y-54376644D01*
X147331409Y-54560691D01*
X147340243Y-54578028D01*
X147422850Y-54777458D01*
X147428863Y-54795964D01*
X147479254Y-55005857D01*
X147482298Y-55025075D01*
X147499809Y-55247574D01*
X147500000Y-55252440D01*
X147500000Y-56747559D01*
X147499809Y-56752425D01*
X147482298Y-56974924D01*
X147479254Y-56994142D01*
X147428863Y-57204035D01*
X147422850Y-57222541D01*
X147340243Y-57421971D01*
X147331409Y-57439308D01*
X147218624Y-57623355D01*
X147207187Y-57639096D01*
X147066997Y-57803238D01*
X147053238Y-57816997D01*
X146889096Y-57957187D01*
X146873355Y-57968624D01*
X146689308Y-58081409D01*
X146671971Y-58090243D01*
X146472541Y-58172850D01*
X146454035Y-58178863D01*
X146244142Y-58229254D01*
X146224924Y-58232298D01*
X146002426Y-58249809D01*
X145997560Y-58250000D01*
X141000000Y-58250000D01*
X141000000Y-59749997D01*
X141000000Y-59749998D01*
X141000000Y-67497559D01*
X140999809Y-67502425D01*
X140982298Y-67724924D01*
X140979254Y-67744142D01*
X140928863Y-67954035D01*
X140922850Y-67972541D01*
X140840243Y-68171971D01*
X140831409Y-68189308D01*
X140718624Y-68373355D01*
X140707187Y-68389096D01*
X140566997Y-68553238D01*
X140553238Y-68566997D01*
X140389096Y-68707187D01*
X140373355Y-68718624D01*
X140189308Y-68831409D01*
X140171971Y-68840243D01*
X139972541Y-68922850D01*
X139954035Y-68928863D01*
X139744142Y-68979254D01*
X139724924Y-68982298D01*
X139508779Y-68999309D01*
X139503913Y-68999500D01*
X131246087Y-68999500D01*
X131241221Y-68999309D01*
X131025075Y-68982298D01*
X131005857Y-68979254D01*
X130795964Y-68928863D01*
X130777458Y-68922850D01*
X130578028Y-68840243D01*
X130560691Y-68831409D01*
X130376644Y-68718624D01*
X130360903Y-68707187D01*
X130196761Y-68566997D01*
X130183002Y-68553238D01*
X130042812Y-68389096D01*
X130031375Y-68373355D01*
X129918590Y-68189308D01*
X129909756Y-68171971D01*
X129830821Y-67981405D01*
X129827147Y-67972534D01*
X129821138Y-67954042D01*
X129770744Y-67744137D01*
X129767701Y-67724923D01*
X129750191Y-67502425D01*
X129750000Y-67497559D01*
X129750000Y-66668001D01*
X130328891Y-66668001D01*
X130349300Y-66953362D01*
X130410109Y-67232895D01*
X130510091Y-67500958D01*
X130647191Y-67752038D01*
X130647196Y-67752046D01*
X130753882Y-67894561D01*
X130753883Y-67894562D01*
X131578890Y-67069554D01*
X131640213Y-67036069D01*
X131709904Y-67041053D01*
X131759386Y-67075007D01*
X131866404Y-67195805D01*
X131866406Y-67195807D01*
X131911869Y-67227187D01*
X131917501Y-67231075D01*
X131917503Y-67231076D01*
X131961493Y-67285358D01*
X131969153Y-67354807D01*
X131938050Y-67417372D01*
X131934744Y-67420807D01*
X131107436Y-68248114D01*
X131107436Y-68248115D01*
X131249960Y-68354807D01*
X131249961Y-68354808D01*
X131501042Y-68491908D01*
X131501041Y-68491908D01*
X131769104Y-68591890D01*
X132048637Y-68652699D01*
X132333999Y-68673109D01*
X132334001Y-68673109D01*
X132619362Y-68652699D01*
X132898895Y-68591890D01*
X133166958Y-68491908D01*
X133418047Y-68354803D01*
X133560561Y-68248116D01*
X133560562Y-68248115D01*
X132733254Y-67420807D01*
X132699769Y-67359484D01*
X132704753Y-67289792D01*
X132746625Y-67233859D01*
X132750460Y-67231100D01*
X132801595Y-67195806D01*
X132908615Y-67075005D01*
X132967801Y-67037881D01*
X133037666Y-67038649D01*
X133089108Y-67069554D01*
X133914115Y-67894562D01*
X133914116Y-67894561D01*
X134020803Y-67752047D01*
X134157908Y-67500958D01*
X134257890Y-67232895D01*
X134318699Y-66953362D01*
X134339109Y-66668001D01*
X136678390Y-66668001D01*
X136698804Y-66953433D01*
X136759628Y-67233037D01*
X136759630Y-67233043D01*
X136759631Y-67233046D01*
X136858290Y-67497559D01*
X136859635Y-67501166D01*
X136996770Y-67752309D01*
X136996775Y-67752317D01*
X137168254Y-67981387D01*
X137168270Y-67981405D01*
X137370594Y-68183729D01*
X137370612Y-68183745D01*
X137599682Y-68355224D01*
X137599690Y-68355229D01*
X137850833Y-68492364D01*
X137850832Y-68492364D01*
X137850836Y-68492365D01*
X137850839Y-68492367D01*
X138118954Y-68592369D01*
X138118960Y-68592370D01*
X138118962Y-68592371D01*
X138398566Y-68653195D01*
X138398568Y-68653195D01*
X138398572Y-68653196D01*
X138652220Y-68671337D01*
X138683999Y-68673610D01*
X138684000Y-68673610D01*
X138684001Y-68673610D01*
X138712595Y-68671564D01*
X138969428Y-68653196D01*
X139249046Y-68592369D01*
X139517161Y-68492367D01*
X139768315Y-68355226D01*
X139997395Y-68183739D01*
X140199739Y-67981395D01*
X140371226Y-67752315D01*
X140508367Y-67501161D01*
X140608369Y-67233046D01*
X140650657Y-67038649D01*
X140669195Y-66953433D01*
X140669195Y-66953432D01*
X140669196Y-66953428D01*
X140689610Y-66668000D01*
X140669196Y-66382572D01*
X140650824Y-66298118D01*
X140608371Y-66102962D01*
X140608370Y-66102960D01*
X140608369Y-66102954D01*
X140508367Y-65834839D01*
X140371372Y-65583953D01*
X140371229Y-65583690D01*
X140371224Y-65583682D01*
X140199745Y-65354612D01*
X140199729Y-65354594D01*
X139997405Y-65152270D01*
X139997387Y-65152254D01*
X139768317Y-64980775D01*
X139768309Y-64980770D01*
X139517166Y-64843635D01*
X139517167Y-64843635D01*
X139409914Y-64803632D01*
X139249046Y-64743631D01*
X139249043Y-64743630D01*
X139249037Y-64743628D01*
X138969433Y-64682804D01*
X138684001Y-64662390D01*
X138683999Y-64662390D01*
X138398566Y-64682804D01*
X138118962Y-64743628D01*
X137850833Y-64843635D01*
X137599690Y-64980770D01*
X137599682Y-64980775D01*
X137370612Y-65152254D01*
X137370594Y-65152270D01*
X137168270Y-65354594D01*
X137168254Y-65354612D01*
X136996775Y-65583682D01*
X136996770Y-65583690D01*
X136859635Y-65834833D01*
X136759628Y-66102962D01*
X136698804Y-66382566D01*
X136678390Y-66667998D01*
X136678390Y-66668001D01*
X134339109Y-66668001D01*
X134339109Y-66667998D01*
X134318699Y-66382637D01*
X134257890Y-66103104D01*
X134157908Y-65835041D01*
X134020808Y-65583961D01*
X134020807Y-65583960D01*
X133914115Y-65441436D01*
X133089108Y-66266444D01*
X133027785Y-66299929D01*
X132958093Y-66294945D01*
X132908612Y-66260990D01*
X132801599Y-66140198D01*
X132801597Y-66140196D01*
X132801595Y-66140194D01*
X132750496Y-66104923D01*
X132750495Y-66104922D01*
X132706505Y-66050639D01*
X132698845Y-65981190D01*
X132729949Y-65918625D01*
X132733254Y-65915191D01*
X133560562Y-65087883D01*
X133560561Y-65087882D01*
X133418046Y-64981196D01*
X133418038Y-64981191D01*
X133166957Y-64844091D01*
X133166958Y-64844091D01*
X132898895Y-64744109D01*
X132619362Y-64683300D01*
X132334001Y-64662891D01*
X132333999Y-64662891D01*
X132048637Y-64683300D01*
X131769104Y-64744109D01*
X131501041Y-64844091D01*
X131249961Y-64981191D01*
X131249953Y-64981196D01*
X131107436Y-65087882D01*
X131107436Y-65087883D01*
X131934745Y-65915192D01*
X131968230Y-65976515D01*
X131963246Y-66046207D01*
X131921374Y-66102140D01*
X131917504Y-66104923D01*
X131866407Y-66140192D01*
X131866404Y-66140194D01*
X131759387Y-66260992D01*
X131700197Y-66298118D01*
X131630332Y-66297350D01*
X131578891Y-66266445D01*
X130753883Y-65441436D01*
X130753882Y-65441437D01*
X130647196Y-65583953D01*
X130647191Y-65583961D01*
X130510091Y-65835041D01*
X130410109Y-66103104D01*
X130349300Y-66382637D01*
X130328891Y-66667998D01*
X130328891Y-66668001D01*
X129750000Y-66668001D01*
X129750000Y-55920004D01*
X143194953Y-55920004D01*
X143215113Y-56189026D01*
X143215113Y-56189028D01*
X143275142Y-56452033D01*
X143275148Y-56452052D01*
X143373709Y-56703181D01*
X143373708Y-56703181D01*
X143508602Y-56936822D01*
X143562294Y-57004151D01*
X144282331Y-56284114D01*
X144343654Y-56250629D01*
X144413345Y-56255613D01*
X144469279Y-56297485D01*
X144474707Y-56305350D01*
X144495187Y-56337620D01*
X144495188Y-56337621D01*
X144614904Y-56450041D01*
X144618266Y-56452484D01*
X144620264Y-56455074D01*
X144620590Y-56455381D01*
X144620540Y-56455433D01*
X144660934Y-56507812D01*
X144666915Y-56577425D01*
X144634311Y-56639221D01*
X144633065Y-56640485D01*
X143914848Y-57358702D01*
X144097483Y-57483220D01*
X144097485Y-57483221D01*
X144340539Y-57600269D01*
X144340537Y-57600269D01*
X144598337Y-57679790D01*
X144598343Y-57679792D01*
X144865101Y-57719999D01*
X144865110Y-57720000D01*
X145134890Y-57720000D01*
X145134898Y-57719999D01*
X145401656Y-57679792D01*
X145401662Y-57679790D01*
X145659461Y-57600269D01*
X145902521Y-57483218D01*
X146085150Y-57358702D01*
X145363234Y-56636787D01*
X145329749Y-56575464D01*
X145334733Y-56505773D01*
X145376605Y-56449839D01*
X145377953Y-56448844D01*
X145448492Y-56397595D01*
X145534871Y-56293180D01*
X145592768Y-56254074D01*
X145662620Y-56252478D01*
X145718094Y-56284541D01*
X146437703Y-57004151D01*
X146437704Y-57004150D01*
X146491393Y-56936828D01*
X146491400Y-56936817D01*
X146626290Y-56703181D01*
X146724851Y-56452052D01*
X146724857Y-56452033D01*
X146784886Y-56189028D01*
X146784886Y-56189026D01*
X146805047Y-55920004D01*
X146805047Y-55919995D01*
X146784886Y-55650973D01*
X146784886Y-55650971D01*
X146724857Y-55387966D01*
X146724851Y-55387947D01*
X146626290Y-55136818D01*
X146626291Y-55136818D01*
X146491397Y-54903177D01*
X146437704Y-54835847D01*
X145717667Y-55555884D01*
X145656344Y-55589369D01*
X145586652Y-55584385D01*
X145530719Y-55542513D01*
X145525290Y-55534646D01*
X145523771Y-55532252D01*
X145504814Y-55502381D01*
X145440942Y-55442402D01*
X145385097Y-55389960D01*
X145381732Y-55387515D01*
X145379731Y-55384920D01*
X145379410Y-55384619D01*
X145379458Y-55384567D01*
X145339064Y-55332187D01*
X145333082Y-55262574D01*
X145365685Y-55200778D01*
X145366932Y-55199513D01*
X146085150Y-54481296D01*
X145902517Y-54356779D01*
X145902516Y-54356778D01*
X145659460Y-54239730D01*
X145659462Y-54239730D01*
X145401662Y-54160209D01*
X145401656Y-54160207D01*
X145134898Y-54120000D01*
X144865101Y-54120000D01*
X144598343Y-54160207D01*
X144598337Y-54160209D01*
X144340538Y-54239730D01*
X144097485Y-54356778D01*
X144097476Y-54356783D01*
X143914848Y-54481296D01*
X144636765Y-55203212D01*
X144670250Y-55264535D01*
X144665266Y-55334226D01*
X144623394Y-55390160D01*
X144621970Y-55391210D01*
X144551510Y-55442402D01*
X144551508Y-55442405D01*
X144465130Y-55546818D01*
X144407230Y-55585925D01*
X144337378Y-55587521D01*
X144281905Y-55555458D01*
X143562295Y-54835848D01*
X143508600Y-54903180D01*
X143373709Y-55136818D01*
X143275148Y-55387947D01*
X143275142Y-55387966D01*
X143215113Y-55650971D01*
X143215113Y-55650973D01*
X143194953Y-55919995D01*
X143194953Y-55920004D01*
X129750000Y-55920004D01*
X129750000Y-49752440D01*
X129750191Y-49747574D01*
X129761408Y-49605041D01*
X129767701Y-49525070D01*
X129770743Y-49505864D01*
X129821139Y-49295953D01*
X129827145Y-49277468D01*
X129909757Y-49078024D01*
X129918590Y-49060691D01*
X130031375Y-48876644D01*
X130042812Y-48860903D01*
X130183002Y-48696761D01*
X130196761Y-48683002D01*
X130360903Y-48542812D01*
X130376644Y-48531375D01*
X130560694Y-48418588D01*
X130578024Y-48409757D01*
X130777468Y-48327145D01*
X130795953Y-48321139D01*
X131005864Y-48270743D01*
X131025070Y-48267701D01*
X131213256Y-48252891D01*
X131247574Y-48250191D01*
X131252440Y-48250000D01*
X131829828Y-48250000D01*
X131896867Y-48269685D01*
G37*
G04 #@! TD.AperFunction*
G04 #@! TA.AperFunction,Conductor*
G36*
X93185632Y-48264250D02*
G01*
X93206540Y-48252834D01*
X93232898Y-48250000D01*
X93747560Y-48250000D01*
X93752426Y-48250191D01*
X93786010Y-48252834D01*
X93974927Y-48267701D01*
X93994137Y-48270744D01*
X94204042Y-48321138D01*
X94222534Y-48327147D01*
X94384813Y-48394364D01*
X94421971Y-48409756D01*
X94439308Y-48418590D01*
X94623355Y-48531375D01*
X94639096Y-48542812D01*
X94803238Y-48683002D01*
X94816997Y-48696761D01*
X94957187Y-48860903D01*
X94968624Y-48876644D01*
X95081409Y-49060691D01*
X95090243Y-49078028D01*
X95172850Y-49277458D01*
X95178863Y-49295964D01*
X95229254Y-49505857D01*
X95232298Y-49525074D01*
X95237468Y-49590760D01*
X95223104Y-49659138D01*
X95174053Y-49708895D01*
X95105888Y-49724234D01*
X95040251Y-49700286D01*
X95005018Y-49659917D01*
X94871808Y-49415961D01*
X94871807Y-49415960D01*
X94765115Y-49273436D01*
X93940108Y-50098444D01*
X93878785Y-50131929D01*
X93809093Y-50126945D01*
X93759612Y-50092990D01*
X93652599Y-49972198D01*
X93652597Y-49972196D01*
X93652595Y-49972194D01*
X93601496Y-49936923D01*
X93601495Y-49936922D01*
X93557505Y-49882639D01*
X93549845Y-49813190D01*
X93580949Y-49750625D01*
X93584254Y-49747191D01*
X94411562Y-48919883D01*
X94411561Y-48919882D01*
X94269046Y-48813196D01*
X94269038Y-48813191D01*
X94017957Y-48676091D01*
X94017958Y-48676091D01*
X93749895Y-48576109D01*
X93470362Y-48515300D01*
X93224052Y-48497684D01*
X93186504Y-48483679D01*
X93172037Y-48492977D01*
X93145948Y-48497684D01*
X92899637Y-48515300D01*
X92620104Y-48576109D01*
X92352041Y-48676091D01*
X92100961Y-48813191D01*
X92100953Y-48813196D01*
X91958436Y-48919882D01*
X91958436Y-48919883D01*
X92785745Y-49747192D01*
X92819230Y-49808515D01*
X92814246Y-49878207D01*
X92772374Y-49934140D01*
X92768504Y-49936923D01*
X92717407Y-49972192D01*
X92717404Y-49972194D01*
X92610387Y-50092992D01*
X92551197Y-50130118D01*
X92481332Y-50129350D01*
X92429891Y-50098445D01*
X91604883Y-49273436D01*
X91604882Y-49273437D01*
X91498196Y-49415953D01*
X91498191Y-49415961D01*
X91361091Y-49667041D01*
X91261109Y-49935104D01*
X91200300Y-50214637D01*
X91179891Y-50499998D01*
X91179891Y-50500001D01*
X91200300Y-50785362D01*
X91261109Y-51064895D01*
X91361091Y-51332958D01*
X91498191Y-51584038D01*
X91498196Y-51584046D01*
X91604882Y-51726561D01*
X91604883Y-51726562D01*
X92429890Y-50901554D01*
X92491213Y-50868069D01*
X92560904Y-50873053D01*
X92610386Y-50907007D01*
X92717404Y-51027805D01*
X92717406Y-51027807D01*
X92762869Y-51059187D01*
X92768501Y-51063075D01*
X92768503Y-51063076D01*
X92812493Y-51117358D01*
X92820153Y-51186807D01*
X92789050Y-51249372D01*
X92785744Y-51252807D01*
X91958436Y-52080114D01*
X91958436Y-52080115D01*
X92100960Y-52186807D01*
X92100961Y-52186808D01*
X92352042Y-52323908D01*
X92352041Y-52323908D01*
X92620104Y-52423890D01*
X92899637Y-52484699D01*
X93184999Y-52505109D01*
X93185001Y-52505109D01*
X93470362Y-52484699D01*
X93749895Y-52423890D01*
X94017958Y-52323908D01*
X94269047Y-52186803D01*
X94411561Y-52080116D01*
X94411562Y-52080115D01*
X93584254Y-51252807D01*
X93550769Y-51191484D01*
X93555753Y-51121792D01*
X93597625Y-51065859D01*
X93601460Y-51063100D01*
X93652595Y-51027806D01*
X93759615Y-50907005D01*
X93818801Y-50869881D01*
X93888666Y-50870649D01*
X93940108Y-50901554D01*
X94765115Y-51726562D01*
X94765116Y-51726561D01*
X94871803Y-51584047D01*
X95008908Y-51332957D01*
X95009816Y-51330524D01*
X95010338Y-51329826D01*
X95010748Y-51328929D01*
X95010943Y-51329018D01*
X95051685Y-51274588D01*
X95117148Y-51250168D01*
X95185422Y-51265017D01*
X95234830Y-51314420D01*
X95250000Y-51373852D01*
X95250000Y-65856147D01*
X95230315Y-65923186D01*
X95177511Y-65968941D01*
X95108353Y-65978885D01*
X95044797Y-65949860D01*
X95010880Y-65901010D01*
X95010748Y-65901071D01*
X95010413Y-65900339D01*
X95009818Y-65899481D01*
X95008908Y-65897042D01*
X94871808Y-65645961D01*
X94871807Y-65645960D01*
X94765115Y-65503436D01*
X93940108Y-66328444D01*
X93878785Y-66361929D01*
X93809093Y-66356945D01*
X93759612Y-66322990D01*
X93652599Y-66202198D01*
X93652597Y-66202196D01*
X93652595Y-66202194D01*
X93601496Y-66166923D01*
X93601495Y-66166922D01*
X93557505Y-66112639D01*
X93549845Y-66043190D01*
X93580949Y-65980625D01*
X93584254Y-65977191D01*
X94411562Y-65149883D01*
X94411561Y-65149882D01*
X94269046Y-65043196D01*
X94269038Y-65043191D01*
X94017957Y-64906091D01*
X94017958Y-64906091D01*
X93749895Y-64806109D01*
X93470362Y-64745300D01*
X93185001Y-64724891D01*
X93184999Y-64724891D01*
X92899637Y-64745300D01*
X92620104Y-64806109D01*
X92352041Y-64906091D01*
X92100961Y-65043191D01*
X92100953Y-65043196D01*
X91958436Y-65149882D01*
X91958436Y-65149883D01*
X92785745Y-65977192D01*
X92819230Y-66038515D01*
X92814246Y-66108207D01*
X92772374Y-66164140D01*
X92768504Y-66166923D01*
X92717407Y-66202192D01*
X92717404Y-66202194D01*
X92610387Y-66322992D01*
X92551197Y-66360118D01*
X92481332Y-66359350D01*
X92429891Y-66328445D01*
X91604883Y-65503436D01*
X91604882Y-65503437D01*
X91498196Y-65645953D01*
X91498191Y-65645961D01*
X91361091Y-65897041D01*
X91261109Y-66165104D01*
X91200300Y-66444637D01*
X91179891Y-66729998D01*
X91179891Y-66730001D01*
X91200300Y-67015362D01*
X91261109Y-67294895D01*
X91361091Y-67562958D01*
X91498191Y-67814038D01*
X91498196Y-67814046D01*
X91604882Y-67956561D01*
X91604883Y-67956562D01*
X92429890Y-67131554D01*
X92491213Y-67098069D01*
X92560904Y-67103053D01*
X92610386Y-67137007D01*
X92717404Y-67257805D01*
X92717406Y-67257807D01*
X92762869Y-67289187D01*
X92768501Y-67293075D01*
X92768503Y-67293076D01*
X92812493Y-67347358D01*
X92820153Y-67416807D01*
X92789050Y-67479372D01*
X92785744Y-67482807D01*
X91958436Y-68310114D01*
X91958436Y-68310115D01*
X92100960Y-68416807D01*
X92100961Y-68416808D01*
X92352042Y-68553908D01*
X92352041Y-68553908D01*
X92620104Y-68653890D01*
X92899637Y-68714699D01*
X93184999Y-68735109D01*
X93185001Y-68735109D01*
X93470362Y-68714699D01*
X93749895Y-68653890D01*
X94017958Y-68553908D01*
X94269047Y-68416803D01*
X94411561Y-68310116D01*
X94411562Y-68310115D01*
X93584254Y-67482807D01*
X93550769Y-67421484D01*
X93555753Y-67351792D01*
X93597625Y-67295859D01*
X93601460Y-67293100D01*
X93652595Y-67257806D01*
X93759615Y-67137005D01*
X93818801Y-67099881D01*
X93888666Y-67100649D01*
X93940108Y-67131554D01*
X94765115Y-67956562D01*
X94765116Y-67956561D01*
X94871803Y-67814047D01*
X95006857Y-67566714D01*
X95056262Y-67517309D01*
X95124535Y-67502457D01*
X95189999Y-67526874D01*
X95231871Y-67582807D01*
X95239307Y-67635870D01*
X95232298Y-67724924D01*
X95229254Y-67744142D01*
X95178863Y-67954035D01*
X95172850Y-67972541D01*
X95090243Y-68171971D01*
X95081409Y-68189308D01*
X94968624Y-68373355D01*
X94957187Y-68389096D01*
X94816997Y-68553238D01*
X94803238Y-68566997D01*
X94639096Y-68707187D01*
X94623355Y-68718624D01*
X94439308Y-68831409D01*
X94421971Y-68840243D01*
X94222541Y-68922850D01*
X94204035Y-68928863D01*
X93994142Y-68979254D01*
X93974924Y-68982298D01*
X93758779Y-68999309D01*
X93753913Y-68999500D01*
X85496087Y-68999500D01*
X85491221Y-68999309D01*
X85275075Y-68982298D01*
X85255857Y-68979254D01*
X85045964Y-68928863D01*
X85027458Y-68922850D01*
X84828028Y-68840243D01*
X84810691Y-68831409D01*
X84626644Y-68718624D01*
X84610903Y-68707187D01*
X84446761Y-68566997D01*
X84433002Y-68553238D01*
X84292812Y-68389096D01*
X84281375Y-68373355D01*
X84168590Y-68189308D01*
X84159756Y-68171971D01*
X84144364Y-68134813D01*
X84077147Y-67972534D01*
X84071138Y-67954042D01*
X84020744Y-67744137D01*
X84017701Y-67724923D01*
X84000191Y-67502425D01*
X84000000Y-67497559D01*
X84000000Y-66730004D01*
X85029451Y-66730004D01*
X85049616Y-66999101D01*
X85109664Y-67262188D01*
X85109666Y-67262195D01*
X85202040Y-67497559D01*
X85208257Y-67513398D01*
X85343185Y-67747102D01*
X85457834Y-67890867D01*
X85511442Y-67958089D01*
X85698183Y-68131358D01*
X85709259Y-68141635D01*
X85932226Y-68293651D01*
X86175359Y-68410738D01*
X86433228Y-68490280D01*
X86433229Y-68490280D01*
X86433232Y-68490281D01*
X86700063Y-68530499D01*
X86700068Y-68530499D01*
X86700071Y-68530500D01*
X86700072Y-68530500D01*
X86969928Y-68530500D01*
X86969929Y-68530500D01*
X86969936Y-68530499D01*
X87236767Y-68490281D01*
X87236768Y-68490280D01*
X87236772Y-68490280D01*
X87494641Y-68410738D01*
X87737775Y-68293651D01*
X87960741Y-68141635D01*
X88158561Y-67958085D01*
X88326815Y-67747102D01*
X88461743Y-67513398D01*
X88560334Y-67262195D01*
X88620383Y-66999103D01*
X88640549Y-66730000D01*
X88620383Y-66460897D01*
X88560334Y-66197805D01*
X88461743Y-65946602D01*
X88326815Y-65712898D01*
X88158561Y-65501915D01*
X88158560Y-65501914D01*
X88158557Y-65501910D01*
X87960741Y-65318365D01*
X87960740Y-65318364D01*
X87737775Y-65166349D01*
X87737769Y-65166346D01*
X87737768Y-65166345D01*
X87737767Y-65166344D01*
X87494643Y-65049263D01*
X87494645Y-65049263D01*
X87236773Y-64969720D01*
X87236767Y-64969718D01*
X86969936Y-64929500D01*
X86969929Y-64929500D01*
X86700071Y-64929500D01*
X86700063Y-64929500D01*
X86433232Y-64969718D01*
X86433226Y-64969720D01*
X86175358Y-65049262D01*
X85932230Y-65166346D01*
X85709258Y-65318365D01*
X85511442Y-65501910D01*
X85343185Y-65712898D01*
X85208258Y-65946599D01*
X85208256Y-65946603D01*
X85109666Y-66197804D01*
X85109664Y-66197811D01*
X85049616Y-66460898D01*
X85029451Y-66729995D01*
X85029451Y-66730004D01*
X84000000Y-66730004D01*
X84000000Y-64999998D01*
X83999999Y-64999998D01*
X84000000Y-63500000D01*
X82500002Y-63500000D01*
X79002440Y-63500000D01*
X78997574Y-63499809D01*
X78775075Y-63482298D01*
X78755857Y-63479254D01*
X78545964Y-63428863D01*
X78527458Y-63422850D01*
X78328028Y-63340243D01*
X78310691Y-63331409D01*
X78126644Y-63218624D01*
X78110903Y-63207187D01*
X77946761Y-63066997D01*
X77933002Y-63053238D01*
X77792812Y-62889096D01*
X77781375Y-62873355D01*
X77668590Y-62689308D01*
X77659756Y-62671971D01*
X77644364Y-62634813D01*
X77577147Y-62472534D01*
X77571138Y-62454042D01*
X77520744Y-62244137D01*
X77517701Y-62224923D01*
X77500191Y-62002425D01*
X77500000Y-61997559D01*
X77500000Y-61248004D01*
X78713953Y-61248004D01*
X78734113Y-61517026D01*
X78734113Y-61517028D01*
X78794142Y-61780033D01*
X78794148Y-61780052D01*
X78892709Y-62031181D01*
X78892708Y-62031181D01*
X79027602Y-62264822D01*
X79081294Y-62332151D01*
X79801331Y-61612114D01*
X79862654Y-61578629D01*
X79932345Y-61583613D01*
X79988279Y-61625485D01*
X79993707Y-61633350D01*
X80014187Y-61665620D01*
X80014188Y-61665621D01*
X80133904Y-61778041D01*
X80137266Y-61780484D01*
X80139264Y-61783074D01*
X80139590Y-61783381D01*
X80139540Y-61783433D01*
X80179934Y-61835812D01*
X80185915Y-61905425D01*
X80153311Y-61967221D01*
X80152065Y-61968485D01*
X79433848Y-62686702D01*
X79616483Y-62811220D01*
X79616485Y-62811221D01*
X79859539Y-62928269D01*
X79859537Y-62928269D01*
X80117337Y-63007790D01*
X80117343Y-63007792D01*
X80384101Y-63047999D01*
X80384110Y-63048000D01*
X80653890Y-63048000D01*
X80653898Y-63047999D01*
X80920656Y-63007792D01*
X80920662Y-63007790D01*
X81178461Y-62928269D01*
X81421521Y-62811218D01*
X81604150Y-62686702D01*
X80882234Y-61964787D01*
X80848749Y-61903464D01*
X80853733Y-61833773D01*
X80895605Y-61777839D01*
X80896953Y-61776844D01*
X80967492Y-61725595D01*
X81053871Y-61621180D01*
X81111768Y-61582074D01*
X81181620Y-61580478D01*
X81237094Y-61612541D01*
X81956703Y-62332151D01*
X81956704Y-62332150D01*
X82010393Y-62264828D01*
X82010400Y-62264817D01*
X82145290Y-62031181D01*
X82243851Y-61780052D01*
X82243857Y-61780033D01*
X82303886Y-61517028D01*
X82303886Y-61517026D01*
X82324047Y-61248004D01*
X82324047Y-61247995D01*
X82303886Y-60978973D01*
X82303886Y-60978971D01*
X82243857Y-60715966D01*
X82243851Y-60715947D01*
X82145290Y-60464818D01*
X82145291Y-60464818D01*
X82010397Y-60231177D01*
X81956704Y-60163847D01*
X81236667Y-60883884D01*
X81175344Y-60917369D01*
X81105652Y-60912385D01*
X81049719Y-60870513D01*
X81044290Y-60862646D01*
X81042771Y-60860252D01*
X81023814Y-60830381D01*
X80959942Y-60770402D01*
X80904097Y-60717960D01*
X80900732Y-60715515D01*
X80898731Y-60712920D01*
X80898410Y-60712619D01*
X80898458Y-60712567D01*
X80858064Y-60660187D01*
X80852082Y-60590574D01*
X80884685Y-60528778D01*
X80885932Y-60527513D01*
X81604150Y-59809296D01*
X81421517Y-59684779D01*
X81421516Y-59684778D01*
X81178460Y-59567730D01*
X81178462Y-59567730D01*
X80920662Y-59488209D01*
X80920656Y-59488207D01*
X80653898Y-59448000D01*
X80384101Y-59448000D01*
X80117343Y-59488207D01*
X80117337Y-59488209D01*
X79859538Y-59567730D01*
X79616485Y-59684778D01*
X79616476Y-59684783D01*
X79433848Y-59809296D01*
X80155765Y-60531212D01*
X80189250Y-60592535D01*
X80184266Y-60662226D01*
X80142394Y-60718160D01*
X80140970Y-60719210D01*
X80070510Y-60770402D01*
X80070508Y-60770405D01*
X79984130Y-60874818D01*
X79926230Y-60913925D01*
X79856378Y-60915521D01*
X79800905Y-60883458D01*
X79081295Y-60163848D01*
X79027600Y-60231180D01*
X78892709Y-60464818D01*
X78794148Y-60715947D01*
X78794142Y-60715966D01*
X78734113Y-60978971D01*
X78734113Y-60978973D01*
X78713953Y-61247995D01*
X78713953Y-61248004D01*
X77500000Y-61248004D01*
X77500000Y-60502440D01*
X77500191Y-60497574D01*
X77517701Y-60275076D01*
X77520743Y-60255864D01*
X77571139Y-60045953D01*
X77577145Y-60027468D01*
X77659757Y-59828024D01*
X77668590Y-59810691D01*
X77781375Y-59626644D01*
X77792812Y-59610903D01*
X77933002Y-59446761D01*
X77946761Y-59433002D01*
X78110903Y-59292812D01*
X78126644Y-59281375D01*
X78310694Y-59168588D01*
X78328024Y-59159757D01*
X78527468Y-59077145D01*
X78545953Y-59071139D01*
X78755864Y-59020743D01*
X78775070Y-59017701D01*
X78963256Y-59002891D01*
X78997574Y-59000191D01*
X79002440Y-59000000D01*
X82500002Y-59000000D01*
X84000000Y-59000000D01*
X84000000Y-49752439D01*
X84000191Y-49747574D01*
X84017701Y-49525076D01*
X84017702Y-49525074D01*
X84017701Y-49525070D01*
X84020743Y-49505864D01*
X84071139Y-49295953D01*
X84077145Y-49277468D01*
X84159757Y-49078024D01*
X84168590Y-49060691D01*
X84176374Y-49047989D01*
X84228577Y-48962801D01*
X84280386Y-48915929D01*
X84349316Y-48904506D01*
X84378270Y-48911651D01*
X84391112Y-48916520D01*
X84405062Y-48921811D01*
X84408508Y-48923239D01*
X84465068Y-48948695D01*
X84475042Y-48950522D01*
X84496656Y-48956548D01*
X84506127Y-48960140D01*
X84567673Y-48967613D01*
X84571370Y-48968175D01*
X84632394Y-48979358D01*
X84687377Y-48976031D01*
X84694303Y-48975613D01*
X84698048Y-48975500D01*
X85514951Y-48975500D01*
X85581990Y-48995185D01*
X85627745Y-49047989D01*
X85637689Y-49117147D01*
X85608664Y-49180703D01*
X85599292Y-49190399D01*
X85511442Y-49271910D01*
X85343185Y-49482898D01*
X85208258Y-49716599D01*
X85208256Y-49716603D01*
X85109666Y-49967804D01*
X85109664Y-49967811D01*
X85049616Y-50230898D01*
X85029451Y-50499995D01*
X85029451Y-50500004D01*
X85049616Y-50769101D01*
X85109664Y-51032188D01*
X85109666Y-51032195D01*
X85208256Y-51283396D01*
X85208258Y-51283400D01*
X85235062Y-51329826D01*
X85343185Y-51517102D01*
X85479080Y-51687509D01*
X85511442Y-51728089D01*
X85698183Y-51901358D01*
X85709259Y-51911635D01*
X85932226Y-52063651D01*
X86175359Y-52180738D01*
X86433228Y-52260280D01*
X86433229Y-52260280D01*
X86433232Y-52260281D01*
X86700063Y-52300499D01*
X86700068Y-52300499D01*
X86700071Y-52300500D01*
X86700072Y-52300500D01*
X86969928Y-52300500D01*
X86969929Y-52300500D01*
X86969936Y-52300499D01*
X87236767Y-52260281D01*
X87236768Y-52260280D01*
X87236772Y-52260280D01*
X87494641Y-52180738D01*
X87737775Y-52063651D01*
X87960741Y-51911635D01*
X88158561Y-51728085D01*
X88326815Y-51517102D01*
X88461743Y-51283398D01*
X88560334Y-51032195D01*
X88620383Y-50769103D01*
X88640549Y-50500000D01*
X88620383Y-50230897D01*
X88560334Y-49967805D01*
X88461743Y-49716602D01*
X88326815Y-49482898D01*
X88158561Y-49271915D01*
X88158560Y-49271914D01*
X88158557Y-49271910D01*
X87960741Y-49088365D01*
X87945579Y-49078028D01*
X87737775Y-48936349D01*
X87737771Y-48936347D01*
X87737768Y-48936345D01*
X87737767Y-48936344D01*
X87494643Y-48819263D01*
X87494642Y-48819262D01*
X87494146Y-48819109D01*
X87493595Y-48818939D01*
X87493270Y-48818724D01*
X87490324Y-48817568D01*
X87490571Y-48816937D01*
X87435338Y-48780368D01*
X87407182Y-48716422D01*
X87418067Y-48647406D01*
X87442462Y-48612775D01*
X87768921Y-48286317D01*
X87830243Y-48252834D01*
X87856601Y-48250000D01*
X93137102Y-48250000D01*
X93185632Y-48264250D01*
G37*
G04 #@! TD.AperFunction*
G04 #@! TA.AperFunction,Conductor*
G36*
X114144099Y-51819685D02*
G01*
X114189854Y-51872489D01*
X114201055Y-51922936D01*
X114234313Y-55799999D01*
X114234314Y-55800000D01*
X114710314Y-55800000D01*
X114777353Y-55819685D01*
X114823108Y-55872489D01*
X114834314Y-55924000D01*
X114834314Y-57600000D01*
X117910314Y-57600000D01*
X117977353Y-57619685D01*
X118023108Y-57672489D01*
X118034314Y-57724000D01*
X118034314Y-60276000D01*
X118014629Y-60343039D01*
X117961825Y-60388794D01*
X117910314Y-60400000D01*
X113524000Y-60400000D01*
X113456961Y-60380315D01*
X113411206Y-60327511D01*
X113400000Y-60276000D01*
X113400000Y-58000000D01*
X113124000Y-58000000D01*
X113056961Y-57980315D01*
X113011206Y-57927511D01*
X113000000Y-57876000D01*
X113000000Y-51924000D01*
X113019685Y-51856961D01*
X113072489Y-51811206D01*
X113124000Y-51800000D01*
X114077060Y-51800000D01*
X114144099Y-51819685D01*
G37*
G04 #@! TD.AperFunction*
G04 #@! TA.AperFunction,Conductor*
G36*
X112177353Y-51819685D02*
G01*
X112223108Y-51872489D01*
X112234314Y-51924000D01*
X112234314Y-57876000D01*
X112214629Y-57943039D01*
X112161825Y-57988794D01*
X112110314Y-58000000D01*
X111834314Y-58000000D01*
X111834314Y-60276000D01*
X111814629Y-60343039D01*
X111761825Y-60388794D01*
X111710314Y-60400000D01*
X107324000Y-60400000D01*
X107256961Y-60380315D01*
X107211206Y-60327511D01*
X107200000Y-60276000D01*
X107200000Y-57724000D01*
X107219685Y-57656961D01*
X107272489Y-57611206D01*
X107324000Y-57600000D01*
X110400000Y-57600000D01*
X110400000Y-55924000D01*
X110419685Y-55856961D01*
X110472489Y-55811206D01*
X110524000Y-55800000D01*
X111000000Y-55800000D01*
X111033259Y-51922934D01*
X111053517Y-51856068D01*
X111106712Y-51810768D01*
X111157254Y-51800000D01*
X112110314Y-51800000D01*
X112177353Y-51819685D01*
G37*
G04 #@! TD.AperFunction*
M02*
