G04 #@! TF.GenerationSoftware,KiCad,Pcbnew,7.0.7*
G04 #@! TF.CreationDate,2024-05-07T13:52:07+01:00*
G04 #@! TF.ProjectId,QA403 Impedance Fixture,51413430-3320-4496-9d70-6564616e6365,rev?*
G04 #@! TF.SameCoordinates,Original*
G04 #@! TF.FileFunction,Legend,Bot*
G04 #@! TF.FilePolarity,Positive*
%FSLAX46Y46*%
G04 Gerber Fmt 4.6, Leading zero omitted, Abs format (unit mm)*
G04 Created by KiCad (PCBNEW 7.0.7) date 2024-05-07 13:52:07*
%MOMM*%
%LPD*%
G01*
G04 APERTURE LIST*
%ADD10C,0.150000*%
%ADD11C,0.250000*%
%ADD12C,3.000000*%
%ADD13R,2.600000X2.600000*%
%ADD14C,2.600000*%
%ADD15C,2.400000*%
%ADD16O,2.400000X2.400000*%
%ADD17C,1.605000*%
%ADD18C,2.595000*%
G04 APERTURE END LIST*
D10*
X97400000Y-39000000D02*
X128200000Y-39000000D01*
X128200000Y-55600000D01*
X97400000Y-55600000D01*
X97400000Y-39000000D01*
D11*
X140188671Y-27369380D02*
X140236290Y-27417000D01*
X140236290Y-27417000D02*
X140379147Y-27464619D01*
X140379147Y-27464619D02*
X140474385Y-27464619D01*
X140474385Y-27464619D02*
X140617242Y-27417000D01*
X140617242Y-27417000D02*
X140712480Y-27321761D01*
X140712480Y-27321761D02*
X140760099Y-27226523D01*
X140760099Y-27226523D02*
X140807718Y-27036047D01*
X140807718Y-27036047D02*
X140807718Y-26893190D01*
X140807718Y-26893190D02*
X140760099Y-26702714D01*
X140760099Y-26702714D02*
X140712480Y-26607476D01*
X140712480Y-26607476D02*
X140617242Y-26512238D01*
X140617242Y-26512238D02*
X140474385Y-26464619D01*
X140474385Y-26464619D02*
X140379147Y-26464619D01*
X140379147Y-26464619D02*
X140236290Y-26512238D01*
X140236290Y-26512238D02*
X140188671Y-26559857D01*
X139617242Y-27464619D02*
X139712480Y-27417000D01*
X139712480Y-27417000D02*
X139760099Y-27369380D01*
X139760099Y-27369380D02*
X139807718Y-27274142D01*
X139807718Y-27274142D02*
X139807718Y-26988428D01*
X139807718Y-26988428D02*
X139760099Y-26893190D01*
X139760099Y-26893190D02*
X139712480Y-26845571D01*
X139712480Y-26845571D02*
X139617242Y-26797952D01*
X139617242Y-26797952D02*
X139474385Y-26797952D01*
X139474385Y-26797952D02*
X139379147Y-26845571D01*
X139379147Y-26845571D02*
X139331528Y-26893190D01*
X139331528Y-26893190D02*
X139283909Y-26988428D01*
X139283909Y-26988428D02*
X139283909Y-27274142D01*
X139283909Y-27274142D02*
X139331528Y-27369380D01*
X139331528Y-27369380D02*
X139379147Y-27417000D01*
X139379147Y-27417000D02*
X139474385Y-27464619D01*
X139474385Y-27464619D02*
X139617242Y-27464619D01*
X138855337Y-26797952D02*
X138855337Y-27464619D01*
X138855337Y-26893190D02*
X138807718Y-26845571D01*
X138807718Y-26845571D02*
X138712480Y-26797952D01*
X138712480Y-26797952D02*
X138569623Y-26797952D01*
X138569623Y-26797952D02*
X138474385Y-26845571D01*
X138474385Y-26845571D02*
X138426766Y-26940809D01*
X138426766Y-26940809D02*
X138426766Y-27464619D01*
X137950575Y-26797952D02*
X137950575Y-27464619D01*
X137950575Y-26893190D02*
X137902956Y-26845571D01*
X137902956Y-26845571D02*
X137807718Y-26797952D01*
X137807718Y-26797952D02*
X137664861Y-26797952D01*
X137664861Y-26797952D02*
X137569623Y-26845571D01*
X137569623Y-26845571D02*
X137522004Y-26940809D01*
X137522004Y-26940809D02*
X137522004Y-27464619D01*
X136664861Y-27417000D02*
X136760099Y-27464619D01*
X136760099Y-27464619D02*
X136950575Y-27464619D01*
X136950575Y-27464619D02*
X137045813Y-27417000D01*
X137045813Y-27417000D02*
X137093432Y-27321761D01*
X137093432Y-27321761D02*
X137093432Y-26940809D01*
X137093432Y-26940809D02*
X137045813Y-26845571D01*
X137045813Y-26845571D02*
X136950575Y-26797952D01*
X136950575Y-26797952D02*
X136760099Y-26797952D01*
X136760099Y-26797952D02*
X136664861Y-26845571D01*
X136664861Y-26845571D02*
X136617242Y-26940809D01*
X136617242Y-26940809D02*
X136617242Y-27036047D01*
X136617242Y-27036047D02*
X137093432Y-27131285D01*
X135760099Y-27417000D02*
X135855337Y-27464619D01*
X135855337Y-27464619D02*
X136045813Y-27464619D01*
X136045813Y-27464619D02*
X136141051Y-27417000D01*
X136141051Y-27417000D02*
X136188670Y-27369380D01*
X136188670Y-27369380D02*
X136236289Y-27274142D01*
X136236289Y-27274142D02*
X136236289Y-26988428D01*
X136236289Y-26988428D02*
X136188670Y-26893190D01*
X136188670Y-26893190D02*
X136141051Y-26845571D01*
X136141051Y-26845571D02*
X136045813Y-26797952D01*
X136045813Y-26797952D02*
X135855337Y-26797952D01*
X135855337Y-26797952D02*
X135760099Y-26845571D01*
X135474384Y-26797952D02*
X135093432Y-26797952D01*
X135331527Y-26464619D02*
X135331527Y-27321761D01*
X135331527Y-27321761D02*
X135283908Y-27417000D01*
X135283908Y-27417000D02*
X135188670Y-27464619D01*
X135188670Y-27464619D02*
X135093432Y-27464619D01*
X134760098Y-27464619D02*
X134760098Y-26797952D01*
X134760098Y-26464619D02*
X134807717Y-26512238D01*
X134807717Y-26512238D02*
X134760098Y-26559857D01*
X134760098Y-26559857D02*
X134712479Y-26512238D01*
X134712479Y-26512238D02*
X134760098Y-26464619D01*
X134760098Y-26464619D02*
X134760098Y-26559857D01*
X134141051Y-27464619D02*
X134236289Y-27417000D01*
X134236289Y-27417000D02*
X134283908Y-27369380D01*
X134283908Y-27369380D02*
X134331527Y-27274142D01*
X134331527Y-27274142D02*
X134331527Y-26988428D01*
X134331527Y-26988428D02*
X134283908Y-26893190D01*
X134283908Y-26893190D02*
X134236289Y-26845571D01*
X134236289Y-26845571D02*
X134141051Y-26797952D01*
X134141051Y-26797952D02*
X133998194Y-26797952D01*
X133998194Y-26797952D02*
X133902956Y-26845571D01*
X133902956Y-26845571D02*
X133855337Y-26893190D01*
X133855337Y-26893190D02*
X133807718Y-26988428D01*
X133807718Y-26988428D02*
X133807718Y-27274142D01*
X133807718Y-27274142D02*
X133855337Y-27369380D01*
X133855337Y-27369380D02*
X133902956Y-27417000D01*
X133902956Y-27417000D02*
X133998194Y-27464619D01*
X133998194Y-27464619D02*
X134141051Y-27464619D01*
X133379146Y-26797952D02*
X133379146Y-27464619D01*
X133379146Y-26893190D02*
X133331527Y-26845571D01*
X133331527Y-26845571D02*
X133236289Y-26797952D01*
X133236289Y-26797952D02*
X133093432Y-26797952D01*
X133093432Y-26797952D02*
X132998194Y-26845571D01*
X132998194Y-26845571D02*
X132950575Y-26940809D01*
X132950575Y-26940809D02*
X132950575Y-27464619D01*
X131379146Y-26940809D02*
X131712479Y-26940809D01*
X131712479Y-27464619D02*
X131712479Y-26464619D01*
X131712479Y-26464619D02*
X131236289Y-26464619D01*
X130855336Y-27464619D02*
X130855336Y-26797952D01*
X130855336Y-26464619D02*
X130902955Y-26512238D01*
X130902955Y-26512238D02*
X130855336Y-26559857D01*
X130855336Y-26559857D02*
X130807717Y-26512238D01*
X130807717Y-26512238D02*
X130855336Y-26464619D01*
X130855336Y-26464619D02*
X130855336Y-26559857D01*
X130474384Y-27464619D02*
X129950575Y-26797952D01*
X130474384Y-26797952D02*
X129950575Y-27464619D01*
X129712479Y-26797952D02*
X129331527Y-26797952D01*
X129569622Y-26464619D02*
X129569622Y-27321761D01*
X129569622Y-27321761D02*
X129522003Y-27417000D01*
X129522003Y-27417000D02*
X129426765Y-27464619D01*
X129426765Y-27464619D02*
X129331527Y-27464619D01*
X128569622Y-26797952D02*
X128569622Y-27464619D01*
X128998193Y-26797952D02*
X128998193Y-27321761D01*
X128998193Y-27321761D02*
X128950574Y-27417000D01*
X128950574Y-27417000D02*
X128855336Y-27464619D01*
X128855336Y-27464619D02*
X128712479Y-27464619D01*
X128712479Y-27464619D02*
X128617241Y-27417000D01*
X128617241Y-27417000D02*
X128569622Y-27369380D01*
X128093431Y-27464619D02*
X128093431Y-26797952D01*
X128093431Y-26988428D02*
X128045812Y-26893190D01*
X128045812Y-26893190D02*
X127998193Y-26845571D01*
X127998193Y-26845571D02*
X127902955Y-26797952D01*
X127902955Y-26797952D02*
X127807717Y-26797952D01*
X127093431Y-27417000D02*
X127188669Y-27464619D01*
X127188669Y-27464619D02*
X127379145Y-27464619D01*
X127379145Y-27464619D02*
X127474383Y-27417000D01*
X127474383Y-27417000D02*
X127522002Y-27321761D01*
X127522002Y-27321761D02*
X127522002Y-26940809D01*
X127522002Y-26940809D02*
X127474383Y-26845571D01*
X127474383Y-26845571D02*
X127379145Y-26797952D01*
X127379145Y-26797952D02*
X127188669Y-26797952D01*
X127188669Y-26797952D02*
X127093431Y-26845571D01*
X127093431Y-26845571D02*
X127045812Y-26940809D01*
X127045812Y-26940809D02*
X127045812Y-27036047D01*
X127045812Y-27036047D02*
X127522002Y-27131285D01*
X125998192Y-26797952D02*
X125617240Y-26797952D01*
X125855335Y-27464619D02*
X125855335Y-26607476D01*
X125855335Y-26607476D02*
X125807716Y-26512238D01*
X125807716Y-26512238D02*
X125712478Y-26464619D01*
X125712478Y-26464619D02*
X125617240Y-26464619D01*
X125141049Y-27464619D02*
X125236287Y-27417000D01*
X125236287Y-27417000D02*
X125283906Y-27369380D01*
X125283906Y-27369380D02*
X125331525Y-27274142D01*
X125331525Y-27274142D02*
X125331525Y-26988428D01*
X125331525Y-26988428D02*
X125283906Y-26893190D01*
X125283906Y-26893190D02*
X125236287Y-26845571D01*
X125236287Y-26845571D02*
X125141049Y-26797952D01*
X125141049Y-26797952D02*
X124998192Y-26797952D01*
X124998192Y-26797952D02*
X124902954Y-26845571D01*
X124902954Y-26845571D02*
X124855335Y-26893190D01*
X124855335Y-26893190D02*
X124807716Y-26988428D01*
X124807716Y-26988428D02*
X124807716Y-27274142D01*
X124807716Y-27274142D02*
X124855335Y-27369380D01*
X124855335Y-27369380D02*
X124902954Y-27417000D01*
X124902954Y-27417000D02*
X124998192Y-27464619D01*
X124998192Y-27464619D02*
X125141049Y-27464619D01*
X124379144Y-27464619D02*
X124379144Y-26797952D01*
X124379144Y-26988428D02*
X124331525Y-26893190D01*
X124331525Y-26893190D02*
X124283906Y-26845571D01*
X124283906Y-26845571D02*
X124188668Y-26797952D01*
X124188668Y-26797952D02*
X124093430Y-26797952D01*
X122331525Y-27559857D02*
X122426763Y-27512238D01*
X122426763Y-27512238D02*
X122522001Y-27417000D01*
X122522001Y-27417000D02*
X122664858Y-27274142D01*
X122664858Y-27274142D02*
X122760096Y-27226523D01*
X122760096Y-27226523D02*
X122855334Y-27226523D01*
X122807715Y-27464619D02*
X122902953Y-27417000D01*
X122902953Y-27417000D02*
X122998191Y-27321761D01*
X122998191Y-27321761D02*
X123045810Y-27131285D01*
X123045810Y-27131285D02*
X123045810Y-26797952D01*
X123045810Y-26797952D02*
X122998191Y-26607476D01*
X122998191Y-26607476D02*
X122902953Y-26512238D01*
X122902953Y-26512238D02*
X122807715Y-26464619D01*
X122807715Y-26464619D02*
X122617239Y-26464619D01*
X122617239Y-26464619D02*
X122522001Y-26512238D01*
X122522001Y-26512238D02*
X122426763Y-26607476D01*
X122426763Y-26607476D02*
X122379144Y-26797952D01*
X122379144Y-26797952D02*
X122379144Y-27131285D01*
X122379144Y-27131285D02*
X122426763Y-27321761D01*
X122426763Y-27321761D02*
X122522001Y-27417000D01*
X122522001Y-27417000D02*
X122617239Y-27464619D01*
X122617239Y-27464619D02*
X122807715Y-27464619D01*
X121998191Y-27178904D02*
X121522001Y-27178904D01*
X122093429Y-27464619D02*
X121760096Y-26464619D01*
X121760096Y-26464619D02*
X121426763Y-27464619D01*
X120664858Y-26797952D02*
X120664858Y-27464619D01*
X120902953Y-26417000D02*
X121141048Y-27131285D01*
X121141048Y-27131285D02*
X120522001Y-27131285D01*
X119950572Y-26464619D02*
X119855334Y-26464619D01*
X119855334Y-26464619D02*
X119760096Y-26512238D01*
X119760096Y-26512238D02*
X119712477Y-26559857D01*
X119712477Y-26559857D02*
X119664858Y-26655095D01*
X119664858Y-26655095D02*
X119617239Y-26845571D01*
X119617239Y-26845571D02*
X119617239Y-27083666D01*
X119617239Y-27083666D02*
X119664858Y-27274142D01*
X119664858Y-27274142D02*
X119712477Y-27369380D01*
X119712477Y-27369380D02*
X119760096Y-27417000D01*
X119760096Y-27417000D02*
X119855334Y-27464619D01*
X119855334Y-27464619D02*
X119950572Y-27464619D01*
X119950572Y-27464619D02*
X120045810Y-27417000D01*
X120045810Y-27417000D02*
X120093429Y-27369380D01*
X120093429Y-27369380D02*
X120141048Y-27274142D01*
X120141048Y-27274142D02*
X120188667Y-27083666D01*
X120188667Y-27083666D02*
X120188667Y-26845571D01*
X120188667Y-26845571D02*
X120141048Y-26655095D01*
X120141048Y-26655095D02*
X120093429Y-26559857D01*
X120093429Y-26559857D02*
X120045810Y-26512238D01*
X120045810Y-26512238D02*
X119950572Y-26464619D01*
X119283905Y-26464619D02*
X118664858Y-26464619D01*
X118664858Y-26464619D02*
X118998191Y-26845571D01*
X118998191Y-26845571D02*
X118855334Y-26845571D01*
X118855334Y-26845571D02*
X118760096Y-26893190D01*
X118760096Y-26893190D02*
X118712477Y-26940809D01*
X118712477Y-26940809D02*
X118664858Y-27036047D01*
X118664858Y-27036047D02*
X118664858Y-27274142D01*
X118664858Y-27274142D02*
X118712477Y-27369380D01*
X118712477Y-27369380D02*
X118760096Y-27417000D01*
X118760096Y-27417000D02*
X118855334Y-27464619D01*
X118855334Y-27464619D02*
X119141048Y-27464619D01*
X119141048Y-27464619D02*
X119236286Y-27417000D01*
X119236286Y-27417000D02*
X119283905Y-27369380D01*
X117569619Y-26797952D02*
X117379143Y-27464619D01*
X117379143Y-27464619D02*
X117188667Y-26988428D01*
X117188667Y-26988428D02*
X116998191Y-27464619D01*
X116998191Y-27464619D02*
X116807715Y-26797952D01*
X116426762Y-27464619D02*
X116426762Y-26797952D01*
X116426762Y-26464619D02*
X116474381Y-26512238D01*
X116474381Y-26512238D02*
X116426762Y-26559857D01*
X116426762Y-26559857D02*
X116379143Y-26512238D01*
X116379143Y-26512238D02*
X116426762Y-26464619D01*
X116426762Y-26464619D02*
X116426762Y-26559857D01*
X116093429Y-26797952D02*
X115712477Y-26797952D01*
X115950572Y-26464619D02*
X115950572Y-27321761D01*
X115950572Y-27321761D02*
X115902953Y-27417000D01*
X115902953Y-27417000D02*
X115807715Y-27464619D01*
X115807715Y-27464619D02*
X115712477Y-27464619D01*
X115379143Y-27464619D02*
X115379143Y-26464619D01*
X114950572Y-27464619D02*
X114950572Y-26940809D01*
X114950572Y-26940809D02*
X114998191Y-26845571D01*
X114998191Y-26845571D02*
X115093429Y-26797952D01*
X115093429Y-26797952D02*
X115236286Y-26797952D01*
X115236286Y-26797952D02*
X115331524Y-26845571D01*
X115331524Y-26845571D02*
X115379143Y-26893190D01*
X113569619Y-27464619D02*
X113664857Y-27417000D01*
X113664857Y-27417000D02*
X113712476Y-27369380D01*
X113712476Y-27369380D02*
X113760095Y-27274142D01*
X113760095Y-27274142D02*
X113760095Y-26988428D01*
X113760095Y-26988428D02*
X113712476Y-26893190D01*
X113712476Y-26893190D02*
X113664857Y-26845571D01*
X113664857Y-26845571D02*
X113569619Y-26797952D01*
X113569619Y-26797952D02*
X113426762Y-26797952D01*
X113426762Y-26797952D02*
X113331524Y-26845571D01*
X113331524Y-26845571D02*
X113283905Y-26893190D01*
X113283905Y-26893190D02*
X113236286Y-26988428D01*
X113236286Y-26988428D02*
X113236286Y-27274142D01*
X113236286Y-27274142D02*
X113283905Y-27369380D01*
X113283905Y-27369380D02*
X113331524Y-27417000D01*
X113331524Y-27417000D02*
X113426762Y-27464619D01*
X113426762Y-27464619D02*
X113569619Y-27464619D01*
X112807714Y-26797952D02*
X112807714Y-27797952D01*
X112807714Y-26845571D02*
X112712476Y-26797952D01*
X112712476Y-26797952D02*
X112522000Y-26797952D01*
X112522000Y-26797952D02*
X112426762Y-26845571D01*
X112426762Y-26845571D02*
X112379143Y-26893190D01*
X112379143Y-26893190D02*
X112331524Y-26988428D01*
X112331524Y-26988428D02*
X112331524Y-27274142D01*
X112331524Y-27274142D02*
X112379143Y-27369380D01*
X112379143Y-27369380D02*
X112426762Y-27417000D01*
X112426762Y-27417000D02*
X112522000Y-27464619D01*
X112522000Y-27464619D02*
X112712476Y-27464619D01*
X112712476Y-27464619D02*
X112807714Y-27417000D01*
X112045809Y-26797952D02*
X111664857Y-26797952D01*
X111902952Y-26464619D02*
X111902952Y-27321761D01*
X111902952Y-27321761D02*
X111855333Y-27417000D01*
X111855333Y-27417000D02*
X111760095Y-27464619D01*
X111760095Y-27464619D02*
X111664857Y-27464619D01*
X111331523Y-27464619D02*
X111331523Y-26797952D01*
X111331523Y-26464619D02*
X111379142Y-26512238D01*
X111379142Y-26512238D02*
X111331523Y-26559857D01*
X111331523Y-26559857D02*
X111283904Y-26512238D01*
X111283904Y-26512238D02*
X111331523Y-26464619D01*
X111331523Y-26464619D02*
X111331523Y-26559857D01*
X110712476Y-27464619D02*
X110807714Y-27417000D01*
X110807714Y-27417000D02*
X110855333Y-27369380D01*
X110855333Y-27369380D02*
X110902952Y-27274142D01*
X110902952Y-27274142D02*
X110902952Y-26988428D01*
X110902952Y-26988428D02*
X110855333Y-26893190D01*
X110855333Y-26893190D02*
X110807714Y-26845571D01*
X110807714Y-26845571D02*
X110712476Y-26797952D01*
X110712476Y-26797952D02*
X110569619Y-26797952D01*
X110569619Y-26797952D02*
X110474381Y-26845571D01*
X110474381Y-26845571D02*
X110426762Y-26893190D01*
X110426762Y-26893190D02*
X110379143Y-26988428D01*
X110379143Y-26988428D02*
X110379143Y-27274142D01*
X110379143Y-27274142D02*
X110426762Y-27369380D01*
X110426762Y-27369380D02*
X110474381Y-27417000D01*
X110474381Y-27417000D02*
X110569619Y-27464619D01*
X110569619Y-27464619D02*
X110712476Y-27464619D01*
X109950571Y-26797952D02*
X109950571Y-27464619D01*
X109950571Y-26893190D02*
X109902952Y-26845571D01*
X109902952Y-26845571D02*
X109807714Y-26797952D01*
X109807714Y-26797952D02*
X109664857Y-26797952D01*
X109664857Y-26797952D02*
X109569619Y-26845571D01*
X109569619Y-26845571D02*
X109522000Y-26940809D01*
X109522000Y-26940809D02*
X109522000Y-27464619D01*
X108617238Y-27464619D02*
X108617238Y-26940809D01*
X108617238Y-26940809D02*
X108664857Y-26845571D01*
X108664857Y-26845571D02*
X108760095Y-26797952D01*
X108760095Y-26797952D02*
X108950571Y-26797952D01*
X108950571Y-26797952D02*
X109045809Y-26845571D01*
X108617238Y-27417000D02*
X108712476Y-27464619D01*
X108712476Y-27464619D02*
X108950571Y-27464619D01*
X108950571Y-27464619D02*
X109045809Y-27417000D01*
X109045809Y-27417000D02*
X109093428Y-27321761D01*
X109093428Y-27321761D02*
X109093428Y-27226523D01*
X109093428Y-27226523D02*
X109045809Y-27131285D01*
X109045809Y-27131285D02*
X108950571Y-27083666D01*
X108950571Y-27083666D02*
X108712476Y-27083666D01*
X108712476Y-27083666D02*
X108617238Y-27036047D01*
X107998190Y-27464619D02*
X108093428Y-27417000D01*
X108093428Y-27417000D02*
X108141047Y-27321761D01*
X108141047Y-27321761D02*
X108141047Y-26464619D01*
X106426761Y-27464619D02*
X106426761Y-26940809D01*
X106426761Y-26940809D02*
X106474380Y-26845571D01*
X106474380Y-26845571D02*
X106569618Y-26797952D01*
X106569618Y-26797952D02*
X106760094Y-26797952D01*
X106760094Y-26797952D02*
X106855332Y-26845571D01*
X106426761Y-27417000D02*
X106521999Y-27464619D01*
X106521999Y-27464619D02*
X106760094Y-27464619D01*
X106760094Y-27464619D02*
X106855332Y-27417000D01*
X106855332Y-27417000D02*
X106902951Y-27321761D01*
X106902951Y-27321761D02*
X106902951Y-27226523D01*
X106902951Y-27226523D02*
X106855332Y-27131285D01*
X106855332Y-27131285D02*
X106760094Y-27083666D01*
X106760094Y-27083666D02*
X106521999Y-27083666D01*
X106521999Y-27083666D02*
X106426761Y-27036047D01*
X106093427Y-26797952D02*
X105712475Y-26797952D01*
X105950570Y-26464619D02*
X105950570Y-27321761D01*
X105950570Y-27321761D02*
X105902951Y-27417000D01*
X105902951Y-27417000D02*
X105807713Y-27464619D01*
X105807713Y-27464619D02*
X105712475Y-27464619D01*
X105521998Y-26797952D02*
X105141046Y-26797952D01*
X105379141Y-26464619D02*
X105379141Y-27321761D01*
X105379141Y-27321761D02*
X105331522Y-27417000D01*
X105331522Y-27417000D02*
X105236284Y-27464619D01*
X105236284Y-27464619D02*
X105141046Y-27464619D01*
X104426760Y-27417000D02*
X104521998Y-27464619D01*
X104521998Y-27464619D02*
X104712474Y-27464619D01*
X104712474Y-27464619D02*
X104807712Y-27417000D01*
X104807712Y-27417000D02*
X104855331Y-27321761D01*
X104855331Y-27321761D02*
X104855331Y-26940809D01*
X104855331Y-26940809D02*
X104807712Y-26845571D01*
X104807712Y-26845571D02*
X104712474Y-26797952D01*
X104712474Y-26797952D02*
X104521998Y-26797952D01*
X104521998Y-26797952D02*
X104426760Y-26845571D01*
X104426760Y-26845571D02*
X104379141Y-26940809D01*
X104379141Y-26940809D02*
X104379141Y-27036047D01*
X104379141Y-27036047D02*
X104855331Y-27131285D01*
X103950569Y-26797952D02*
X103950569Y-27464619D01*
X103950569Y-26893190D02*
X103902950Y-26845571D01*
X103902950Y-26845571D02*
X103807712Y-26797952D01*
X103807712Y-26797952D02*
X103664855Y-26797952D01*
X103664855Y-26797952D02*
X103569617Y-26845571D01*
X103569617Y-26845571D02*
X103521998Y-26940809D01*
X103521998Y-26940809D02*
X103521998Y-27464619D01*
X102617236Y-26797952D02*
X102617236Y-27464619D01*
X103045807Y-26797952D02*
X103045807Y-27321761D01*
X103045807Y-27321761D02*
X102998188Y-27417000D01*
X102998188Y-27417000D02*
X102902950Y-27464619D01*
X102902950Y-27464619D02*
X102760093Y-27464619D01*
X102760093Y-27464619D02*
X102664855Y-27417000D01*
X102664855Y-27417000D02*
X102617236Y-27369380D01*
X101712474Y-27464619D02*
X101712474Y-26940809D01*
X101712474Y-26940809D02*
X101760093Y-26845571D01*
X101760093Y-26845571D02*
X101855331Y-26797952D01*
X101855331Y-26797952D02*
X102045807Y-26797952D01*
X102045807Y-26797952D02*
X102141045Y-26845571D01*
X101712474Y-27417000D02*
X101807712Y-27464619D01*
X101807712Y-27464619D02*
X102045807Y-27464619D01*
X102045807Y-27464619D02*
X102141045Y-27417000D01*
X102141045Y-27417000D02*
X102188664Y-27321761D01*
X102188664Y-27321761D02*
X102188664Y-27226523D01*
X102188664Y-27226523D02*
X102141045Y-27131285D01*
X102141045Y-27131285D02*
X102045807Y-27083666D01*
X102045807Y-27083666D02*
X101807712Y-27083666D01*
X101807712Y-27083666D02*
X101712474Y-27036047D01*
X101379140Y-26797952D02*
X100998188Y-26797952D01*
X101236283Y-26464619D02*
X101236283Y-27321761D01*
X101236283Y-27321761D02*
X101188664Y-27417000D01*
X101188664Y-27417000D02*
X101093426Y-27464619D01*
X101093426Y-27464619D02*
X100998188Y-27464619D01*
X100664854Y-27464619D02*
X100664854Y-26797952D01*
X100664854Y-26464619D02*
X100712473Y-26512238D01*
X100712473Y-26512238D02*
X100664854Y-26559857D01*
X100664854Y-26559857D02*
X100617235Y-26512238D01*
X100617235Y-26512238D02*
X100664854Y-26464619D01*
X100664854Y-26464619D02*
X100664854Y-26559857D01*
X100045807Y-27464619D02*
X100141045Y-27417000D01*
X100141045Y-27417000D02*
X100188664Y-27369380D01*
X100188664Y-27369380D02*
X100236283Y-27274142D01*
X100236283Y-27274142D02*
X100236283Y-26988428D01*
X100236283Y-26988428D02*
X100188664Y-26893190D01*
X100188664Y-26893190D02*
X100141045Y-26845571D01*
X100141045Y-26845571D02*
X100045807Y-26797952D01*
X100045807Y-26797952D02*
X99902950Y-26797952D01*
X99902950Y-26797952D02*
X99807712Y-26845571D01*
X99807712Y-26845571D02*
X99760093Y-26893190D01*
X99760093Y-26893190D02*
X99712474Y-26988428D01*
X99712474Y-26988428D02*
X99712474Y-27274142D01*
X99712474Y-27274142D02*
X99760093Y-27369380D01*
X99760093Y-27369380D02*
X99807712Y-27417000D01*
X99807712Y-27417000D02*
X99902950Y-27464619D01*
X99902950Y-27464619D02*
X100045807Y-27464619D01*
X99283902Y-26797952D02*
X99283902Y-27464619D01*
X99283902Y-26893190D02*
X99236283Y-26845571D01*
X99236283Y-26845571D02*
X99141045Y-26797952D01*
X99141045Y-26797952D02*
X98998188Y-26797952D01*
X98998188Y-26797952D02*
X98902950Y-26845571D01*
X98902950Y-26845571D02*
X98855331Y-26940809D01*
X98855331Y-26940809D02*
X98855331Y-27464619D01*
X97188664Y-27464619D02*
X97188664Y-26940809D01*
X97188664Y-26940809D02*
X97236283Y-26845571D01*
X97236283Y-26845571D02*
X97331521Y-26797952D01*
X97331521Y-26797952D02*
X97521997Y-26797952D01*
X97521997Y-26797952D02*
X97617235Y-26845571D01*
X97188664Y-27417000D02*
X97283902Y-27464619D01*
X97283902Y-27464619D02*
X97521997Y-27464619D01*
X97521997Y-27464619D02*
X97617235Y-27417000D01*
X97617235Y-27417000D02*
X97664854Y-27321761D01*
X97664854Y-27321761D02*
X97664854Y-27226523D01*
X97664854Y-27226523D02*
X97617235Y-27131285D01*
X97617235Y-27131285D02*
X97521997Y-27083666D01*
X97521997Y-27083666D02*
X97283902Y-27083666D01*
X97283902Y-27083666D02*
X97188664Y-27036047D01*
X96712473Y-26797952D02*
X96712473Y-27464619D01*
X96712473Y-26893190D02*
X96664854Y-26845571D01*
X96664854Y-26845571D02*
X96569616Y-26797952D01*
X96569616Y-26797952D02*
X96426759Y-26797952D01*
X96426759Y-26797952D02*
X96331521Y-26845571D01*
X96331521Y-26845571D02*
X96283902Y-26940809D01*
X96283902Y-26940809D02*
X96283902Y-27464619D01*
X95379140Y-27464619D02*
X95379140Y-26464619D01*
X95379140Y-27417000D02*
X95474378Y-27464619D01*
X95474378Y-27464619D02*
X95664854Y-27464619D01*
X95664854Y-27464619D02*
X95760092Y-27417000D01*
X95760092Y-27417000D02*
X95807711Y-27369380D01*
X95807711Y-27369380D02*
X95855330Y-27274142D01*
X95855330Y-27274142D02*
X95855330Y-26988428D01*
X95855330Y-26988428D02*
X95807711Y-26893190D01*
X95807711Y-26893190D02*
X95760092Y-26845571D01*
X95760092Y-26845571D02*
X95664854Y-26797952D01*
X95664854Y-26797952D02*
X95474378Y-26797952D01*
X95474378Y-26797952D02*
X95379140Y-26845571D01*
X93712473Y-27417000D02*
X93807711Y-27464619D01*
X93807711Y-27464619D02*
X93998187Y-27464619D01*
X93998187Y-27464619D02*
X94093425Y-27417000D01*
X94093425Y-27417000D02*
X94141044Y-27369380D01*
X94141044Y-27369380D02*
X94188663Y-27274142D01*
X94188663Y-27274142D02*
X94188663Y-26988428D01*
X94188663Y-26988428D02*
X94141044Y-26893190D01*
X94141044Y-26893190D02*
X94093425Y-26845571D01*
X94093425Y-26845571D02*
X93998187Y-26797952D01*
X93998187Y-26797952D02*
X93807711Y-26797952D01*
X93807711Y-26797952D02*
X93712473Y-26845571D01*
X92855330Y-26797952D02*
X92855330Y-27464619D01*
X93283901Y-26797952D02*
X93283901Y-27321761D01*
X93283901Y-27321761D02*
X93236282Y-27417000D01*
X93236282Y-27417000D02*
X93141044Y-27464619D01*
X93141044Y-27464619D02*
X92998187Y-27464619D01*
X92998187Y-27464619D02*
X92902949Y-27417000D01*
X92902949Y-27417000D02*
X92855330Y-27369380D01*
X92379139Y-27464619D02*
X92379139Y-26797952D01*
X92379139Y-26988428D02*
X92331520Y-26893190D01*
X92331520Y-26893190D02*
X92283901Y-26845571D01*
X92283901Y-26845571D02*
X92188663Y-26797952D01*
X92188663Y-26797952D02*
X92093425Y-26797952D01*
X91760091Y-27464619D02*
X91760091Y-26797952D01*
X91760091Y-26988428D02*
X91712472Y-26893190D01*
X91712472Y-26893190D02*
X91664853Y-26845571D01*
X91664853Y-26845571D02*
X91569615Y-26797952D01*
X91569615Y-26797952D02*
X91474377Y-26797952D01*
X90760091Y-27417000D02*
X90855329Y-27464619D01*
X90855329Y-27464619D02*
X91045805Y-27464619D01*
X91045805Y-27464619D02*
X91141043Y-27417000D01*
X91141043Y-27417000D02*
X91188662Y-27321761D01*
X91188662Y-27321761D02*
X91188662Y-26940809D01*
X91188662Y-26940809D02*
X91141043Y-26845571D01*
X91141043Y-26845571D02*
X91045805Y-26797952D01*
X91045805Y-26797952D02*
X90855329Y-26797952D01*
X90855329Y-26797952D02*
X90760091Y-26845571D01*
X90760091Y-26845571D02*
X90712472Y-26940809D01*
X90712472Y-26940809D02*
X90712472Y-27036047D01*
X90712472Y-27036047D02*
X91188662Y-27131285D01*
X90283900Y-26797952D02*
X90283900Y-27464619D01*
X90283900Y-26893190D02*
X90236281Y-26845571D01*
X90236281Y-26845571D02*
X90141043Y-26797952D01*
X90141043Y-26797952D02*
X89998186Y-26797952D01*
X89998186Y-26797952D02*
X89902948Y-26845571D01*
X89902948Y-26845571D02*
X89855329Y-26940809D01*
X89855329Y-26940809D02*
X89855329Y-27464619D01*
X89521995Y-26797952D02*
X89141043Y-26797952D01*
X89379138Y-26464619D02*
X89379138Y-27321761D01*
X89379138Y-27321761D02*
X89331519Y-27417000D01*
X89331519Y-27417000D02*
X89236281Y-27464619D01*
X89236281Y-27464619D02*
X89141043Y-27464619D01*
X88093423Y-27417000D02*
X87998185Y-27464619D01*
X87998185Y-27464619D02*
X87807709Y-27464619D01*
X87807709Y-27464619D02*
X87712471Y-27417000D01*
X87712471Y-27417000D02*
X87664852Y-27321761D01*
X87664852Y-27321761D02*
X87664852Y-27274142D01*
X87664852Y-27274142D02*
X87712471Y-27178904D01*
X87712471Y-27178904D02*
X87807709Y-27131285D01*
X87807709Y-27131285D02*
X87950566Y-27131285D01*
X87950566Y-27131285D02*
X88045804Y-27083666D01*
X88045804Y-27083666D02*
X88093423Y-26988428D01*
X88093423Y-26988428D02*
X88093423Y-26940809D01*
X88093423Y-26940809D02*
X88045804Y-26845571D01*
X88045804Y-26845571D02*
X87950566Y-26797952D01*
X87950566Y-26797952D02*
X87807709Y-26797952D01*
X87807709Y-26797952D02*
X87712471Y-26845571D01*
X86855328Y-27417000D02*
X86950566Y-27464619D01*
X86950566Y-27464619D02*
X87141042Y-27464619D01*
X87141042Y-27464619D02*
X87236280Y-27417000D01*
X87236280Y-27417000D02*
X87283899Y-27321761D01*
X87283899Y-27321761D02*
X87283899Y-26940809D01*
X87283899Y-26940809D02*
X87236280Y-26845571D01*
X87236280Y-26845571D02*
X87141042Y-26797952D01*
X87141042Y-26797952D02*
X86950566Y-26797952D01*
X86950566Y-26797952D02*
X86855328Y-26845571D01*
X86855328Y-26845571D02*
X86807709Y-26940809D01*
X86807709Y-26940809D02*
X86807709Y-27036047D01*
X86807709Y-27036047D02*
X87283899Y-27131285D01*
X86379137Y-26797952D02*
X86379137Y-27464619D01*
X86379137Y-26893190D02*
X86331518Y-26845571D01*
X86331518Y-26845571D02*
X86236280Y-26797952D01*
X86236280Y-26797952D02*
X86093423Y-26797952D01*
X86093423Y-26797952D02*
X85998185Y-26845571D01*
X85998185Y-26845571D02*
X85950566Y-26940809D01*
X85950566Y-26940809D02*
X85950566Y-27464619D01*
X85521994Y-27417000D02*
X85426756Y-27464619D01*
X85426756Y-27464619D02*
X85236280Y-27464619D01*
X85236280Y-27464619D02*
X85141042Y-27417000D01*
X85141042Y-27417000D02*
X85093423Y-27321761D01*
X85093423Y-27321761D02*
X85093423Y-27274142D01*
X85093423Y-27274142D02*
X85141042Y-27178904D01*
X85141042Y-27178904D02*
X85236280Y-27131285D01*
X85236280Y-27131285D02*
X85379137Y-27131285D01*
X85379137Y-27131285D02*
X85474375Y-27083666D01*
X85474375Y-27083666D02*
X85521994Y-26988428D01*
X85521994Y-26988428D02*
X85521994Y-26940809D01*
X85521994Y-26940809D02*
X85474375Y-26845571D01*
X85474375Y-26845571D02*
X85379137Y-26797952D01*
X85379137Y-26797952D02*
X85236280Y-26797952D01*
X85236280Y-26797952D02*
X85141042Y-26845571D01*
X84283899Y-27417000D02*
X84379137Y-27464619D01*
X84379137Y-27464619D02*
X84569613Y-27464619D01*
X84569613Y-27464619D02*
X84664851Y-27417000D01*
X84664851Y-27417000D02*
X84712470Y-27321761D01*
X84712470Y-27321761D02*
X84712470Y-26940809D01*
X84712470Y-26940809D02*
X84664851Y-26845571D01*
X84664851Y-26845571D02*
X84569613Y-26797952D01*
X84569613Y-26797952D02*
X84379137Y-26797952D01*
X84379137Y-26797952D02*
X84283899Y-26845571D01*
X84283899Y-26845571D02*
X84236280Y-26940809D01*
X84236280Y-26940809D02*
X84236280Y-27036047D01*
X84236280Y-27036047D02*
X84712470Y-27131285D01*
X113879143Y-29074619D02*
X114212476Y-28598428D01*
X114450571Y-29074619D02*
X114450571Y-28074619D01*
X114450571Y-28074619D02*
X114069619Y-28074619D01*
X114069619Y-28074619D02*
X113974381Y-28122238D01*
X113974381Y-28122238D02*
X113926762Y-28169857D01*
X113926762Y-28169857D02*
X113879143Y-28265095D01*
X113879143Y-28265095D02*
X113879143Y-28407952D01*
X113879143Y-28407952D02*
X113926762Y-28503190D01*
X113926762Y-28503190D02*
X113974381Y-28550809D01*
X113974381Y-28550809D02*
X114069619Y-28598428D01*
X114069619Y-28598428D02*
X114450571Y-28598428D01*
X113069619Y-29027000D02*
X113164857Y-29074619D01*
X113164857Y-29074619D02*
X113355333Y-29074619D01*
X113355333Y-29074619D02*
X113450571Y-29027000D01*
X113450571Y-29027000D02*
X113498190Y-28931761D01*
X113498190Y-28931761D02*
X113498190Y-28550809D01*
X113498190Y-28550809D02*
X113450571Y-28455571D01*
X113450571Y-28455571D02*
X113355333Y-28407952D01*
X113355333Y-28407952D02*
X113164857Y-28407952D01*
X113164857Y-28407952D02*
X113069619Y-28455571D01*
X113069619Y-28455571D02*
X113022000Y-28550809D01*
X113022000Y-28550809D02*
X113022000Y-28646047D01*
X113022000Y-28646047D02*
X113498190Y-28741285D01*
X112688666Y-28407952D02*
X112450571Y-29074619D01*
X112450571Y-29074619D02*
X112212476Y-28407952D01*
X111117237Y-28169857D02*
X111069618Y-28122238D01*
X111069618Y-28122238D02*
X110974380Y-28074619D01*
X110974380Y-28074619D02*
X110736285Y-28074619D01*
X110736285Y-28074619D02*
X110641047Y-28122238D01*
X110641047Y-28122238D02*
X110593428Y-28169857D01*
X110593428Y-28169857D02*
X110545809Y-28265095D01*
X110545809Y-28265095D02*
X110545809Y-28360333D01*
X110545809Y-28360333D02*
X110593428Y-28503190D01*
X110593428Y-28503190D02*
X111164856Y-29074619D01*
X111164856Y-29074619D02*
X110545809Y-29074619D01*
D10*
X126463220Y-41008866D02*
X125701316Y-41008866D01*
X124701316Y-41389819D02*
X125272744Y-41389819D01*
X124987030Y-41389819D02*
X124987030Y-40389819D01*
X124987030Y-40389819D02*
X125082268Y-40532676D01*
X125082268Y-40532676D02*
X125177506Y-40627914D01*
X125177506Y-40627914D02*
X125272744Y-40675533D01*
X124082268Y-40389819D02*
X123987030Y-40389819D01*
X123987030Y-40389819D02*
X123891792Y-40437438D01*
X123891792Y-40437438D02*
X123844173Y-40485057D01*
X123844173Y-40485057D02*
X123796554Y-40580295D01*
X123796554Y-40580295D02*
X123748935Y-40770771D01*
X123748935Y-40770771D02*
X123748935Y-41008866D01*
X123748935Y-41008866D02*
X123796554Y-41199342D01*
X123796554Y-41199342D02*
X123844173Y-41294580D01*
X123844173Y-41294580D02*
X123891792Y-41342200D01*
X123891792Y-41342200D02*
X123987030Y-41389819D01*
X123987030Y-41389819D02*
X124082268Y-41389819D01*
X124082268Y-41389819D02*
X124177506Y-41342200D01*
X124177506Y-41342200D02*
X124225125Y-41294580D01*
X124225125Y-41294580D02*
X124272744Y-41199342D01*
X124272744Y-41199342D02*
X124320363Y-41008866D01*
X124320363Y-41008866D02*
X124320363Y-40770771D01*
X124320363Y-40770771D02*
X124272744Y-40580295D01*
X124272744Y-40580295D02*
X124225125Y-40485057D01*
X124225125Y-40485057D02*
X124177506Y-40437438D01*
X124177506Y-40437438D02*
X124082268Y-40389819D01*
X122891792Y-41389819D02*
X122891792Y-40389819D01*
X122891792Y-41342200D02*
X122987030Y-41389819D01*
X122987030Y-41389819D02*
X123177506Y-41389819D01*
X123177506Y-41389819D02*
X123272744Y-41342200D01*
X123272744Y-41342200D02*
X123320363Y-41294580D01*
X123320363Y-41294580D02*
X123367982Y-41199342D01*
X123367982Y-41199342D02*
X123367982Y-40913628D01*
X123367982Y-40913628D02*
X123320363Y-40818390D01*
X123320363Y-40818390D02*
X123272744Y-40770771D01*
X123272744Y-40770771D02*
X123177506Y-40723152D01*
X123177506Y-40723152D02*
X122987030Y-40723152D01*
X122987030Y-40723152D02*
X122891792Y-40770771D01*
X122082268Y-40866009D02*
X121939411Y-40913628D01*
X121939411Y-40913628D02*
X121891792Y-40961247D01*
X121891792Y-40961247D02*
X121844173Y-41056485D01*
X121844173Y-41056485D02*
X121844173Y-41199342D01*
X121844173Y-41199342D02*
X121891792Y-41294580D01*
X121891792Y-41294580D02*
X121939411Y-41342200D01*
X121939411Y-41342200D02*
X122034649Y-41389819D01*
X122034649Y-41389819D02*
X122415601Y-41389819D01*
X122415601Y-41389819D02*
X122415601Y-40389819D01*
X122415601Y-40389819D02*
X122082268Y-40389819D01*
X122082268Y-40389819D02*
X121987030Y-40437438D01*
X121987030Y-40437438D02*
X121939411Y-40485057D01*
X121939411Y-40485057D02*
X121891792Y-40580295D01*
X121891792Y-40580295D02*
X121891792Y-40675533D01*
X121891792Y-40675533D02*
X121939411Y-40770771D01*
X121939411Y-40770771D02*
X121987030Y-40818390D01*
X121987030Y-40818390D02*
X122082268Y-40866009D01*
X122082268Y-40866009D02*
X122415601Y-40866009D01*
X120701315Y-41104104D02*
X120225125Y-41104104D01*
X120796553Y-41389819D02*
X120463220Y-40389819D01*
X120463220Y-40389819D02*
X120129887Y-41389819D01*
X119939410Y-40723152D02*
X119558458Y-40723152D01*
X119796553Y-40389819D02*
X119796553Y-41246961D01*
X119796553Y-41246961D02*
X119748934Y-41342200D01*
X119748934Y-41342200D02*
X119653696Y-41389819D01*
X119653696Y-41389819D02*
X119558458Y-41389819D01*
X119367981Y-40723152D02*
X118987029Y-40723152D01*
X119225124Y-40389819D02*
X119225124Y-41246961D01*
X119225124Y-41246961D02*
X119177505Y-41342200D01*
X119177505Y-41342200D02*
X119082267Y-41389819D01*
X119082267Y-41389819D02*
X118987029Y-41389819D01*
X118272743Y-41342200D02*
X118367981Y-41389819D01*
X118367981Y-41389819D02*
X118558457Y-41389819D01*
X118558457Y-41389819D02*
X118653695Y-41342200D01*
X118653695Y-41342200D02*
X118701314Y-41246961D01*
X118701314Y-41246961D02*
X118701314Y-40866009D01*
X118701314Y-40866009D02*
X118653695Y-40770771D01*
X118653695Y-40770771D02*
X118558457Y-40723152D01*
X118558457Y-40723152D02*
X118367981Y-40723152D01*
X118367981Y-40723152D02*
X118272743Y-40770771D01*
X118272743Y-40770771D02*
X118225124Y-40866009D01*
X118225124Y-40866009D02*
X118225124Y-40961247D01*
X118225124Y-40961247D02*
X118701314Y-41056485D01*
X117796552Y-40723152D02*
X117796552Y-41389819D01*
X117796552Y-40818390D02*
X117748933Y-40770771D01*
X117748933Y-40770771D02*
X117653695Y-40723152D01*
X117653695Y-40723152D02*
X117510838Y-40723152D01*
X117510838Y-40723152D02*
X117415600Y-40770771D01*
X117415600Y-40770771D02*
X117367981Y-40866009D01*
X117367981Y-40866009D02*
X117367981Y-41389819D01*
X116463219Y-40723152D02*
X116463219Y-41389819D01*
X116891790Y-40723152D02*
X116891790Y-41246961D01*
X116891790Y-41246961D02*
X116844171Y-41342200D01*
X116844171Y-41342200D02*
X116748933Y-41389819D01*
X116748933Y-41389819D02*
X116606076Y-41389819D01*
X116606076Y-41389819D02*
X116510838Y-41342200D01*
X116510838Y-41342200D02*
X116463219Y-41294580D01*
X115558457Y-41389819D02*
X115558457Y-40866009D01*
X115558457Y-40866009D02*
X115606076Y-40770771D01*
X115606076Y-40770771D02*
X115701314Y-40723152D01*
X115701314Y-40723152D02*
X115891790Y-40723152D01*
X115891790Y-40723152D02*
X115987028Y-40770771D01*
X115558457Y-41342200D02*
X115653695Y-41389819D01*
X115653695Y-41389819D02*
X115891790Y-41389819D01*
X115891790Y-41389819D02*
X115987028Y-41342200D01*
X115987028Y-41342200D02*
X116034647Y-41246961D01*
X116034647Y-41246961D02*
X116034647Y-41151723D01*
X116034647Y-41151723D02*
X115987028Y-41056485D01*
X115987028Y-41056485D02*
X115891790Y-41008866D01*
X115891790Y-41008866D02*
X115653695Y-41008866D01*
X115653695Y-41008866D02*
X115558457Y-40961247D01*
X115225123Y-40723152D02*
X114844171Y-40723152D01*
X115082266Y-40389819D02*
X115082266Y-41246961D01*
X115082266Y-41246961D02*
X115034647Y-41342200D01*
X115034647Y-41342200D02*
X114939409Y-41389819D01*
X114939409Y-41389819D02*
X114844171Y-41389819D01*
X114367980Y-41389819D02*
X114463218Y-41342200D01*
X114463218Y-41342200D02*
X114510837Y-41294580D01*
X114510837Y-41294580D02*
X114558456Y-41199342D01*
X114558456Y-41199342D02*
X114558456Y-40913628D01*
X114558456Y-40913628D02*
X114510837Y-40818390D01*
X114510837Y-40818390D02*
X114463218Y-40770771D01*
X114463218Y-40770771D02*
X114367980Y-40723152D01*
X114367980Y-40723152D02*
X114225123Y-40723152D01*
X114225123Y-40723152D02*
X114129885Y-40770771D01*
X114129885Y-40770771D02*
X114082266Y-40818390D01*
X114082266Y-40818390D02*
X114034647Y-40913628D01*
X114034647Y-40913628D02*
X114034647Y-41199342D01*
X114034647Y-41199342D02*
X114082266Y-41294580D01*
X114082266Y-41294580D02*
X114129885Y-41342200D01*
X114129885Y-41342200D02*
X114225123Y-41389819D01*
X114225123Y-41389819D02*
X114367980Y-41389819D01*
X113606075Y-41389819D02*
X113606075Y-40723152D01*
X113606075Y-40913628D02*
X113558456Y-40818390D01*
X113558456Y-40818390D02*
X113510837Y-40770771D01*
X113510837Y-40770771D02*
X113415599Y-40723152D01*
X113415599Y-40723152D02*
X113320361Y-40723152D01*
X112987027Y-41294580D02*
X112939408Y-41342200D01*
X112939408Y-41342200D02*
X112987027Y-41389819D01*
X112987027Y-41389819D02*
X113034646Y-41342200D01*
X113034646Y-41342200D02*
X112987027Y-41294580D01*
X112987027Y-41294580D02*
X112987027Y-41389819D01*
X112987027Y-40770771D02*
X112939408Y-40818390D01*
X112939408Y-40818390D02*
X112987027Y-40866009D01*
X112987027Y-40866009D02*
X113034646Y-40818390D01*
X113034646Y-40818390D02*
X112987027Y-40770771D01*
X112987027Y-40770771D02*
X112987027Y-40866009D01*
X118320363Y-42999819D02*
X118653696Y-42523628D01*
X118891791Y-42999819D02*
X118891791Y-41999819D01*
X118891791Y-41999819D02*
X118510839Y-41999819D01*
X118510839Y-41999819D02*
X118415601Y-42047438D01*
X118415601Y-42047438D02*
X118367982Y-42095057D01*
X118367982Y-42095057D02*
X118320363Y-42190295D01*
X118320363Y-42190295D02*
X118320363Y-42333152D01*
X118320363Y-42333152D02*
X118367982Y-42428390D01*
X118367982Y-42428390D02*
X118415601Y-42476009D01*
X118415601Y-42476009D02*
X118510839Y-42523628D01*
X118510839Y-42523628D02*
X118891791Y-42523628D01*
X117415601Y-41999819D02*
X117891791Y-41999819D01*
X117891791Y-41999819D02*
X117939410Y-42476009D01*
X117939410Y-42476009D02*
X117891791Y-42428390D01*
X117891791Y-42428390D02*
X117796553Y-42380771D01*
X117796553Y-42380771D02*
X117558458Y-42380771D01*
X117558458Y-42380771D02*
X117463220Y-42428390D01*
X117463220Y-42428390D02*
X117415601Y-42476009D01*
X117415601Y-42476009D02*
X117367982Y-42571247D01*
X117367982Y-42571247D02*
X117367982Y-42809342D01*
X117367982Y-42809342D02*
X117415601Y-42904580D01*
X117415601Y-42904580D02*
X117463220Y-42952200D01*
X117463220Y-42952200D02*
X117558458Y-42999819D01*
X117558458Y-42999819D02*
X117796553Y-42999819D01*
X117796553Y-42999819D02*
X117891791Y-42952200D01*
X117891791Y-42952200D02*
X117939410Y-42904580D01*
X116939410Y-42618866D02*
X116177506Y-42618866D01*
X115177506Y-42999819D02*
X115748934Y-42999819D01*
X115463220Y-42999819D02*
X115463220Y-41999819D01*
X115463220Y-41999819D02*
X115558458Y-42142676D01*
X115558458Y-42142676D02*
X115653696Y-42237914D01*
X115653696Y-42237914D02*
X115748934Y-42285533D01*
X114796553Y-42095057D02*
X114748934Y-42047438D01*
X114748934Y-42047438D02*
X114653696Y-41999819D01*
X114653696Y-41999819D02*
X114415601Y-41999819D01*
X114415601Y-41999819D02*
X114320363Y-42047438D01*
X114320363Y-42047438D02*
X114272744Y-42095057D01*
X114272744Y-42095057D02*
X114225125Y-42190295D01*
X114225125Y-42190295D02*
X114225125Y-42285533D01*
X114225125Y-42285533D02*
X114272744Y-42428390D01*
X114272744Y-42428390D02*
X114844172Y-42999819D01*
X114844172Y-42999819D02*
X114225125Y-42999819D01*
X110129888Y-42999819D02*
X110463221Y-42523628D01*
X110701316Y-42999819D02*
X110701316Y-41999819D01*
X110701316Y-41999819D02*
X110320364Y-41999819D01*
X110320364Y-41999819D02*
X110225126Y-42047438D01*
X110225126Y-42047438D02*
X110177507Y-42095057D01*
X110177507Y-42095057D02*
X110129888Y-42190295D01*
X110129888Y-42190295D02*
X110129888Y-42333152D01*
X110129888Y-42333152D02*
X110177507Y-42428390D01*
X110177507Y-42428390D02*
X110225126Y-42476009D01*
X110225126Y-42476009D02*
X110320364Y-42523628D01*
X110320364Y-42523628D02*
X110701316Y-42523628D01*
X109177507Y-42999819D02*
X109748935Y-42999819D01*
X109463221Y-42999819D02*
X109463221Y-41999819D01*
X109463221Y-41999819D02*
X109558459Y-42142676D01*
X109558459Y-42142676D02*
X109653697Y-42237914D01*
X109653697Y-42237914D02*
X109748935Y-42285533D01*
X108844173Y-41999819D02*
X108225126Y-41999819D01*
X108225126Y-41999819D02*
X108558459Y-42380771D01*
X108558459Y-42380771D02*
X108415602Y-42380771D01*
X108415602Y-42380771D02*
X108320364Y-42428390D01*
X108320364Y-42428390D02*
X108272745Y-42476009D01*
X108272745Y-42476009D02*
X108225126Y-42571247D01*
X108225126Y-42571247D02*
X108225126Y-42809342D01*
X108225126Y-42809342D02*
X108272745Y-42904580D01*
X108272745Y-42904580D02*
X108320364Y-42952200D01*
X108320364Y-42952200D02*
X108415602Y-42999819D01*
X108415602Y-42999819D02*
X108701316Y-42999819D01*
X108701316Y-42999819D02*
X108796554Y-42952200D01*
X108796554Y-42952200D02*
X108844173Y-42904580D01*
X107796554Y-42618866D02*
X107034650Y-42618866D01*
X106034650Y-42999819D02*
X106606078Y-42999819D01*
X106320364Y-42999819D02*
X106320364Y-41999819D01*
X106320364Y-41999819D02*
X106415602Y-42142676D01*
X106415602Y-42142676D02*
X106510840Y-42237914D01*
X106510840Y-42237914D02*
X106606078Y-42285533D01*
X105129888Y-41999819D02*
X105606078Y-41999819D01*
X105606078Y-41999819D02*
X105653697Y-42476009D01*
X105653697Y-42476009D02*
X105606078Y-42428390D01*
X105606078Y-42428390D02*
X105510840Y-42380771D01*
X105510840Y-42380771D02*
X105272745Y-42380771D01*
X105272745Y-42380771D02*
X105177507Y-42428390D01*
X105177507Y-42428390D02*
X105129888Y-42476009D01*
X105129888Y-42476009D02*
X105082269Y-42571247D01*
X105082269Y-42571247D02*
X105082269Y-42809342D01*
X105082269Y-42809342D02*
X105129888Y-42904580D01*
X105129888Y-42904580D02*
X105177507Y-42952200D01*
X105177507Y-42952200D02*
X105272745Y-42999819D01*
X105272745Y-42999819D02*
X105510840Y-42999819D01*
X105510840Y-42999819D02*
X105606078Y-42952200D01*
X105606078Y-42952200D02*
X105653697Y-42904580D01*
X102415602Y-41999819D02*
X102415602Y-42714104D01*
X102415602Y-42714104D02*
X102463221Y-42856961D01*
X102463221Y-42856961D02*
X102558459Y-42952200D01*
X102558459Y-42952200D02*
X102701316Y-42999819D01*
X102701316Y-42999819D02*
X102796554Y-42999819D01*
X101939411Y-42999819D02*
X101939411Y-41999819D01*
X101939411Y-41999819D02*
X101558459Y-41999819D01*
X101558459Y-41999819D02*
X101463221Y-42047438D01*
X101463221Y-42047438D02*
X101415602Y-42095057D01*
X101415602Y-42095057D02*
X101367983Y-42190295D01*
X101367983Y-42190295D02*
X101367983Y-42333152D01*
X101367983Y-42333152D02*
X101415602Y-42428390D01*
X101415602Y-42428390D02*
X101463221Y-42476009D01*
X101463221Y-42476009D02*
X101558459Y-42523628D01*
X101558459Y-42523628D02*
X101939411Y-42523628D01*
X100415602Y-42999819D02*
X100987030Y-42999819D01*
X100701316Y-42999819D02*
X100701316Y-41999819D01*
X100701316Y-41999819D02*
X100796554Y-42142676D01*
X100796554Y-42142676D02*
X100891792Y-42237914D01*
X100891792Y-42237914D02*
X100987030Y-42285533D01*
X99987030Y-42618866D02*
X99225126Y-42618866D01*
X98320364Y-42333152D02*
X98320364Y-42999819D01*
X98558459Y-41952200D02*
X98796554Y-42666485D01*
X98796554Y-42666485D02*
X98177507Y-42666485D01*
X126463220Y-44086009D02*
X126129887Y-44086009D01*
X125987030Y-44609819D02*
X126463220Y-44609819D01*
X126463220Y-44609819D02*
X126463220Y-43609819D01*
X126463220Y-43609819D02*
X125987030Y-43609819D01*
X125558458Y-43943152D02*
X125558458Y-44609819D01*
X125558458Y-44038390D02*
X125510839Y-43990771D01*
X125510839Y-43990771D02*
X125415601Y-43943152D01*
X125415601Y-43943152D02*
X125272744Y-43943152D01*
X125272744Y-43943152D02*
X125177506Y-43990771D01*
X125177506Y-43990771D02*
X125129887Y-44086009D01*
X125129887Y-44086009D02*
X125129887Y-44609819D01*
X124225125Y-44609819D02*
X124225125Y-44086009D01*
X124225125Y-44086009D02*
X124272744Y-43990771D01*
X124272744Y-43990771D02*
X124367982Y-43943152D01*
X124367982Y-43943152D02*
X124558458Y-43943152D01*
X124558458Y-43943152D02*
X124653696Y-43990771D01*
X124225125Y-44562200D02*
X124320363Y-44609819D01*
X124320363Y-44609819D02*
X124558458Y-44609819D01*
X124558458Y-44609819D02*
X124653696Y-44562200D01*
X124653696Y-44562200D02*
X124701315Y-44466961D01*
X124701315Y-44466961D02*
X124701315Y-44371723D01*
X124701315Y-44371723D02*
X124653696Y-44276485D01*
X124653696Y-44276485D02*
X124558458Y-44228866D01*
X124558458Y-44228866D02*
X124320363Y-44228866D01*
X124320363Y-44228866D02*
X124225125Y-44181247D01*
X123748934Y-44609819D02*
X123748934Y-43609819D01*
X123748934Y-43990771D02*
X123653696Y-43943152D01*
X123653696Y-43943152D02*
X123463220Y-43943152D01*
X123463220Y-43943152D02*
X123367982Y-43990771D01*
X123367982Y-43990771D02*
X123320363Y-44038390D01*
X123320363Y-44038390D02*
X123272744Y-44133628D01*
X123272744Y-44133628D02*
X123272744Y-44419342D01*
X123272744Y-44419342D02*
X123320363Y-44514580D01*
X123320363Y-44514580D02*
X123367982Y-44562200D01*
X123367982Y-44562200D02*
X123463220Y-44609819D01*
X123463220Y-44609819D02*
X123653696Y-44609819D01*
X123653696Y-44609819D02*
X123748934Y-44562200D01*
X122701315Y-44609819D02*
X122796553Y-44562200D01*
X122796553Y-44562200D02*
X122844172Y-44466961D01*
X122844172Y-44466961D02*
X122844172Y-43609819D01*
X121939410Y-44562200D02*
X122034648Y-44609819D01*
X122034648Y-44609819D02*
X122225124Y-44609819D01*
X122225124Y-44609819D02*
X122320362Y-44562200D01*
X122320362Y-44562200D02*
X122367981Y-44466961D01*
X122367981Y-44466961D02*
X122367981Y-44086009D01*
X122367981Y-44086009D02*
X122320362Y-43990771D01*
X122320362Y-43990771D02*
X122225124Y-43943152D01*
X122225124Y-43943152D02*
X122034648Y-43943152D01*
X122034648Y-43943152D02*
X121939410Y-43990771D01*
X121939410Y-43990771D02*
X121891791Y-44086009D01*
X121891791Y-44086009D02*
X121891791Y-44181247D01*
X121891791Y-44181247D02*
X122367981Y-44276485D01*
X118225126Y-43609819D02*
X118701316Y-43609819D01*
X118701316Y-43609819D02*
X118748935Y-44086009D01*
X118748935Y-44086009D02*
X118701316Y-44038390D01*
X118701316Y-44038390D02*
X118606078Y-43990771D01*
X118606078Y-43990771D02*
X118367983Y-43990771D01*
X118367983Y-43990771D02*
X118272745Y-44038390D01*
X118272745Y-44038390D02*
X118225126Y-44086009D01*
X118225126Y-44086009D02*
X118177507Y-44181247D01*
X118177507Y-44181247D02*
X118177507Y-44419342D01*
X118177507Y-44419342D02*
X118225126Y-44514580D01*
X118225126Y-44514580D02*
X118272745Y-44562200D01*
X118272745Y-44562200D02*
X118367983Y-44609819D01*
X118367983Y-44609819D02*
X118606078Y-44609819D01*
X118606078Y-44609819D02*
X118701316Y-44562200D01*
X118701316Y-44562200D02*
X118748935Y-44514580D01*
X117796554Y-43705057D02*
X117748935Y-43657438D01*
X117748935Y-43657438D02*
X117653697Y-43609819D01*
X117653697Y-43609819D02*
X117415602Y-43609819D01*
X117415602Y-43609819D02*
X117320364Y-43657438D01*
X117320364Y-43657438D02*
X117272745Y-43705057D01*
X117272745Y-43705057D02*
X117225126Y-43800295D01*
X117225126Y-43800295D02*
X117225126Y-43895533D01*
X117225126Y-43895533D02*
X117272745Y-44038390D01*
X117272745Y-44038390D02*
X117844173Y-44609819D01*
X117844173Y-44609819D02*
X117225126Y-44609819D01*
X116796554Y-44609819D02*
X116796554Y-43609819D01*
X116701316Y-44228866D02*
X116415602Y-44609819D01*
X116415602Y-43943152D02*
X116796554Y-44324104D01*
X110987029Y-43609819D02*
X110320363Y-43609819D01*
X110320363Y-43609819D02*
X110748934Y-44609819D01*
X109748934Y-43609819D02*
X109653696Y-43609819D01*
X109653696Y-43609819D02*
X109558458Y-43657438D01*
X109558458Y-43657438D02*
X109510839Y-43705057D01*
X109510839Y-43705057D02*
X109463220Y-43800295D01*
X109463220Y-43800295D02*
X109415601Y-43990771D01*
X109415601Y-43990771D02*
X109415601Y-44228866D01*
X109415601Y-44228866D02*
X109463220Y-44419342D01*
X109463220Y-44419342D02*
X109510839Y-44514580D01*
X109510839Y-44514580D02*
X109558458Y-44562200D01*
X109558458Y-44562200D02*
X109653696Y-44609819D01*
X109653696Y-44609819D02*
X109748934Y-44609819D01*
X109748934Y-44609819D02*
X109844172Y-44562200D01*
X109844172Y-44562200D02*
X109891791Y-44514580D01*
X109891791Y-44514580D02*
X109939410Y-44419342D01*
X109939410Y-44419342D02*
X109987029Y-44228866D01*
X109987029Y-44228866D02*
X109987029Y-43990771D01*
X109987029Y-43990771D02*
X109939410Y-43800295D01*
X109939410Y-43800295D02*
X109891791Y-43705057D01*
X109891791Y-43705057D02*
X109844172Y-43657438D01*
X109844172Y-43657438D02*
X109748934Y-43609819D01*
X108987029Y-44609819D02*
X108987029Y-43609819D01*
X108891791Y-44228866D02*
X108606077Y-44609819D01*
X108606077Y-43943152D02*
X108987029Y-44324104D01*
X102510840Y-43609819D02*
X102320364Y-43609819D01*
X102320364Y-43609819D02*
X102225126Y-43657438D01*
X102225126Y-43657438D02*
X102129888Y-43752676D01*
X102129888Y-43752676D02*
X102082269Y-43943152D01*
X102082269Y-43943152D02*
X102082269Y-44276485D01*
X102082269Y-44276485D02*
X102129888Y-44466961D01*
X102129888Y-44466961D02*
X102225126Y-44562200D01*
X102225126Y-44562200D02*
X102320364Y-44609819D01*
X102320364Y-44609819D02*
X102510840Y-44609819D01*
X102510840Y-44609819D02*
X102606078Y-44562200D01*
X102606078Y-44562200D02*
X102701316Y-44466961D01*
X102701316Y-44466961D02*
X102748935Y-44276485D01*
X102748935Y-44276485D02*
X102748935Y-43943152D01*
X102748935Y-43943152D02*
X102701316Y-43752676D01*
X102701316Y-43752676D02*
X102606078Y-43657438D01*
X102606078Y-43657438D02*
X102510840Y-43609819D01*
X101653697Y-44609819D02*
X101653697Y-43609819D01*
X101653697Y-43609819D02*
X101272745Y-43609819D01*
X101272745Y-43609819D02*
X101177507Y-43657438D01*
X101177507Y-43657438D02*
X101129888Y-43705057D01*
X101129888Y-43705057D02*
X101082269Y-43800295D01*
X101082269Y-43800295D02*
X101082269Y-43943152D01*
X101082269Y-43943152D02*
X101129888Y-44038390D01*
X101129888Y-44038390D02*
X101177507Y-44086009D01*
X101177507Y-44086009D02*
X101272745Y-44133628D01*
X101272745Y-44133628D02*
X101653697Y-44133628D01*
X100653697Y-44086009D02*
X100320364Y-44086009D01*
X100177507Y-44609819D02*
X100653697Y-44609819D01*
X100653697Y-44609819D02*
X100653697Y-43609819D01*
X100653697Y-43609819D02*
X100177507Y-43609819D01*
X99748935Y-44609819D02*
X99748935Y-43609819D01*
X99748935Y-43609819D02*
X99177507Y-44609819D01*
X99177507Y-44609819D02*
X99177507Y-43609819D01*
X126463220Y-46219819D02*
X126463220Y-45219819D01*
X126463220Y-45219819D02*
X126225125Y-45219819D01*
X126225125Y-45219819D02*
X126082268Y-45267438D01*
X126082268Y-45267438D02*
X125987030Y-45362676D01*
X125987030Y-45362676D02*
X125939411Y-45457914D01*
X125939411Y-45457914D02*
X125891792Y-45648390D01*
X125891792Y-45648390D02*
X125891792Y-45791247D01*
X125891792Y-45791247D02*
X125939411Y-45981723D01*
X125939411Y-45981723D02*
X125987030Y-46076961D01*
X125987030Y-46076961D02*
X126082268Y-46172200D01*
X126082268Y-46172200D02*
X126225125Y-46219819D01*
X126225125Y-46219819D02*
X126463220Y-46219819D01*
X125463220Y-46219819D02*
X125463220Y-45553152D01*
X125463220Y-45219819D02*
X125510839Y-45267438D01*
X125510839Y-45267438D02*
X125463220Y-45315057D01*
X125463220Y-45315057D02*
X125415601Y-45267438D01*
X125415601Y-45267438D02*
X125463220Y-45219819D01*
X125463220Y-45219819D02*
X125463220Y-45315057D01*
X125034649Y-46172200D02*
X124939411Y-46219819D01*
X124939411Y-46219819D02*
X124748935Y-46219819D01*
X124748935Y-46219819D02*
X124653697Y-46172200D01*
X124653697Y-46172200D02*
X124606078Y-46076961D01*
X124606078Y-46076961D02*
X124606078Y-46029342D01*
X124606078Y-46029342D02*
X124653697Y-45934104D01*
X124653697Y-45934104D02*
X124748935Y-45886485D01*
X124748935Y-45886485D02*
X124891792Y-45886485D01*
X124891792Y-45886485D02*
X124987030Y-45838866D01*
X124987030Y-45838866D02*
X125034649Y-45743628D01*
X125034649Y-45743628D02*
X125034649Y-45696009D01*
X125034649Y-45696009D02*
X124987030Y-45600771D01*
X124987030Y-45600771D02*
X124891792Y-45553152D01*
X124891792Y-45553152D02*
X124748935Y-45553152D01*
X124748935Y-45553152D02*
X124653697Y-45600771D01*
X123748935Y-46219819D02*
X123748935Y-45696009D01*
X123748935Y-45696009D02*
X123796554Y-45600771D01*
X123796554Y-45600771D02*
X123891792Y-45553152D01*
X123891792Y-45553152D02*
X124082268Y-45553152D01*
X124082268Y-45553152D02*
X124177506Y-45600771D01*
X123748935Y-46172200D02*
X123844173Y-46219819D01*
X123844173Y-46219819D02*
X124082268Y-46219819D01*
X124082268Y-46219819D02*
X124177506Y-46172200D01*
X124177506Y-46172200D02*
X124225125Y-46076961D01*
X124225125Y-46076961D02*
X124225125Y-45981723D01*
X124225125Y-45981723D02*
X124177506Y-45886485D01*
X124177506Y-45886485D02*
X124082268Y-45838866D01*
X124082268Y-45838866D02*
X123844173Y-45838866D01*
X123844173Y-45838866D02*
X123748935Y-45791247D01*
X123272744Y-46219819D02*
X123272744Y-45219819D01*
X123272744Y-45600771D02*
X123177506Y-45553152D01*
X123177506Y-45553152D02*
X122987030Y-45553152D01*
X122987030Y-45553152D02*
X122891792Y-45600771D01*
X122891792Y-45600771D02*
X122844173Y-45648390D01*
X122844173Y-45648390D02*
X122796554Y-45743628D01*
X122796554Y-45743628D02*
X122796554Y-46029342D01*
X122796554Y-46029342D02*
X122844173Y-46124580D01*
X122844173Y-46124580D02*
X122891792Y-46172200D01*
X122891792Y-46172200D02*
X122987030Y-46219819D01*
X122987030Y-46219819D02*
X123177506Y-46219819D01*
X123177506Y-46219819D02*
X123272744Y-46172200D01*
X122225125Y-46219819D02*
X122320363Y-46172200D01*
X122320363Y-46172200D02*
X122367982Y-46076961D01*
X122367982Y-46076961D02*
X122367982Y-45219819D01*
X121463220Y-46172200D02*
X121558458Y-46219819D01*
X121558458Y-46219819D02*
X121748934Y-46219819D01*
X121748934Y-46219819D02*
X121844172Y-46172200D01*
X121844172Y-46172200D02*
X121891791Y-46076961D01*
X121891791Y-46076961D02*
X121891791Y-45696009D01*
X121891791Y-45696009D02*
X121844172Y-45600771D01*
X121844172Y-45600771D02*
X121748934Y-45553152D01*
X121748934Y-45553152D02*
X121558458Y-45553152D01*
X121558458Y-45553152D02*
X121463220Y-45600771D01*
X121463220Y-45600771D02*
X121415601Y-45696009D01*
X121415601Y-45696009D02*
X121415601Y-45791247D01*
X121415601Y-45791247D02*
X121891791Y-45886485D01*
X118701314Y-46219819D02*
X118701314Y-45219819D01*
X118701314Y-45219819D02*
X118463219Y-45219819D01*
X118463219Y-45219819D02*
X118320362Y-45267438D01*
X118320362Y-45267438D02*
X118225124Y-45362676D01*
X118225124Y-45362676D02*
X118177505Y-45457914D01*
X118177505Y-45457914D02*
X118129886Y-45648390D01*
X118129886Y-45648390D02*
X118129886Y-45791247D01*
X118129886Y-45791247D02*
X118177505Y-45981723D01*
X118177505Y-45981723D02*
X118225124Y-46076961D01*
X118225124Y-46076961D02*
X118320362Y-46172200D01*
X118320362Y-46172200D02*
X118463219Y-46219819D01*
X118463219Y-46219819D02*
X118701314Y-46219819D01*
X117701314Y-46219819D02*
X117701314Y-45219819D01*
X117701314Y-45219819D02*
X117129886Y-46219819D01*
X117129886Y-46219819D02*
X117129886Y-45219819D01*
X116653695Y-46219819D02*
X116653695Y-45219819D01*
X116653695Y-45219819D02*
X116272743Y-45219819D01*
X116272743Y-45219819D02*
X116177505Y-45267438D01*
X116177505Y-45267438D02*
X116129886Y-45315057D01*
X116129886Y-45315057D02*
X116082267Y-45410295D01*
X116082267Y-45410295D02*
X116082267Y-45553152D01*
X116082267Y-45553152D02*
X116129886Y-45648390D01*
X116129886Y-45648390D02*
X116177505Y-45696009D01*
X116177505Y-45696009D02*
X116272743Y-45743628D01*
X116272743Y-45743628D02*
X116653695Y-45743628D01*
X111082265Y-46219819D02*
X111082265Y-45219819D01*
X111082265Y-45219819D02*
X110844170Y-45219819D01*
X110844170Y-45219819D02*
X110701313Y-45267438D01*
X110701313Y-45267438D02*
X110606075Y-45362676D01*
X110606075Y-45362676D02*
X110558456Y-45457914D01*
X110558456Y-45457914D02*
X110510837Y-45648390D01*
X110510837Y-45648390D02*
X110510837Y-45791247D01*
X110510837Y-45791247D02*
X110558456Y-45981723D01*
X110558456Y-45981723D02*
X110606075Y-46076961D01*
X110606075Y-46076961D02*
X110701313Y-46172200D01*
X110701313Y-46172200D02*
X110844170Y-46219819D01*
X110844170Y-46219819D02*
X111082265Y-46219819D01*
X110082265Y-46219819D02*
X110082265Y-45219819D01*
X110082265Y-45219819D02*
X109510837Y-46219819D01*
X109510837Y-46219819D02*
X109510837Y-45219819D01*
X109034646Y-46219819D02*
X109034646Y-45219819D01*
X109034646Y-45219819D02*
X108653694Y-45219819D01*
X108653694Y-45219819D02*
X108558456Y-45267438D01*
X108558456Y-45267438D02*
X108510837Y-45315057D01*
X108510837Y-45315057D02*
X108463218Y-45410295D01*
X108463218Y-45410295D02*
X108463218Y-45553152D01*
X108463218Y-45553152D02*
X108510837Y-45648390D01*
X108510837Y-45648390D02*
X108558456Y-45696009D01*
X108558456Y-45696009D02*
X108653694Y-45743628D01*
X108653694Y-45743628D02*
X109034646Y-45743628D01*
X102748935Y-46172200D02*
X102606078Y-46219819D01*
X102606078Y-46219819D02*
X102367983Y-46219819D01*
X102367983Y-46219819D02*
X102272745Y-46172200D01*
X102272745Y-46172200D02*
X102225126Y-46124580D01*
X102225126Y-46124580D02*
X102177507Y-46029342D01*
X102177507Y-46029342D02*
X102177507Y-45934104D01*
X102177507Y-45934104D02*
X102225126Y-45838866D01*
X102225126Y-45838866D02*
X102272745Y-45791247D01*
X102272745Y-45791247D02*
X102367983Y-45743628D01*
X102367983Y-45743628D02*
X102558459Y-45696009D01*
X102558459Y-45696009D02*
X102653697Y-45648390D01*
X102653697Y-45648390D02*
X102701316Y-45600771D01*
X102701316Y-45600771D02*
X102748935Y-45505533D01*
X102748935Y-45505533D02*
X102748935Y-45410295D01*
X102748935Y-45410295D02*
X102701316Y-45315057D01*
X102701316Y-45315057D02*
X102653697Y-45267438D01*
X102653697Y-45267438D02*
X102558459Y-45219819D01*
X102558459Y-45219819D02*
X102320364Y-45219819D01*
X102320364Y-45219819D02*
X102177507Y-45267438D01*
X101748935Y-46219819D02*
X101748935Y-45219819D01*
X101748935Y-45696009D02*
X101177507Y-45696009D01*
X101177507Y-46219819D02*
X101177507Y-45219819D01*
X100510840Y-45219819D02*
X100320364Y-45219819D01*
X100320364Y-45219819D02*
X100225126Y-45267438D01*
X100225126Y-45267438D02*
X100129888Y-45362676D01*
X100129888Y-45362676D02*
X100082269Y-45553152D01*
X100082269Y-45553152D02*
X100082269Y-45886485D01*
X100082269Y-45886485D02*
X100129888Y-46076961D01*
X100129888Y-46076961D02*
X100225126Y-46172200D01*
X100225126Y-46172200D02*
X100320364Y-46219819D01*
X100320364Y-46219819D02*
X100510840Y-46219819D01*
X100510840Y-46219819D02*
X100606078Y-46172200D01*
X100606078Y-46172200D02*
X100701316Y-46076961D01*
X100701316Y-46076961D02*
X100748935Y-45886485D01*
X100748935Y-45886485D02*
X100748935Y-45553152D01*
X100748935Y-45553152D02*
X100701316Y-45362676D01*
X100701316Y-45362676D02*
X100606078Y-45267438D01*
X100606078Y-45267438D02*
X100510840Y-45219819D01*
X99082269Y-46219819D02*
X99415602Y-45743628D01*
X99653697Y-46219819D02*
X99653697Y-45219819D01*
X99653697Y-45219819D02*
X99272745Y-45219819D01*
X99272745Y-45219819D02*
X99177507Y-45267438D01*
X99177507Y-45267438D02*
X99129888Y-45315057D01*
X99129888Y-45315057D02*
X99082269Y-45410295D01*
X99082269Y-45410295D02*
X99082269Y-45553152D01*
X99082269Y-45553152D02*
X99129888Y-45648390D01*
X99129888Y-45648390D02*
X99177507Y-45696009D01*
X99177507Y-45696009D02*
X99272745Y-45743628D01*
X99272745Y-45743628D02*
X99653697Y-45743628D01*
X98796554Y-45219819D02*
X98225126Y-45219819D01*
X98510840Y-46219819D02*
X98510840Y-45219819D01*
X125891792Y-49344580D02*
X125939411Y-49392200D01*
X125939411Y-49392200D02*
X126082268Y-49439819D01*
X126082268Y-49439819D02*
X126177506Y-49439819D01*
X126177506Y-49439819D02*
X126320363Y-49392200D01*
X126320363Y-49392200D02*
X126415601Y-49296961D01*
X126415601Y-49296961D02*
X126463220Y-49201723D01*
X126463220Y-49201723D02*
X126510839Y-49011247D01*
X126510839Y-49011247D02*
X126510839Y-48868390D01*
X126510839Y-48868390D02*
X126463220Y-48677914D01*
X126463220Y-48677914D02*
X126415601Y-48582676D01*
X126415601Y-48582676D02*
X126320363Y-48487438D01*
X126320363Y-48487438D02*
X126177506Y-48439819D01*
X126177506Y-48439819D02*
X126082268Y-48439819D01*
X126082268Y-48439819D02*
X125939411Y-48487438D01*
X125939411Y-48487438D02*
X125891792Y-48535057D01*
X125034649Y-48773152D02*
X125034649Y-49439819D01*
X125463220Y-48773152D02*
X125463220Y-49296961D01*
X125463220Y-49296961D02*
X125415601Y-49392200D01*
X125415601Y-49392200D02*
X125320363Y-49439819D01*
X125320363Y-49439819D02*
X125177506Y-49439819D01*
X125177506Y-49439819D02*
X125082268Y-49392200D01*
X125082268Y-49392200D02*
X125034649Y-49344580D01*
X124558458Y-49439819D02*
X124558458Y-48773152D01*
X124558458Y-48963628D02*
X124510839Y-48868390D01*
X124510839Y-48868390D02*
X124463220Y-48820771D01*
X124463220Y-48820771D02*
X124367982Y-48773152D01*
X124367982Y-48773152D02*
X124272744Y-48773152D01*
X123939410Y-49439819D02*
X123939410Y-48773152D01*
X123939410Y-48963628D02*
X123891791Y-48868390D01*
X123891791Y-48868390D02*
X123844172Y-48820771D01*
X123844172Y-48820771D02*
X123748934Y-48773152D01*
X123748934Y-48773152D02*
X123653696Y-48773152D01*
X122939410Y-49392200D02*
X123034648Y-49439819D01*
X123034648Y-49439819D02*
X123225124Y-49439819D01*
X123225124Y-49439819D02*
X123320362Y-49392200D01*
X123320362Y-49392200D02*
X123367981Y-49296961D01*
X123367981Y-49296961D02*
X123367981Y-48916009D01*
X123367981Y-48916009D02*
X123320362Y-48820771D01*
X123320362Y-48820771D02*
X123225124Y-48773152D01*
X123225124Y-48773152D02*
X123034648Y-48773152D01*
X123034648Y-48773152D02*
X122939410Y-48820771D01*
X122939410Y-48820771D02*
X122891791Y-48916009D01*
X122891791Y-48916009D02*
X122891791Y-49011247D01*
X122891791Y-49011247D02*
X123367981Y-49106485D01*
X122463219Y-48773152D02*
X122463219Y-49439819D01*
X122463219Y-48868390D02*
X122415600Y-48820771D01*
X122415600Y-48820771D02*
X122320362Y-48773152D01*
X122320362Y-48773152D02*
X122177505Y-48773152D01*
X122177505Y-48773152D02*
X122082267Y-48820771D01*
X122082267Y-48820771D02*
X122034648Y-48916009D01*
X122034648Y-48916009D02*
X122034648Y-49439819D01*
X121701314Y-48773152D02*
X121320362Y-48773152D01*
X121558457Y-48439819D02*
X121558457Y-49296961D01*
X121558457Y-49296961D02*
X121510838Y-49392200D01*
X121510838Y-49392200D02*
X121415600Y-49439819D01*
X121415600Y-49439819D02*
X121320362Y-49439819D01*
X120272742Y-49392200D02*
X120129885Y-49439819D01*
X120129885Y-49439819D02*
X119891790Y-49439819D01*
X119891790Y-49439819D02*
X119796552Y-49392200D01*
X119796552Y-49392200D02*
X119748933Y-49344580D01*
X119748933Y-49344580D02*
X119701314Y-49249342D01*
X119701314Y-49249342D02*
X119701314Y-49154104D01*
X119701314Y-49154104D02*
X119748933Y-49058866D01*
X119748933Y-49058866D02*
X119796552Y-49011247D01*
X119796552Y-49011247D02*
X119891790Y-48963628D01*
X119891790Y-48963628D02*
X120082266Y-48916009D01*
X120082266Y-48916009D02*
X120177504Y-48868390D01*
X120177504Y-48868390D02*
X120225123Y-48820771D01*
X120225123Y-48820771D02*
X120272742Y-48725533D01*
X120272742Y-48725533D02*
X120272742Y-48630295D01*
X120272742Y-48630295D02*
X120225123Y-48535057D01*
X120225123Y-48535057D02*
X120177504Y-48487438D01*
X120177504Y-48487438D02*
X120082266Y-48439819D01*
X120082266Y-48439819D02*
X119844171Y-48439819D01*
X119844171Y-48439819D02*
X119701314Y-48487438D01*
X118891790Y-49392200D02*
X118987028Y-49439819D01*
X118987028Y-49439819D02*
X119177504Y-49439819D01*
X119177504Y-49439819D02*
X119272742Y-49392200D01*
X119272742Y-49392200D02*
X119320361Y-49296961D01*
X119320361Y-49296961D02*
X119320361Y-48916009D01*
X119320361Y-48916009D02*
X119272742Y-48820771D01*
X119272742Y-48820771D02*
X119177504Y-48773152D01*
X119177504Y-48773152D02*
X118987028Y-48773152D01*
X118987028Y-48773152D02*
X118891790Y-48820771D01*
X118891790Y-48820771D02*
X118844171Y-48916009D01*
X118844171Y-48916009D02*
X118844171Y-49011247D01*
X118844171Y-49011247D02*
X119320361Y-49106485D01*
X118415599Y-48773152D02*
X118415599Y-49439819D01*
X118415599Y-48868390D02*
X118367980Y-48820771D01*
X118367980Y-48820771D02*
X118272742Y-48773152D01*
X118272742Y-48773152D02*
X118129885Y-48773152D01*
X118129885Y-48773152D02*
X118034647Y-48820771D01*
X118034647Y-48820771D02*
X117987028Y-48916009D01*
X117987028Y-48916009D02*
X117987028Y-49439819D01*
X117558456Y-49392200D02*
X117463218Y-49439819D01*
X117463218Y-49439819D02*
X117272742Y-49439819D01*
X117272742Y-49439819D02*
X117177504Y-49392200D01*
X117177504Y-49392200D02*
X117129885Y-49296961D01*
X117129885Y-49296961D02*
X117129885Y-49249342D01*
X117129885Y-49249342D02*
X117177504Y-49154104D01*
X117177504Y-49154104D02*
X117272742Y-49106485D01*
X117272742Y-49106485D02*
X117415599Y-49106485D01*
X117415599Y-49106485D02*
X117510837Y-49058866D01*
X117510837Y-49058866D02*
X117558456Y-48963628D01*
X117558456Y-48963628D02*
X117558456Y-48916009D01*
X117558456Y-48916009D02*
X117510837Y-48820771D01*
X117510837Y-48820771D02*
X117415599Y-48773152D01*
X117415599Y-48773152D02*
X117272742Y-48773152D01*
X117272742Y-48773152D02*
X117177504Y-48820771D01*
X116320361Y-49392200D02*
X116415599Y-49439819D01*
X116415599Y-49439819D02*
X116606075Y-49439819D01*
X116606075Y-49439819D02*
X116701313Y-49392200D01*
X116701313Y-49392200D02*
X116748932Y-49296961D01*
X116748932Y-49296961D02*
X116748932Y-48916009D01*
X116748932Y-48916009D02*
X116701313Y-48820771D01*
X116701313Y-48820771D02*
X116606075Y-48773152D01*
X116606075Y-48773152D02*
X116415599Y-48773152D01*
X116415599Y-48773152D02*
X116320361Y-48820771D01*
X116320361Y-48820771D02*
X116272742Y-48916009D01*
X116272742Y-48916009D02*
X116272742Y-49011247D01*
X116272742Y-49011247D02*
X116748932Y-49106485D01*
X115844170Y-49344580D02*
X115796551Y-49392200D01*
X115796551Y-49392200D02*
X115844170Y-49439819D01*
X115844170Y-49439819D02*
X115891789Y-49392200D01*
X115891789Y-49392200D02*
X115844170Y-49344580D01*
X115844170Y-49344580D02*
X115844170Y-49439819D01*
X115844170Y-48820771D02*
X115796551Y-48868390D01*
X115796551Y-48868390D02*
X115844170Y-48916009D01*
X115844170Y-48916009D02*
X115891789Y-48868390D01*
X115891789Y-48868390D02*
X115844170Y-48820771D01*
X115844170Y-48820771D02*
X115844170Y-48916009D01*
X118320363Y-51049819D02*
X118653696Y-50573628D01*
X118891791Y-51049819D02*
X118891791Y-50049819D01*
X118891791Y-50049819D02*
X118510839Y-50049819D01*
X118510839Y-50049819D02*
X118415601Y-50097438D01*
X118415601Y-50097438D02*
X118367982Y-50145057D01*
X118367982Y-50145057D02*
X118320363Y-50240295D01*
X118320363Y-50240295D02*
X118320363Y-50383152D01*
X118320363Y-50383152D02*
X118367982Y-50478390D01*
X118367982Y-50478390D02*
X118415601Y-50526009D01*
X118415601Y-50526009D02*
X118510839Y-50573628D01*
X118510839Y-50573628D02*
X118891791Y-50573628D01*
X117367982Y-51049819D02*
X117939410Y-51049819D01*
X117653696Y-51049819D02*
X117653696Y-50049819D01*
X117653696Y-50049819D02*
X117748934Y-50192676D01*
X117748934Y-50192676D02*
X117844172Y-50287914D01*
X117844172Y-50287914D02*
X117939410Y-50335533D01*
X116939410Y-50668866D02*
X116177506Y-50668866D01*
X115272744Y-50383152D02*
X115272744Y-51049819D01*
X115510839Y-50002200D02*
X115748934Y-50716485D01*
X115748934Y-50716485D02*
X115129887Y-50716485D01*
X110415602Y-50049819D02*
X110415602Y-50764104D01*
X110415602Y-50764104D02*
X110463221Y-50906961D01*
X110463221Y-50906961D02*
X110558459Y-51002200D01*
X110558459Y-51002200D02*
X110701316Y-51049819D01*
X110701316Y-51049819D02*
X110796554Y-51049819D01*
X109463221Y-50049819D02*
X109939411Y-50049819D01*
X109939411Y-50049819D02*
X109987030Y-50526009D01*
X109987030Y-50526009D02*
X109939411Y-50478390D01*
X109939411Y-50478390D02*
X109844173Y-50430771D01*
X109844173Y-50430771D02*
X109606078Y-50430771D01*
X109606078Y-50430771D02*
X109510840Y-50478390D01*
X109510840Y-50478390D02*
X109463221Y-50526009D01*
X109463221Y-50526009D02*
X109415602Y-50621247D01*
X109415602Y-50621247D02*
X109415602Y-50859342D01*
X109415602Y-50859342D02*
X109463221Y-50954580D01*
X109463221Y-50954580D02*
X109510840Y-51002200D01*
X109510840Y-51002200D02*
X109606078Y-51049819D01*
X109606078Y-51049819D02*
X109844173Y-51049819D01*
X109844173Y-51049819D02*
X109939411Y-51002200D01*
X109939411Y-51002200D02*
X109987030Y-50954580D01*
X126463220Y-52136009D02*
X126129887Y-52136009D01*
X125987030Y-52659819D02*
X126463220Y-52659819D01*
X126463220Y-52659819D02*
X126463220Y-51659819D01*
X126463220Y-51659819D02*
X125987030Y-51659819D01*
X125558458Y-51993152D02*
X125558458Y-52659819D01*
X125558458Y-52088390D02*
X125510839Y-52040771D01*
X125510839Y-52040771D02*
X125415601Y-51993152D01*
X125415601Y-51993152D02*
X125272744Y-51993152D01*
X125272744Y-51993152D02*
X125177506Y-52040771D01*
X125177506Y-52040771D02*
X125129887Y-52136009D01*
X125129887Y-52136009D02*
X125129887Y-52659819D01*
X124225125Y-52659819D02*
X124225125Y-52136009D01*
X124225125Y-52136009D02*
X124272744Y-52040771D01*
X124272744Y-52040771D02*
X124367982Y-51993152D01*
X124367982Y-51993152D02*
X124558458Y-51993152D01*
X124558458Y-51993152D02*
X124653696Y-52040771D01*
X124225125Y-52612200D02*
X124320363Y-52659819D01*
X124320363Y-52659819D02*
X124558458Y-52659819D01*
X124558458Y-52659819D02*
X124653696Y-52612200D01*
X124653696Y-52612200D02*
X124701315Y-52516961D01*
X124701315Y-52516961D02*
X124701315Y-52421723D01*
X124701315Y-52421723D02*
X124653696Y-52326485D01*
X124653696Y-52326485D02*
X124558458Y-52278866D01*
X124558458Y-52278866D02*
X124320363Y-52278866D01*
X124320363Y-52278866D02*
X124225125Y-52231247D01*
X123748934Y-52659819D02*
X123748934Y-51659819D01*
X123748934Y-52040771D02*
X123653696Y-51993152D01*
X123653696Y-51993152D02*
X123463220Y-51993152D01*
X123463220Y-51993152D02*
X123367982Y-52040771D01*
X123367982Y-52040771D02*
X123320363Y-52088390D01*
X123320363Y-52088390D02*
X123272744Y-52183628D01*
X123272744Y-52183628D02*
X123272744Y-52469342D01*
X123272744Y-52469342D02*
X123320363Y-52564580D01*
X123320363Y-52564580D02*
X123367982Y-52612200D01*
X123367982Y-52612200D02*
X123463220Y-52659819D01*
X123463220Y-52659819D02*
X123653696Y-52659819D01*
X123653696Y-52659819D02*
X123748934Y-52612200D01*
X122701315Y-52659819D02*
X122796553Y-52612200D01*
X122796553Y-52612200D02*
X122844172Y-52516961D01*
X122844172Y-52516961D02*
X122844172Y-51659819D01*
X121939410Y-52612200D02*
X122034648Y-52659819D01*
X122034648Y-52659819D02*
X122225124Y-52659819D01*
X122225124Y-52659819D02*
X122320362Y-52612200D01*
X122320362Y-52612200D02*
X122367981Y-52516961D01*
X122367981Y-52516961D02*
X122367981Y-52136009D01*
X122367981Y-52136009D02*
X122320362Y-52040771D01*
X122320362Y-52040771D02*
X122225124Y-51993152D01*
X122225124Y-51993152D02*
X122034648Y-51993152D01*
X122034648Y-51993152D02*
X121939410Y-52040771D01*
X121939410Y-52040771D02*
X121891791Y-52136009D01*
X121891791Y-52136009D02*
X121891791Y-52231247D01*
X121891791Y-52231247D02*
X122367981Y-52326485D01*
X118701316Y-52659819D02*
X118701316Y-51659819D01*
X118701316Y-51659819D02*
X118463221Y-51659819D01*
X118463221Y-51659819D02*
X118320364Y-51707438D01*
X118320364Y-51707438D02*
X118225126Y-51802676D01*
X118225126Y-51802676D02*
X118177507Y-51897914D01*
X118177507Y-51897914D02*
X118129888Y-52088390D01*
X118129888Y-52088390D02*
X118129888Y-52231247D01*
X118129888Y-52231247D02*
X118177507Y-52421723D01*
X118177507Y-52421723D02*
X118225126Y-52516961D01*
X118225126Y-52516961D02*
X118320364Y-52612200D01*
X118320364Y-52612200D02*
X118463221Y-52659819D01*
X118463221Y-52659819D02*
X118701316Y-52659819D01*
X117701316Y-52659819D02*
X117701316Y-51659819D01*
X117701316Y-51659819D02*
X117320364Y-51659819D01*
X117320364Y-51659819D02*
X117225126Y-51707438D01*
X117225126Y-51707438D02*
X117177507Y-51755057D01*
X117177507Y-51755057D02*
X117129888Y-51850295D01*
X117129888Y-51850295D02*
X117129888Y-51993152D01*
X117129888Y-51993152D02*
X117177507Y-52088390D01*
X117177507Y-52088390D02*
X117225126Y-52136009D01*
X117225126Y-52136009D02*
X117320364Y-52183628D01*
X117320364Y-52183628D02*
X117701316Y-52183628D01*
X110701315Y-51659819D02*
X110510839Y-51659819D01*
X110510839Y-51659819D02*
X110415601Y-51707438D01*
X110415601Y-51707438D02*
X110320363Y-51802676D01*
X110320363Y-51802676D02*
X110272744Y-51993152D01*
X110272744Y-51993152D02*
X110272744Y-52326485D01*
X110272744Y-52326485D02*
X110320363Y-52516961D01*
X110320363Y-52516961D02*
X110415601Y-52612200D01*
X110415601Y-52612200D02*
X110510839Y-52659819D01*
X110510839Y-52659819D02*
X110701315Y-52659819D01*
X110701315Y-52659819D02*
X110796553Y-52612200D01*
X110796553Y-52612200D02*
X110891791Y-52516961D01*
X110891791Y-52516961D02*
X110939410Y-52326485D01*
X110939410Y-52326485D02*
X110939410Y-51993152D01*
X110939410Y-51993152D02*
X110891791Y-51802676D01*
X110891791Y-51802676D02*
X110796553Y-51707438D01*
X110796553Y-51707438D02*
X110701315Y-51659819D01*
X109844172Y-52659819D02*
X109844172Y-51659819D01*
X109844172Y-51659819D02*
X109463220Y-51659819D01*
X109463220Y-51659819D02*
X109367982Y-51707438D01*
X109367982Y-51707438D02*
X109320363Y-51755057D01*
X109320363Y-51755057D02*
X109272744Y-51850295D01*
X109272744Y-51850295D02*
X109272744Y-51993152D01*
X109272744Y-51993152D02*
X109320363Y-52088390D01*
X109320363Y-52088390D02*
X109367982Y-52136009D01*
X109367982Y-52136009D02*
X109463220Y-52183628D01*
X109463220Y-52183628D02*
X109844172Y-52183628D01*
X108844172Y-52136009D02*
X108510839Y-52136009D01*
X108367982Y-52659819D02*
X108844172Y-52659819D01*
X108844172Y-52659819D02*
X108844172Y-51659819D01*
X108844172Y-51659819D02*
X108367982Y-51659819D01*
X107939410Y-52659819D02*
X107939410Y-51659819D01*
X107939410Y-51659819D02*
X107367982Y-52659819D01*
X107367982Y-52659819D02*
X107367982Y-51659819D01*
X126463220Y-54269819D02*
X126463220Y-53269819D01*
X126463220Y-53269819D02*
X126225125Y-53269819D01*
X126225125Y-53269819D02*
X126082268Y-53317438D01*
X126082268Y-53317438D02*
X125987030Y-53412676D01*
X125987030Y-53412676D02*
X125939411Y-53507914D01*
X125939411Y-53507914D02*
X125891792Y-53698390D01*
X125891792Y-53698390D02*
X125891792Y-53841247D01*
X125891792Y-53841247D02*
X125939411Y-54031723D01*
X125939411Y-54031723D02*
X125987030Y-54126961D01*
X125987030Y-54126961D02*
X126082268Y-54222200D01*
X126082268Y-54222200D02*
X126225125Y-54269819D01*
X126225125Y-54269819D02*
X126463220Y-54269819D01*
X125463220Y-54269819D02*
X125463220Y-53603152D01*
X125463220Y-53269819D02*
X125510839Y-53317438D01*
X125510839Y-53317438D02*
X125463220Y-53365057D01*
X125463220Y-53365057D02*
X125415601Y-53317438D01*
X125415601Y-53317438D02*
X125463220Y-53269819D01*
X125463220Y-53269819D02*
X125463220Y-53365057D01*
X125034649Y-54222200D02*
X124939411Y-54269819D01*
X124939411Y-54269819D02*
X124748935Y-54269819D01*
X124748935Y-54269819D02*
X124653697Y-54222200D01*
X124653697Y-54222200D02*
X124606078Y-54126961D01*
X124606078Y-54126961D02*
X124606078Y-54079342D01*
X124606078Y-54079342D02*
X124653697Y-53984104D01*
X124653697Y-53984104D02*
X124748935Y-53936485D01*
X124748935Y-53936485D02*
X124891792Y-53936485D01*
X124891792Y-53936485D02*
X124987030Y-53888866D01*
X124987030Y-53888866D02*
X125034649Y-53793628D01*
X125034649Y-53793628D02*
X125034649Y-53746009D01*
X125034649Y-53746009D02*
X124987030Y-53650771D01*
X124987030Y-53650771D02*
X124891792Y-53603152D01*
X124891792Y-53603152D02*
X124748935Y-53603152D01*
X124748935Y-53603152D02*
X124653697Y-53650771D01*
X123748935Y-54269819D02*
X123748935Y-53746009D01*
X123748935Y-53746009D02*
X123796554Y-53650771D01*
X123796554Y-53650771D02*
X123891792Y-53603152D01*
X123891792Y-53603152D02*
X124082268Y-53603152D01*
X124082268Y-53603152D02*
X124177506Y-53650771D01*
X123748935Y-54222200D02*
X123844173Y-54269819D01*
X123844173Y-54269819D02*
X124082268Y-54269819D01*
X124082268Y-54269819D02*
X124177506Y-54222200D01*
X124177506Y-54222200D02*
X124225125Y-54126961D01*
X124225125Y-54126961D02*
X124225125Y-54031723D01*
X124225125Y-54031723D02*
X124177506Y-53936485D01*
X124177506Y-53936485D02*
X124082268Y-53888866D01*
X124082268Y-53888866D02*
X123844173Y-53888866D01*
X123844173Y-53888866D02*
X123748935Y-53841247D01*
X123272744Y-54269819D02*
X123272744Y-53269819D01*
X123272744Y-53650771D02*
X123177506Y-53603152D01*
X123177506Y-53603152D02*
X122987030Y-53603152D01*
X122987030Y-53603152D02*
X122891792Y-53650771D01*
X122891792Y-53650771D02*
X122844173Y-53698390D01*
X122844173Y-53698390D02*
X122796554Y-53793628D01*
X122796554Y-53793628D02*
X122796554Y-54079342D01*
X122796554Y-54079342D02*
X122844173Y-54174580D01*
X122844173Y-54174580D02*
X122891792Y-54222200D01*
X122891792Y-54222200D02*
X122987030Y-54269819D01*
X122987030Y-54269819D02*
X123177506Y-54269819D01*
X123177506Y-54269819D02*
X123272744Y-54222200D01*
X122225125Y-54269819D02*
X122320363Y-54222200D01*
X122320363Y-54222200D02*
X122367982Y-54126961D01*
X122367982Y-54126961D02*
X122367982Y-53269819D01*
X121463220Y-54222200D02*
X121558458Y-54269819D01*
X121558458Y-54269819D02*
X121748934Y-54269819D01*
X121748934Y-54269819D02*
X121844172Y-54222200D01*
X121844172Y-54222200D02*
X121891791Y-54126961D01*
X121891791Y-54126961D02*
X121891791Y-53746009D01*
X121891791Y-53746009D02*
X121844172Y-53650771D01*
X121844172Y-53650771D02*
X121748934Y-53603152D01*
X121748934Y-53603152D02*
X121558458Y-53603152D01*
X121558458Y-53603152D02*
X121463220Y-53650771D01*
X121463220Y-53650771D02*
X121415601Y-53746009D01*
X121415601Y-53746009D02*
X121415601Y-53841247D01*
X121415601Y-53841247D02*
X121891791Y-53936485D01*
X118701314Y-54269819D02*
X118701314Y-53269819D01*
X118701314Y-53269819D02*
X118463219Y-53269819D01*
X118463219Y-53269819D02*
X118320362Y-53317438D01*
X118320362Y-53317438D02*
X118225124Y-53412676D01*
X118225124Y-53412676D02*
X118177505Y-53507914D01*
X118177505Y-53507914D02*
X118129886Y-53698390D01*
X118129886Y-53698390D02*
X118129886Y-53841247D01*
X118129886Y-53841247D02*
X118177505Y-54031723D01*
X118177505Y-54031723D02*
X118225124Y-54126961D01*
X118225124Y-54126961D02*
X118320362Y-54222200D01*
X118320362Y-54222200D02*
X118463219Y-54269819D01*
X118463219Y-54269819D02*
X118701314Y-54269819D01*
X117701314Y-54269819D02*
X117701314Y-53269819D01*
X117701314Y-53269819D02*
X117129886Y-54269819D01*
X117129886Y-54269819D02*
X117129886Y-53269819D01*
X116653695Y-54269819D02*
X116653695Y-53269819D01*
X116653695Y-53269819D02*
X116272743Y-53269819D01*
X116272743Y-53269819D02*
X116177505Y-53317438D01*
X116177505Y-53317438D02*
X116129886Y-53365057D01*
X116129886Y-53365057D02*
X116082267Y-53460295D01*
X116082267Y-53460295D02*
X116082267Y-53603152D01*
X116082267Y-53603152D02*
X116129886Y-53698390D01*
X116129886Y-53698390D02*
X116177505Y-53746009D01*
X116177505Y-53746009D02*
X116272743Y-53793628D01*
X116272743Y-53793628D02*
X116653695Y-53793628D01*
X111129884Y-54222200D02*
X110987027Y-54269819D01*
X110987027Y-54269819D02*
X110748932Y-54269819D01*
X110748932Y-54269819D02*
X110653694Y-54222200D01*
X110653694Y-54222200D02*
X110606075Y-54174580D01*
X110606075Y-54174580D02*
X110558456Y-54079342D01*
X110558456Y-54079342D02*
X110558456Y-53984104D01*
X110558456Y-53984104D02*
X110606075Y-53888866D01*
X110606075Y-53888866D02*
X110653694Y-53841247D01*
X110653694Y-53841247D02*
X110748932Y-53793628D01*
X110748932Y-53793628D02*
X110939408Y-53746009D01*
X110939408Y-53746009D02*
X111034646Y-53698390D01*
X111034646Y-53698390D02*
X111082265Y-53650771D01*
X111082265Y-53650771D02*
X111129884Y-53555533D01*
X111129884Y-53555533D02*
X111129884Y-53460295D01*
X111129884Y-53460295D02*
X111082265Y-53365057D01*
X111082265Y-53365057D02*
X111034646Y-53317438D01*
X111034646Y-53317438D02*
X110939408Y-53269819D01*
X110939408Y-53269819D02*
X110701313Y-53269819D01*
X110701313Y-53269819D02*
X110558456Y-53317438D01*
X110129884Y-54269819D02*
X110129884Y-53269819D01*
X110129884Y-53746009D02*
X109558456Y-53746009D01*
X109558456Y-54269819D02*
X109558456Y-53269819D01*
X108891789Y-53269819D02*
X108701313Y-53269819D01*
X108701313Y-53269819D02*
X108606075Y-53317438D01*
X108606075Y-53317438D02*
X108510837Y-53412676D01*
X108510837Y-53412676D02*
X108463218Y-53603152D01*
X108463218Y-53603152D02*
X108463218Y-53936485D01*
X108463218Y-53936485D02*
X108510837Y-54126961D01*
X108510837Y-54126961D02*
X108606075Y-54222200D01*
X108606075Y-54222200D02*
X108701313Y-54269819D01*
X108701313Y-54269819D02*
X108891789Y-54269819D01*
X108891789Y-54269819D02*
X108987027Y-54222200D01*
X108987027Y-54222200D02*
X109082265Y-54126961D01*
X109082265Y-54126961D02*
X109129884Y-53936485D01*
X109129884Y-53936485D02*
X109129884Y-53603152D01*
X109129884Y-53603152D02*
X109082265Y-53412676D01*
X109082265Y-53412676D02*
X108987027Y-53317438D01*
X108987027Y-53317438D02*
X108891789Y-53269819D01*
X107463218Y-54269819D02*
X107796551Y-53793628D01*
X108034646Y-54269819D02*
X108034646Y-53269819D01*
X108034646Y-53269819D02*
X107653694Y-53269819D01*
X107653694Y-53269819D02*
X107558456Y-53317438D01*
X107558456Y-53317438D02*
X107510837Y-53365057D01*
X107510837Y-53365057D02*
X107463218Y-53460295D01*
X107463218Y-53460295D02*
X107463218Y-53603152D01*
X107463218Y-53603152D02*
X107510837Y-53698390D01*
X107510837Y-53698390D02*
X107558456Y-53746009D01*
X107558456Y-53746009D02*
X107653694Y-53793628D01*
X107653694Y-53793628D02*
X108034646Y-53793628D01*
X107177503Y-53269819D02*
X106606075Y-53269819D01*
X106891789Y-54269819D02*
X106891789Y-53269819D01*
X100263220Y-60336009D02*
X99929887Y-60336009D01*
X99787030Y-60859819D02*
X100263220Y-60859819D01*
X100263220Y-60859819D02*
X100263220Y-59859819D01*
X100263220Y-59859819D02*
X99787030Y-59859819D01*
X99453696Y-60859819D02*
X98929887Y-60193152D01*
X99453696Y-60193152D02*
X98929887Y-60859819D01*
X98120363Y-60812200D02*
X98215601Y-60859819D01*
X98215601Y-60859819D02*
X98406077Y-60859819D01*
X98406077Y-60859819D02*
X98501315Y-60812200D01*
X98501315Y-60812200D02*
X98548934Y-60764580D01*
X98548934Y-60764580D02*
X98596553Y-60669342D01*
X98596553Y-60669342D02*
X98596553Y-60383628D01*
X98596553Y-60383628D02*
X98548934Y-60288390D01*
X98548934Y-60288390D02*
X98501315Y-60240771D01*
X98501315Y-60240771D02*
X98406077Y-60193152D01*
X98406077Y-60193152D02*
X98215601Y-60193152D01*
X98215601Y-60193152D02*
X98120363Y-60240771D01*
X97691791Y-60859819D02*
X97691791Y-60193152D01*
X97691791Y-59859819D02*
X97739410Y-59907438D01*
X97739410Y-59907438D02*
X97691791Y-59955057D01*
X97691791Y-59955057D02*
X97644172Y-59907438D01*
X97644172Y-59907438D02*
X97691791Y-59859819D01*
X97691791Y-59859819D02*
X97691791Y-59955057D01*
X97358458Y-60193152D02*
X96977506Y-60193152D01*
X97215601Y-59859819D02*
X97215601Y-60716961D01*
X97215601Y-60716961D02*
X97167982Y-60812200D01*
X97167982Y-60812200D02*
X97072744Y-60859819D01*
X97072744Y-60859819D02*
X96977506Y-60859819D01*
X96501315Y-60859819D02*
X96596553Y-60812200D01*
X96596553Y-60812200D02*
X96644172Y-60764580D01*
X96644172Y-60764580D02*
X96691791Y-60669342D01*
X96691791Y-60669342D02*
X96691791Y-60383628D01*
X96691791Y-60383628D02*
X96644172Y-60288390D01*
X96644172Y-60288390D02*
X96596553Y-60240771D01*
X96596553Y-60240771D02*
X96501315Y-60193152D01*
X96501315Y-60193152D02*
X96358458Y-60193152D01*
X96358458Y-60193152D02*
X96263220Y-60240771D01*
X96263220Y-60240771D02*
X96215601Y-60288390D01*
X96215601Y-60288390D02*
X96167982Y-60383628D01*
X96167982Y-60383628D02*
X96167982Y-60669342D01*
X96167982Y-60669342D02*
X96215601Y-60764580D01*
X96215601Y-60764580D02*
X96263220Y-60812200D01*
X96263220Y-60812200D02*
X96358458Y-60859819D01*
X96358458Y-60859819D02*
X96501315Y-60859819D01*
X95739410Y-60193152D02*
X95739410Y-60859819D01*
X95739410Y-60288390D02*
X95691791Y-60240771D01*
X95691791Y-60240771D02*
X95596553Y-60193152D01*
X95596553Y-60193152D02*
X95453696Y-60193152D01*
X95453696Y-60193152D02*
X95358458Y-60240771D01*
X95358458Y-60240771D02*
X95310839Y-60336009D01*
X95310839Y-60336009D02*
X95310839Y-60859819D01*
X93596553Y-60859819D02*
X94072743Y-60859819D01*
X94072743Y-60859819D02*
X94072743Y-59859819D01*
X92834648Y-60859819D02*
X92834648Y-60336009D01*
X92834648Y-60336009D02*
X92882267Y-60240771D01*
X92882267Y-60240771D02*
X92977505Y-60193152D01*
X92977505Y-60193152D02*
X93167981Y-60193152D01*
X93167981Y-60193152D02*
X93263219Y-60240771D01*
X92834648Y-60812200D02*
X92929886Y-60859819D01*
X92929886Y-60859819D02*
X93167981Y-60859819D01*
X93167981Y-60859819D02*
X93263219Y-60812200D01*
X93263219Y-60812200D02*
X93310838Y-60716961D01*
X93310838Y-60716961D02*
X93310838Y-60621723D01*
X93310838Y-60621723D02*
X93263219Y-60526485D01*
X93263219Y-60526485D02*
X93167981Y-60478866D01*
X93167981Y-60478866D02*
X92929886Y-60478866D01*
X92929886Y-60478866D02*
X92834648Y-60431247D01*
X92358457Y-60859819D02*
X92358457Y-59859819D01*
X92358457Y-60240771D02*
X92263219Y-60193152D01*
X92263219Y-60193152D02*
X92072743Y-60193152D01*
X92072743Y-60193152D02*
X91977505Y-60240771D01*
X91977505Y-60240771D02*
X91929886Y-60288390D01*
X91929886Y-60288390D02*
X91882267Y-60383628D01*
X91882267Y-60383628D02*
X91882267Y-60669342D01*
X91882267Y-60669342D02*
X91929886Y-60764580D01*
X91929886Y-60764580D02*
X91977505Y-60812200D01*
X91977505Y-60812200D02*
X92072743Y-60859819D01*
X92072743Y-60859819D02*
X92263219Y-60859819D01*
X92263219Y-60859819D02*
X92358457Y-60812200D01*
X91501314Y-60812200D02*
X91406076Y-60859819D01*
X91406076Y-60859819D02*
X91215600Y-60859819D01*
X91215600Y-60859819D02*
X91120362Y-60812200D01*
X91120362Y-60812200D02*
X91072743Y-60716961D01*
X91072743Y-60716961D02*
X91072743Y-60669342D01*
X91072743Y-60669342D02*
X91120362Y-60574104D01*
X91120362Y-60574104D02*
X91215600Y-60526485D01*
X91215600Y-60526485D02*
X91358457Y-60526485D01*
X91358457Y-60526485D02*
X91453695Y-60478866D01*
X91453695Y-60478866D02*
X91501314Y-60383628D01*
X91501314Y-60383628D02*
X91501314Y-60336009D01*
X91501314Y-60336009D02*
X91453695Y-60240771D01*
X91453695Y-60240771D02*
X91358457Y-60193152D01*
X91358457Y-60193152D02*
X91215600Y-60193152D01*
X91215600Y-60193152D02*
X91120362Y-60240771D01*
X89406076Y-60859819D02*
X89882266Y-60859819D01*
X89882266Y-60859819D02*
X89882266Y-59859819D01*
X89215599Y-60193152D02*
X88834647Y-60193152D01*
X89072742Y-59859819D02*
X89072742Y-60716961D01*
X89072742Y-60716961D02*
X89025123Y-60812200D01*
X89025123Y-60812200D02*
X88929885Y-60859819D01*
X88929885Y-60859819D02*
X88834647Y-60859819D01*
X88072742Y-60859819D02*
X88072742Y-59859819D01*
X88072742Y-60812200D02*
X88167980Y-60859819D01*
X88167980Y-60859819D02*
X88358456Y-60859819D01*
X88358456Y-60859819D02*
X88453694Y-60812200D01*
X88453694Y-60812200D02*
X88501313Y-60764580D01*
X88501313Y-60764580D02*
X88548932Y-60669342D01*
X88548932Y-60669342D02*
X88548932Y-60383628D01*
X88548932Y-60383628D02*
X88501313Y-60288390D01*
X88501313Y-60288390D02*
X88453694Y-60240771D01*
X88453694Y-60240771D02*
X88358456Y-60193152D01*
X88358456Y-60193152D02*
X88167980Y-60193152D01*
X88167980Y-60193152D02*
X88072742Y-60240771D01*
X87596551Y-60764580D02*
X87548932Y-60812200D01*
X87548932Y-60812200D02*
X87596551Y-60859819D01*
X87596551Y-60859819D02*
X87644170Y-60812200D01*
X87644170Y-60812200D02*
X87596551Y-60764580D01*
X87596551Y-60764580D02*
X87596551Y-60859819D01*
X87072742Y-60812200D02*
X87072742Y-60859819D01*
X87072742Y-60859819D02*
X87120361Y-60955057D01*
X87120361Y-60955057D02*
X87167980Y-61002676D01*
X85882266Y-59859819D02*
X85882266Y-60669342D01*
X85882266Y-60669342D02*
X85834647Y-60764580D01*
X85834647Y-60764580D02*
X85787028Y-60812200D01*
X85787028Y-60812200D02*
X85691790Y-60859819D01*
X85691790Y-60859819D02*
X85501314Y-60859819D01*
X85501314Y-60859819D02*
X85406076Y-60812200D01*
X85406076Y-60812200D02*
X85358457Y-60764580D01*
X85358457Y-60764580D02*
X85310838Y-60669342D01*
X85310838Y-60669342D02*
X85310838Y-59859819D01*
X84834647Y-60859819D02*
X84834647Y-59859819D01*
X84263219Y-60859819D02*
X84691790Y-60288390D01*
X84263219Y-59859819D02*
X84834647Y-60431247D01*
X99834649Y-62469819D02*
X99834649Y-61469819D01*
X99834649Y-62422200D02*
X99929887Y-62469819D01*
X99929887Y-62469819D02*
X100120363Y-62469819D01*
X100120363Y-62469819D02*
X100215601Y-62422200D01*
X100215601Y-62422200D02*
X100263220Y-62374580D01*
X100263220Y-62374580D02*
X100310839Y-62279342D01*
X100310839Y-62279342D02*
X100310839Y-61993628D01*
X100310839Y-61993628D02*
X100263220Y-61898390D01*
X100263220Y-61898390D02*
X100215601Y-61850771D01*
X100215601Y-61850771D02*
X100120363Y-61803152D01*
X100120363Y-61803152D02*
X99929887Y-61803152D01*
X99929887Y-61803152D02*
X99834649Y-61850771D01*
X98929887Y-62469819D02*
X98929887Y-61946009D01*
X98929887Y-61946009D02*
X98977506Y-61850771D01*
X98977506Y-61850771D02*
X99072744Y-61803152D01*
X99072744Y-61803152D02*
X99263220Y-61803152D01*
X99263220Y-61803152D02*
X99358458Y-61850771D01*
X98929887Y-62422200D02*
X99025125Y-62469819D01*
X99025125Y-62469819D02*
X99263220Y-62469819D01*
X99263220Y-62469819D02*
X99358458Y-62422200D01*
X99358458Y-62422200D02*
X99406077Y-62326961D01*
X99406077Y-62326961D02*
X99406077Y-62231723D01*
X99406077Y-62231723D02*
X99358458Y-62136485D01*
X99358458Y-62136485D02*
X99263220Y-62088866D01*
X99263220Y-62088866D02*
X99025125Y-62088866D01*
X99025125Y-62088866D02*
X98929887Y-62041247D01*
X98453696Y-61803152D02*
X98453696Y-62469819D01*
X98453696Y-61898390D02*
X98406077Y-61850771D01*
X98406077Y-61850771D02*
X98310839Y-61803152D01*
X98310839Y-61803152D02*
X98167982Y-61803152D01*
X98167982Y-61803152D02*
X98072744Y-61850771D01*
X98072744Y-61850771D02*
X98025125Y-61946009D01*
X98025125Y-61946009D02*
X98025125Y-62469819D01*
X96929887Y-61993628D02*
X96977506Y-61946009D01*
X96977506Y-61946009D02*
X97072744Y-61898390D01*
X97072744Y-61898390D02*
X97167982Y-61898390D01*
X97167982Y-61898390D02*
X97263220Y-61946009D01*
X97263220Y-61946009D02*
X97310839Y-61993628D01*
X97310839Y-61993628D02*
X97358458Y-62088866D01*
X97358458Y-62088866D02*
X97358458Y-62184104D01*
X97358458Y-62184104D02*
X97310839Y-62279342D01*
X97310839Y-62279342D02*
X97263220Y-62326961D01*
X97263220Y-62326961D02*
X97167982Y-62374580D01*
X97167982Y-62374580D02*
X97072744Y-62374580D01*
X97072744Y-62374580D02*
X96977506Y-62326961D01*
X96977506Y-62326961D02*
X96929887Y-62279342D01*
X96929887Y-61898390D02*
X96929887Y-62279342D01*
X96929887Y-62279342D02*
X96882268Y-62326961D01*
X96882268Y-62326961D02*
X96834649Y-62326961D01*
X96834649Y-62326961D02*
X96739410Y-62279342D01*
X96739410Y-62279342D02*
X96691791Y-62184104D01*
X96691791Y-62184104D02*
X96691791Y-61946009D01*
X96691791Y-61946009D02*
X96787030Y-61803152D01*
X96787030Y-61803152D02*
X96929887Y-61707914D01*
X96929887Y-61707914D02*
X97120363Y-61660295D01*
X97120363Y-61660295D02*
X97310839Y-61707914D01*
X97310839Y-61707914D02*
X97453696Y-61803152D01*
X97453696Y-61803152D02*
X97548934Y-61946009D01*
X97548934Y-61946009D02*
X97596553Y-62136485D01*
X97596553Y-62136485D02*
X97548934Y-62326961D01*
X97548934Y-62326961D02*
X97453696Y-62469819D01*
X97453696Y-62469819D02*
X97310839Y-62565057D01*
X97310839Y-62565057D02*
X97120363Y-62612676D01*
X97120363Y-62612676D02*
X96929887Y-62565057D01*
X96929887Y-62565057D02*
X96787030Y-62469819D01*
X95882268Y-62422200D02*
X95977506Y-62469819D01*
X95977506Y-62469819D02*
X96167982Y-62469819D01*
X96167982Y-62469819D02*
X96263220Y-62422200D01*
X96263220Y-62422200D02*
X96310839Y-62326961D01*
X96310839Y-62326961D02*
X96310839Y-61946009D01*
X96310839Y-61946009D02*
X96263220Y-61850771D01*
X96263220Y-61850771D02*
X96167982Y-61803152D01*
X96167982Y-61803152D02*
X95977506Y-61803152D01*
X95977506Y-61803152D02*
X95882268Y-61850771D01*
X95882268Y-61850771D02*
X95834649Y-61946009D01*
X95834649Y-61946009D02*
X95834649Y-62041247D01*
X95834649Y-62041247D02*
X96310839Y-62136485D01*
X95501315Y-62469819D02*
X94977506Y-61803152D01*
X95501315Y-61803152D02*
X94977506Y-62469819D01*
X94167982Y-62422200D02*
X94263220Y-62469819D01*
X94263220Y-62469819D02*
X94453696Y-62469819D01*
X94453696Y-62469819D02*
X94548934Y-62422200D01*
X94548934Y-62422200D02*
X94596553Y-62374580D01*
X94596553Y-62374580D02*
X94644172Y-62279342D01*
X94644172Y-62279342D02*
X94644172Y-61993628D01*
X94644172Y-61993628D02*
X94596553Y-61898390D01*
X94596553Y-61898390D02*
X94548934Y-61850771D01*
X94548934Y-61850771D02*
X94453696Y-61803152D01*
X94453696Y-61803152D02*
X94263220Y-61803152D01*
X94263220Y-61803152D02*
X94167982Y-61850771D01*
X93739410Y-62469819D02*
X93739410Y-61803152D01*
X93739410Y-61469819D02*
X93787029Y-61517438D01*
X93787029Y-61517438D02*
X93739410Y-61565057D01*
X93739410Y-61565057D02*
X93691791Y-61517438D01*
X93691791Y-61517438D02*
X93739410Y-61469819D01*
X93739410Y-61469819D02*
X93739410Y-61565057D01*
X93406077Y-61803152D02*
X93025125Y-61803152D01*
X93263220Y-61469819D02*
X93263220Y-62326961D01*
X93263220Y-62326961D02*
X93215601Y-62422200D01*
X93215601Y-62422200D02*
X93120363Y-62469819D01*
X93120363Y-62469819D02*
X93025125Y-62469819D01*
X92548934Y-62469819D02*
X92644172Y-62422200D01*
X92644172Y-62422200D02*
X92691791Y-62374580D01*
X92691791Y-62374580D02*
X92739410Y-62279342D01*
X92739410Y-62279342D02*
X92739410Y-61993628D01*
X92739410Y-61993628D02*
X92691791Y-61898390D01*
X92691791Y-61898390D02*
X92644172Y-61850771D01*
X92644172Y-61850771D02*
X92548934Y-61803152D01*
X92548934Y-61803152D02*
X92406077Y-61803152D01*
X92406077Y-61803152D02*
X92310839Y-61850771D01*
X92310839Y-61850771D02*
X92263220Y-61898390D01*
X92263220Y-61898390D02*
X92215601Y-61993628D01*
X92215601Y-61993628D02*
X92215601Y-62279342D01*
X92215601Y-62279342D02*
X92263220Y-62374580D01*
X92263220Y-62374580D02*
X92310839Y-62422200D01*
X92310839Y-62422200D02*
X92406077Y-62469819D01*
X92406077Y-62469819D02*
X92548934Y-62469819D01*
X91787029Y-61803152D02*
X91787029Y-62469819D01*
X91787029Y-61898390D02*
X91739410Y-61850771D01*
X91739410Y-61850771D02*
X91644172Y-61803152D01*
X91644172Y-61803152D02*
X91501315Y-61803152D01*
X91501315Y-61803152D02*
X91406077Y-61850771D01*
X91406077Y-61850771D02*
X91358458Y-61946009D01*
X91358458Y-61946009D02*
X91358458Y-62469819D01*
X90739410Y-62469819D02*
X90834648Y-62422200D01*
X90834648Y-62422200D02*
X90882267Y-62326961D01*
X90882267Y-62326961D02*
X90882267Y-61469819D01*
X89929886Y-62469819D02*
X89929886Y-61946009D01*
X89929886Y-61946009D02*
X89977505Y-61850771D01*
X89977505Y-61850771D02*
X90072743Y-61803152D01*
X90072743Y-61803152D02*
X90263219Y-61803152D01*
X90263219Y-61803152D02*
X90358457Y-61850771D01*
X89929886Y-62422200D02*
X90025124Y-62469819D01*
X90025124Y-62469819D02*
X90263219Y-62469819D01*
X90263219Y-62469819D02*
X90358457Y-62422200D01*
X90358457Y-62422200D02*
X90406076Y-62326961D01*
X90406076Y-62326961D02*
X90406076Y-62231723D01*
X90406076Y-62231723D02*
X90358457Y-62136485D01*
X90358457Y-62136485D02*
X90263219Y-62088866D01*
X90263219Y-62088866D02*
X90025124Y-62088866D01*
X90025124Y-62088866D02*
X89929886Y-62041247D01*
X89453695Y-62469819D02*
X89453695Y-61469819D01*
X89453695Y-61850771D02*
X89358457Y-61803152D01*
X89358457Y-61803152D02*
X89167981Y-61803152D01*
X89167981Y-61803152D02*
X89072743Y-61850771D01*
X89072743Y-61850771D02*
X89025124Y-61898390D01*
X89025124Y-61898390D02*
X88977505Y-61993628D01*
X88977505Y-61993628D02*
X88977505Y-62279342D01*
X88977505Y-62279342D02*
X89025124Y-62374580D01*
X89025124Y-62374580D02*
X89072743Y-62422200D01*
X89072743Y-62422200D02*
X89167981Y-62469819D01*
X89167981Y-62469819D02*
X89358457Y-62469819D01*
X89358457Y-62469819D02*
X89453695Y-62422200D01*
X88596552Y-62422200D02*
X88501314Y-62469819D01*
X88501314Y-62469819D02*
X88310838Y-62469819D01*
X88310838Y-62469819D02*
X88215600Y-62422200D01*
X88215600Y-62422200D02*
X88167981Y-62326961D01*
X88167981Y-62326961D02*
X88167981Y-62279342D01*
X88167981Y-62279342D02*
X88215600Y-62184104D01*
X88215600Y-62184104D02*
X88310838Y-62136485D01*
X88310838Y-62136485D02*
X88453695Y-62136485D01*
X88453695Y-62136485D02*
X88548933Y-62088866D01*
X88548933Y-62088866D02*
X88596552Y-61993628D01*
X88596552Y-61993628D02*
X88596552Y-61946009D01*
X88596552Y-61946009D02*
X88548933Y-61850771D01*
X88548933Y-61850771D02*
X88453695Y-61803152D01*
X88453695Y-61803152D02*
X88310838Y-61803152D01*
X88310838Y-61803152D02*
X88215600Y-61850771D01*
X87739409Y-62374580D02*
X87691790Y-62422200D01*
X87691790Y-62422200D02*
X87739409Y-62469819D01*
X87739409Y-62469819D02*
X87787028Y-62422200D01*
X87787028Y-62422200D02*
X87739409Y-62374580D01*
X87739409Y-62374580D02*
X87739409Y-62469819D01*
X86834648Y-62422200D02*
X86929886Y-62469819D01*
X86929886Y-62469819D02*
X87120362Y-62469819D01*
X87120362Y-62469819D02*
X87215600Y-62422200D01*
X87215600Y-62422200D02*
X87263219Y-62374580D01*
X87263219Y-62374580D02*
X87310838Y-62279342D01*
X87310838Y-62279342D02*
X87310838Y-61993628D01*
X87310838Y-61993628D02*
X87263219Y-61898390D01*
X87263219Y-61898390D02*
X87215600Y-61850771D01*
X87215600Y-61850771D02*
X87120362Y-61803152D01*
X87120362Y-61803152D02*
X86929886Y-61803152D01*
X86929886Y-61803152D02*
X86834648Y-61850771D01*
X86263219Y-62469819D02*
X86358457Y-62422200D01*
X86358457Y-62422200D02*
X86406076Y-62374580D01*
X86406076Y-62374580D02*
X86453695Y-62279342D01*
X86453695Y-62279342D02*
X86453695Y-61993628D01*
X86453695Y-61993628D02*
X86406076Y-61898390D01*
X86406076Y-61898390D02*
X86358457Y-61850771D01*
X86358457Y-61850771D02*
X86263219Y-61803152D01*
X86263219Y-61803152D02*
X86120362Y-61803152D01*
X86120362Y-61803152D02*
X86025124Y-61850771D01*
X86025124Y-61850771D02*
X85977505Y-61898390D01*
X85977505Y-61898390D02*
X85929886Y-61993628D01*
X85929886Y-61993628D02*
X85929886Y-62279342D01*
X85929886Y-62279342D02*
X85977505Y-62374580D01*
X85977505Y-62374580D02*
X86025124Y-62422200D01*
X86025124Y-62422200D02*
X86120362Y-62469819D01*
X86120362Y-62469819D02*
X86263219Y-62469819D01*
X85501314Y-62469819D02*
X85501314Y-61803152D01*
X85501314Y-61898390D02*
X85453695Y-61850771D01*
X85453695Y-61850771D02*
X85358457Y-61803152D01*
X85358457Y-61803152D02*
X85215600Y-61803152D01*
X85215600Y-61803152D02*
X85120362Y-61850771D01*
X85120362Y-61850771D02*
X85072743Y-61946009D01*
X85072743Y-61946009D02*
X85072743Y-62469819D01*
X85072743Y-61946009D02*
X85025124Y-61850771D01*
X85025124Y-61850771D02*
X84929886Y-61803152D01*
X84929886Y-61803152D02*
X84787029Y-61803152D01*
X84787029Y-61803152D02*
X84691790Y-61850771D01*
X84691790Y-61850771D02*
X84644171Y-61946009D01*
X84644171Y-61946009D02*
X84644171Y-62469819D01*
%LPC*%
D12*
X86835000Y-66730000D03*
X86835000Y-50500000D03*
X80485000Y-66730000D03*
D13*
X80519000Y-56168000D03*
D12*
X80485000Y-50500000D03*
X93185000Y-66730000D03*
D14*
X80519000Y-61248000D03*
D12*
X93185000Y-50500000D03*
X138684000Y-50438000D03*
X138684000Y-66668000D03*
X145034000Y-50438000D03*
D13*
X145000000Y-61000000D03*
D12*
X145034000Y-66668000D03*
X132334000Y-50438000D03*
D14*
X145000000Y-55920000D03*
D12*
X132334000Y-66668000D03*
D15*
X108600000Y-59000000D03*
D16*
X116600000Y-59000000D03*
D17*
X139700000Y-34165000D03*
D18*
X139700000Y-29845000D03*
X143430000Y-36325000D03*
X135970000Y-36325000D03*
D17*
X121300396Y-34210000D03*
D18*
X121300396Y-29890000D03*
X125030396Y-36370000D03*
X117570396Y-36370000D03*
D17*
X102900793Y-34165000D03*
D18*
X102900793Y-29845000D03*
X106630793Y-36325000D03*
X99170793Y-36325000D03*
D17*
X84455000Y-34165000D03*
D18*
X84455000Y-29845000D03*
X88185000Y-36325000D03*
X80725000Y-36325000D03*
%LPD*%
M02*
