G04 #@! TF.GenerationSoftware,KiCad,Pcbnew,7.0.7*
G04 #@! TF.CreationDate,2024-05-07T13:52:07+01:00*
G04 #@! TF.ProjectId,QA403 Impedance Fixture,51413430-3320-4496-9d70-6564616e6365,rev?*
G04 #@! TF.SameCoordinates,Original*
G04 #@! TF.FileFunction,Copper,L2,Bot*
G04 #@! TF.FilePolarity,Positive*
%FSLAX46Y46*%
G04 Gerber Fmt 4.6, Leading zero omitted, Abs format (unit mm)*
G04 Created by KiCad (PCBNEW 7.0.7) date 2024-05-07 13:52:07*
%MOMM*%
%LPD*%
G01*
G04 APERTURE LIST*
G04 #@! TA.AperFunction,ComponentPad*
%ADD10C,3.000000*%
G04 #@! TD*
G04 #@! TA.AperFunction,ComponentPad*
%ADD11R,2.600000X2.600000*%
G04 #@! TD*
G04 #@! TA.AperFunction,ComponentPad*
%ADD12C,2.600000*%
G04 #@! TD*
G04 #@! TA.AperFunction,ComponentPad*
%ADD13C,2.400000*%
G04 #@! TD*
G04 #@! TA.AperFunction,ComponentPad*
%ADD14O,2.400000X2.400000*%
G04 #@! TD*
G04 #@! TA.AperFunction,ComponentPad*
%ADD15C,1.605000*%
G04 #@! TD*
G04 #@! TA.AperFunction,ComponentPad*
%ADD16C,2.595000*%
G04 #@! TD*
G04 #@! TA.AperFunction,Conductor*
%ADD17C,0.800000*%
G04 #@! TD*
G04 #@! TA.AperFunction,Conductor*
%ADD18C,1.600000*%
G04 #@! TD*
G04 APERTURE END LIST*
D10*
X86835000Y-66730000D03*
X86835000Y-50500000D03*
X80485000Y-66730000D03*
D11*
X80519000Y-56168000D03*
D10*
X80485000Y-50500000D03*
X93185000Y-66730000D03*
D12*
X80519000Y-61248000D03*
D10*
X93185000Y-50500000D03*
X138684000Y-50438000D03*
X138684000Y-66668000D03*
X145034000Y-50438000D03*
D11*
X145000000Y-61000000D03*
D10*
X145034000Y-66668000D03*
X132334000Y-50438000D03*
D12*
X145000000Y-55920000D03*
D10*
X132334000Y-66668000D03*
D13*
X108600000Y-59000000D03*
D14*
X116600000Y-59000000D03*
D15*
X139700000Y-34165000D03*
D16*
X139700000Y-29845000D03*
X143430000Y-36325000D03*
X135970000Y-36325000D03*
D15*
X121300396Y-34210000D03*
D16*
X121300396Y-29890000D03*
X125030396Y-36370000D03*
X117570396Y-36370000D03*
D15*
X102900793Y-34165000D03*
D16*
X102900793Y-29845000D03*
X106630793Y-36325000D03*
X99170793Y-36325000D03*
D15*
X84455000Y-34165000D03*
D16*
X84455000Y-29845000D03*
X88185000Y-36325000D03*
X80725000Y-36325000D03*
D17*
X106630793Y-36325000D02*
X106725000Y-36325000D01*
X106725000Y-36325000D02*
X106800000Y-36400000D01*
D18*
X93185000Y-66730000D02*
X100870000Y-66730000D01*
X100870000Y-66730000D02*
X108600000Y-59000000D01*
X124268000Y-66668000D02*
X116600000Y-59000000D01*
X132334000Y-66668000D02*
X124268000Y-66668000D01*
G04 #@! TA.AperFunction,Conductor*
G36*
X147631106Y-25500191D02*
G01*
X147672018Y-25503410D01*
X147853606Y-25517701D01*
X147872816Y-25520744D01*
X148082722Y-25571138D01*
X148101214Y-25577146D01*
X148260399Y-25643083D01*
X148300650Y-25659756D01*
X148317987Y-25668590D01*
X148502035Y-25781375D01*
X148517776Y-25792811D01*
X148687490Y-25937760D01*
X148691066Y-25941066D01*
X149058933Y-26308933D01*
X149062239Y-26312509D01*
X149207188Y-26482223D01*
X149218624Y-26497964D01*
X149331409Y-26682012D01*
X149340243Y-26699349D01*
X149422850Y-26898778D01*
X149428863Y-26917284D01*
X149479254Y-27127178D01*
X149482298Y-27146396D01*
X149499809Y-27368894D01*
X149500000Y-27373760D01*
X149500000Y-66376239D01*
X149499809Y-66381105D01*
X149482298Y-66603603D01*
X149479254Y-66622821D01*
X149428863Y-66832715D01*
X149422850Y-66851221D01*
X149340243Y-67050650D01*
X149331409Y-67067987D01*
X149218624Y-67252035D01*
X149207188Y-67267776D01*
X149062239Y-67437490D01*
X149058933Y-67441066D01*
X148441066Y-68058933D01*
X148437490Y-68062239D01*
X148267776Y-68207188D01*
X148252035Y-68218624D01*
X148067987Y-68331409D01*
X148050650Y-68340243D01*
X147851221Y-68422850D01*
X147832715Y-68428863D01*
X147622821Y-68479254D01*
X147603603Y-68482298D01*
X147381106Y-68499809D01*
X147376240Y-68500000D01*
X146297480Y-68500000D01*
X146230441Y-68480315D01*
X146184686Y-68427511D01*
X146174742Y-68358353D01*
X146203767Y-68294797D01*
X146223170Y-68276733D01*
X146347387Y-68183745D01*
X146347387Y-68183744D01*
X146347395Y-68183739D01*
X146549739Y-67981395D01*
X146721226Y-67752315D01*
X146858367Y-67501161D01*
X146958369Y-67233046D01*
X147019196Y-66953428D01*
X147039610Y-66668000D01*
X147019196Y-66382572D01*
X147017818Y-66376239D01*
X146958371Y-66102962D01*
X146958370Y-66102960D01*
X146958369Y-66102954D01*
X146858367Y-65834839D01*
X146755083Y-65645690D01*
X146721229Y-65583690D01*
X146721224Y-65583682D01*
X146549745Y-65354612D01*
X146549729Y-65354594D01*
X146347405Y-65152270D01*
X146347387Y-65152254D01*
X146118317Y-64980775D01*
X146118309Y-64980770D01*
X145867166Y-64843635D01*
X145867167Y-64843635D01*
X145759915Y-64803632D01*
X145599046Y-64743631D01*
X145599043Y-64743630D01*
X145599037Y-64743628D01*
X145319433Y-64682804D01*
X145034001Y-64662390D01*
X145033999Y-64662390D01*
X144748566Y-64682804D01*
X144468962Y-64743628D01*
X144200833Y-64843635D01*
X143949690Y-64980770D01*
X143949682Y-64980775D01*
X143720612Y-65152254D01*
X143720594Y-65152270D01*
X143518270Y-65354594D01*
X143518254Y-65354612D01*
X143346775Y-65583682D01*
X143346770Y-65583690D01*
X143209635Y-65834833D01*
X143109628Y-66102962D01*
X143048804Y-66382566D01*
X143028390Y-66667998D01*
X143028390Y-66668001D01*
X143048804Y-66953433D01*
X143109628Y-67233037D01*
X143109630Y-67233043D01*
X143109631Y-67233046D01*
X143158500Y-67364068D01*
X143209635Y-67501166D01*
X143346770Y-67752309D01*
X143346775Y-67752317D01*
X143518254Y-67981387D01*
X143518270Y-67981405D01*
X143720594Y-68183729D01*
X143720612Y-68183745D01*
X143844830Y-68276733D01*
X143886702Y-68332666D01*
X143891686Y-68402358D01*
X143858201Y-68463681D01*
X143796878Y-68497166D01*
X143770520Y-68500000D01*
X139947480Y-68500000D01*
X139880441Y-68480315D01*
X139834686Y-68427511D01*
X139824742Y-68358353D01*
X139853767Y-68294797D01*
X139873170Y-68276733D01*
X139997387Y-68183745D01*
X139997387Y-68183744D01*
X139997395Y-68183739D01*
X140199739Y-67981395D01*
X140371226Y-67752315D01*
X140508367Y-67501161D01*
X140608369Y-67233046D01*
X140669196Y-66953428D01*
X140689610Y-66668000D01*
X140669196Y-66382572D01*
X140667818Y-66376239D01*
X140608371Y-66102962D01*
X140608370Y-66102960D01*
X140608369Y-66102954D01*
X140508367Y-65834839D01*
X140405083Y-65645690D01*
X140371229Y-65583690D01*
X140371224Y-65583682D01*
X140199745Y-65354612D01*
X140199729Y-65354594D01*
X139997405Y-65152270D01*
X139997387Y-65152254D01*
X139768317Y-64980775D01*
X139768309Y-64980770D01*
X139517166Y-64843635D01*
X139517167Y-64843635D01*
X139409914Y-64803632D01*
X139249046Y-64743631D01*
X139249043Y-64743630D01*
X139249037Y-64743628D01*
X138969433Y-64682804D01*
X138684001Y-64662390D01*
X138683999Y-64662390D01*
X138398566Y-64682804D01*
X138118962Y-64743628D01*
X137850833Y-64843635D01*
X137599690Y-64980770D01*
X137599682Y-64980775D01*
X137370612Y-65152254D01*
X137370594Y-65152270D01*
X137168270Y-65354594D01*
X137168254Y-65354612D01*
X136996775Y-65583682D01*
X136996770Y-65583690D01*
X136859635Y-65834833D01*
X136759628Y-66102962D01*
X136698804Y-66382566D01*
X136678390Y-66667998D01*
X136678390Y-66668001D01*
X136698804Y-66953433D01*
X136759628Y-67233037D01*
X136759630Y-67233043D01*
X136759631Y-67233046D01*
X136808500Y-67364068D01*
X136859635Y-67501166D01*
X136996770Y-67752309D01*
X136996775Y-67752317D01*
X137168254Y-67981387D01*
X137168270Y-67981405D01*
X137370594Y-68183729D01*
X137370612Y-68183745D01*
X137494830Y-68276733D01*
X137536702Y-68332666D01*
X137541686Y-68402358D01*
X137508201Y-68463681D01*
X137446878Y-68497166D01*
X137420520Y-68500000D01*
X133597480Y-68500000D01*
X133530441Y-68480315D01*
X133484686Y-68427511D01*
X133474742Y-68358353D01*
X133503767Y-68294797D01*
X133523170Y-68276733D01*
X133647387Y-68183745D01*
X133647387Y-68183744D01*
X133647395Y-68183739D01*
X133849739Y-67981395D01*
X134021226Y-67752315D01*
X134158367Y-67501161D01*
X134258369Y-67233046D01*
X134319196Y-66953428D01*
X134339610Y-66668000D01*
X134319196Y-66382572D01*
X134317818Y-66376239D01*
X134258371Y-66102962D01*
X134258370Y-66102960D01*
X134258369Y-66102954D01*
X134158367Y-65834839D01*
X134055083Y-65645690D01*
X134021229Y-65583690D01*
X134021224Y-65583682D01*
X133849745Y-65354612D01*
X133849729Y-65354594D01*
X133647405Y-65152270D01*
X133647387Y-65152254D01*
X133418317Y-64980775D01*
X133418309Y-64980770D01*
X133167166Y-64843635D01*
X133167167Y-64843635D01*
X133059915Y-64803632D01*
X132899046Y-64743631D01*
X132899043Y-64743630D01*
X132899037Y-64743628D01*
X132619433Y-64682804D01*
X132334001Y-64662390D01*
X132333999Y-64662390D01*
X132048566Y-64682804D01*
X131768962Y-64743628D01*
X131500833Y-64843635D01*
X131249690Y-64980770D01*
X131249682Y-64980775D01*
X131020612Y-65152254D01*
X131020594Y-65152270D01*
X130841684Y-65331181D01*
X130780361Y-65364666D01*
X130754003Y-65367500D01*
X124858047Y-65367500D01*
X124791008Y-65347815D01*
X124770366Y-65331181D01*
X121787055Y-62347870D01*
X143199500Y-62347870D01*
X143199501Y-62347876D01*
X143205908Y-62407483D01*
X143256202Y-62542328D01*
X143256206Y-62542335D01*
X143342452Y-62657544D01*
X143342455Y-62657547D01*
X143457664Y-62743793D01*
X143457671Y-62743797D01*
X143592517Y-62794091D01*
X143592516Y-62794091D01*
X143599444Y-62794835D01*
X143652127Y-62800500D01*
X146347872Y-62800499D01*
X146407483Y-62794091D01*
X146542331Y-62743796D01*
X146657546Y-62657546D01*
X146743796Y-62542331D01*
X146794091Y-62407483D01*
X146800500Y-62347873D01*
X146800499Y-59652128D01*
X146794091Y-59592517D01*
X146760565Y-59502630D01*
X146743797Y-59457671D01*
X146743793Y-59457664D01*
X146657547Y-59342455D01*
X146657544Y-59342452D01*
X146542335Y-59256206D01*
X146542328Y-59256202D01*
X146407482Y-59205908D01*
X146407483Y-59205908D01*
X146347883Y-59199501D01*
X146347881Y-59199500D01*
X146347873Y-59199500D01*
X146347864Y-59199500D01*
X143652129Y-59199500D01*
X143652123Y-59199501D01*
X143592516Y-59205908D01*
X143457671Y-59256202D01*
X143457664Y-59256206D01*
X143342455Y-59342452D01*
X143342452Y-59342455D01*
X143256206Y-59457664D01*
X143256202Y-59457671D01*
X143205908Y-59592517D01*
X143199501Y-59652116D01*
X143199501Y-59652123D01*
X143199500Y-59652135D01*
X143199500Y-62347870D01*
X121787055Y-62347870D01*
X118326953Y-58887768D01*
X118293468Y-58826445D01*
X118290981Y-58809351D01*
X118286222Y-58745845D01*
X118286223Y-58745845D01*
X118252460Y-58597922D01*
X118229508Y-58497363D01*
X118136393Y-58260112D01*
X118008959Y-58039388D01*
X117850050Y-57840123D01*
X117663217Y-57666768D01*
X117452634Y-57523195D01*
X117452630Y-57523193D01*
X117452627Y-57523191D01*
X117452626Y-57523190D01*
X117223006Y-57412612D01*
X117223008Y-57412612D01*
X116979466Y-57337489D01*
X116979462Y-57337488D01*
X116979458Y-57337487D01*
X116858231Y-57319214D01*
X116727440Y-57299500D01*
X116727435Y-57299500D01*
X116472565Y-57299500D01*
X116472559Y-57299500D01*
X116315609Y-57323157D01*
X116220542Y-57337487D01*
X116220538Y-57337488D01*
X116220539Y-57337488D01*
X116220533Y-57337489D01*
X115976992Y-57412612D01*
X115747373Y-57523190D01*
X115747372Y-57523191D01*
X115536782Y-57666768D01*
X115349952Y-57840121D01*
X115349950Y-57840123D01*
X115191041Y-58039388D01*
X115063608Y-58260109D01*
X114970492Y-58497362D01*
X114970490Y-58497369D01*
X114913777Y-58745845D01*
X114894732Y-58999995D01*
X114894732Y-59000004D01*
X114913777Y-59254154D01*
X114967086Y-59487718D01*
X114970492Y-59502637D01*
X115063607Y-59739888D01*
X115191041Y-59960612D01*
X115349950Y-60159877D01*
X115536783Y-60333232D01*
X115747366Y-60476805D01*
X115747371Y-60476807D01*
X115747372Y-60476808D01*
X115747373Y-60476809D01*
X115869328Y-60535538D01*
X115976992Y-60587387D01*
X115976993Y-60587387D01*
X115976996Y-60587389D01*
X116220542Y-60662513D01*
X116418971Y-60692421D01*
X116482327Y-60721877D01*
X116488169Y-60727355D01*
X123266301Y-67505486D01*
X123266330Y-67505517D01*
X123428858Y-67668045D01*
X123428861Y-67668047D01*
X123473334Y-67699187D01*
X123477622Y-67702477D01*
X123497430Y-67719097D01*
X123519215Y-67737377D01*
X123566256Y-67764536D01*
X123570783Y-67767421D01*
X123615266Y-67798568D01*
X123664476Y-67821515D01*
X123669246Y-67823998D01*
X123716285Y-67851156D01*
X123767291Y-67869720D01*
X123772292Y-67871791D01*
X123799875Y-67884653D01*
X123821504Y-67894739D01*
X123821505Y-67894739D01*
X123821507Y-67894740D01*
X123847770Y-67901776D01*
X123873946Y-67908790D01*
X123879101Y-67910415D01*
X123930121Y-67928985D01*
X123983609Y-67938416D01*
X123988847Y-67939577D01*
X124041308Y-67953635D01*
X124095397Y-67958367D01*
X124100724Y-67959067D01*
X124154221Y-67968501D01*
X124154224Y-67968501D01*
X124384312Y-67968501D01*
X124384336Y-67968500D01*
X130754003Y-67968500D01*
X130821042Y-67988185D01*
X130841684Y-68004819D01*
X131020594Y-68183729D01*
X131020612Y-68183745D01*
X131144830Y-68276733D01*
X131186702Y-68332666D01*
X131191686Y-68402358D01*
X131158201Y-68463681D01*
X131096878Y-68497166D01*
X131070520Y-68500000D01*
X94531302Y-68500000D01*
X94464263Y-68480315D01*
X94418508Y-68427511D01*
X94408564Y-68358353D01*
X94437589Y-68294797D01*
X94456987Y-68276736D01*
X94498395Y-68245739D01*
X94560405Y-68183729D01*
X94677316Y-68066819D01*
X94738639Y-68033334D01*
X94764997Y-68030500D01*
X100753664Y-68030500D01*
X100753688Y-68030501D01*
X100756221Y-68030501D01*
X100983775Y-68030501D01*
X100983779Y-68030501D01*
X101037280Y-68021066D01*
X101042597Y-68020367D01*
X101096692Y-68015635D01*
X101149163Y-68001574D01*
X101154381Y-68000417D01*
X101207880Y-67990985D01*
X101258924Y-67972405D01*
X101264029Y-67970796D01*
X101316496Y-67956739D01*
X101365714Y-67933786D01*
X101370685Y-67931728D01*
X101421715Y-67913156D01*
X101468736Y-67886007D01*
X101473522Y-67883514D01*
X101522734Y-67860568D01*
X101567203Y-67829429D01*
X101571770Y-67826521D01*
X101592908Y-67814317D01*
X101618786Y-67799377D01*
X101660389Y-67764466D01*
X101664652Y-67761195D01*
X101709139Y-67730047D01*
X101870047Y-67569139D01*
X101870047Y-67569137D01*
X101877108Y-67562077D01*
X101877114Y-67562070D01*
X108711830Y-60727353D01*
X108773151Y-60693870D01*
X108781008Y-60692424D01*
X108979458Y-60662513D01*
X109223004Y-60587389D01*
X109452634Y-60476805D01*
X109663217Y-60333232D01*
X109850050Y-60159877D01*
X110008959Y-59960612D01*
X110136393Y-59739888D01*
X110229508Y-59502637D01*
X110286222Y-59254157D01*
X110305268Y-59000000D01*
X110296857Y-58887767D01*
X110286222Y-58745845D01*
X110229509Y-58497371D01*
X110229508Y-58497363D01*
X110136393Y-58260112D01*
X110008959Y-58039388D01*
X109850050Y-57840123D01*
X109663217Y-57666768D01*
X109452634Y-57523195D01*
X109452630Y-57523193D01*
X109452627Y-57523191D01*
X109452626Y-57523190D01*
X109223006Y-57412612D01*
X109223008Y-57412612D01*
X108979466Y-57337489D01*
X108979462Y-57337488D01*
X108979458Y-57337487D01*
X108858231Y-57319214D01*
X108727440Y-57299500D01*
X108727435Y-57299500D01*
X108472565Y-57299500D01*
X108472559Y-57299500D01*
X108315609Y-57323157D01*
X108220542Y-57337487D01*
X108220538Y-57337488D01*
X108220539Y-57337488D01*
X108220533Y-57337489D01*
X107976992Y-57412612D01*
X107747373Y-57523190D01*
X107747372Y-57523191D01*
X107536782Y-57666768D01*
X107349952Y-57840121D01*
X107349950Y-57840123D01*
X107191041Y-58039388D01*
X107063608Y-58260109D01*
X106970492Y-58497362D01*
X106970489Y-58497371D01*
X106913777Y-58745844D01*
X106913776Y-58745856D01*
X106909018Y-58809352D01*
X106884379Y-58874733D01*
X106873046Y-58887767D01*
X100367634Y-65393181D01*
X100306311Y-65426666D01*
X100279953Y-65429500D01*
X94764997Y-65429500D01*
X94697958Y-65409815D01*
X94677316Y-65393181D01*
X94498405Y-65214270D01*
X94498387Y-65214254D01*
X94269317Y-65042775D01*
X94269309Y-65042770D01*
X94018166Y-64905635D01*
X94018167Y-64905635D01*
X93851933Y-64843633D01*
X93750046Y-64805631D01*
X93750043Y-64805630D01*
X93750037Y-64805628D01*
X93470433Y-64744804D01*
X93185001Y-64724390D01*
X93184999Y-64724390D01*
X92899566Y-64744804D01*
X92619962Y-64805628D01*
X92351833Y-64905635D01*
X92100690Y-65042770D01*
X92100682Y-65042775D01*
X91871612Y-65214254D01*
X91871594Y-65214270D01*
X91669270Y-65416594D01*
X91669254Y-65416612D01*
X91497775Y-65645682D01*
X91497770Y-65645690D01*
X91360635Y-65896833D01*
X91260628Y-66164962D01*
X91199804Y-66444566D01*
X91179390Y-66729998D01*
X91179390Y-66730001D01*
X91199804Y-67015433D01*
X91260628Y-67295037D01*
X91260630Y-67295043D01*
X91260631Y-67295046D01*
X91360229Y-67562077D01*
X91360635Y-67563166D01*
X91497770Y-67814309D01*
X91497775Y-67814317D01*
X91669254Y-68043387D01*
X91669270Y-68043405D01*
X91871594Y-68245729D01*
X91871603Y-68245737D01*
X91871605Y-68245739D01*
X91913009Y-68276733D01*
X91954880Y-68332666D01*
X91959864Y-68402357D01*
X91926380Y-68463681D01*
X91865057Y-68497166D01*
X91838698Y-68500000D01*
X88181302Y-68500000D01*
X88114263Y-68480315D01*
X88068508Y-68427511D01*
X88058564Y-68358353D01*
X88087589Y-68294797D01*
X88106987Y-68276736D01*
X88148395Y-68245739D01*
X88350739Y-68043395D01*
X88522226Y-67814315D01*
X88659367Y-67563161D01*
X88759369Y-67295046D01*
X88820196Y-67015428D01*
X88840610Y-66730000D01*
X88820196Y-66444572D01*
X88806707Y-66382566D01*
X88759371Y-66164962D01*
X88759370Y-66164960D01*
X88759369Y-66164954D01*
X88659367Y-65896839D01*
X88625512Y-65834839D01*
X88522229Y-65645690D01*
X88522224Y-65645682D01*
X88350745Y-65416612D01*
X88350729Y-65416594D01*
X88148405Y-65214270D01*
X88148387Y-65214254D01*
X87919317Y-65042775D01*
X87919309Y-65042770D01*
X87668166Y-64905635D01*
X87668167Y-64905635D01*
X87501933Y-64843633D01*
X87400046Y-64805631D01*
X87400043Y-64805630D01*
X87400037Y-64805628D01*
X87120433Y-64744804D01*
X86835001Y-64724390D01*
X86834999Y-64724390D01*
X86549566Y-64744804D01*
X86269962Y-64805628D01*
X86001833Y-64905635D01*
X85750690Y-65042770D01*
X85750682Y-65042775D01*
X85521612Y-65214254D01*
X85521594Y-65214270D01*
X85319270Y-65416594D01*
X85319254Y-65416612D01*
X85147775Y-65645682D01*
X85147770Y-65645690D01*
X85010635Y-65896833D01*
X84910628Y-66164962D01*
X84849804Y-66444566D01*
X84829390Y-66729998D01*
X84829390Y-66730001D01*
X84849804Y-67015433D01*
X84910628Y-67295037D01*
X84910630Y-67295043D01*
X84910631Y-67295046D01*
X85010229Y-67562077D01*
X85010635Y-67563166D01*
X85147770Y-67814309D01*
X85147775Y-67814317D01*
X85319254Y-68043387D01*
X85319270Y-68043405D01*
X85521594Y-68245729D01*
X85521603Y-68245737D01*
X85521605Y-68245739D01*
X85563009Y-68276733D01*
X85604880Y-68332666D01*
X85609864Y-68402357D01*
X85576380Y-68463681D01*
X85515057Y-68497166D01*
X85488698Y-68500000D01*
X81831302Y-68500000D01*
X81764263Y-68480315D01*
X81718508Y-68427511D01*
X81708564Y-68358353D01*
X81737589Y-68294797D01*
X81756987Y-68276736D01*
X81798395Y-68245739D01*
X82000739Y-68043395D01*
X82172226Y-67814315D01*
X82309367Y-67563161D01*
X82409369Y-67295046D01*
X82470196Y-67015428D01*
X82490610Y-66730000D01*
X82470196Y-66444572D01*
X82456707Y-66382566D01*
X82409371Y-66164962D01*
X82409370Y-66164960D01*
X82409369Y-66164954D01*
X82309367Y-65896839D01*
X82275512Y-65834839D01*
X82172229Y-65645690D01*
X82172224Y-65645682D01*
X82000745Y-65416612D01*
X82000729Y-65416594D01*
X81798405Y-65214270D01*
X81798387Y-65214254D01*
X81569317Y-65042775D01*
X81569309Y-65042770D01*
X81318166Y-64905635D01*
X81318167Y-64905635D01*
X81151933Y-64843633D01*
X81050046Y-64805631D01*
X81050043Y-64805630D01*
X81050037Y-64805628D01*
X80770433Y-64744804D01*
X80485001Y-64724390D01*
X80484999Y-64724390D01*
X80199566Y-64744804D01*
X79919962Y-64805628D01*
X79651833Y-64905635D01*
X79400690Y-65042770D01*
X79400682Y-65042775D01*
X79171612Y-65214254D01*
X79171594Y-65214270D01*
X78969270Y-65416594D01*
X78969254Y-65416612D01*
X78797775Y-65645682D01*
X78797770Y-65645690D01*
X78660635Y-65896833D01*
X78560628Y-66164962D01*
X78499804Y-66444566D01*
X78479390Y-66729998D01*
X78479390Y-66730001D01*
X78499804Y-67015433D01*
X78560628Y-67295037D01*
X78560630Y-67295043D01*
X78560631Y-67295046D01*
X78660229Y-67562077D01*
X78660635Y-67563166D01*
X78797770Y-67814309D01*
X78797775Y-67814317D01*
X78969254Y-68043387D01*
X78969270Y-68043405D01*
X79171594Y-68245729D01*
X79171603Y-68245737D01*
X79171605Y-68245739D01*
X79213009Y-68276733D01*
X79254880Y-68332666D01*
X79259864Y-68402357D01*
X79226380Y-68463681D01*
X79165057Y-68497166D01*
X79138698Y-68500000D01*
X78045773Y-68500000D01*
X78040393Y-68499766D01*
X77794611Y-68478368D01*
X77773425Y-68474651D01*
X77542865Y-68413187D01*
X77522640Y-68405864D01*
X77515079Y-68402358D01*
X77306180Y-68305486D01*
X77287524Y-68294778D01*
X77085002Y-68153865D01*
X77080720Y-68150600D01*
X76991245Y-68076037D01*
X76541787Y-67701489D01*
X76537792Y-67697851D01*
X76361275Y-67522408D01*
X76347288Y-67505830D01*
X76208759Y-67308986D01*
X76197872Y-67290218D01*
X76187361Y-67267776D01*
X76095774Y-67072234D01*
X76088331Y-67051872D01*
X76025791Y-66819418D01*
X76022013Y-66798079D01*
X76000237Y-66550144D01*
X76000000Y-66544724D01*
X76000000Y-61248004D01*
X78713451Y-61248004D01*
X78733616Y-61517101D01*
X78793664Y-61780188D01*
X78793666Y-61780195D01*
X78892257Y-62031398D01*
X79027185Y-62265102D01*
X79093201Y-62347883D01*
X79195442Y-62476089D01*
X79382183Y-62649358D01*
X79393259Y-62659635D01*
X79616226Y-62811651D01*
X79859359Y-62928738D01*
X80117228Y-63008280D01*
X80117229Y-63008280D01*
X80117232Y-63008281D01*
X80384063Y-63048499D01*
X80384068Y-63048499D01*
X80384071Y-63048500D01*
X80384072Y-63048500D01*
X80653928Y-63048500D01*
X80653929Y-63048500D01*
X80653936Y-63048499D01*
X80920767Y-63008281D01*
X80920768Y-63008280D01*
X80920772Y-63008280D01*
X81178641Y-62928738D01*
X81421775Y-62811651D01*
X81644741Y-62659635D01*
X81842561Y-62476085D01*
X82010815Y-62265102D01*
X82145743Y-62031398D01*
X82244334Y-61780195D01*
X82304383Y-61517103D01*
X82324549Y-61248000D01*
X82304383Y-60978897D01*
X82244334Y-60715805D01*
X82145743Y-60464602D01*
X82010815Y-60230898D01*
X81842561Y-60019915D01*
X81842560Y-60019914D01*
X81842557Y-60019910D01*
X81644741Y-59836365D01*
X81503238Y-59739890D01*
X81421775Y-59684349D01*
X81421769Y-59684346D01*
X81421768Y-59684345D01*
X81421767Y-59684344D01*
X81178643Y-59567263D01*
X81178645Y-59567263D01*
X80920773Y-59487720D01*
X80920767Y-59487718D01*
X80653936Y-59447500D01*
X80653929Y-59447500D01*
X80384071Y-59447500D01*
X80384063Y-59447500D01*
X80117232Y-59487718D01*
X80117226Y-59487720D01*
X79859358Y-59567262D01*
X79616230Y-59684346D01*
X79393258Y-59836365D01*
X79195442Y-60019910D01*
X79027185Y-60230898D01*
X78892258Y-60464599D01*
X78892256Y-60464603D01*
X78793666Y-60715804D01*
X78793664Y-60715811D01*
X78733616Y-60978898D01*
X78713451Y-61247995D01*
X78713451Y-61248004D01*
X76000000Y-61248004D01*
X76000000Y-57515870D01*
X78718500Y-57515870D01*
X78718501Y-57515876D01*
X78724908Y-57575483D01*
X78775202Y-57710328D01*
X78775206Y-57710335D01*
X78861452Y-57825544D01*
X78861455Y-57825547D01*
X78976664Y-57911793D01*
X78976671Y-57911797D01*
X79111517Y-57962091D01*
X79111516Y-57962091D01*
X79118444Y-57962835D01*
X79171127Y-57968500D01*
X81866872Y-57968499D01*
X81926483Y-57962091D01*
X82061331Y-57911796D01*
X82176546Y-57825546D01*
X82262796Y-57710331D01*
X82313091Y-57575483D01*
X82319500Y-57515873D01*
X82319499Y-55920004D01*
X143194451Y-55920004D01*
X143214616Y-56189101D01*
X143274664Y-56452188D01*
X143274666Y-56452195D01*
X143373257Y-56703398D01*
X143508185Y-56937102D01*
X143644080Y-57107509D01*
X143676442Y-57148089D01*
X143839626Y-57299500D01*
X143874259Y-57331635D01*
X144097226Y-57483651D01*
X144340359Y-57600738D01*
X144598228Y-57680280D01*
X144598229Y-57680280D01*
X144598232Y-57680281D01*
X144865063Y-57720499D01*
X144865068Y-57720499D01*
X144865071Y-57720500D01*
X144865072Y-57720500D01*
X145134928Y-57720500D01*
X145134929Y-57720500D01*
X145202370Y-57710335D01*
X145401767Y-57680281D01*
X145401768Y-57680280D01*
X145401772Y-57680280D01*
X145659641Y-57600738D01*
X145902775Y-57483651D01*
X146125741Y-57331635D01*
X146323561Y-57148085D01*
X146491815Y-56937102D01*
X146626743Y-56703398D01*
X146725334Y-56452195D01*
X146785383Y-56189103D01*
X146805549Y-55920000D01*
X146785383Y-55650897D01*
X146725334Y-55387805D01*
X146626743Y-55136602D01*
X146491815Y-54902898D01*
X146323561Y-54691915D01*
X146323560Y-54691914D01*
X146323557Y-54691910D01*
X146125741Y-54508365D01*
X145902775Y-54356349D01*
X145902769Y-54356346D01*
X145902768Y-54356345D01*
X145902767Y-54356344D01*
X145659643Y-54239263D01*
X145659645Y-54239263D01*
X145401773Y-54159720D01*
X145401767Y-54159718D01*
X145134936Y-54119500D01*
X145134929Y-54119500D01*
X144865071Y-54119500D01*
X144865063Y-54119500D01*
X144598232Y-54159718D01*
X144598226Y-54159720D01*
X144340358Y-54239262D01*
X144097230Y-54356346D01*
X143874258Y-54508365D01*
X143676442Y-54691910D01*
X143508185Y-54902898D01*
X143373258Y-55136599D01*
X143373256Y-55136603D01*
X143274666Y-55387804D01*
X143274664Y-55387811D01*
X143214616Y-55650898D01*
X143194451Y-55919995D01*
X143194451Y-55920004D01*
X82319499Y-55920004D01*
X82319499Y-54820128D01*
X82313091Y-54760517D01*
X82287502Y-54691910D01*
X82262797Y-54625671D01*
X82262793Y-54625664D01*
X82176547Y-54510455D01*
X82176544Y-54510452D01*
X82061335Y-54424206D01*
X82061328Y-54424202D01*
X81926482Y-54373908D01*
X81926483Y-54373908D01*
X81866883Y-54367501D01*
X81866881Y-54367500D01*
X81866873Y-54367500D01*
X81866864Y-54367500D01*
X79171129Y-54367500D01*
X79171123Y-54367501D01*
X79111516Y-54373908D01*
X78976671Y-54424202D01*
X78976664Y-54424206D01*
X78861455Y-54510452D01*
X78861452Y-54510455D01*
X78775206Y-54625664D01*
X78775202Y-54625671D01*
X78724908Y-54760517D01*
X78718501Y-54820116D01*
X78718501Y-54820123D01*
X78718500Y-54820135D01*
X78718500Y-57515870D01*
X76000000Y-57515870D01*
X76000000Y-50500001D01*
X78479390Y-50500001D01*
X78499804Y-50785433D01*
X78560628Y-51065037D01*
X78660635Y-51333166D01*
X78797770Y-51584309D01*
X78797775Y-51584317D01*
X78969254Y-51813387D01*
X78969270Y-51813405D01*
X79171594Y-52015729D01*
X79171612Y-52015745D01*
X79400682Y-52187224D01*
X79400690Y-52187229D01*
X79651833Y-52324364D01*
X79651832Y-52324364D01*
X79651836Y-52324365D01*
X79651839Y-52324367D01*
X79919954Y-52424369D01*
X79919960Y-52424370D01*
X79919962Y-52424371D01*
X80199566Y-52485195D01*
X80199568Y-52485195D01*
X80199572Y-52485196D01*
X80453220Y-52503337D01*
X80484999Y-52505610D01*
X80485000Y-52505610D01*
X80485001Y-52505610D01*
X80513595Y-52503564D01*
X80770428Y-52485196D01*
X80961597Y-52443610D01*
X81050037Y-52424371D01*
X81050037Y-52424370D01*
X81050046Y-52424369D01*
X81318161Y-52324367D01*
X81569315Y-52187226D01*
X81798395Y-52015739D01*
X82000739Y-51813395D01*
X82172226Y-51584315D01*
X82309367Y-51333161D01*
X82409369Y-51065046D01*
X82470196Y-50785428D01*
X82490610Y-50500001D01*
X84829390Y-50500001D01*
X84849804Y-50785433D01*
X84910628Y-51065037D01*
X85010635Y-51333166D01*
X85147770Y-51584309D01*
X85147775Y-51584317D01*
X85319254Y-51813387D01*
X85319270Y-51813405D01*
X85521594Y-52015729D01*
X85521612Y-52015745D01*
X85750682Y-52187224D01*
X85750690Y-52187229D01*
X86001833Y-52324364D01*
X86001832Y-52324364D01*
X86001836Y-52324365D01*
X86001839Y-52324367D01*
X86269954Y-52424369D01*
X86269960Y-52424370D01*
X86269962Y-52424371D01*
X86549566Y-52485195D01*
X86549568Y-52485195D01*
X86549572Y-52485196D01*
X86803220Y-52503337D01*
X86834999Y-52505610D01*
X86835000Y-52505610D01*
X86835001Y-52505610D01*
X86863595Y-52503564D01*
X87120428Y-52485196D01*
X87311597Y-52443610D01*
X87400037Y-52424371D01*
X87400037Y-52424370D01*
X87400046Y-52424369D01*
X87668161Y-52324367D01*
X87919315Y-52187226D01*
X88148395Y-52015739D01*
X88350739Y-51813395D01*
X88522226Y-51584315D01*
X88659367Y-51333161D01*
X88759369Y-51065046D01*
X88820196Y-50785428D01*
X88840610Y-50500001D01*
X91179390Y-50500001D01*
X91199804Y-50785433D01*
X91260628Y-51065037D01*
X91360635Y-51333166D01*
X91497770Y-51584309D01*
X91497775Y-51584317D01*
X91669254Y-51813387D01*
X91669270Y-51813405D01*
X91871594Y-52015729D01*
X91871612Y-52015745D01*
X92100682Y-52187224D01*
X92100690Y-52187229D01*
X92351833Y-52324364D01*
X92351832Y-52324364D01*
X92351836Y-52324365D01*
X92351839Y-52324367D01*
X92619954Y-52424369D01*
X92619960Y-52424370D01*
X92619962Y-52424371D01*
X92899566Y-52485195D01*
X92899568Y-52485195D01*
X92899572Y-52485196D01*
X93153220Y-52503337D01*
X93184999Y-52505610D01*
X93185000Y-52505610D01*
X93185001Y-52505610D01*
X93213595Y-52503564D01*
X93470428Y-52485196D01*
X93661597Y-52443610D01*
X93750037Y-52424371D01*
X93750037Y-52424370D01*
X93750046Y-52424369D01*
X94018161Y-52324367D01*
X94269315Y-52187226D01*
X94498395Y-52015739D01*
X94700739Y-51813395D01*
X94872226Y-51584315D01*
X95009367Y-51333161D01*
X95109369Y-51065046D01*
X95170196Y-50785428D01*
X95190610Y-50500000D01*
X95186176Y-50438001D01*
X130328390Y-50438001D01*
X130348804Y-50723433D01*
X130409628Y-51003037D01*
X130509635Y-51271166D01*
X130646770Y-51522309D01*
X130646775Y-51522317D01*
X130818254Y-51751387D01*
X130818270Y-51751405D01*
X131020594Y-51953729D01*
X131020612Y-51953745D01*
X131249682Y-52125224D01*
X131249690Y-52125229D01*
X131500833Y-52262364D01*
X131500832Y-52262364D01*
X131500836Y-52262365D01*
X131500839Y-52262367D01*
X131768954Y-52362369D01*
X131768960Y-52362370D01*
X131768962Y-52362371D01*
X132048566Y-52423195D01*
X132048568Y-52423195D01*
X132048572Y-52423196D01*
X132302220Y-52441337D01*
X132333999Y-52443610D01*
X132334000Y-52443610D01*
X132334001Y-52443610D01*
X132362595Y-52441564D01*
X132619428Y-52423196D01*
X132899046Y-52362369D01*
X133167161Y-52262367D01*
X133418315Y-52125226D01*
X133647395Y-51953739D01*
X133849739Y-51751395D01*
X134021226Y-51522315D01*
X134158367Y-51271161D01*
X134258369Y-51003046D01*
X134319196Y-50723428D01*
X134339610Y-50438001D01*
X136678390Y-50438001D01*
X136698804Y-50723433D01*
X136759628Y-51003037D01*
X136859635Y-51271166D01*
X136996770Y-51522309D01*
X136996775Y-51522317D01*
X137168254Y-51751387D01*
X137168270Y-51751405D01*
X137370594Y-51953729D01*
X137370612Y-51953745D01*
X137599682Y-52125224D01*
X137599690Y-52125229D01*
X137850833Y-52262364D01*
X137850832Y-52262364D01*
X137850836Y-52262365D01*
X137850839Y-52262367D01*
X138118954Y-52362369D01*
X138118960Y-52362370D01*
X138118962Y-52362371D01*
X138398566Y-52423195D01*
X138398568Y-52423195D01*
X138398572Y-52423196D01*
X138652220Y-52441337D01*
X138683999Y-52443610D01*
X138684000Y-52443610D01*
X138684001Y-52443610D01*
X138712595Y-52441564D01*
X138969428Y-52423196D01*
X139249046Y-52362369D01*
X139517161Y-52262367D01*
X139768315Y-52125226D01*
X139997395Y-51953739D01*
X140199739Y-51751395D01*
X140371226Y-51522315D01*
X140508367Y-51271161D01*
X140608369Y-51003046D01*
X140669196Y-50723428D01*
X140689610Y-50438001D01*
X143028390Y-50438001D01*
X143048804Y-50723433D01*
X143109628Y-51003037D01*
X143209635Y-51271166D01*
X143346770Y-51522309D01*
X143346775Y-51522317D01*
X143518254Y-51751387D01*
X143518270Y-51751405D01*
X143720594Y-51953729D01*
X143720612Y-51953745D01*
X143949682Y-52125224D01*
X143949690Y-52125229D01*
X144200833Y-52262364D01*
X144200832Y-52262364D01*
X144200836Y-52262365D01*
X144200839Y-52262367D01*
X144468954Y-52362369D01*
X144468960Y-52362370D01*
X144468962Y-52362371D01*
X144748566Y-52423195D01*
X144748568Y-52423195D01*
X144748572Y-52423196D01*
X145002220Y-52441337D01*
X145033999Y-52443610D01*
X145034000Y-52443610D01*
X145034001Y-52443610D01*
X145062595Y-52441564D01*
X145319428Y-52423196D01*
X145599046Y-52362369D01*
X145867161Y-52262367D01*
X146118315Y-52125226D01*
X146347395Y-51953739D01*
X146549739Y-51751395D01*
X146721226Y-51522315D01*
X146858367Y-51271161D01*
X146958369Y-51003046D01*
X147019196Y-50723428D01*
X147039610Y-50438000D01*
X147019196Y-50152572D01*
X146971856Y-49934954D01*
X146958371Y-49872962D01*
X146958370Y-49872960D01*
X146958369Y-49872954D01*
X146858367Y-49604839D01*
X146755083Y-49415690D01*
X146721229Y-49353690D01*
X146721224Y-49353682D01*
X146549745Y-49124612D01*
X146549729Y-49124594D01*
X146347405Y-48922270D01*
X146347387Y-48922254D01*
X146118317Y-48750775D01*
X146118309Y-48750770D01*
X145867166Y-48613635D01*
X145867167Y-48613635D01*
X145759914Y-48573632D01*
X145599046Y-48513631D01*
X145599043Y-48513630D01*
X145599037Y-48513628D01*
X145319433Y-48452804D01*
X145034001Y-48432390D01*
X145033999Y-48432390D01*
X144748566Y-48452804D01*
X144468962Y-48513628D01*
X144200833Y-48613635D01*
X143949690Y-48750770D01*
X143949682Y-48750775D01*
X143720612Y-48922254D01*
X143720594Y-48922270D01*
X143518270Y-49124594D01*
X143518254Y-49124612D01*
X143346775Y-49353682D01*
X143346770Y-49353690D01*
X143209635Y-49604833D01*
X143109628Y-49872962D01*
X143048804Y-50152566D01*
X143028390Y-50437998D01*
X143028390Y-50438001D01*
X140689610Y-50438001D01*
X140689610Y-50438000D01*
X140669196Y-50152572D01*
X140621856Y-49934954D01*
X140608371Y-49872962D01*
X140608370Y-49872960D01*
X140608369Y-49872954D01*
X140508367Y-49604839D01*
X140405083Y-49415690D01*
X140371229Y-49353690D01*
X140371224Y-49353682D01*
X140199745Y-49124612D01*
X140199729Y-49124594D01*
X139997405Y-48922270D01*
X139997387Y-48922254D01*
X139768317Y-48750775D01*
X139768309Y-48750770D01*
X139517166Y-48613635D01*
X139517167Y-48613635D01*
X139409914Y-48573632D01*
X139249046Y-48513631D01*
X139249043Y-48513630D01*
X139249037Y-48513628D01*
X138969433Y-48452804D01*
X138684001Y-48432390D01*
X138683999Y-48432390D01*
X138398566Y-48452804D01*
X138118962Y-48513628D01*
X137850833Y-48613635D01*
X137599690Y-48750770D01*
X137599682Y-48750775D01*
X137370612Y-48922254D01*
X137370594Y-48922270D01*
X137168270Y-49124594D01*
X137168254Y-49124612D01*
X136996775Y-49353682D01*
X136996770Y-49353690D01*
X136859635Y-49604833D01*
X136759628Y-49872962D01*
X136698804Y-50152566D01*
X136678390Y-50437998D01*
X136678390Y-50438001D01*
X134339610Y-50438001D01*
X134339610Y-50438000D01*
X134319196Y-50152572D01*
X134271856Y-49934954D01*
X134258371Y-49872962D01*
X134258370Y-49872960D01*
X134258369Y-49872954D01*
X134158367Y-49604839D01*
X134055083Y-49415690D01*
X134021229Y-49353690D01*
X134021224Y-49353682D01*
X133849745Y-49124612D01*
X133849729Y-49124594D01*
X133647405Y-48922270D01*
X133647387Y-48922254D01*
X133418317Y-48750775D01*
X133418309Y-48750770D01*
X133167166Y-48613635D01*
X133167167Y-48613635D01*
X133059914Y-48573632D01*
X132899046Y-48513631D01*
X132899043Y-48513630D01*
X132899037Y-48513628D01*
X132619433Y-48452804D01*
X132334001Y-48432390D01*
X132333999Y-48432390D01*
X132048566Y-48452804D01*
X131768962Y-48513628D01*
X131500833Y-48613635D01*
X131249690Y-48750770D01*
X131249682Y-48750775D01*
X131020612Y-48922254D01*
X131020594Y-48922270D01*
X130818270Y-49124594D01*
X130818254Y-49124612D01*
X130646775Y-49353682D01*
X130646770Y-49353690D01*
X130509635Y-49604833D01*
X130409628Y-49872962D01*
X130348804Y-50152566D01*
X130328390Y-50437998D01*
X130328390Y-50438001D01*
X95186176Y-50438001D01*
X95170196Y-50214572D01*
X95156707Y-50152566D01*
X95109371Y-49934962D01*
X95109370Y-49934960D01*
X95109369Y-49934954D01*
X95009367Y-49666839D01*
X94975512Y-49604839D01*
X94872229Y-49415690D01*
X94872224Y-49415682D01*
X94700745Y-49186612D01*
X94700729Y-49186594D01*
X94498405Y-48984270D01*
X94498387Y-48984254D01*
X94269317Y-48812775D01*
X94269309Y-48812770D01*
X94018166Y-48675635D01*
X94018167Y-48675635D01*
X93851933Y-48613633D01*
X93750046Y-48575631D01*
X93750043Y-48575630D01*
X93750037Y-48575628D01*
X93470433Y-48514804D01*
X93185001Y-48494390D01*
X93184999Y-48494390D01*
X92899566Y-48514804D01*
X92619962Y-48575628D01*
X92351833Y-48675635D01*
X92100690Y-48812770D01*
X92100682Y-48812775D01*
X91871612Y-48984254D01*
X91871594Y-48984270D01*
X91669270Y-49186594D01*
X91669254Y-49186612D01*
X91497775Y-49415682D01*
X91497770Y-49415690D01*
X91360635Y-49666833D01*
X91260628Y-49934962D01*
X91199804Y-50214566D01*
X91179390Y-50499998D01*
X91179390Y-50500001D01*
X88840610Y-50500001D01*
X88840610Y-50500000D01*
X88820196Y-50214572D01*
X88806707Y-50152566D01*
X88759371Y-49934962D01*
X88759370Y-49934960D01*
X88759369Y-49934954D01*
X88659367Y-49666839D01*
X88625512Y-49604839D01*
X88522229Y-49415690D01*
X88522224Y-49415682D01*
X88350745Y-49186612D01*
X88350729Y-49186594D01*
X88148405Y-48984270D01*
X88148387Y-48984254D01*
X87919317Y-48812775D01*
X87919309Y-48812770D01*
X87668166Y-48675635D01*
X87668167Y-48675635D01*
X87501933Y-48613633D01*
X87400046Y-48575631D01*
X87400043Y-48575630D01*
X87400037Y-48575628D01*
X87120433Y-48514804D01*
X86835001Y-48494390D01*
X86834999Y-48494390D01*
X86549566Y-48514804D01*
X86269962Y-48575628D01*
X86001833Y-48675635D01*
X85750690Y-48812770D01*
X85750682Y-48812775D01*
X85521612Y-48984254D01*
X85521594Y-48984270D01*
X85319270Y-49186594D01*
X85319254Y-49186612D01*
X85147775Y-49415682D01*
X85147770Y-49415690D01*
X85010635Y-49666833D01*
X84910628Y-49934962D01*
X84849804Y-50214566D01*
X84829390Y-50499998D01*
X84829390Y-50500001D01*
X82490610Y-50500001D01*
X82490610Y-50500000D01*
X82470196Y-50214572D01*
X82456707Y-50152566D01*
X82409371Y-49934962D01*
X82409370Y-49934960D01*
X82409369Y-49934954D01*
X82309367Y-49666839D01*
X82275512Y-49604839D01*
X82172229Y-49415690D01*
X82172224Y-49415682D01*
X82000745Y-49186612D01*
X82000729Y-49186594D01*
X81798405Y-48984270D01*
X81798387Y-48984254D01*
X81569317Y-48812775D01*
X81569309Y-48812770D01*
X81318166Y-48675635D01*
X81318167Y-48675635D01*
X81151933Y-48613633D01*
X81050046Y-48575631D01*
X81050043Y-48575630D01*
X81050037Y-48575628D01*
X80770433Y-48514804D01*
X80485001Y-48494390D01*
X80484999Y-48494390D01*
X80199566Y-48514804D01*
X79919962Y-48575628D01*
X79651833Y-48675635D01*
X79400690Y-48812770D01*
X79400682Y-48812775D01*
X79171612Y-48984254D01*
X79171594Y-48984270D01*
X78969270Y-49186594D01*
X78969254Y-49186612D01*
X78797775Y-49415682D01*
X78797770Y-49415690D01*
X78660635Y-49666833D01*
X78560628Y-49934962D01*
X78499804Y-50214566D01*
X78479390Y-50499998D01*
X78479390Y-50500001D01*
X76000000Y-50500001D01*
X76000000Y-36325004D01*
X78922460Y-36325004D01*
X78942591Y-36593645D01*
X78942592Y-36593650D01*
X79002538Y-36856294D01*
X79002544Y-36856313D01*
X79100968Y-37107093D01*
X79100967Y-37107093D01*
X79235671Y-37340406D01*
X79289073Y-37407372D01*
X79853834Y-36842611D01*
X79915157Y-36809126D01*
X79984848Y-36814110D01*
X80036023Y-36850016D01*
X80126631Y-36956688D01*
X80126632Y-36956689D01*
X80195486Y-37009030D01*
X80236942Y-37065270D01*
X80241412Y-37134996D01*
X80208125Y-37195426D01*
X79641647Y-37761903D01*
X79823729Y-37886044D01*
X79823733Y-37886046D01*
X80066457Y-38002936D01*
X80323895Y-38082346D01*
X80323901Y-38082348D01*
X80590288Y-38122499D01*
X80590297Y-38122500D01*
X80859703Y-38122500D01*
X80859711Y-38122499D01*
X81126098Y-38082348D01*
X81126104Y-38082346D01*
X81383542Y-38002936D01*
X81626265Y-37886047D01*
X81808351Y-37761903D01*
X81245395Y-37198948D01*
X81211910Y-37137625D01*
X81216894Y-37067934D01*
X81247802Y-37021243D01*
X81251561Y-37017682D01*
X81251563Y-37017681D01*
X81388158Y-36888291D01*
X81406452Y-36861308D01*
X81460364Y-36816868D01*
X81529746Y-36808628D01*
X81592569Y-36839208D01*
X81596767Y-36843214D01*
X82160925Y-37407372D01*
X82214327Y-37340406D01*
X82349031Y-37107093D01*
X82447455Y-36856313D01*
X82447461Y-36856294D01*
X82507407Y-36593650D01*
X82507408Y-36593645D01*
X82527540Y-36325004D01*
X86382460Y-36325004D01*
X86402591Y-36593645D01*
X86402592Y-36593650D01*
X86462538Y-36856294D01*
X86462544Y-36856313D01*
X86560968Y-37107093D01*
X86560967Y-37107093D01*
X86695671Y-37340406D01*
X86749073Y-37407372D01*
X87313834Y-36842611D01*
X87375157Y-36809126D01*
X87444848Y-36814110D01*
X87496023Y-36850016D01*
X87586631Y-36956688D01*
X87586632Y-36956689D01*
X87655486Y-37009030D01*
X87696942Y-37065270D01*
X87701412Y-37134996D01*
X87668125Y-37195426D01*
X87101647Y-37761903D01*
X87283729Y-37886044D01*
X87283733Y-37886046D01*
X87526457Y-38002936D01*
X87783895Y-38082346D01*
X87783901Y-38082348D01*
X88050288Y-38122499D01*
X88050297Y-38122500D01*
X88319703Y-38122500D01*
X88319711Y-38122499D01*
X88586098Y-38082348D01*
X88586104Y-38082346D01*
X88843542Y-38002936D01*
X89086265Y-37886047D01*
X89268351Y-37761903D01*
X88705395Y-37198948D01*
X88671910Y-37137625D01*
X88676894Y-37067934D01*
X88707802Y-37021243D01*
X88711561Y-37017682D01*
X88711563Y-37017681D01*
X88848158Y-36888291D01*
X88866452Y-36861308D01*
X88920364Y-36816868D01*
X88989746Y-36808628D01*
X89052569Y-36839208D01*
X89056767Y-36843214D01*
X89620925Y-37407372D01*
X89674327Y-37340406D01*
X89809031Y-37107093D01*
X89907455Y-36856313D01*
X89907461Y-36856294D01*
X89967407Y-36593650D01*
X89967408Y-36593645D01*
X89987540Y-36325004D01*
X97368253Y-36325004D01*
X97388384Y-36593645D01*
X97388385Y-36593650D01*
X97448331Y-36856294D01*
X97448337Y-36856313D01*
X97546761Y-37107093D01*
X97546760Y-37107093D01*
X97681464Y-37340406D01*
X97734866Y-37407372D01*
X98299627Y-36842611D01*
X98360950Y-36809126D01*
X98430641Y-36814110D01*
X98481816Y-36850016D01*
X98572424Y-36956688D01*
X98572425Y-36956689D01*
X98641279Y-37009030D01*
X98682735Y-37065270D01*
X98687205Y-37134996D01*
X98653918Y-37195426D01*
X98087440Y-37761903D01*
X98269522Y-37886044D01*
X98269526Y-37886046D01*
X98512250Y-38002936D01*
X98769688Y-38082346D01*
X98769694Y-38082348D01*
X99036081Y-38122499D01*
X99036090Y-38122500D01*
X99305496Y-38122500D01*
X99305504Y-38122499D01*
X99571891Y-38082348D01*
X99571897Y-38082346D01*
X99829335Y-38002936D01*
X100072058Y-37886047D01*
X100254144Y-37761903D01*
X99691188Y-37198948D01*
X99657703Y-37137625D01*
X99662687Y-37067934D01*
X99693595Y-37021243D01*
X99697354Y-37017682D01*
X99697356Y-37017681D01*
X99833951Y-36888291D01*
X99852245Y-36861308D01*
X99906157Y-36816868D01*
X99975539Y-36808628D01*
X100038362Y-36839208D01*
X100042560Y-36843214D01*
X100606718Y-37407372D01*
X100660120Y-37340406D01*
X100794824Y-37107093D01*
X100893248Y-36856313D01*
X100893254Y-36856294D01*
X100953200Y-36593650D01*
X100953201Y-36593645D01*
X100973333Y-36325004D01*
X104828253Y-36325004D01*
X104848384Y-36593645D01*
X104848385Y-36593650D01*
X104908331Y-36856294D01*
X104908337Y-36856313D01*
X105006761Y-37107093D01*
X105006760Y-37107093D01*
X105141464Y-37340406D01*
X105194866Y-37407372D01*
X105759627Y-36842611D01*
X105820950Y-36809126D01*
X105890641Y-36814110D01*
X105941816Y-36850016D01*
X106032424Y-36956688D01*
X106032425Y-36956689D01*
X106101279Y-37009030D01*
X106142735Y-37065270D01*
X106147205Y-37134996D01*
X106113918Y-37195426D01*
X105547440Y-37761903D01*
X105729522Y-37886044D01*
X105729526Y-37886046D01*
X105972250Y-38002936D01*
X106229688Y-38082346D01*
X106229694Y-38082348D01*
X106496081Y-38122499D01*
X106496090Y-38122500D01*
X106765496Y-38122500D01*
X106765504Y-38122499D01*
X107031891Y-38082348D01*
X107031897Y-38082346D01*
X107289335Y-38002936D01*
X107532058Y-37886047D01*
X107714144Y-37761903D01*
X107151188Y-37198948D01*
X107117703Y-37137625D01*
X107122687Y-37067934D01*
X107153595Y-37021243D01*
X107157354Y-37017682D01*
X107157356Y-37017681D01*
X107293951Y-36888291D01*
X107312245Y-36861308D01*
X107366157Y-36816868D01*
X107435539Y-36808628D01*
X107498362Y-36839208D01*
X107502560Y-36843214D01*
X108066718Y-37407372D01*
X108120120Y-37340406D01*
X108254824Y-37107093D01*
X108353248Y-36856313D01*
X108353254Y-36856294D01*
X108413200Y-36593650D01*
X108413201Y-36593645D01*
X108429961Y-36370004D01*
X115767856Y-36370004D01*
X115787987Y-36638645D01*
X115787988Y-36638650D01*
X115847934Y-36901294D01*
X115847940Y-36901313D01*
X115946364Y-37152093D01*
X115946363Y-37152093D01*
X116081067Y-37385406D01*
X116134469Y-37452372D01*
X116699230Y-36887611D01*
X116760553Y-36854126D01*
X116830244Y-36859110D01*
X116881419Y-36895016D01*
X116972028Y-37001689D01*
X117040882Y-37054030D01*
X117082338Y-37110270D01*
X117086808Y-37179996D01*
X117053521Y-37240426D01*
X116487043Y-37806903D01*
X116669125Y-37931044D01*
X116669129Y-37931046D01*
X116911853Y-38047936D01*
X117169291Y-38127346D01*
X117169297Y-38127348D01*
X117435684Y-38167499D01*
X117435693Y-38167500D01*
X117705099Y-38167500D01*
X117705107Y-38167499D01*
X117971494Y-38127348D01*
X117971500Y-38127346D01*
X118228938Y-38047936D01*
X118471661Y-37931047D01*
X118653747Y-37806903D01*
X118090791Y-37243948D01*
X118057306Y-37182625D01*
X118062290Y-37112934D01*
X118093198Y-37066243D01*
X118096957Y-37062682D01*
X118096959Y-37062681D01*
X118233554Y-36933291D01*
X118251848Y-36906308D01*
X118305760Y-36861868D01*
X118375142Y-36853628D01*
X118437965Y-36884208D01*
X118442163Y-36888214D01*
X119006321Y-37452372D01*
X119059723Y-37385406D01*
X119194427Y-37152093D01*
X119292851Y-36901313D01*
X119292857Y-36901294D01*
X119352803Y-36638650D01*
X119352804Y-36638645D01*
X119372936Y-36370004D01*
X123227856Y-36370004D01*
X123247987Y-36638645D01*
X123247988Y-36638650D01*
X123307934Y-36901294D01*
X123307940Y-36901313D01*
X123406364Y-37152093D01*
X123406363Y-37152093D01*
X123541067Y-37385406D01*
X123594469Y-37452372D01*
X124159230Y-36887611D01*
X124220553Y-36854126D01*
X124290244Y-36859110D01*
X124341419Y-36895016D01*
X124432028Y-37001689D01*
X124500882Y-37054030D01*
X124542338Y-37110270D01*
X124546808Y-37179996D01*
X124513521Y-37240426D01*
X123947043Y-37806903D01*
X124129125Y-37931044D01*
X124129129Y-37931046D01*
X124371853Y-38047936D01*
X124629291Y-38127346D01*
X124629297Y-38127348D01*
X124895684Y-38167499D01*
X124895693Y-38167500D01*
X125165099Y-38167500D01*
X125165107Y-38167499D01*
X125431494Y-38127348D01*
X125431500Y-38127346D01*
X125688938Y-38047936D01*
X125931661Y-37931047D01*
X126113747Y-37806903D01*
X125550791Y-37243948D01*
X125517306Y-37182625D01*
X125522290Y-37112934D01*
X125553198Y-37066243D01*
X125556957Y-37062682D01*
X125556959Y-37062681D01*
X125693554Y-36933291D01*
X125711848Y-36906308D01*
X125765760Y-36861868D01*
X125835142Y-36853628D01*
X125897965Y-36884208D01*
X125902163Y-36888214D01*
X126466321Y-37452372D01*
X126519723Y-37385406D01*
X126654427Y-37152093D01*
X126752851Y-36901313D01*
X126752857Y-36901294D01*
X126812803Y-36638650D01*
X126812804Y-36638645D01*
X126832936Y-36370004D01*
X126832936Y-36369995D01*
X126829564Y-36325004D01*
X134167460Y-36325004D01*
X134187591Y-36593645D01*
X134187592Y-36593650D01*
X134247538Y-36856294D01*
X134247544Y-36856313D01*
X134345968Y-37107093D01*
X134345967Y-37107093D01*
X134480671Y-37340406D01*
X134534073Y-37407372D01*
X135098834Y-36842611D01*
X135160157Y-36809126D01*
X135229848Y-36814110D01*
X135281023Y-36850016D01*
X135371631Y-36956688D01*
X135371632Y-36956689D01*
X135440486Y-37009030D01*
X135481942Y-37065270D01*
X135486412Y-37134996D01*
X135453125Y-37195426D01*
X134886647Y-37761903D01*
X135068729Y-37886044D01*
X135068733Y-37886046D01*
X135311457Y-38002936D01*
X135568895Y-38082346D01*
X135568901Y-38082348D01*
X135835288Y-38122499D01*
X135835297Y-38122500D01*
X136104703Y-38122500D01*
X136104711Y-38122499D01*
X136371098Y-38082348D01*
X136371104Y-38082346D01*
X136628542Y-38002936D01*
X136871265Y-37886047D01*
X137053351Y-37761903D01*
X136490395Y-37198948D01*
X136456910Y-37137625D01*
X136461894Y-37067934D01*
X136492802Y-37021243D01*
X136496561Y-37017682D01*
X136496563Y-37017681D01*
X136633158Y-36888291D01*
X136651452Y-36861308D01*
X136705364Y-36816868D01*
X136774746Y-36808628D01*
X136837569Y-36839208D01*
X136841767Y-36843214D01*
X137405925Y-37407372D01*
X137459327Y-37340406D01*
X137594031Y-37107093D01*
X137692455Y-36856313D01*
X137692461Y-36856294D01*
X137752407Y-36593650D01*
X137752408Y-36593645D01*
X137772540Y-36325004D01*
X141627460Y-36325004D01*
X141647591Y-36593645D01*
X141647592Y-36593650D01*
X141707538Y-36856294D01*
X141707544Y-36856313D01*
X141805968Y-37107093D01*
X141805967Y-37107093D01*
X141940671Y-37340406D01*
X141994073Y-37407372D01*
X142558834Y-36842611D01*
X142620157Y-36809126D01*
X142689848Y-36814110D01*
X142741023Y-36850016D01*
X142831631Y-36956688D01*
X142831632Y-36956689D01*
X142900486Y-37009030D01*
X142941942Y-37065270D01*
X142946412Y-37134996D01*
X142913125Y-37195426D01*
X142346647Y-37761903D01*
X142528729Y-37886044D01*
X142528733Y-37886046D01*
X142771457Y-38002936D01*
X143028895Y-38082346D01*
X143028901Y-38082348D01*
X143295288Y-38122499D01*
X143295297Y-38122500D01*
X143564703Y-38122500D01*
X143564711Y-38122499D01*
X143831098Y-38082348D01*
X143831104Y-38082346D01*
X144088542Y-38002936D01*
X144331265Y-37886047D01*
X144513351Y-37761903D01*
X143950395Y-37198948D01*
X143916910Y-37137625D01*
X143921894Y-37067934D01*
X143952802Y-37021243D01*
X143956561Y-37017682D01*
X143956563Y-37017681D01*
X144093158Y-36888291D01*
X144111452Y-36861308D01*
X144165364Y-36816868D01*
X144234746Y-36808628D01*
X144297569Y-36839208D01*
X144301767Y-36843214D01*
X144865925Y-37407372D01*
X144919327Y-37340406D01*
X145054031Y-37107093D01*
X145152455Y-36856313D01*
X145152461Y-36856294D01*
X145212407Y-36593650D01*
X145212408Y-36593645D01*
X145232540Y-36325004D01*
X145232540Y-36324995D01*
X145212408Y-36056354D01*
X145212407Y-36056349D01*
X145152461Y-35793705D01*
X145152455Y-35793686D01*
X145054031Y-35542906D01*
X145054032Y-35542906D01*
X144919328Y-35309593D01*
X144865924Y-35242627D01*
X144301164Y-35807387D01*
X144239841Y-35840872D01*
X144170149Y-35835888D01*
X144118975Y-35799982D01*
X144028368Y-35693311D01*
X144007331Y-35677319D01*
X143959512Y-35640968D01*
X143918056Y-35584728D01*
X143913586Y-35515001D01*
X143946873Y-35454572D01*
X144513351Y-34888095D01*
X144331270Y-34763955D01*
X144331266Y-34763953D01*
X144088542Y-34647063D01*
X143831104Y-34567653D01*
X143831098Y-34567651D01*
X143564711Y-34527500D01*
X143295288Y-34527500D01*
X143028901Y-34567651D01*
X143028895Y-34567653D01*
X142771457Y-34647063D01*
X142528730Y-34763954D01*
X142528722Y-34763959D01*
X142346647Y-34888094D01*
X142909604Y-35451051D01*
X142943089Y-35512374D01*
X142938105Y-35582066D01*
X142907198Y-35628755D01*
X142766843Y-35761706D01*
X142748544Y-35788695D01*
X142694628Y-35833134D01*
X142625246Y-35841370D01*
X142562425Y-35810787D01*
X142558232Y-35806785D01*
X141994074Y-35242627D01*
X141940672Y-35309592D01*
X141805968Y-35542906D01*
X141707544Y-35793686D01*
X141707538Y-35793705D01*
X141647592Y-36056349D01*
X141647591Y-36056354D01*
X141627460Y-36324995D01*
X141627460Y-36325004D01*
X137772540Y-36325004D01*
X137772540Y-36324995D01*
X137752408Y-36056354D01*
X137752407Y-36056349D01*
X137692461Y-35793705D01*
X137692455Y-35793686D01*
X137594031Y-35542906D01*
X137594032Y-35542906D01*
X137459328Y-35309593D01*
X137405924Y-35242627D01*
X136841164Y-35807387D01*
X136779841Y-35840872D01*
X136710149Y-35835888D01*
X136658975Y-35799982D01*
X136568368Y-35693311D01*
X136547331Y-35677319D01*
X136499512Y-35640968D01*
X136458056Y-35584728D01*
X136453586Y-35515001D01*
X136486873Y-35454572D01*
X137053351Y-34888095D01*
X136871270Y-34763955D01*
X136871266Y-34763953D01*
X136628542Y-34647063D01*
X136371104Y-34567653D01*
X136371098Y-34567651D01*
X136104711Y-34527500D01*
X135835288Y-34527500D01*
X135568901Y-34567651D01*
X135568895Y-34567653D01*
X135311457Y-34647063D01*
X135068730Y-34763954D01*
X135068722Y-34763959D01*
X134886647Y-34888094D01*
X135449604Y-35451051D01*
X135483089Y-35512374D01*
X135478105Y-35582066D01*
X135447198Y-35628755D01*
X135306843Y-35761706D01*
X135288544Y-35788695D01*
X135234628Y-35833134D01*
X135165246Y-35841370D01*
X135102425Y-35810787D01*
X135098232Y-35806785D01*
X134534074Y-35242627D01*
X134480672Y-35309592D01*
X134345968Y-35542906D01*
X134247544Y-35793686D01*
X134247538Y-35793705D01*
X134187592Y-36056349D01*
X134187591Y-36056354D01*
X134167460Y-36324995D01*
X134167460Y-36325004D01*
X126829564Y-36325004D01*
X126812804Y-36101354D01*
X126812803Y-36101349D01*
X126752857Y-35838705D01*
X126752851Y-35838686D01*
X126654427Y-35587906D01*
X126654428Y-35587906D01*
X126519724Y-35354593D01*
X126466320Y-35287627D01*
X125901560Y-35852387D01*
X125840237Y-35885872D01*
X125770545Y-35880888D01*
X125719371Y-35844982D01*
X125671560Y-35788695D01*
X125628764Y-35738311D01*
X125559908Y-35685968D01*
X125518452Y-35629728D01*
X125513982Y-35560001D01*
X125547269Y-35499572D01*
X126113747Y-34933095D01*
X125931666Y-34808955D01*
X125931662Y-34808953D01*
X125688938Y-34692063D01*
X125431500Y-34612653D01*
X125431494Y-34612651D01*
X125165107Y-34572500D01*
X124895684Y-34572500D01*
X124629297Y-34612651D01*
X124629291Y-34612653D01*
X124371853Y-34692063D01*
X124129126Y-34808954D01*
X124129118Y-34808959D01*
X123947043Y-34933094D01*
X124510000Y-35496051D01*
X124543485Y-35557374D01*
X124538501Y-35627066D01*
X124507594Y-35673755D01*
X124367239Y-35806706D01*
X124348940Y-35833695D01*
X124295024Y-35878134D01*
X124225642Y-35886370D01*
X124162821Y-35855787D01*
X124158628Y-35851785D01*
X123594470Y-35287627D01*
X123541068Y-35354592D01*
X123406364Y-35587906D01*
X123307940Y-35838686D01*
X123307934Y-35838705D01*
X123247988Y-36101349D01*
X123247987Y-36101354D01*
X123227856Y-36369995D01*
X123227856Y-36370004D01*
X119372936Y-36370004D01*
X119372936Y-36369995D01*
X119352804Y-36101354D01*
X119352803Y-36101349D01*
X119292857Y-35838705D01*
X119292851Y-35838686D01*
X119194427Y-35587906D01*
X119194428Y-35587906D01*
X119059724Y-35354593D01*
X119006320Y-35287627D01*
X118441560Y-35852387D01*
X118380237Y-35885872D01*
X118310545Y-35880888D01*
X118259371Y-35844982D01*
X118211560Y-35788695D01*
X118168764Y-35738311D01*
X118099908Y-35685968D01*
X118058452Y-35629728D01*
X118053982Y-35560001D01*
X118087269Y-35499572D01*
X118653747Y-34933095D01*
X118471666Y-34808955D01*
X118471662Y-34808953D01*
X118228938Y-34692063D01*
X117971500Y-34612653D01*
X117971494Y-34612651D01*
X117705107Y-34572500D01*
X117435684Y-34572500D01*
X117169297Y-34612651D01*
X117169291Y-34612653D01*
X116911853Y-34692063D01*
X116669126Y-34808954D01*
X116669118Y-34808959D01*
X116487043Y-34933094D01*
X117050000Y-35496051D01*
X117083485Y-35557374D01*
X117078501Y-35627066D01*
X117047594Y-35673755D01*
X116907239Y-35806706D01*
X116888940Y-35833695D01*
X116835024Y-35878134D01*
X116765642Y-35886370D01*
X116702821Y-35855787D01*
X116698628Y-35851785D01*
X116134470Y-35287627D01*
X116081068Y-35354592D01*
X115946364Y-35587906D01*
X115847940Y-35838686D01*
X115847934Y-35838705D01*
X115787988Y-36101349D01*
X115787987Y-36101354D01*
X115767856Y-36369995D01*
X115767856Y-36370004D01*
X108429961Y-36370004D01*
X108433333Y-36325004D01*
X108433333Y-36324995D01*
X108413201Y-36056354D01*
X108413200Y-36056349D01*
X108353254Y-35793705D01*
X108353248Y-35793686D01*
X108254824Y-35542906D01*
X108254825Y-35542906D01*
X108120121Y-35309593D01*
X108066717Y-35242627D01*
X107501957Y-35807387D01*
X107440634Y-35840872D01*
X107370942Y-35835888D01*
X107319768Y-35799982D01*
X107229161Y-35693311D01*
X107208124Y-35677319D01*
X107160305Y-35640968D01*
X107118849Y-35584728D01*
X107114379Y-35515001D01*
X107147666Y-35454572D01*
X107714144Y-34888095D01*
X107532063Y-34763955D01*
X107532059Y-34763953D01*
X107289335Y-34647063D01*
X107031897Y-34567653D01*
X107031891Y-34567651D01*
X106765504Y-34527500D01*
X106496081Y-34527500D01*
X106229694Y-34567651D01*
X106229688Y-34567653D01*
X105972250Y-34647063D01*
X105729523Y-34763954D01*
X105729515Y-34763959D01*
X105547440Y-34888094D01*
X106110397Y-35451051D01*
X106143882Y-35512374D01*
X106138898Y-35582066D01*
X106107991Y-35628755D01*
X105967636Y-35761706D01*
X105949337Y-35788695D01*
X105895421Y-35833134D01*
X105826039Y-35841370D01*
X105763218Y-35810787D01*
X105759025Y-35806785D01*
X105194867Y-35242627D01*
X105141465Y-35309592D01*
X105006761Y-35542906D01*
X104908337Y-35793686D01*
X104908331Y-35793705D01*
X104848385Y-36056349D01*
X104848384Y-36056354D01*
X104828253Y-36324995D01*
X104828253Y-36325004D01*
X100973333Y-36325004D01*
X100973333Y-36324995D01*
X100953201Y-36056354D01*
X100953200Y-36056349D01*
X100893254Y-35793705D01*
X100893248Y-35793686D01*
X100794824Y-35542906D01*
X100794825Y-35542906D01*
X100660121Y-35309593D01*
X100606717Y-35242627D01*
X100041957Y-35807387D01*
X99980634Y-35840872D01*
X99910942Y-35835888D01*
X99859768Y-35799982D01*
X99769161Y-35693311D01*
X99748124Y-35677319D01*
X99700305Y-35640968D01*
X99658849Y-35584728D01*
X99654379Y-35515001D01*
X99687666Y-35454572D01*
X100254144Y-34888095D01*
X100072063Y-34763955D01*
X100072059Y-34763953D01*
X99829335Y-34647063D01*
X99571897Y-34567653D01*
X99571891Y-34567651D01*
X99305504Y-34527500D01*
X99036081Y-34527500D01*
X98769694Y-34567651D01*
X98769688Y-34567653D01*
X98512250Y-34647063D01*
X98269523Y-34763954D01*
X98269515Y-34763959D01*
X98087440Y-34888094D01*
X98650397Y-35451051D01*
X98683882Y-35512374D01*
X98678898Y-35582066D01*
X98647991Y-35628755D01*
X98507636Y-35761706D01*
X98489337Y-35788695D01*
X98435421Y-35833134D01*
X98366039Y-35841370D01*
X98303218Y-35810787D01*
X98299025Y-35806785D01*
X97734867Y-35242627D01*
X97681465Y-35309592D01*
X97546761Y-35542906D01*
X97448337Y-35793686D01*
X97448331Y-35793705D01*
X97388385Y-36056349D01*
X97388384Y-36056354D01*
X97368253Y-36324995D01*
X97368253Y-36325004D01*
X89987540Y-36325004D01*
X89987540Y-36324995D01*
X89967408Y-36056354D01*
X89967407Y-36056349D01*
X89907461Y-35793705D01*
X89907455Y-35793686D01*
X89809031Y-35542906D01*
X89809032Y-35542906D01*
X89674328Y-35309593D01*
X89620924Y-35242627D01*
X89056164Y-35807387D01*
X88994841Y-35840872D01*
X88925149Y-35835888D01*
X88873975Y-35799982D01*
X88783368Y-35693311D01*
X88762331Y-35677319D01*
X88714512Y-35640968D01*
X88673056Y-35584728D01*
X88668586Y-35515001D01*
X88701873Y-35454572D01*
X89268351Y-34888095D01*
X89086270Y-34763955D01*
X89086266Y-34763953D01*
X88843542Y-34647063D01*
X88586104Y-34567653D01*
X88586098Y-34567651D01*
X88319711Y-34527500D01*
X88050288Y-34527500D01*
X87783901Y-34567651D01*
X87783895Y-34567653D01*
X87526457Y-34647063D01*
X87283730Y-34763954D01*
X87283722Y-34763959D01*
X87101647Y-34888094D01*
X87664604Y-35451051D01*
X87698089Y-35512374D01*
X87693105Y-35582066D01*
X87662198Y-35628755D01*
X87521843Y-35761706D01*
X87503544Y-35788695D01*
X87449628Y-35833134D01*
X87380246Y-35841370D01*
X87317425Y-35810787D01*
X87313232Y-35806785D01*
X86749074Y-35242627D01*
X86695672Y-35309592D01*
X86560968Y-35542906D01*
X86462544Y-35793686D01*
X86462538Y-35793705D01*
X86402592Y-36056349D01*
X86402591Y-36056354D01*
X86382460Y-36324995D01*
X86382460Y-36325004D01*
X82527540Y-36325004D01*
X82527540Y-36324995D01*
X82507408Y-36056354D01*
X82507407Y-36056349D01*
X82447461Y-35793705D01*
X82447455Y-35793686D01*
X82349031Y-35542906D01*
X82349032Y-35542906D01*
X82214328Y-35309593D01*
X82160924Y-35242627D01*
X81596164Y-35807387D01*
X81534841Y-35840872D01*
X81465149Y-35835888D01*
X81413975Y-35799982D01*
X81323368Y-35693311D01*
X81302331Y-35677319D01*
X81254512Y-35640968D01*
X81213056Y-35584728D01*
X81208586Y-35515001D01*
X81241873Y-35454572D01*
X81808351Y-34888095D01*
X81626270Y-34763955D01*
X81626266Y-34763953D01*
X81383542Y-34647063D01*
X81126104Y-34567653D01*
X81126098Y-34567651D01*
X80859711Y-34527500D01*
X80590288Y-34527500D01*
X80323901Y-34567651D01*
X80323895Y-34567653D01*
X80066457Y-34647063D01*
X79823730Y-34763954D01*
X79823722Y-34763959D01*
X79641647Y-34888094D01*
X80204604Y-35451051D01*
X80238089Y-35512374D01*
X80233105Y-35582066D01*
X80202198Y-35628755D01*
X80061843Y-35761706D01*
X80043544Y-35788695D01*
X79989628Y-35833134D01*
X79920246Y-35841370D01*
X79857425Y-35810787D01*
X79853232Y-35806785D01*
X79289074Y-35242627D01*
X79235672Y-35309592D01*
X79100968Y-35542906D01*
X79002544Y-35793686D01*
X79002538Y-35793705D01*
X78942592Y-36056349D01*
X78942591Y-36056354D01*
X78922460Y-36324995D01*
X78922460Y-36325004D01*
X76000000Y-36325004D01*
X76000000Y-34165001D01*
X83147023Y-34165001D01*
X83166893Y-34392122D01*
X83166894Y-34392129D01*
X83225902Y-34612349D01*
X83225903Y-34612351D01*
X83225904Y-34612354D01*
X83296596Y-34763954D01*
X83322259Y-34818989D01*
X83322261Y-34818993D01*
X83453027Y-35005746D01*
X83453032Y-35005752D01*
X83614247Y-35166967D01*
X83614253Y-35166972D01*
X83801006Y-35297738D01*
X83801008Y-35297739D01*
X83801011Y-35297741D01*
X84007646Y-35394096D01*
X84227872Y-35453106D01*
X84390106Y-35467299D01*
X84454998Y-35472977D01*
X84455000Y-35472977D01*
X84455002Y-35472977D01*
X84511782Y-35468009D01*
X84682128Y-35453106D01*
X84902354Y-35394096D01*
X85108989Y-35297741D01*
X85295751Y-35166969D01*
X85456969Y-35005751D01*
X85587741Y-34818989D01*
X85684096Y-34612354D01*
X85743106Y-34392128D01*
X85762977Y-34165001D01*
X101592816Y-34165001D01*
X101612686Y-34392122D01*
X101612687Y-34392129D01*
X101671695Y-34612349D01*
X101671696Y-34612351D01*
X101671697Y-34612354D01*
X101742389Y-34763954D01*
X101768052Y-34818989D01*
X101768054Y-34818993D01*
X101898820Y-35005746D01*
X101898825Y-35005752D01*
X102060040Y-35166967D01*
X102060046Y-35166972D01*
X102246799Y-35297738D01*
X102246801Y-35297739D01*
X102246804Y-35297741D01*
X102453439Y-35394096D01*
X102673665Y-35453106D01*
X102835899Y-35467299D01*
X102900791Y-35472977D01*
X102900793Y-35472977D01*
X102900795Y-35472977D01*
X102957575Y-35468009D01*
X103127921Y-35453106D01*
X103348147Y-35394096D01*
X103554782Y-35297741D01*
X103741544Y-35166969D01*
X103902762Y-35005751D01*
X104033534Y-34818989D01*
X104129889Y-34612354D01*
X104188899Y-34392128D01*
X104204833Y-34210001D01*
X119992419Y-34210001D01*
X120012289Y-34437122D01*
X120012290Y-34437129D01*
X120071298Y-34657349D01*
X120071299Y-34657351D01*
X120071300Y-34657354D01*
X120141992Y-34808954D01*
X120167655Y-34863989D01*
X120167657Y-34863993D01*
X120298423Y-35050746D01*
X120298428Y-35050752D01*
X120459643Y-35211967D01*
X120459649Y-35211972D01*
X120646402Y-35342738D01*
X120646404Y-35342739D01*
X120646407Y-35342741D01*
X120853042Y-35439096D01*
X121073268Y-35498106D01*
X121235502Y-35512299D01*
X121300394Y-35517977D01*
X121300396Y-35517977D01*
X121300398Y-35517977D01*
X121364439Y-35512374D01*
X121527524Y-35498106D01*
X121747750Y-35439096D01*
X121954385Y-35342741D01*
X122141147Y-35211969D01*
X122302365Y-35050751D01*
X122433137Y-34863989D01*
X122529492Y-34657354D01*
X122588502Y-34437128D01*
X122608373Y-34210000D01*
X122604436Y-34165001D01*
X138392023Y-34165001D01*
X138411893Y-34392122D01*
X138411894Y-34392129D01*
X138470902Y-34612349D01*
X138470903Y-34612351D01*
X138470904Y-34612354D01*
X138541596Y-34763954D01*
X138567259Y-34818989D01*
X138567261Y-34818993D01*
X138698027Y-35005746D01*
X138698032Y-35005752D01*
X138859247Y-35166967D01*
X138859253Y-35166972D01*
X139046006Y-35297738D01*
X139046008Y-35297739D01*
X139046011Y-35297741D01*
X139252646Y-35394096D01*
X139472872Y-35453106D01*
X139635106Y-35467299D01*
X139699998Y-35472977D01*
X139700000Y-35472977D01*
X139700002Y-35472977D01*
X139756782Y-35468009D01*
X139927128Y-35453106D01*
X140147354Y-35394096D01*
X140353989Y-35297741D01*
X140540751Y-35166969D01*
X140701969Y-35005751D01*
X140832741Y-34818989D01*
X140929096Y-34612354D01*
X140988106Y-34392128D01*
X141007977Y-34165000D01*
X140988106Y-33937872D01*
X140929096Y-33717646D01*
X140832741Y-33511012D01*
X140701969Y-33324249D01*
X140540751Y-33163031D01*
X140540747Y-33163028D01*
X140540746Y-33163027D01*
X140353993Y-33032261D01*
X140353989Y-33032259D01*
X140243857Y-32980904D01*
X140147354Y-32935904D01*
X140147351Y-32935903D01*
X140147349Y-32935902D01*
X139927129Y-32876894D01*
X139927122Y-32876893D01*
X139700002Y-32857023D01*
X139699998Y-32857023D01*
X139472877Y-32876893D01*
X139472870Y-32876894D01*
X139252642Y-32935905D01*
X139046013Y-33032258D01*
X139046011Y-33032259D01*
X138859246Y-33163032D01*
X138698032Y-33324246D01*
X138567259Y-33511011D01*
X138567258Y-33511013D01*
X138470905Y-33717642D01*
X138411894Y-33937870D01*
X138411893Y-33937877D01*
X138392023Y-34164998D01*
X138392023Y-34165001D01*
X122604436Y-34165001D01*
X122588502Y-33982872D01*
X122529492Y-33762646D01*
X122433137Y-33556012D01*
X122302365Y-33369249D01*
X122141147Y-33208031D01*
X122141143Y-33208028D01*
X122141142Y-33208027D01*
X121954389Y-33077261D01*
X121954385Y-33077259D01*
X121954383Y-33077258D01*
X121747750Y-32980904D01*
X121747747Y-32980903D01*
X121747745Y-32980902D01*
X121527525Y-32921894D01*
X121527518Y-32921893D01*
X121300398Y-32902023D01*
X121300394Y-32902023D01*
X121073273Y-32921893D01*
X121073266Y-32921894D01*
X120853038Y-32980905D01*
X120646409Y-33077258D01*
X120646407Y-33077259D01*
X120459642Y-33208032D01*
X120298428Y-33369246D01*
X120167655Y-33556011D01*
X120167654Y-33556013D01*
X120071301Y-33762642D01*
X120012290Y-33982870D01*
X120012289Y-33982877D01*
X119992419Y-34209998D01*
X119992419Y-34210001D01*
X104204833Y-34210001D01*
X104208770Y-34165000D01*
X104188899Y-33937872D01*
X104129889Y-33717646D01*
X104033534Y-33511012D01*
X103902762Y-33324249D01*
X103741544Y-33163031D01*
X103741540Y-33163028D01*
X103741539Y-33163027D01*
X103554786Y-33032261D01*
X103554782Y-33032259D01*
X103444650Y-32980904D01*
X103348147Y-32935904D01*
X103348144Y-32935903D01*
X103348142Y-32935902D01*
X103127922Y-32876894D01*
X103127915Y-32876893D01*
X102900795Y-32857023D01*
X102900791Y-32857023D01*
X102673670Y-32876893D01*
X102673663Y-32876894D01*
X102453435Y-32935905D01*
X102246806Y-33032258D01*
X102246804Y-33032259D01*
X102060039Y-33163032D01*
X101898825Y-33324246D01*
X101768052Y-33511011D01*
X101768051Y-33511013D01*
X101671698Y-33717642D01*
X101612687Y-33937870D01*
X101612686Y-33937877D01*
X101592816Y-34164998D01*
X101592816Y-34165001D01*
X85762977Y-34165001D01*
X85762977Y-34165000D01*
X85743106Y-33937872D01*
X85684096Y-33717646D01*
X85587741Y-33511012D01*
X85456969Y-33324249D01*
X85295751Y-33163031D01*
X85295747Y-33163028D01*
X85295746Y-33163027D01*
X85108993Y-33032261D01*
X85108989Y-33032259D01*
X84998857Y-32980904D01*
X84902354Y-32935904D01*
X84902351Y-32935903D01*
X84902349Y-32935902D01*
X84682129Y-32876894D01*
X84682122Y-32876893D01*
X84455002Y-32857023D01*
X84454998Y-32857023D01*
X84227877Y-32876893D01*
X84227870Y-32876894D01*
X84007642Y-32935905D01*
X83801013Y-33032258D01*
X83801011Y-33032259D01*
X83614246Y-33163032D01*
X83453032Y-33324246D01*
X83322259Y-33511011D01*
X83322258Y-33511013D01*
X83225905Y-33717642D01*
X83166894Y-33937870D01*
X83166893Y-33937877D01*
X83147023Y-34164998D01*
X83147023Y-34165001D01*
X76000000Y-34165001D01*
X76000000Y-29845004D01*
X82652460Y-29845004D01*
X82672591Y-30113645D01*
X82672592Y-30113650D01*
X82732538Y-30376294D01*
X82732544Y-30376313D01*
X82830968Y-30627093D01*
X82830967Y-30627093D01*
X82965671Y-30860406D01*
X83019073Y-30927372D01*
X83583834Y-30362611D01*
X83645157Y-30329126D01*
X83714848Y-30334110D01*
X83766023Y-30370016D01*
X83856631Y-30476688D01*
X83856632Y-30476689D01*
X83925486Y-30529030D01*
X83966942Y-30585270D01*
X83971412Y-30654996D01*
X83938125Y-30715426D01*
X83371647Y-31281903D01*
X83553729Y-31406044D01*
X83553733Y-31406046D01*
X83796457Y-31522936D01*
X84053895Y-31602346D01*
X84053901Y-31602348D01*
X84320288Y-31642499D01*
X84320297Y-31642500D01*
X84589703Y-31642500D01*
X84589711Y-31642499D01*
X84856098Y-31602348D01*
X84856104Y-31602346D01*
X85113542Y-31522936D01*
X85356265Y-31406047D01*
X85538351Y-31281903D01*
X84975395Y-30718948D01*
X84941910Y-30657625D01*
X84946894Y-30587934D01*
X84977802Y-30541243D01*
X84981561Y-30537682D01*
X84981563Y-30537681D01*
X85118158Y-30408291D01*
X85136452Y-30381308D01*
X85190364Y-30336868D01*
X85259746Y-30328628D01*
X85322569Y-30359208D01*
X85326767Y-30363214D01*
X85890925Y-30927372D01*
X85944327Y-30860406D01*
X86079031Y-30627093D01*
X86177455Y-30376313D01*
X86177461Y-30376294D01*
X86237407Y-30113650D01*
X86237408Y-30113645D01*
X86257540Y-29845004D01*
X101098253Y-29845004D01*
X101118384Y-30113645D01*
X101118385Y-30113650D01*
X101178331Y-30376294D01*
X101178337Y-30376313D01*
X101276761Y-30627093D01*
X101276760Y-30627093D01*
X101411464Y-30860406D01*
X101464866Y-30927372D01*
X102029627Y-30362611D01*
X102090950Y-30329126D01*
X102160641Y-30334110D01*
X102211816Y-30370016D01*
X102302424Y-30476688D01*
X102302425Y-30476689D01*
X102371279Y-30529030D01*
X102412735Y-30585270D01*
X102417205Y-30654996D01*
X102383918Y-30715426D01*
X101817440Y-31281903D01*
X101999522Y-31406044D01*
X101999526Y-31406046D01*
X102242250Y-31522936D01*
X102499688Y-31602346D01*
X102499694Y-31602348D01*
X102766081Y-31642499D01*
X102766090Y-31642500D01*
X103035496Y-31642500D01*
X103035504Y-31642499D01*
X103301891Y-31602348D01*
X103301897Y-31602346D01*
X103559335Y-31522936D01*
X103802058Y-31406047D01*
X103984144Y-31281903D01*
X103421188Y-30718948D01*
X103387703Y-30657625D01*
X103392687Y-30587934D01*
X103423595Y-30541243D01*
X103427354Y-30537682D01*
X103427356Y-30537681D01*
X103563951Y-30408291D01*
X103582245Y-30381308D01*
X103636157Y-30336868D01*
X103705539Y-30328628D01*
X103768362Y-30359208D01*
X103772560Y-30363214D01*
X104336718Y-30927372D01*
X104390120Y-30860406D01*
X104524824Y-30627093D01*
X104623248Y-30376313D01*
X104623254Y-30376294D01*
X104683200Y-30113650D01*
X104683201Y-30113645D01*
X104699961Y-29890004D01*
X119497856Y-29890004D01*
X119517987Y-30158645D01*
X119517988Y-30158650D01*
X119577934Y-30421294D01*
X119577940Y-30421313D01*
X119676364Y-30672093D01*
X119676363Y-30672093D01*
X119811067Y-30905406D01*
X119864469Y-30972372D01*
X120429230Y-30407611D01*
X120490553Y-30374126D01*
X120560244Y-30379110D01*
X120611419Y-30415016D01*
X120702028Y-30521689D01*
X120770882Y-30574030D01*
X120812338Y-30630270D01*
X120816808Y-30699996D01*
X120783521Y-30760426D01*
X120217043Y-31326903D01*
X120399125Y-31451044D01*
X120399129Y-31451046D01*
X120641853Y-31567936D01*
X120899291Y-31647346D01*
X120899297Y-31647348D01*
X121165684Y-31687499D01*
X121165693Y-31687500D01*
X121435099Y-31687500D01*
X121435107Y-31687499D01*
X121701494Y-31647348D01*
X121701500Y-31647346D01*
X121958938Y-31567936D01*
X122201661Y-31451047D01*
X122383747Y-31326903D01*
X121820791Y-30763948D01*
X121787306Y-30702625D01*
X121792290Y-30632934D01*
X121823198Y-30586243D01*
X121826957Y-30582682D01*
X121826959Y-30582681D01*
X121963554Y-30453291D01*
X121981848Y-30426308D01*
X122035760Y-30381868D01*
X122105142Y-30373628D01*
X122167965Y-30404208D01*
X122172163Y-30408214D01*
X122736321Y-30972372D01*
X122789723Y-30905406D01*
X122924427Y-30672093D01*
X123022851Y-30421313D01*
X123022857Y-30421294D01*
X123082803Y-30158650D01*
X123082804Y-30158645D01*
X123102936Y-29890004D01*
X123102936Y-29889995D01*
X123099564Y-29845004D01*
X137897460Y-29845004D01*
X137917591Y-30113645D01*
X137917592Y-30113650D01*
X137977538Y-30376294D01*
X137977544Y-30376313D01*
X138075968Y-30627093D01*
X138075967Y-30627093D01*
X138210671Y-30860406D01*
X138264073Y-30927372D01*
X138828834Y-30362611D01*
X138890157Y-30329126D01*
X138959848Y-30334110D01*
X139011023Y-30370016D01*
X139101631Y-30476688D01*
X139101632Y-30476689D01*
X139170486Y-30529030D01*
X139211942Y-30585270D01*
X139216412Y-30654996D01*
X139183125Y-30715426D01*
X138616647Y-31281903D01*
X138798729Y-31406044D01*
X138798733Y-31406046D01*
X139041457Y-31522936D01*
X139298895Y-31602346D01*
X139298901Y-31602348D01*
X139565288Y-31642499D01*
X139565297Y-31642500D01*
X139834703Y-31642500D01*
X139834711Y-31642499D01*
X140101098Y-31602348D01*
X140101104Y-31602346D01*
X140358542Y-31522936D01*
X140601265Y-31406047D01*
X140783351Y-31281903D01*
X140220395Y-30718948D01*
X140186910Y-30657625D01*
X140191894Y-30587934D01*
X140222802Y-30541243D01*
X140226561Y-30537682D01*
X140226563Y-30537681D01*
X140363158Y-30408291D01*
X140381452Y-30381308D01*
X140435364Y-30336868D01*
X140504746Y-30328628D01*
X140567569Y-30359208D01*
X140571767Y-30363214D01*
X141135925Y-30927372D01*
X141189327Y-30860406D01*
X141324031Y-30627093D01*
X141422455Y-30376313D01*
X141422461Y-30376294D01*
X141482407Y-30113650D01*
X141482408Y-30113645D01*
X141502540Y-29845004D01*
X141502540Y-29844995D01*
X141482408Y-29576354D01*
X141482407Y-29576349D01*
X141422461Y-29313705D01*
X141422455Y-29313686D01*
X141324031Y-29062906D01*
X141324032Y-29062906D01*
X141189328Y-28829593D01*
X141135924Y-28762627D01*
X140571164Y-29327387D01*
X140509841Y-29360872D01*
X140440149Y-29355888D01*
X140388975Y-29319982D01*
X140298368Y-29213311D01*
X140277331Y-29197319D01*
X140229512Y-29160968D01*
X140188056Y-29104728D01*
X140183586Y-29035001D01*
X140216873Y-28974572D01*
X140783351Y-28408095D01*
X140601270Y-28283955D01*
X140601266Y-28283953D01*
X140358542Y-28167063D01*
X140101104Y-28087653D01*
X140101098Y-28087651D01*
X139834711Y-28047500D01*
X139565288Y-28047500D01*
X139298901Y-28087651D01*
X139298895Y-28087653D01*
X139041457Y-28167063D01*
X138798730Y-28283954D01*
X138798722Y-28283959D01*
X138616647Y-28408094D01*
X139179604Y-28971051D01*
X139213089Y-29032374D01*
X139208105Y-29102066D01*
X139177198Y-29148755D01*
X139036843Y-29281706D01*
X139018544Y-29308695D01*
X138964628Y-29353134D01*
X138895246Y-29361370D01*
X138832425Y-29330787D01*
X138828232Y-29326785D01*
X138264074Y-28762627D01*
X138210672Y-28829592D01*
X138075968Y-29062906D01*
X137977544Y-29313686D01*
X137977538Y-29313705D01*
X137917592Y-29576349D01*
X137917591Y-29576354D01*
X137897460Y-29844995D01*
X137897460Y-29845004D01*
X123099564Y-29845004D01*
X123082804Y-29621354D01*
X123082803Y-29621349D01*
X123022857Y-29358705D01*
X123022851Y-29358686D01*
X122924427Y-29107906D01*
X122924428Y-29107906D01*
X122789724Y-28874593D01*
X122736320Y-28807627D01*
X122171560Y-29372387D01*
X122110237Y-29405872D01*
X122040545Y-29400888D01*
X121989371Y-29364982D01*
X121941560Y-29308695D01*
X121898764Y-29258311D01*
X121829908Y-29205968D01*
X121788452Y-29149728D01*
X121783982Y-29080001D01*
X121817269Y-29019572D01*
X122383747Y-28453095D01*
X122201666Y-28328955D01*
X122201662Y-28328953D01*
X121958938Y-28212063D01*
X121701500Y-28132653D01*
X121701494Y-28132651D01*
X121435107Y-28092500D01*
X121165684Y-28092500D01*
X120899297Y-28132651D01*
X120899291Y-28132653D01*
X120641853Y-28212063D01*
X120399126Y-28328954D01*
X120399118Y-28328959D01*
X120217043Y-28453094D01*
X120780000Y-29016051D01*
X120813485Y-29077374D01*
X120808501Y-29147066D01*
X120777594Y-29193755D01*
X120637239Y-29326706D01*
X120618940Y-29353695D01*
X120565024Y-29398134D01*
X120495642Y-29406370D01*
X120432821Y-29375787D01*
X120428628Y-29371785D01*
X119864470Y-28807627D01*
X119811068Y-28874592D01*
X119676364Y-29107906D01*
X119577940Y-29358686D01*
X119577934Y-29358705D01*
X119517988Y-29621349D01*
X119517987Y-29621354D01*
X119497856Y-29889995D01*
X119497856Y-29890004D01*
X104699961Y-29890004D01*
X104703333Y-29845004D01*
X104703333Y-29844995D01*
X104683201Y-29576354D01*
X104683200Y-29576349D01*
X104623254Y-29313705D01*
X104623248Y-29313686D01*
X104524824Y-29062906D01*
X104524825Y-29062906D01*
X104390121Y-28829593D01*
X104336717Y-28762627D01*
X103771957Y-29327387D01*
X103710634Y-29360872D01*
X103640942Y-29355888D01*
X103589768Y-29319982D01*
X103499161Y-29213311D01*
X103478124Y-29197319D01*
X103430305Y-29160968D01*
X103388849Y-29104728D01*
X103384379Y-29035001D01*
X103417666Y-28974572D01*
X103984144Y-28408095D01*
X103802063Y-28283955D01*
X103802059Y-28283953D01*
X103559335Y-28167063D01*
X103301897Y-28087653D01*
X103301891Y-28087651D01*
X103035504Y-28047500D01*
X102766081Y-28047500D01*
X102499694Y-28087651D01*
X102499688Y-28087653D01*
X102242250Y-28167063D01*
X101999523Y-28283954D01*
X101999515Y-28283959D01*
X101817440Y-28408094D01*
X102380397Y-28971051D01*
X102413882Y-29032374D01*
X102408898Y-29102066D01*
X102377991Y-29148755D01*
X102237636Y-29281706D01*
X102219337Y-29308695D01*
X102165421Y-29353134D01*
X102096039Y-29361370D01*
X102033218Y-29330787D01*
X102029025Y-29326785D01*
X101464867Y-28762627D01*
X101411465Y-28829592D01*
X101276761Y-29062906D01*
X101178337Y-29313686D01*
X101178331Y-29313705D01*
X101118385Y-29576349D01*
X101118384Y-29576354D01*
X101098253Y-29844995D01*
X101098253Y-29845004D01*
X86257540Y-29845004D01*
X86257540Y-29844995D01*
X86237408Y-29576354D01*
X86237407Y-29576349D01*
X86177461Y-29313705D01*
X86177455Y-29313686D01*
X86079031Y-29062906D01*
X86079032Y-29062906D01*
X85944328Y-28829593D01*
X85890924Y-28762627D01*
X85326164Y-29327387D01*
X85264841Y-29360872D01*
X85195149Y-29355888D01*
X85143975Y-29319982D01*
X85053368Y-29213311D01*
X85032331Y-29197319D01*
X84984512Y-29160968D01*
X84943056Y-29104728D01*
X84938586Y-29035001D01*
X84971873Y-28974572D01*
X85538351Y-28408095D01*
X85356270Y-28283955D01*
X85356266Y-28283953D01*
X85113542Y-28167063D01*
X84856104Y-28087653D01*
X84856098Y-28087651D01*
X84589711Y-28047500D01*
X84320288Y-28047500D01*
X84053901Y-28087651D01*
X84053895Y-28087653D01*
X83796457Y-28167063D01*
X83553730Y-28283954D01*
X83553722Y-28283959D01*
X83371647Y-28408094D01*
X83934604Y-28971051D01*
X83968089Y-29032374D01*
X83963105Y-29102066D01*
X83932198Y-29148755D01*
X83791843Y-29281706D01*
X83773544Y-29308695D01*
X83719628Y-29353134D01*
X83650246Y-29361370D01*
X83587425Y-29330787D01*
X83583232Y-29326785D01*
X83019074Y-28762627D01*
X82965672Y-28829592D01*
X82830968Y-29062906D01*
X82732544Y-29313686D01*
X82732538Y-29313705D01*
X82672592Y-29576349D01*
X82672591Y-29576354D01*
X82652460Y-29844995D01*
X82652460Y-29845004D01*
X76000000Y-29845004D01*
X76000000Y-27373760D01*
X76000191Y-27368894D01*
X76017701Y-27146397D01*
X76020743Y-27127185D01*
X76071139Y-26917273D01*
X76077145Y-26898788D01*
X76159757Y-26699346D01*
X76168590Y-26682012D01*
X76281375Y-26497964D01*
X76292811Y-26482223D01*
X76437770Y-26312497D01*
X76441053Y-26308946D01*
X76808946Y-25941053D01*
X76812497Y-25937770D01*
X76982226Y-25792808D01*
X76997964Y-25781375D01*
X77182015Y-25668588D01*
X77199346Y-25659757D01*
X77398788Y-25577145D01*
X77417273Y-25571139D01*
X77627185Y-25520743D01*
X77646391Y-25517701D01*
X77834662Y-25502884D01*
X77868894Y-25500191D01*
X77873760Y-25500000D01*
X147626240Y-25500000D01*
X147631106Y-25500191D01*
G37*
G04 #@! TD.AperFunction*
M02*
