%TF.GenerationSoftware,KiCad,Pcbnew,7.0.7*%
%TF.CreationDate,2024-05-07T13:52:26+01:00*%
%TF.ProjectId,QA403 Impedance Fixture,51413430-3320-4496-9d70-6564616e6365,rev?*%
%TF.SameCoordinates,Original*%
%TF.FileFunction,Drillmap*%
%TF.FilePolarity,Positive*%
%FSLAX45Y45*%
G04 Gerber Fmt 4.5, Leading zero omitted, Abs format (unit mm)*
G04 Created by KiCad (PCBNEW 7.0.7) date 2024-05-07 13:52:26*
%MOMM*%
%LPD*%
G01*
G04 APERTURE LIST*
%ADD10C,0.100000*%
%ADD11C,0.200000*%
G04 APERTURE END LIST*
D10*
X7850000Y-2500000D02*
G75*
G03*
X7550000Y-2800000I0J-300000D01*
G01*
X15000000Y-2800000D02*
G75*
G03*
X14700000Y-2500000I-300000J0D01*
G01*
X7550000Y-6600000D02*
X7550000Y-2800000D01*
X7850000Y-2500000D02*
X14700000Y-2500000D01*
X15000000Y-2800000D02*
X15000000Y-6600000D01*
X14700000Y-6900000D02*
X7850000Y-6900000D01*
X7550000Y-6600000D02*
G75*
G03*
X7850000Y-6900000I300000J0D01*
G01*
X14700000Y-6900000D02*
G75*
G03*
X15000000Y-6600000I0J300000D01*
G01*
D11*
X7805777Y-7216484D02*
X7805777Y-7016484D01*
X7805777Y-7016484D02*
X7853396Y-7016484D01*
X7853396Y-7016484D02*
X7881967Y-7026008D01*
X7881967Y-7026008D02*
X7901015Y-7045055D01*
X7901015Y-7045055D02*
X7910539Y-7064103D01*
X7910539Y-7064103D02*
X7920062Y-7102198D01*
X7920062Y-7102198D02*
X7920062Y-7130769D01*
X7920062Y-7130769D02*
X7910539Y-7168865D01*
X7910539Y-7168865D02*
X7901015Y-7187912D01*
X7901015Y-7187912D02*
X7881967Y-7206960D01*
X7881967Y-7206960D02*
X7853396Y-7216484D01*
X7853396Y-7216484D02*
X7805777Y-7216484D01*
X8005777Y-7216484D02*
X8005777Y-7083150D01*
X8005777Y-7121246D02*
X8015301Y-7102198D01*
X8015301Y-7102198D02*
X8024824Y-7092674D01*
X8024824Y-7092674D02*
X8043872Y-7083150D01*
X8043872Y-7083150D02*
X8062920Y-7083150D01*
X8129586Y-7216484D02*
X8129586Y-7083150D01*
X8129586Y-7016484D02*
X8120062Y-7026008D01*
X8120062Y-7026008D02*
X8129586Y-7035531D01*
X8129586Y-7035531D02*
X8139110Y-7026008D01*
X8139110Y-7026008D02*
X8129586Y-7016484D01*
X8129586Y-7016484D02*
X8129586Y-7035531D01*
X8253396Y-7216484D02*
X8234348Y-7206960D01*
X8234348Y-7206960D02*
X8224824Y-7187912D01*
X8224824Y-7187912D02*
X8224824Y-7016484D01*
X8358158Y-7216484D02*
X8339110Y-7206960D01*
X8339110Y-7206960D02*
X8329586Y-7187912D01*
X8329586Y-7187912D02*
X8329586Y-7016484D01*
X8586729Y-7216484D02*
X8586729Y-7016484D01*
X8586729Y-7016484D02*
X8653396Y-7159341D01*
X8653396Y-7159341D02*
X8720063Y-7016484D01*
X8720063Y-7016484D02*
X8720063Y-7216484D01*
X8901015Y-7216484D02*
X8901015Y-7111722D01*
X8901015Y-7111722D02*
X8891491Y-7092674D01*
X8891491Y-7092674D02*
X8872444Y-7083150D01*
X8872444Y-7083150D02*
X8834348Y-7083150D01*
X8834348Y-7083150D02*
X8815301Y-7092674D01*
X8901015Y-7206960D02*
X8881967Y-7216484D01*
X8881967Y-7216484D02*
X8834348Y-7216484D01*
X8834348Y-7216484D02*
X8815301Y-7206960D01*
X8815301Y-7206960D02*
X8805777Y-7187912D01*
X8805777Y-7187912D02*
X8805777Y-7168865D01*
X8805777Y-7168865D02*
X8815301Y-7149817D01*
X8815301Y-7149817D02*
X8834348Y-7140293D01*
X8834348Y-7140293D02*
X8881967Y-7140293D01*
X8881967Y-7140293D02*
X8901015Y-7130769D01*
X8996253Y-7083150D02*
X8996253Y-7283150D01*
X8996253Y-7092674D02*
X9015301Y-7083150D01*
X9015301Y-7083150D02*
X9053396Y-7083150D01*
X9053396Y-7083150D02*
X9072444Y-7092674D01*
X9072444Y-7092674D02*
X9081967Y-7102198D01*
X9081967Y-7102198D02*
X9091491Y-7121246D01*
X9091491Y-7121246D02*
X9091491Y-7178388D01*
X9091491Y-7178388D02*
X9081967Y-7197436D01*
X9081967Y-7197436D02*
X9072444Y-7206960D01*
X9072444Y-7206960D02*
X9053396Y-7216484D01*
X9053396Y-7216484D02*
X9015301Y-7216484D01*
X9015301Y-7216484D02*
X8996253Y-7206960D01*
X9177205Y-7197436D02*
X9186729Y-7206960D01*
X9186729Y-7206960D02*
X9177205Y-7216484D01*
X9177205Y-7216484D02*
X9167682Y-7206960D01*
X9167682Y-7206960D02*
X9177205Y-7197436D01*
X9177205Y-7197436D02*
X9177205Y-7216484D01*
X9177205Y-7092674D02*
X9186729Y-7102198D01*
X9186729Y-7102198D02*
X9177205Y-7111722D01*
X9177205Y-7111722D02*
X9167682Y-7102198D01*
X9167682Y-7102198D02*
X9177205Y-7092674D01*
X9177205Y-7092674D02*
X9177205Y-7111722D01*
M02*
