G04 #@! TF.GenerationSoftware,KiCad,Pcbnew,7.0.7*
G04 #@! TF.CreationDate,2024-05-07T13:52:07+01:00*
G04 #@! TF.ProjectId,QA403 Impedance Fixture,51413430-3320-4496-9d70-6564616e6365,rev?*
G04 #@! TF.SameCoordinates,Original*
G04 #@! TF.FileFunction,Legend,Top*
G04 #@! TF.FilePolarity,Positive*
%FSLAX46Y46*%
G04 Gerber Fmt 4.6, Leading zero omitted, Abs format (unit mm)*
G04 Created by KiCad (PCBNEW 7.0.7) date 2024-05-07 13:52:07*
%MOMM*%
%LPD*%
G01*
G04 APERTURE LIST*
G04 Aperture macros list*
%AMRoundRect*
0 Rectangle with rounded corners*
0 $1 Rounding radius*
0 $2 $3 $4 $5 $6 $7 $8 $9 X,Y pos of 4 corners*
0 Add a 4 corners polygon primitive as box body*
4,1,4,$2,$3,$4,$5,$6,$7,$8,$9,$2,$3,0*
0 Add four circle primitives for the rounded corners*
1,1,$1+$1,$2,$3*
1,1,$1+$1,$4,$5*
1,1,$1+$1,$6,$7*
1,1,$1+$1,$8,$9*
0 Add four rect primitives between the rounded corners*
20,1,$1+$1,$2,$3,$4,$5,0*
20,1,$1+$1,$4,$5,$6,$7,0*
20,1,$1+$1,$6,$7,$8,$9,0*
20,1,$1+$1,$8,$9,$2,$3,0*%
%AMFreePoly0*
4,1,6,1.000000,0.000000,0.500000,-0.750000,-0.500000,-0.750000,-0.500000,0.750000,0.500000,0.750000,1.000000,0.000000,1.000000,0.000000,$1*%
%AMFreePoly1*
4,1,6,0.500000,-0.750000,-0.650000,-0.750000,-0.150000,0.000000,-0.650000,0.750000,0.500000,0.750000,0.500000,-0.750000,0.500000,-0.750000,$1*%
G04 Aperture macros list end*
%ADD10C,0.150000*%
%ADD11C,0.200000*%
%ADD12C,0.300000*%
%ADD13C,0.254000*%
%ADD14C,0.120000*%
%ADD15C,3.000000*%
%ADD16R,2.600000X2.600000*%
%ADD17C,2.600000*%
%ADD18RoundRect,0.250000X0.312500X0.625000X-0.312500X0.625000X-0.312500X-0.625000X0.312500X-0.625000X0*%
%ADD19RoundRect,0.250000X-0.312500X-0.625000X0.312500X-0.625000X0.312500X0.625000X-0.312500X0.625000X0*%
%ADD20C,2.400000*%
%ADD21O,2.400000X2.400000*%
%ADD22C,1.605000*%
%ADD23C,2.595000*%
%ADD24FreePoly0,0.000000*%
%ADD25FreePoly1,0.000000*%
%ADD26RoundRect,0.237500X-0.250000X-0.237500X0.250000X-0.237500X0.250000X0.237500X-0.250000X0.237500X0*%
%ADD27RoundRect,0.250000X-0.400000X-0.625000X0.400000X-0.625000X0.400000X0.625000X-0.400000X0.625000X0*%
%ADD28RoundRect,0.250000X-0.350000X-0.450000X0.350000X-0.450000X0.350000X0.450000X-0.350000X0.450000X0*%
G04 APERTURE END LIST*
D10*
X78000000Y-40600000D02*
X79650000Y-40600000D01*
X80250000Y-40600000D02*
X81900000Y-40600000D01*
X82500000Y-40600000D02*
X84150000Y-40600000D01*
X84750000Y-40600000D02*
X86400000Y-40600000D01*
X87000000Y-40600000D02*
X88650000Y-40600000D01*
X89250000Y-40600000D02*
X90900000Y-40600000D01*
X91500000Y-40600000D02*
X93150000Y-40600000D01*
X93750000Y-40600000D02*
X95400000Y-40600000D01*
X96000000Y-40600000D02*
X97650000Y-40600000D01*
X98250000Y-40600000D02*
X99900000Y-40600000D01*
X100500000Y-40600000D02*
X102150000Y-40600000D01*
X102750000Y-40600000D02*
X104400000Y-40600000D01*
X105000000Y-40600000D02*
X106650000Y-40600000D01*
X107250000Y-40600000D02*
X108900000Y-40600000D01*
X109500000Y-40600000D02*
X111150000Y-40600000D01*
X111750000Y-40600000D02*
X113400000Y-40600000D01*
X114000000Y-40600000D02*
X115650000Y-40600000D01*
X116250000Y-40600000D02*
X117900000Y-40600000D01*
X118500000Y-40600000D02*
X120150000Y-40600000D01*
X120750000Y-40600000D02*
X122400000Y-40600000D01*
X123000000Y-40600000D02*
X124650000Y-40600000D01*
X125250000Y-40600000D02*
X126900000Y-40600000D01*
X127500000Y-40600000D02*
X129150000Y-40600000D01*
X129750000Y-40600000D02*
X131400000Y-40600000D01*
X132000000Y-40600000D02*
X133650000Y-40600000D01*
X134250000Y-40600000D02*
X135900000Y-40600000D01*
X136500000Y-40600000D02*
X138150000Y-40600000D01*
X138750000Y-40600000D02*
X140400000Y-40600000D01*
X141000000Y-40600000D02*
X142650000Y-40600000D01*
X143250000Y-40600000D02*
X144900000Y-40600000D01*
X145500000Y-40600000D02*
X147150000Y-40600000D01*
X147400000Y-40600000D02*
X147400000Y-42250000D01*
X147400000Y-42850000D02*
X147400000Y-44500000D01*
X147400000Y-45100000D02*
X147400000Y-46750000D01*
X147400000Y-47350000D02*
X147400000Y-48200000D01*
X147400000Y-48200000D02*
X145750000Y-48200000D01*
X145150000Y-48200000D02*
X143500000Y-48200000D01*
X142900000Y-48200000D02*
X141250000Y-48200000D01*
X140650000Y-48200000D02*
X139000000Y-48200000D01*
X138400000Y-48200000D02*
X136750000Y-48200000D01*
X136150000Y-48200000D02*
X134500000Y-48200000D01*
X133900000Y-48200000D02*
X132250000Y-48200000D01*
X131650000Y-48200000D02*
X130000000Y-48200000D01*
X129400000Y-48200000D02*
X127750000Y-48200000D01*
X127150000Y-48200000D02*
X125500000Y-48200000D01*
X124900000Y-48200000D02*
X123250000Y-48200000D01*
X122650000Y-48200000D02*
X121000000Y-48200000D01*
X120400000Y-48200000D02*
X118750000Y-48200000D01*
X118150000Y-48200000D02*
X116500000Y-48200000D01*
X115900000Y-48200000D02*
X114250000Y-48200000D01*
X113650000Y-48200000D02*
X112000000Y-48200000D01*
X111400000Y-48200000D02*
X109750000Y-48200000D01*
X109150000Y-48200000D02*
X107500000Y-48200000D01*
X106900000Y-48200000D02*
X105250000Y-48200000D01*
X104650000Y-48200000D02*
X103000000Y-48200000D01*
X102400000Y-48200000D02*
X100750000Y-48200000D01*
X100150000Y-48200000D02*
X98500000Y-48200000D01*
X97900000Y-48200000D02*
X96250000Y-48200000D01*
X95650000Y-48200000D02*
X94000000Y-48200000D01*
X93400000Y-48200000D02*
X91750000Y-48200000D01*
X91150000Y-48200000D02*
X89500000Y-48200000D01*
X88900000Y-48200000D02*
X87250000Y-48200000D01*
X86650000Y-48200000D02*
X85000000Y-48200000D01*
X84400000Y-48200000D02*
X82750000Y-48200000D01*
X82150000Y-48200000D02*
X80500000Y-48200000D01*
X79900000Y-48200000D02*
X78250000Y-48200000D01*
X78000000Y-48200000D02*
X78000000Y-46550000D01*
X78000000Y-45950000D02*
X78000000Y-44300000D01*
X78000000Y-43700000D02*
X78000000Y-42050000D01*
X78000000Y-41450000D02*
X78000000Y-40600000D01*
D11*
X112800000Y-61600000D02*
X112800000Y-60600000D01*
D10*
X101200000Y-48600000D02*
X102850000Y-48600000D01*
X103450000Y-48600000D02*
X105100000Y-48600000D01*
X105700000Y-48600000D02*
X107350000Y-48600000D01*
X107950000Y-48600000D02*
X109600000Y-48600000D01*
X110200000Y-48600000D02*
X111850000Y-48600000D01*
X112450000Y-48600000D02*
X114100000Y-48600000D01*
X114700000Y-48600000D02*
X116350000Y-48600000D01*
X116950000Y-48600000D02*
X118600000Y-48600000D01*
X119200000Y-48600000D02*
X120850000Y-48600000D01*
X121450000Y-48600000D02*
X123100000Y-48600000D01*
X123700000Y-48600000D02*
X124200000Y-48600000D01*
X124200000Y-48600000D02*
X124200000Y-50250000D01*
X124200000Y-50850000D02*
X124200000Y-52500000D01*
X124200000Y-53100000D02*
X124200000Y-54750000D01*
X124200000Y-55350000D02*
X124200000Y-57000000D01*
X124200000Y-57600000D02*
X124200000Y-59250000D01*
X124200000Y-59850000D02*
X124200000Y-61500000D01*
X124200000Y-62100000D02*
X124200000Y-63750000D01*
X124200000Y-64200000D02*
X122550000Y-64200000D01*
X121950000Y-64200000D02*
X120300000Y-64200000D01*
X119700000Y-64200000D02*
X118050000Y-64200000D01*
X117450000Y-64200000D02*
X115800000Y-64200000D01*
X115200000Y-64200000D02*
X113550000Y-64200000D01*
X112950000Y-64200000D02*
X111300000Y-64200000D01*
X110700000Y-64200000D02*
X109050000Y-64200000D01*
X108450000Y-64200000D02*
X106800000Y-64200000D01*
X106200000Y-64200000D02*
X104550000Y-64200000D01*
X103950000Y-64200000D02*
X102300000Y-64200000D01*
X101700000Y-64200000D02*
X101200000Y-64200000D01*
X101200000Y-64200000D02*
X101200000Y-62550000D01*
X101200000Y-61950000D02*
X101200000Y-60300000D01*
X101200000Y-59700000D02*
X101200000Y-58050000D01*
X101200000Y-57450000D02*
X101200000Y-55800000D01*
X101200000Y-55200000D02*
X101200000Y-53550000D01*
X101200000Y-52950000D02*
X101200000Y-51300000D01*
X101200000Y-50700000D02*
X101200000Y-49050000D01*
G36*
X110675935Y-29009438D02*
G01*
X110753962Y-29087465D01*
X110840074Y-29259690D01*
X110931077Y-29623700D01*
X110931077Y-30081423D01*
X110840074Y-30445433D01*
X110753962Y-30617657D01*
X110675935Y-30695684D01*
X110512182Y-30777561D01*
X110357115Y-30777561D01*
X110193361Y-30695684D01*
X110115335Y-30617657D01*
X110029222Y-30445432D01*
X109938220Y-30081423D01*
X109938220Y-29623700D01*
X110029222Y-29259690D01*
X110115335Y-29087465D01*
X110193361Y-29009438D01*
X110357115Y-28927561D01*
X110512182Y-28927561D01*
X110675935Y-29009438D01*
G37*
G36*
X116390221Y-29009438D02*
G01*
X116557402Y-29176619D01*
X116645363Y-29528462D01*
X116645363Y-30176660D01*
X116557402Y-30528503D01*
X116390222Y-30695683D01*
X116226468Y-30777561D01*
X115880925Y-30777561D01*
X115717171Y-30695684D01*
X115549990Y-30528503D01*
X115462030Y-30176660D01*
X115462030Y-29528462D01*
X115549990Y-29176619D01*
X115672744Y-29053865D01*
X115905425Y-29286547D01*
X115906906Y-29287238D01*
X115924917Y-29300596D01*
X116115395Y-29395834D01*
X116119847Y-29396346D01*
X116123283Y-29399229D01*
X116148935Y-29403752D01*
X116339411Y-29403752D01*
X116387620Y-29386205D01*
X116413272Y-29341776D01*
X116404363Y-29291252D01*
X116365063Y-29258275D01*
X116339411Y-29253752D01*
X116166640Y-29253752D01*
X116002884Y-29171874D01*
X115799356Y-28968346D01*
X115880925Y-28927561D01*
X116226468Y-28927561D01*
X116390221Y-29009438D01*
G37*
G36*
X114148934Y-30615390D02*
G01*
X113776801Y-29498990D01*
X114521068Y-29498990D01*
X114148934Y-30615390D01*
G37*
G36*
X117081077Y-31306991D02*
G01*
X107597744Y-31306991D01*
X107597744Y-29709704D01*
X107883458Y-29709704D01*
X107884991Y-29713917D01*
X107883950Y-29718278D01*
X107891376Y-29743245D01*
X107986614Y-29933721D01*
X107987800Y-29934844D01*
X108000663Y-29953213D01*
X108095901Y-30048452D01*
X108097383Y-30049143D01*
X108115393Y-30062501D01*
X108305869Y-30157739D01*
X108310322Y-30158251D01*
X108313758Y-30161134D01*
X108339410Y-30165657D01*
X108459841Y-30165657D01*
X107902015Y-30803173D01*
X107894708Y-30822024D01*
X107884597Y-30839537D01*
X107885636Y-30845430D01*
X107883474Y-30851009D01*
X107889994Y-30870148D01*
X107893506Y-30890061D01*
X107898089Y-30893906D01*
X107900019Y-30899571D01*
X107917317Y-30910041D01*
X107932806Y-30923038D01*
X107941249Y-30924526D01*
X107943908Y-30926136D01*
X107947349Y-30925602D01*
X107958458Y-30927561D01*
X109196553Y-30927561D01*
X109244762Y-30910014D01*
X109270414Y-30865585D01*
X109261505Y-30815061D01*
X109222205Y-30782084D01*
X109196553Y-30777561D01*
X108123741Y-30777561D01*
X108681568Y-30140045D01*
X108688873Y-30121195D01*
X108698986Y-30103681D01*
X108697946Y-30097786D01*
X108700108Y-30092210D01*
X108699579Y-30090657D01*
X109788220Y-30090657D01*
X109789405Y-30093914D01*
X109790459Y-30108847D01*
X109885697Y-30489799D01*
X109887685Y-30492743D01*
X109891376Y-30505150D01*
X109986614Y-30695626D01*
X109987803Y-30696752D01*
X110000663Y-30715118D01*
X110095901Y-30810356D01*
X110097382Y-30811046D01*
X110115393Y-30824405D01*
X110305869Y-30919643D01*
X110310322Y-30920155D01*
X110313758Y-30923038D01*
X110339410Y-30927561D01*
X110529887Y-30927561D01*
X110534100Y-30926027D01*
X110538461Y-30927069D01*
X110563428Y-30919643D01*
X110753904Y-30824405D01*
X110755030Y-30823215D01*
X110773396Y-30810356D01*
X110868634Y-30715118D01*
X110869324Y-30713636D01*
X110882683Y-30695626D01*
X110977921Y-30505150D01*
X110978327Y-30501621D01*
X110983600Y-30489799D01*
X111078838Y-30108847D01*
X111078477Y-30105398D01*
X111081077Y-30090657D01*
X111081077Y-29614466D01*
X111079891Y-29611208D01*
X111078838Y-29596276D01*
X111056320Y-29506204D01*
X111598883Y-29506204D01*
X111607792Y-29556728D01*
X111647092Y-29589705D01*
X111672744Y-29594228D01*
X111883458Y-29594228D01*
X111883458Y-30185895D01*
X111901005Y-30234104D01*
X111945434Y-30259756D01*
X111995958Y-30250847D01*
X112028935Y-30211547D01*
X112033458Y-30185895D01*
X112033458Y-29594228D01*
X112806782Y-29594228D01*
X112363498Y-30924083D01*
X112364899Y-30975367D01*
X112398936Y-31013752D01*
X112449685Y-31021277D01*
X112493397Y-30994422D01*
X112505800Y-30971517D01*
X112981990Y-29542945D01*
X112981833Y-29537216D01*
X112984700Y-29532252D01*
X112981147Y-29512105D01*
X112980589Y-29491661D01*
X112976786Y-29487372D01*
X112975791Y-29481728D01*
X112960123Y-29468581D01*
X112946552Y-29453276D01*
X112940881Y-29452435D01*
X112936491Y-29448751D01*
X112910839Y-29444228D01*
X112033458Y-29444228D01*
X112033458Y-28852561D01*
X112032712Y-28850512D01*
X113407296Y-28850512D01*
X113411117Y-28876278D01*
X114077784Y-30876278D01*
X114079126Y-30877969D01*
X114079185Y-30880128D01*
X114094934Y-30897889D01*
X114109675Y-30916464D01*
X114111788Y-30916896D01*
X114113222Y-30918513D01*
X114136692Y-30921993D01*
X114159936Y-30926750D01*
X114161835Y-30925721D01*
X114163971Y-30926038D01*
X114184184Y-30913619D01*
X114205050Y-30902321D01*
X114205843Y-30900313D01*
X114207683Y-30899183D01*
X114220086Y-30876278D01*
X114886752Y-28876278D01*
X114885351Y-28824994D01*
X114851314Y-28786609D01*
X114800565Y-28779083D01*
X114756853Y-28805939D01*
X114744450Y-28828844D01*
X114571068Y-29348990D01*
X113726801Y-29348990D01*
X113553419Y-28828844D01*
X113521528Y-28788658D01*
X113471267Y-28778372D01*
X113426153Y-28802801D01*
X113407296Y-28850512D01*
X112032712Y-28850512D01*
X112015911Y-28804352D01*
X111971482Y-28778700D01*
X111920958Y-28787609D01*
X111887981Y-28826909D01*
X111883458Y-28852561D01*
X111883458Y-29444228D01*
X111672744Y-29444228D01*
X111624535Y-29461775D01*
X111598883Y-29506204D01*
X111056320Y-29506204D01*
X110983600Y-29215324D01*
X110981611Y-29212380D01*
X110977921Y-29199973D01*
X110882683Y-29009497D01*
X110881496Y-29008373D01*
X110868634Y-28990005D01*
X110773396Y-28894767D01*
X110771911Y-28894074D01*
X110753904Y-28880718D01*
X110563428Y-28785479D01*
X110558974Y-28784966D01*
X110555539Y-28782084D01*
X110529887Y-28777561D01*
X110339410Y-28777561D01*
X110335196Y-28779094D01*
X110330835Y-28778053D01*
X110305869Y-28785479D01*
X110115393Y-28880718D01*
X110114269Y-28881904D01*
X110095901Y-28894767D01*
X110000663Y-28990005D01*
X109999970Y-28991489D01*
X109986614Y-29009497D01*
X109891376Y-29199973D01*
X109890969Y-29203501D01*
X109885697Y-29215324D01*
X109790459Y-29596276D01*
X109790819Y-29599724D01*
X109788220Y-29614466D01*
X109788220Y-30090657D01*
X108699579Y-30090657D01*
X108693589Y-30073075D01*
X108690077Y-30053157D01*
X108685493Y-30049310D01*
X108683564Y-30043648D01*
X108666269Y-30033179D01*
X108650777Y-30020180D01*
X108642332Y-30018691D01*
X108639674Y-30017082D01*
X108636232Y-30017615D01*
X108625125Y-30015657D01*
X108357115Y-30015657D01*
X108193361Y-29933780D01*
X108115335Y-29855753D01*
X108033458Y-29691998D01*
X108033458Y-29251219D01*
X108115335Y-29087465D01*
X108193361Y-29009438D01*
X108357115Y-28927561D01*
X108893134Y-28927561D01*
X109056887Y-29009438D01*
X109143520Y-29096071D01*
X109190017Y-29117752D01*
X109239571Y-29104475D01*
X109268998Y-29062450D01*
X109264527Y-29011342D01*
X109249586Y-28990005D01*
X109154348Y-28894767D01*
X109152863Y-28894074D01*
X109134856Y-28880718D01*
X108944380Y-28785479D01*
X108939926Y-28784966D01*
X108936491Y-28782084D01*
X108910839Y-28777561D01*
X108339410Y-28777561D01*
X108335196Y-28779094D01*
X108330835Y-28778053D01*
X108305869Y-28785479D01*
X108115393Y-28880718D01*
X108114269Y-28881904D01*
X108095901Y-28894767D01*
X108000663Y-28990005D01*
X107999970Y-28991489D01*
X107986614Y-29009497D01*
X107891376Y-29199973D01*
X107890863Y-29204426D01*
X107887981Y-29207862D01*
X107883458Y-29233514D01*
X107883458Y-29709704D01*
X107597744Y-29709704D01*
X107597744Y-28666579D01*
X115216927Y-28666579D01*
X115237330Y-28713650D01*
X115258251Y-28729167D01*
X115437840Y-28818961D01*
X115566678Y-28947799D01*
X115429235Y-29085243D01*
X115426107Y-29091950D01*
X115420117Y-29096297D01*
X115409507Y-29120086D01*
X115314269Y-29501038D01*
X115314629Y-29504486D01*
X115312030Y-29519228D01*
X115312030Y-30185895D01*
X115313215Y-30189152D01*
X115314269Y-30204085D01*
X115409507Y-30585037D01*
X115413649Y-30591170D01*
X115414295Y-30598543D01*
X115429235Y-30619880D01*
X115619711Y-30810356D01*
X115621192Y-30811046D01*
X115639203Y-30824405D01*
X115829679Y-30919643D01*
X115834132Y-30920155D01*
X115837568Y-30923038D01*
X115863220Y-30927561D01*
X116244173Y-30927561D01*
X116248386Y-30926027D01*
X116252747Y-30927069D01*
X116277714Y-30919643D01*
X116468190Y-30824405D01*
X116469316Y-30823215D01*
X116487682Y-30810356D01*
X116678158Y-30619880D01*
X116681285Y-30613172D01*
X116687276Y-30608826D01*
X116697886Y-30585037D01*
X116793124Y-30204085D01*
X116792763Y-30200636D01*
X116795363Y-30185895D01*
X116795363Y-29519228D01*
X116794177Y-29515970D01*
X116793124Y-29501038D01*
X116697886Y-29120086D01*
X116693744Y-29113953D01*
X116693099Y-29106580D01*
X116678158Y-29085243D01*
X116487682Y-28894767D01*
X116486197Y-28894074D01*
X116468190Y-28880718D01*
X116277714Y-28785479D01*
X116273260Y-28784966D01*
X116269825Y-28782084D01*
X116244173Y-28777561D01*
X115863220Y-28777561D01*
X115859006Y-28779094D01*
X115854645Y-28778053D01*
X115829679Y-28785479D01*
X115687552Y-28856542D01*
X115535301Y-28704290D01*
X115533815Y-28703597D01*
X115515809Y-28690241D01*
X115325333Y-28595003D01*
X115274366Y-28589138D01*
X115231553Y-28617404D01*
X115216927Y-28666579D01*
X107597744Y-28666579D01*
X107597744Y-28303424D01*
X117081077Y-28303424D01*
X117081077Y-31306991D01*
G37*
D11*
X115474435Y-53491695D02*
X115550625Y-53491695D01*
X115550625Y-53491695D02*
X115626816Y-53529790D01*
X115626816Y-53529790D02*
X115664911Y-53567885D01*
X115664911Y-53567885D02*
X115703006Y-53644076D01*
X115703006Y-53644076D02*
X115741101Y-53796457D01*
X115741101Y-53796457D02*
X115741101Y-53986933D01*
X115741101Y-53986933D02*
X115703006Y-54139314D01*
X115703006Y-54139314D02*
X115664911Y-54215504D01*
X115664911Y-54215504D02*
X115626816Y-54253600D01*
X115626816Y-54253600D02*
X115550625Y-54291695D01*
X115550625Y-54291695D02*
X115474435Y-54291695D01*
X115474435Y-54291695D02*
X115398244Y-54253600D01*
X115398244Y-54253600D02*
X115360149Y-54215504D01*
X115360149Y-54215504D02*
X115322054Y-54139314D01*
X115322054Y-54139314D02*
X115283958Y-53986933D01*
X115283958Y-53986933D02*
X115283958Y-53796457D01*
X115283958Y-53796457D02*
X115322054Y-53644076D01*
X115322054Y-53644076D02*
X115360149Y-53567885D01*
X115360149Y-53567885D02*
X115398244Y-53529790D01*
X115398244Y-53529790D02*
X115474435Y-53491695D01*
X116198244Y-53834552D02*
X116122054Y-53796457D01*
X116122054Y-53796457D02*
X116083959Y-53758361D01*
X116083959Y-53758361D02*
X116045863Y-53682171D01*
X116045863Y-53682171D02*
X116045863Y-53644076D01*
X116045863Y-53644076D02*
X116083959Y-53567885D01*
X116083959Y-53567885D02*
X116122054Y-53529790D01*
X116122054Y-53529790D02*
X116198244Y-53491695D01*
X116198244Y-53491695D02*
X116350625Y-53491695D01*
X116350625Y-53491695D02*
X116426816Y-53529790D01*
X116426816Y-53529790D02*
X116464911Y-53567885D01*
X116464911Y-53567885D02*
X116503006Y-53644076D01*
X116503006Y-53644076D02*
X116503006Y-53682171D01*
X116503006Y-53682171D02*
X116464911Y-53758361D01*
X116464911Y-53758361D02*
X116426816Y-53796457D01*
X116426816Y-53796457D02*
X116350625Y-53834552D01*
X116350625Y-53834552D02*
X116198244Y-53834552D01*
X116198244Y-53834552D02*
X116122054Y-53872647D01*
X116122054Y-53872647D02*
X116083959Y-53910742D01*
X116083959Y-53910742D02*
X116045863Y-53986933D01*
X116045863Y-53986933D02*
X116045863Y-54139314D01*
X116045863Y-54139314D02*
X116083959Y-54215504D01*
X116083959Y-54215504D02*
X116122054Y-54253600D01*
X116122054Y-54253600D02*
X116198244Y-54291695D01*
X116198244Y-54291695D02*
X116350625Y-54291695D01*
X116350625Y-54291695D02*
X116426816Y-54253600D01*
X116426816Y-54253600D02*
X116464911Y-54215504D01*
X116464911Y-54215504D02*
X116503006Y-54139314D01*
X116503006Y-54139314D02*
X116503006Y-53986933D01*
X116503006Y-53986933D02*
X116464911Y-53910742D01*
X116464911Y-53910742D02*
X116426816Y-53872647D01*
X116426816Y-53872647D02*
X116350625Y-53834552D01*
X116998245Y-53491695D02*
X117074435Y-53491695D01*
X117074435Y-53491695D02*
X117150626Y-53529790D01*
X117150626Y-53529790D02*
X117188721Y-53567885D01*
X117188721Y-53567885D02*
X117226816Y-53644076D01*
X117226816Y-53644076D02*
X117264911Y-53796457D01*
X117264911Y-53796457D02*
X117264911Y-53986933D01*
X117264911Y-53986933D02*
X117226816Y-54139314D01*
X117226816Y-54139314D02*
X117188721Y-54215504D01*
X117188721Y-54215504D02*
X117150626Y-54253600D01*
X117150626Y-54253600D02*
X117074435Y-54291695D01*
X117074435Y-54291695D02*
X116998245Y-54291695D01*
X116998245Y-54291695D02*
X116922054Y-54253600D01*
X116922054Y-54253600D02*
X116883959Y-54215504D01*
X116883959Y-54215504D02*
X116845864Y-54139314D01*
X116845864Y-54139314D02*
X116807768Y-53986933D01*
X116807768Y-53986933D02*
X116807768Y-53796457D01*
X116807768Y-53796457D02*
X116845864Y-53644076D01*
X116845864Y-53644076D02*
X116883959Y-53567885D01*
X116883959Y-53567885D02*
X116922054Y-53529790D01*
X116922054Y-53529790D02*
X116998245Y-53491695D01*
X117988721Y-53491695D02*
X117607769Y-53491695D01*
X117607769Y-53491695D02*
X117569673Y-53872647D01*
X117569673Y-53872647D02*
X117607769Y-53834552D01*
X117607769Y-53834552D02*
X117683959Y-53796457D01*
X117683959Y-53796457D02*
X117874435Y-53796457D01*
X117874435Y-53796457D02*
X117950626Y-53834552D01*
X117950626Y-53834552D02*
X117988721Y-53872647D01*
X117988721Y-53872647D02*
X118026816Y-53948838D01*
X118026816Y-53948838D02*
X118026816Y-54139314D01*
X118026816Y-54139314D02*
X117988721Y-54215504D01*
X117988721Y-54215504D02*
X117950626Y-54253600D01*
X117950626Y-54253600D02*
X117874435Y-54291695D01*
X117874435Y-54291695D02*
X117683959Y-54291695D01*
X117683959Y-54291695D02*
X117607769Y-54253600D01*
X117607769Y-54253600D02*
X117569673Y-54215504D01*
D10*
G36*
X99327960Y-67101009D02*
G01*
X98583693Y-67101009D01*
X98955826Y-65984608D01*
X99327960Y-67101009D01*
G37*
G36*
X103482828Y-65904315D02*
G01*
X103560853Y-65982340D01*
X103642731Y-66146095D01*
X103642731Y-66396398D01*
X103560853Y-66560153D01*
X103482827Y-66638180D01*
X103319074Y-66720057D01*
X102649874Y-66720057D01*
X102649874Y-65822438D01*
X103319074Y-65822438D01*
X103482828Y-65904315D01*
G37*
G36*
X104078445Y-68107341D02*
G01*
X97932295Y-68107341D01*
X97932295Y-67723721D01*
X98218009Y-67723721D01*
X98219410Y-67775005D01*
X98253447Y-67813390D01*
X98304196Y-67820915D01*
X98347908Y-67794060D01*
X98360311Y-67771155D01*
X98533693Y-67251009D01*
X99377960Y-67251009D01*
X99551342Y-67771155D01*
X99583233Y-67811341D01*
X99633494Y-67821627D01*
X99678608Y-67797198D01*
X99697465Y-67749487D01*
X99697161Y-67747438D01*
X100214160Y-67747438D01*
X100231707Y-67795647D01*
X100276136Y-67821299D01*
X100326660Y-67812390D01*
X100359637Y-67773090D01*
X100364160Y-67747438D01*
X100364160Y-66085505D01*
X100887863Y-67207726D01*
X100901629Y-67221484D01*
X100912790Y-67237433D01*
X100919349Y-67239192D01*
X100924151Y-67243991D01*
X100943538Y-67245681D01*
X100962342Y-67250726D01*
X100968496Y-67247858D01*
X100975260Y-67248448D01*
X100991200Y-67237279D01*
X101008844Y-67229058D01*
X101014543Y-67220923D01*
X101017276Y-67219009D01*
X101018135Y-67215796D01*
X101023791Y-67207725D01*
X101547493Y-66085506D01*
X101547493Y-67747438D01*
X101565040Y-67795647D01*
X101609469Y-67821299D01*
X101659993Y-67812390D01*
X101692970Y-67773090D01*
X101697493Y-67747438D01*
X102499874Y-67747438D01*
X102517421Y-67795647D01*
X102561850Y-67821299D01*
X102612374Y-67812390D01*
X102645351Y-67773090D01*
X102649874Y-67747438D01*
X102649874Y-66870057D01*
X103336779Y-66870057D01*
X103340992Y-66868523D01*
X103345353Y-66869565D01*
X103370320Y-66862139D01*
X103560796Y-66766901D01*
X103561922Y-66765711D01*
X103580288Y-66752852D01*
X103675527Y-66657612D01*
X103676218Y-66656129D01*
X103689575Y-66638121D01*
X103784813Y-66447645D01*
X103785325Y-66443191D01*
X103788208Y-66439756D01*
X103792731Y-66414104D01*
X103792731Y-66128390D01*
X103791197Y-66124178D01*
X103792240Y-66119816D01*
X103784813Y-66094849D01*
X103689575Y-65904373D01*
X103688388Y-65903249D01*
X103675526Y-65884881D01*
X103580288Y-65789643D01*
X103578803Y-65788950D01*
X103560796Y-65775594D01*
X103370320Y-65680356D01*
X103365866Y-65679843D01*
X103362431Y-65676961D01*
X103336779Y-65672438D01*
X102574874Y-65672438D01*
X102556565Y-65679101D01*
X102537374Y-65682486D01*
X102533023Y-65687670D01*
X102526665Y-65689985D01*
X102516922Y-65706858D01*
X102504397Y-65721786D01*
X102502679Y-65731528D01*
X102501013Y-65734414D01*
X102501591Y-65737696D01*
X102499874Y-65747438D01*
X102499874Y-67747438D01*
X101697493Y-67747438D01*
X101697493Y-65747438D01*
X101694067Y-65738025D01*
X101694943Y-65728048D01*
X101685549Y-65714623D01*
X101679946Y-65699229D01*
X101671273Y-65694221D01*
X101665530Y-65686014D01*
X101649706Y-65681769D01*
X101635517Y-65673577D01*
X101625650Y-65675316D01*
X101615978Y-65672722D01*
X101601128Y-65679640D01*
X101584993Y-65682486D01*
X101578554Y-65690158D01*
X101569476Y-65694389D01*
X101554529Y-65715722D01*
X100955826Y-66998655D01*
X100357124Y-65715722D01*
X100350038Y-65708641D01*
X100346613Y-65699229D01*
X100332423Y-65691036D01*
X100320836Y-65679456D01*
X100310859Y-65678585D01*
X100302184Y-65673577D01*
X100286048Y-65676422D01*
X100269727Y-65674999D01*
X100261523Y-65680746D01*
X100251660Y-65682486D01*
X100241128Y-65695036D01*
X100227711Y-65704438D01*
X100225121Y-65714112D01*
X100218683Y-65721786D01*
X100214160Y-65747438D01*
X100214160Y-67747438D01*
X99697161Y-67747438D01*
X99693644Y-67723721D01*
X99026977Y-65723721D01*
X99025634Y-65722029D01*
X99025576Y-65719871D01*
X99009826Y-65702109D01*
X98995086Y-65683535D01*
X98992972Y-65683102D01*
X98991539Y-65681486D01*
X98968060Y-65678004D01*
X98944825Y-65673249D01*
X98942926Y-65674276D01*
X98940790Y-65673960D01*
X98920568Y-65686383D01*
X98899711Y-65697678D01*
X98898917Y-65699685D01*
X98897078Y-65700816D01*
X98884675Y-65723721D01*
X98218009Y-67723721D01*
X97932295Y-67723721D01*
X97932295Y-65386724D01*
X104078445Y-65386724D01*
X104078445Y-68107341D01*
G37*
G36*
X122901875Y-65904314D02*
G01*
X123069056Y-66071495D01*
X123157017Y-66423337D01*
X123157017Y-67071536D01*
X123069056Y-67423379D01*
X122901875Y-67590561D01*
X122738122Y-67672438D01*
X122392579Y-67672438D01*
X122228825Y-67590561D01*
X122061644Y-67423379D01*
X121973684Y-67071536D01*
X121973684Y-66423337D01*
X122061644Y-66071495D01*
X122228825Y-65904314D01*
X122392579Y-65822438D01*
X122738122Y-65822438D01*
X122901875Y-65904314D01*
G37*
G36*
X126524837Y-65908228D02*
G01*
X126694188Y-66077579D01*
X126780300Y-66249803D01*
X126871303Y-66613814D01*
X126871303Y-66881060D01*
X126780300Y-67245071D01*
X126694187Y-67417296D01*
X126524836Y-67586648D01*
X126267466Y-67672438D01*
X125878446Y-67672438D01*
X125878446Y-65822438D01*
X126267466Y-65822438D01*
X126524837Y-65908228D01*
G37*
G36*
X124842246Y-67101009D02*
G01*
X124097979Y-67101009D01*
X124470112Y-65984608D01*
X124842246Y-67101009D01*
G37*
G36*
X127307017Y-68108152D02*
G01*
X120014160Y-68108152D01*
X120014160Y-67747438D01*
X120299874Y-67747438D01*
X120306537Y-67765746D01*
X120309922Y-67784938D01*
X120315106Y-67789288D01*
X120317421Y-67795647D01*
X120334294Y-67805389D01*
X120349222Y-67817915D01*
X120358964Y-67819632D01*
X120361850Y-67821299D01*
X120365132Y-67820720D01*
X120374874Y-67822438D01*
X121327255Y-67822438D01*
X121375464Y-67804891D01*
X121401116Y-67760462D01*
X121392207Y-67709938D01*
X121352907Y-67676961D01*
X121327255Y-67672438D01*
X120449874Y-67672438D01*
X120449874Y-67080771D01*
X121823684Y-67080771D01*
X121824869Y-67084028D01*
X121825923Y-67098961D01*
X121921161Y-67479913D01*
X121925303Y-67486045D01*
X121925948Y-67493419D01*
X121940889Y-67514756D01*
X122131365Y-67705233D01*
X122132846Y-67705924D01*
X122150857Y-67719282D01*
X122341333Y-67814520D01*
X122345786Y-67815032D01*
X122349222Y-67817915D01*
X122374874Y-67822438D01*
X122755827Y-67822438D01*
X122760040Y-67820904D01*
X122764401Y-67821946D01*
X122789368Y-67814520D01*
X122970966Y-67723721D01*
X123732295Y-67723721D01*
X123733696Y-67775005D01*
X123767733Y-67813390D01*
X123818482Y-67820915D01*
X123862194Y-67794060D01*
X123874597Y-67771155D01*
X124047979Y-67251009D01*
X124892246Y-67251009D01*
X125065628Y-67771155D01*
X125097519Y-67811341D01*
X125147780Y-67821627D01*
X125192894Y-67797198D01*
X125211751Y-67749487D01*
X125211447Y-67747438D01*
X125728446Y-67747438D01*
X125735109Y-67765746D01*
X125738494Y-67784938D01*
X125743678Y-67789288D01*
X125745993Y-67795647D01*
X125762866Y-67805389D01*
X125777794Y-67817915D01*
X125787536Y-67819632D01*
X125790422Y-67821299D01*
X125793704Y-67820720D01*
X125803446Y-67822438D01*
X126279636Y-67822438D01*
X126281174Y-67821877D01*
X126303353Y-67818589D01*
X126589068Y-67723351D01*
X126592580Y-67720563D01*
X126597047Y-67720173D01*
X126618384Y-67705233D01*
X126808860Y-67514756D01*
X126809551Y-67513274D01*
X126822909Y-67495264D01*
X126918147Y-67304788D01*
X126918553Y-67301259D01*
X126923826Y-67289437D01*
X127019064Y-66908485D01*
X127018703Y-66905036D01*
X127021303Y-66890295D01*
X127021303Y-66604580D01*
X127020117Y-66601322D01*
X127019064Y-66586390D01*
X126923826Y-66205438D01*
X126921837Y-66202494D01*
X126918147Y-66190087D01*
X126822909Y-65999611D01*
X126821722Y-65998487D01*
X126808860Y-65980119D01*
X126618384Y-65789643D01*
X126614320Y-65787748D01*
X126611973Y-65783927D01*
X126589068Y-65771525D01*
X126303353Y-65676287D01*
X126301718Y-65676331D01*
X126279636Y-65672438D01*
X125803446Y-65672438D01*
X125785137Y-65679101D01*
X125765946Y-65682486D01*
X125761595Y-65687670D01*
X125755237Y-65689985D01*
X125745494Y-65706858D01*
X125732969Y-65721786D01*
X125731251Y-65731528D01*
X125729585Y-65734414D01*
X125730163Y-65737696D01*
X125728446Y-65747438D01*
X125728446Y-67747438D01*
X125211447Y-67747438D01*
X125207930Y-67723721D01*
X124541263Y-65723721D01*
X124539920Y-65722029D01*
X124539862Y-65719871D01*
X124524112Y-65702109D01*
X124509372Y-65683535D01*
X124507258Y-65683102D01*
X124505825Y-65681486D01*
X124482346Y-65678004D01*
X124459111Y-65673249D01*
X124457212Y-65674276D01*
X124455076Y-65673960D01*
X124434854Y-65686383D01*
X124413997Y-65697678D01*
X124413203Y-65699685D01*
X124411364Y-65700816D01*
X124398961Y-65723721D01*
X123732295Y-67723721D01*
X122970966Y-67723721D01*
X122979844Y-67719282D01*
X122980970Y-67718092D01*
X122999336Y-67705233D01*
X123189812Y-67514756D01*
X123192939Y-67508048D01*
X123198930Y-67503702D01*
X123209540Y-67479913D01*
X123304778Y-67098961D01*
X123304417Y-67095512D01*
X123307017Y-67080771D01*
X123307017Y-66414104D01*
X123305831Y-66410846D01*
X123304778Y-66395914D01*
X123209540Y-66014962D01*
X123205398Y-66008829D01*
X123204753Y-66001456D01*
X123189812Y-65980119D01*
X122999336Y-65789643D01*
X122997851Y-65788950D01*
X122979844Y-65775594D01*
X122789368Y-65680356D01*
X122784914Y-65679843D01*
X122781479Y-65676961D01*
X122755827Y-65672438D01*
X122374874Y-65672438D01*
X122370662Y-65673971D01*
X122366300Y-65672929D01*
X122341333Y-65680356D01*
X122150857Y-65775594D01*
X122149733Y-65776780D01*
X122131365Y-65789643D01*
X121940889Y-65980119D01*
X121937761Y-65986826D01*
X121931771Y-65991173D01*
X121921161Y-66014962D01*
X121825923Y-66395914D01*
X121826283Y-66399362D01*
X121823684Y-66414104D01*
X121823684Y-67080771D01*
X120449874Y-67080771D01*
X120449874Y-65747438D01*
X120432327Y-65699229D01*
X120387898Y-65673577D01*
X120337374Y-65682486D01*
X120304397Y-65721786D01*
X120299874Y-65747438D01*
X120299874Y-67747438D01*
X120014160Y-67747438D01*
X120014160Y-65386724D01*
X127307017Y-65386724D01*
X127307017Y-68108152D01*
G37*
D12*
X138445489Y-55770600D02*
X137302632Y-55770600D01*
X137874060Y-55199171D02*
X137874060Y-56342028D01*
D10*
G36*
X101830442Y-26855180D02*
G01*
X101542195Y-26855180D01*
X101473679Y-26820922D01*
X101443272Y-26790514D01*
X101409014Y-26721999D01*
X101409014Y-26614551D01*
X101443272Y-26546035D01*
X101473678Y-26515629D01*
X101542195Y-26481371D01*
X101830442Y-26481371D01*
X101830442Y-26855180D01*
G37*
G36*
X105401871Y-26855180D02*
G01*
X105113624Y-26855180D01*
X105045107Y-26820921D01*
X105014700Y-26790514D01*
X104980443Y-26721999D01*
X104980443Y-26614552D01*
X105014700Y-26546036D01*
X105045108Y-26515628D01*
X105113624Y-26481371D01*
X105401871Y-26481371D01*
X105401871Y-26855180D01*
G37*
G36*
X107218537Y-27148037D02*
G01*
X99926820Y-27148037D01*
X99926820Y-26298109D01*
X100069677Y-26298109D01*
X100078586Y-26348633D01*
X100117886Y-26381610D01*
X100143538Y-26386133D01*
X100449490Y-26386133D01*
X100449490Y-26692085D01*
X100467037Y-26740294D01*
X100511466Y-26765946D01*
X100561990Y-26757037D01*
X100576534Y-26739704D01*
X101259014Y-26739704D01*
X101260547Y-26743917D01*
X101259506Y-26748278D01*
X101266932Y-26773245D01*
X101314551Y-26868483D01*
X101315740Y-26869608D01*
X101328600Y-26887975D01*
X101376219Y-26935594D01*
X101377700Y-26936285D01*
X101395711Y-26949643D01*
X101490949Y-26997262D01*
X101495402Y-26997774D01*
X101498838Y-27000657D01*
X101524490Y-27005180D01*
X101905442Y-27005180D01*
X101923750Y-26998516D01*
X101942942Y-26995132D01*
X101947292Y-26989947D01*
X101953651Y-26987633D01*
X101963393Y-26970759D01*
X101975919Y-26955832D01*
X101977636Y-26946089D01*
X101979303Y-26943204D01*
X101978724Y-26939921D01*
X101980442Y-26930180D01*
X101980442Y-26917156D01*
X102926820Y-26917156D01*
X102935729Y-26967680D01*
X102975029Y-27000657D01*
X103000681Y-27005180D01*
X103572109Y-27005180D01*
X103620318Y-26987633D01*
X103645970Y-26943204D01*
X103643673Y-26930180D01*
X103830443Y-26930180D01*
X103847990Y-26978389D01*
X103892419Y-27004041D01*
X103942943Y-26995132D01*
X103975920Y-26955832D01*
X103980443Y-26930180D01*
X103980443Y-26138362D01*
X104014701Y-26069845D01*
X104045107Y-26039439D01*
X104113625Y-26005180D01*
X104268689Y-26005180D01*
X104337205Y-26039438D01*
X104367613Y-26069845D01*
X104401871Y-26138361D01*
X104401871Y-26930180D01*
X104419418Y-26978389D01*
X104463847Y-27004041D01*
X104514371Y-26995132D01*
X104547348Y-26955832D01*
X104551871Y-26930180D01*
X104551871Y-26739704D01*
X104830443Y-26739704D01*
X104831976Y-26743917D01*
X104830935Y-26748278D01*
X104838361Y-26773245D01*
X104885980Y-26868483D01*
X104887169Y-26869608D01*
X104900029Y-26887975D01*
X104947648Y-26935594D01*
X104949129Y-26936285D01*
X104967140Y-26949643D01*
X105062378Y-26997262D01*
X105066831Y-26997774D01*
X105070267Y-27000657D01*
X105095919Y-27005180D01*
X105476871Y-27005180D01*
X105495179Y-26998516D01*
X105514371Y-26995132D01*
X105518721Y-26989947D01*
X105525080Y-26987633D01*
X105534822Y-26970759D01*
X105547348Y-26955832D01*
X105549065Y-26946089D01*
X105550732Y-26943204D01*
X105550153Y-26939921D01*
X105551871Y-26930180D01*
X105878062Y-26930180D01*
X105895609Y-26978389D01*
X105940038Y-27004041D01*
X105990562Y-26995132D01*
X106023539Y-26955832D01*
X106028062Y-26930180D01*
X106028062Y-26212596D01*
X106459372Y-26967391D01*
X106464665Y-26971872D01*
X106467037Y-26978389D01*
X106483774Y-26988052D01*
X106498525Y-27000542D01*
X106505459Y-27000572D01*
X106511466Y-27004041D01*
X106530499Y-27000684D01*
X106549827Y-27000771D01*
X106555160Y-26996336D01*
X106561990Y-26995132D01*
X106574414Y-26980325D01*
X106589274Y-26967969D01*
X106590508Y-26961145D01*
X106594967Y-26955832D01*
X106599490Y-26930180D01*
X106925680Y-26930180D01*
X106943227Y-26978389D01*
X106987656Y-27004041D01*
X107038180Y-26995132D01*
X107071157Y-26955832D01*
X107075680Y-26930180D01*
X107075680Y-25930180D01*
X107058133Y-25881971D01*
X107013704Y-25856319D01*
X106963180Y-25865228D01*
X106930203Y-25904528D01*
X106925680Y-25930180D01*
X106925680Y-26930180D01*
X106599490Y-26930180D01*
X106599490Y-25930180D01*
X106581943Y-25881971D01*
X106537514Y-25856319D01*
X106486990Y-25865228D01*
X106454013Y-25904528D01*
X106449490Y-25930180D01*
X106449490Y-26647763D01*
X106018180Y-25892970D01*
X106012887Y-25888488D01*
X106010515Y-25881971D01*
X105993775Y-25872306D01*
X105979027Y-25859818D01*
X105972092Y-25859787D01*
X105966086Y-25856319D01*
X105947052Y-25859675D01*
X105927725Y-25859589D01*
X105922391Y-25864023D01*
X105915562Y-25865228D01*
X105903137Y-25880034D01*
X105888278Y-25892391D01*
X105887043Y-25899214D01*
X105882585Y-25904528D01*
X105878062Y-25930180D01*
X105878062Y-26930180D01*
X105551871Y-26930180D01*
X105551871Y-25930180D01*
X105534324Y-25881971D01*
X105489895Y-25856319D01*
X105439371Y-25865228D01*
X105406394Y-25904528D01*
X105401871Y-25930180D01*
X105401871Y-26331371D01*
X105095919Y-26331371D01*
X105091705Y-26332904D01*
X105087344Y-26331863D01*
X105062378Y-26339289D01*
X104967140Y-26386908D01*
X104966014Y-26388097D01*
X104947648Y-26400957D01*
X104900029Y-26448576D01*
X104899338Y-26450057D01*
X104885980Y-26468068D01*
X104838361Y-26563306D01*
X104837848Y-26567759D01*
X104834966Y-26571195D01*
X104830443Y-26596847D01*
X104830443Y-26739704D01*
X104551871Y-26739704D01*
X104551871Y-26120657D01*
X104550337Y-26116443D01*
X104551379Y-26112082D01*
X104543953Y-26087116D01*
X104496334Y-25991878D01*
X104495144Y-25990752D01*
X104482285Y-25972386D01*
X104434666Y-25924767D01*
X104433183Y-25924075D01*
X104415175Y-25910718D01*
X104319937Y-25863098D01*
X104315482Y-25862585D01*
X104312047Y-25859703D01*
X104286395Y-25855180D01*
X104095919Y-25855180D01*
X104091705Y-25856713D01*
X104087344Y-25855672D01*
X104062378Y-25863098D01*
X103967139Y-25910718D01*
X103966011Y-25911909D01*
X103947648Y-25924767D01*
X103900029Y-25972386D01*
X103899338Y-25973867D01*
X103885980Y-25991878D01*
X103838361Y-26087116D01*
X103837848Y-26091569D01*
X103834966Y-26095005D01*
X103830443Y-26120657D01*
X103830443Y-26930180D01*
X103643673Y-26930180D01*
X103637061Y-26892680D01*
X103597761Y-26859703D01*
X103572109Y-26855180D01*
X103361395Y-26855180D01*
X103361395Y-25930180D01*
X103343848Y-25881971D01*
X103299419Y-25856319D01*
X103248895Y-25865228D01*
X103215918Y-25904528D01*
X103211395Y-25930180D01*
X103211395Y-26855180D01*
X103000681Y-26855180D01*
X102952472Y-26872727D01*
X102926820Y-26917156D01*
X101980442Y-26917156D01*
X101980442Y-25930180D01*
X101962895Y-25881971D01*
X101918466Y-25856319D01*
X101867942Y-25865228D01*
X101834965Y-25904528D01*
X101830442Y-25930180D01*
X101830442Y-26331371D01*
X101706396Y-26331371D01*
X101395456Y-25887170D01*
X101353435Y-25857739D01*
X101302327Y-25862202D01*
X101266045Y-25898474D01*
X101261567Y-25949581D01*
X101272572Y-25973190D01*
X101523540Y-26331716D01*
X101520276Y-26332904D01*
X101515915Y-26331863D01*
X101490949Y-26339289D01*
X101395711Y-26386908D01*
X101394585Y-26388097D01*
X101376219Y-26400957D01*
X101328600Y-26448576D01*
X101327909Y-26450057D01*
X101314551Y-26468068D01*
X101266932Y-26563306D01*
X101266419Y-26567759D01*
X101263537Y-26571195D01*
X101259014Y-26596847D01*
X101259014Y-26739704D01*
X100576534Y-26739704D01*
X100594967Y-26717737D01*
X100599490Y-26692085D01*
X100599490Y-26386133D01*
X100905442Y-26386133D01*
X100953651Y-26368586D01*
X100979303Y-26324157D01*
X100970394Y-26273633D01*
X100931094Y-26240656D01*
X100905442Y-26236133D01*
X100599490Y-26236133D01*
X100599490Y-25930180D01*
X100581943Y-25881971D01*
X100537514Y-25856319D01*
X100486990Y-25865228D01*
X100454013Y-25904528D01*
X100449490Y-25930180D01*
X100449490Y-26236133D01*
X100143538Y-26236133D01*
X100095329Y-26253680D01*
X100069677Y-26298109D01*
X99926820Y-26298109D01*
X99926820Y-25712323D01*
X107218537Y-25712323D01*
X107218537Y-27148037D01*
G37*
G36*
X123706236Y-26855180D02*
G01*
X123417989Y-26855180D01*
X123349473Y-26820921D01*
X123319066Y-26790514D01*
X123284808Y-26721999D01*
X123284808Y-26614552D01*
X123319066Y-26546035D01*
X123349473Y-26515628D01*
X123417989Y-26481371D01*
X123706236Y-26481371D01*
X123706236Y-26855180D01*
G37*
G36*
X125522902Y-27148037D02*
G01*
X118421661Y-27148037D01*
X118421661Y-26298109D01*
X118564518Y-26298109D01*
X118573427Y-26348633D01*
X118612727Y-26381610D01*
X118638379Y-26386133D01*
X118944331Y-26386133D01*
X118944331Y-26692085D01*
X118961878Y-26740294D01*
X119006307Y-26765946D01*
X119056831Y-26757037D01*
X119089808Y-26717737D01*
X119094331Y-26692085D01*
X119094331Y-26386133D01*
X119400283Y-26386133D01*
X119448492Y-26368586D01*
X119474144Y-26324157D01*
X119465235Y-26273633D01*
X119425935Y-26240656D01*
X119400283Y-26236133D01*
X119094331Y-26236133D01*
X119094331Y-25930180D01*
X119089591Y-25917156D01*
X119659756Y-25917156D01*
X119668665Y-25967680D01*
X119707965Y-26000657D01*
X119733617Y-26005180D01*
X120134807Y-26005180D01*
X120134807Y-26930180D01*
X120152354Y-26978389D01*
X120196783Y-27004041D01*
X120247307Y-26995132D01*
X120280284Y-26955832D01*
X120284807Y-26930180D01*
X120284807Y-26917156D01*
X121231185Y-26917156D01*
X121240094Y-26967680D01*
X121279394Y-27000657D01*
X121305046Y-27005180D01*
X121876474Y-27005180D01*
X121924683Y-26987633D01*
X121950335Y-26943204D01*
X121948038Y-26930180D01*
X122134808Y-26930180D01*
X122152355Y-26978389D01*
X122196784Y-27004041D01*
X122247308Y-26995132D01*
X122280285Y-26955832D01*
X122284808Y-26930180D01*
X122284808Y-26138361D01*
X122319066Y-26069845D01*
X122349472Y-26039439D01*
X122417990Y-26005180D01*
X122573054Y-26005180D01*
X122641570Y-26039438D01*
X122671978Y-26069845D01*
X122706236Y-26138361D01*
X122706236Y-26930180D01*
X122723783Y-26978389D01*
X122768212Y-27004041D01*
X122818736Y-26995132D01*
X122851713Y-26955832D01*
X122856236Y-26930180D01*
X122856236Y-26739704D01*
X123134808Y-26739704D01*
X123136341Y-26743917D01*
X123135300Y-26748278D01*
X123142726Y-26773245D01*
X123190345Y-26868483D01*
X123191534Y-26869608D01*
X123204394Y-26887975D01*
X123252013Y-26935594D01*
X123253494Y-26936285D01*
X123271505Y-26949643D01*
X123366743Y-26997262D01*
X123371196Y-26997774D01*
X123374632Y-27000657D01*
X123400284Y-27005180D01*
X123781236Y-27005180D01*
X123799544Y-26998516D01*
X123818736Y-26995132D01*
X123823086Y-26989947D01*
X123829445Y-26987633D01*
X123839187Y-26970759D01*
X123851713Y-26955832D01*
X123853430Y-26946089D01*
X123855097Y-26943204D01*
X123854518Y-26939921D01*
X123856236Y-26930180D01*
X124182427Y-26930180D01*
X124199974Y-26978389D01*
X124244403Y-27004041D01*
X124294927Y-26995132D01*
X124327904Y-26955832D01*
X124332427Y-26930180D01*
X124332427Y-26212596D01*
X124763737Y-26967391D01*
X124769030Y-26971872D01*
X124771402Y-26978389D01*
X124788139Y-26988052D01*
X124802890Y-27000542D01*
X124809824Y-27000572D01*
X124815831Y-27004041D01*
X124834864Y-27000684D01*
X124854192Y-27000771D01*
X124859525Y-26996336D01*
X124866355Y-26995132D01*
X124878779Y-26980325D01*
X124893639Y-26967969D01*
X124894873Y-26961145D01*
X124899332Y-26955832D01*
X124903855Y-26930180D01*
X125230045Y-26930180D01*
X125247592Y-26978389D01*
X125292021Y-27004041D01*
X125342545Y-26995132D01*
X125375522Y-26955832D01*
X125380045Y-26930180D01*
X125380045Y-25930180D01*
X125362498Y-25881971D01*
X125318069Y-25856319D01*
X125267545Y-25865228D01*
X125234568Y-25904528D01*
X125230045Y-25930180D01*
X125230045Y-26930180D01*
X124903855Y-26930180D01*
X124903855Y-25930180D01*
X124886308Y-25881971D01*
X124841879Y-25856319D01*
X124791355Y-25865228D01*
X124758378Y-25904528D01*
X124753855Y-25930180D01*
X124753855Y-26647763D01*
X124322545Y-25892970D01*
X124317252Y-25888488D01*
X124314880Y-25881971D01*
X124298140Y-25872306D01*
X124283392Y-25859818D01*
X124276457Y-25859787D01*
X124270451Y-25856319D01*
X124251417Y-25859675D01*
X124232090Y-25859589D01*
X124226756Y-25864023D01*
X124219927Y-25865228D01*
X124207502Y-25880034D01*
X124192643Y-25892391D01*
X124191408Y-25899214D01*
X124186950Y-25904528D01*
X124182427Y-25930180D01*
X124182427Y-26930180D01*
X123856236Y-26930180D01*
X123856236Y-25930180D01*
X123838689Y-25881971D01*
X123794260Y-25856319D01*
X123743736Y-25865228D01*
X123710759Y-25904528D01*
X123706236Y-25930180D01*
X123706236Y-26331371D01*
X123400284Y-26331371D01*
X123396070Y-26332904D01*
X123391709Y-26331863D01*
X123366743Y-26339289D01*
X123271505Y-26386908D01*
X123270379Y-26388097D01*
X123252013Y-26400957D01*
X123204394Y-26448576D01*
X123203703Y-26450057D01*
X123190345Y-26468068D01*
X123142726Y-26563306D01*
X123142213Y-26567759D01*
X123139331Y-26571195D01*
X123134808Y-26596847D01*
X123134808Y-26739704D01*
X122856236Y-26739704D01*
X122856236Y-26120657D01*
X122854702Y-26116443D01*
X122855744Y-26112082D01*
X122848318Y-26087116D01*
X122800699Y-25991878D01*
X122799509Y-25990752D01*
X122786650Y-25972386D01*
X122739031Y-25924767D01*
X122737548Y-25924075D01*
X122719540Y-25910718D01*
X122624302Y-25863098D01*
X122619847Y-25862585D01*
X122616412Y-25859703D01*
X122590760Y-25855180D01*
X122400284Y-25855180D01*
X122396070Y-25856713D01*
X122391709Y-25855672D01*
X122366743Y-25863098D01*
X122271504Y-25910718D01*
X122270376Y-25911909D01*
X122252013Y-25924767D01*
X122204394Y-25972386D01*
X122203703Y-25973867D01*
X122190345Y-25991878D01*
X122142726Y-26087116D01*
X122142213Y-26091569D01*
X122139331Y-26095005D01*
X122134808Y-26120657D01*
X122134808Y-26930180D01*
X121948038Y-26930180D01*
X121941426Y-26892680D01*
X121902126Y-26859703D01*
X121876474Y-26855180D01*
X121665760Y-26855180D01*
X121665760Y-25930180D01*
X121648213Y-25881971D01*
X121603784Y-25856319D01*
X121553260Y-25865228D01*
X121520283Y-25904528D01*
X121515760Y-25930180D01*
X121515760Y-26855180D01*
X121305046Y-26855180D01*
X121256837Y-26872727D01*
X121231185Y-26917156D01*
X120284807Y-26917156D01*
X120284807Y-25930180D01*
X120278143Y-25911871D01*
X120274759Y-25892680D01*
X120269574Y-25888329D01*
X120267260Y-25881971D01*
X120250386Y-25872228D01*
X120235459Y-25859703D01*
X120225716Y-25857985D01*
X120222831Y-25856319D01*
X120219548Y-25856897D01*
X120209807Y-25855180D01*
X119733617Y-25855180D01*
X119685408Y-25872727D01*
X119659756Y-25917156D01*
X119089591Y-25917156D01*
X119076784Y-25881971D01*
X119032355Y-25856319D01*
X118981831Y-25865228D01*
X118948854Y-25904528D01*
X118944331Y-25930180D01*
X118944331Y-26236133D01*
X118638379Y-26236133D01*
X118590170Y-26253680D01*
X118564518Y-26298109D01*
X118421661Y-26298109D01*
X118421661Y-25712323D01*
X125522902Y-25712323D01*
X125522902Y-27148037D01*
G37*
D12*
X87554510Y-61229400D02*
X88697368Y-61229400D01*
X88125939Y-61800828D02*
X88125939Y-60657971D01*
D10*
G36*
X86860840Y-26855180D02*
G01*
X86572593Y-26855180D01*
X86504077Y-26820922D01*
X86473670Y-26790515D01*
X86439411Y-26721998D01*
X86439411Y-26614552D01*
X86473670Y-26546035D01*
X86504077Y-26515628D01*
X86572593Y-26481371D01*
X86860840Y-26481371D01*
X86860840Y-26855180D01*
G37*
G36*
X88677506Y-27148037D02*
G01*
X81576265Y-27148037D01*
X81576265Y-26298109D01*
X81719122Y-26298109D01*
X81728031Y-26348633D01*
X81767331Y-26381610D01*
X81792983Y-26386133D01*
X82554887Y-26386133D01*
X82603096Y-26368586D01*
X82628748Y-26324157D01*
X82619839Y-26273633D01*
X82580539Y-26240656D01*
X82554887Y-26236133D01*
X81792983Y-26236133D01*
X81744774Y-26253680D01*
X81719122Y-26298109D01*
X81576265Y-26298109D01*
X81576265Y-25917156D01*
X82814360Y-25917156D01*
X82823269Y-25967680D01*
X82862569Y-26000657D01*
X82888221Y-26005180D01*
X83289411Y-26005180D01*
X83289411Y-26930180D01*
X83306958Y-26978389D01*
X83351387Y-27004041D01*
X83401911Y-26995132D01*
X83434888Y-26955832D01*
X83439411Y-26930180D01*
X83439411Y-26917156D01*
X84385789Y-26917156D01*
X84394698Y-26967680D01*
X84433998Y-27000657D01*
X84459650Y-27005180D01*
X85031078Y-27005180D01*
X85079287Y-26987633D01*
X85104939Y-26943204D01*
X85102642Y-26930180D01*
X85289412Y-26930180D01*
X85306959Y-26978389D01*
X85351388Y-27004041D01*
X85401912Y-26995132D01*
X85434889Y-26955832D01*
X85439412Y-26930180D01*
X85439412Y-26138362D01*
X85473670Y-26069845D01*
X85504076Y-26039439D01*
X85572594Y-26005180D01*
X85727658Y-26005180D01*
X85796174Y-26039438D01*
X85826582Y-26069845D01*
X85860840Y-26138362D01*
X85860840Y-26930180D01*
X85878387Y-26978389D01*
X85922816Y-27004041D01*
X85973340Y-26995132D01*
X86006317Y-26955832D01*
X86010840Y-26930180D01*
X86010840Y-26739704D01*
X86289412Y-26739704D01*
X86290945Y-26743917D01*
X86289904Y-26748278D01*
X86297330Y-26773245D01*
X86344949Y-26868483D01*
X86346138Y-26869608D01*
X86358998Y-26887975D01*
X86406617Y-26935594D01*
X86408098Y-26936285D01*
X86426109Y-26949643D01*
X86521347Y-26997262D01*
X86525800Y-26997774D01*
X86529236Y-27000657D01*
X86554888Y-27005180D01*
X86935840Y-27005180D01*
X86954148Y-26998516D01*
X86973340Y-26995132D01*
X86977690Y-26989947D01*
X86984049Y-26987633D01*
X86993791Y-26970759D01*
X87006317Y-26955832D01*
X87008034Y-26946089D01*
X87009701Y-26943204D01*
X87009122Y-26939921D01*
X87010840Y-26930180D01*
X87337031Y-26930180D01*
X87354578Y-26978389D01*
X87399007Y-27004041D01*
X87449531Y-26995132D01*
X87482508Y-26955832D01*
X87487031Y-26930180D01*
X87487031Y-26212596D01*
X87918341Y-26967391D01*
X87923634Y-26971872D01*
X87926006Y-26978389D01*
X87942743Y-26988052D01*
X87957494Y-27000542D01*
X87964428Y-27000572D01*
X87970435Y-27004041D01*
X87989468Y-27000684D01*
X88008796Y-27000771D01*
X88014129Y-26996336D01*
X88020959Y-26995132D01*
X88033383Y-26980325D01*
X88048243Y-26967969D01*
X88049477Y-26961145D01*
X88053936Y-26955832D01*
X88058459Y-26930180D01*
X88384649Y-26930180D01*
X88402196Y-26978389D01*
X88446625Y-27004041D01*
X88497149Y-26995132D01*
X88530126Y-26955832D01*
X88534649Y-26930180D01*
X88534649Y-25930180D01*
X88517102Y-25881971D01*
X88472673Y-25856319D01*
X88422149Y-25865228D01*
X88389172Y-25904528D01*
X88384649Y-25930180D01*
X88384649Y-26930180D01*
X88058459Y-26930180D01*
X88058459Y-25930180D01*
X88040912Y-25881971D01*
X87996483Y-25856319D01*
X87945959Y-25865228D01*
X87912982Y-25904528D01*
X87908459Y-25930180D01*
X87908459Y-26647763D01*
X87477149Y-25892970D01*
X87471856Y-25888488D01*
X87469484Y-25881971D01*
X87452744Y-25872306D01*
X87437996Y-25859818D01*
X87431061Y-25859787D01*
X87425055Y-25856319D01*
X87406021Y-25859675D01*
X87386694Y-25859589D01*
X87381360Y-25864023D01*
X87374531Y-25865228D01*
X87362106Y-25880034D01*
X87347247Y-25892391D01*
X87346012Y-25899214D01*
X87341554Y-25904528D01*
X87337031Y-25930180D01*
X87337031Y-26930180D01*
X87010840Y-26930180D01*
X87010840Y-25930180D01*
X86993293Y-25881971D01*
X86948864Y-25856319D01*
X86898340Y-25865228D01*
X86865363Y-25904528D01*
X86860840Y-25930180D01*
X86860840Y-26331371D01*
X86554888Y-26331371D01*
X86550674Y-26332904D01*
X86546313Y-26331863D01*
X86521347Y-26339289D01*
X86426109Y-26386908D01*
X86424983Y-26388097D01*
X86406617Y-26400957D01*
X86358998Y-26448576D01*
X86358307Y-26450057D01*
X86344949Y-26468068D01*
X86297330Y-26563306D01*
X86296817Y-26567759D01*
X86293935Y-26571195D01*
X86289412Y-26596847D01*
X86289412Y-26739704D01*
X86010840Y-26739704D01*
X86010840Y-26120657D01*
X86009306Y-26116443D01*
X86010348Y-26112082D01*
X86002922Y-26087116D01*
X85955303Y-25991878D01*
X85954113Y-25990752D01*
X85941254Y-25972386D01*
X85893635Y-25924767D01*
X85892152Y-25924075D01*
X85874144Y-25910718D01*
X85778906Y-25863098D01*
X85774451Y-25862585D01*
X85771016Y-25859703D01*
X85745364Y-25855180D01*
X85554888Y-25855180D01*
X85550674Y-25856713D01*
X85546313Y-25855672D01*
X85521347Y-25863098D01*
X85426108Y-25910718D01*
X85424980Y-25911909D01*
X85406617Y-25924767D01*
X85358998Y-25972386D01*
X85358307Y-25973867D01*
X85344949Y-25991878D01*
X85297330Y-26087116D01*
X85296817Y-26091569D01*
X85293935Y-26095005D01*
X85289412Y-26120657D01*
X85289412Y-26930180D01*
X85102642Y-26930180D01*
X85096030Y-26892680D01*
X85056730Y-26859703D01*
X85031078Y-26855180D01*
X84820364Y-26855180D01*
X84820364Y-25930180D01*
X84802817Y-25881971D01*
X84758388Y-25856319D01*
X84707864Y-25865228D01*
X84674887Y-25904528D01*
X84670364Y-25930180D01*
X84670364Y-26855180D01*
X84459650Y-26855180D01*
X84411441Y-26872727D01*
X84385789Y-26917156D01*
X83439411Y-26917156D01*
X83439411Y-25930180D01*
X83432747Y-25911871D01*
X83429363Y-25892680D01*
X83424178Y-25888329D01*
X83421864Y-25881971D01*
X83404990Y-25872228D01*
X83390063Y-25859703D01*
X83380320Y-25857985D01*
X83377435Y-25856319D01*
X83374152Y-25856897D01*
X83364411Y-25855180D01*
X82888221Y-25855180D01*
X82840012Y-25872727D01*
X82814360Y-25917156D01*
X81576265Y-25917156D01*
X81576265Y-25712323D01*
X88677506Y-25712323D01*
X88677506Y-27148037D01*
G37*
D11*
X116141101Y-56491695D02*
X115683958Y-56491695D01*
X115912530Y-56491695D02*
X115912530Y-55691695D01*
X115912530Y-55691695D02*
X115836339Y-55805980D01*
X115836339Y-55805980D02*
X115760149Y-55882171D01*
X115760149Y-55882171D02*
X115683958Y-55920266D01*
X116445863Y-55767885D02*
X116483959Y-55729790D01*
X116483959Y-55729790D02*
X116560149Y-55691695D01*
X116560149Y-55691695D02*
X116750625Y-55691695D01*
X116750625Y-55691695D02*
X116826816Y-55729790D01*
X116826816Y-55729790D02*
X116864911Y-55767885D01*
X116864911Y-55767885D02*
X116903006Y-55844076D01*
X116903006Y-55844076D02*
X116903006Y-55920266D01*
X116903006Y-55920266D02*
X116864911Y-56034552D01*
X116864911Y-56034552D02*
X116407768Y-56491695D01*
X116407768Y-56491695D02*
X116903006Y-56491695D01*
X117398245Y-55691695D02*
X117474435Y-55691695D01*
X117474435Y-55691695D02*
X117550626Y-55729790D01*
X117550626Y-55729790D02*
X117588721Y-55767885D01*
X117588721Y-55767885D02*
X117626816Y-55844076D01*
X117626816Y-55844076D02*
X117664911Y-55996457D01*
X117664911Y-55996457D02*
X117664911Y-56186933D01*
X117664911Y-56186933D02*
X117626816Y-56339314D01*
X117626816Y-56339314D02*
X117588721Y-56415504D01*
X117588721Y-56415504D02*
X117550626Y-56453600D01*
X117550626Y-56453600D02*
X117474435Y-56491695D01*
X117474435Y-56491695D02*
X117398245Y-56491695D01*
X117398245Y-56491695D02*
X117322054Y-56453600D01*
X117322054Y-56453600D02*
X117283959Y-56415504D01*
X117283959Y-56415504D02*
X117245864Y-56339314D01*
X117245864Y-56339314D02*
X117207768Y-56186933D01*
X117207768Y-56186933D02*
X117207768Y-55996457D01*
X117207768Y-55996457D02*
X117245864Y-55844076D01*
X117245864Y-55844076D02*
X117283959Y-55767885D01*
X117283959Y-55767885D02*
X117322054Y-55729790D01*
X117322054Y-55729790D02*
X117398245Y-55691695D01*
X118350626Y-55691695D02*
X118198245Y-55691695D01*
X118198245Y-55691695D02*
X118122054Y-55729790D01*
X118122054Y-55729790D02*
X118083959Y-55767885D01*
X118083959Y-55767885D02*
X118007769Y-55882171D01*
X118007769Y-55882171D02*
X117969673Y-56034552D01*
X117969673Y-56034552D02*
X117969673Y-56339314D01*
X117969673Y-56339314D02*
X118007769Y-56415504D01*
X118007769Y-56415504D02*
X118045864Y-56453600D01*
X118045864Y-56453600D02*
X118122054Y-56491695D01*
X118122054Y-56491695D02*
X118274435Y-56491695D01*
X118274435Y-56491695D02*
X118350626Y-56453600D01*
X118350626Y-56453600D02*
X118388721Y-56415504D01*
X118388721Y-56415504D02*
X118426816Y-56339314D01*
X118426816Y-56339314D02*
X118426816Y-56148838D01*
X118426816Y-56148838D02*
X118388721Y-56072647D01*
X118388721Y-56072647D02*
X118350626Y-56034552D01*
X118350626Y-56034552D02*
X118274435Y-55996457D01*
X118274435Y-55996457D02*
X118122054Y-55996457D01*
X118122054Y-55996457D02*
X118045864Y-56034552D01*
X118045864Y-56034552D02*
X118007769Y-56072647D01*
X118007769Y-56072647D02*
X117969673Y-56148838D01*
D10*
G36*
X138629649Y-26855180D02*
G01*
X138341402Y-26855180D01*
X138272885Y-26820921D01*
X138242478Y-26790514D01*
X138208221Y-26721999D01*
X138208221Y-26614551D01*
X138242479Y-26546035D01*
X138272886Y-26515628D01*
X138341402Y-26481371D01*
X138629649Y-26481371D01*
X138629649Y-26855180D01*
G37*
G36*
X142201078Y-26855180D02*
G01*
X141912831Y-26855180D01*
X141844314Y-26820921D01*
X141813908Y-26790515D01*
X141779650Y-26721999D01*
X141779650Y-26614551D01*
X141813908Y-26546035D01*
X141844315Y-26515628D01*
X141912831Y-26481371D01*
X142201078Y-26481371D01*
X142201078Y-26855180D01*
G37*
G36*
X144017744Y-27148037D02*
G01*
X136726027Y-27148037D01*
X136726027Y-26739704D01*
X138058221Y-26739704D01*
X138059754Y-26743917D01*
X138058713Y-26748278D01*
X138066139Y-26773245D01*
X138113758Y-26868483D01*
X138114947Y-26869608D01*
X138127807Y-26887975D01*
X138175426Y-26935594D01*
X138176907Y-26936285D01*
X138194918Y-26949643D01*
X138290156Y-26997262D01*
X138294609Y-26997774D01*
X138298045Y-27000657D01*
X138323697Y-27005180D01*
X138704649Y-27005180D01*
X138722957Y-26998516D01*
X138742149Y-26995132D01*
X138746499Y-26989947D01*
X138752858Y-26987633D01*
X138762600Y-26970759D01*
X138775126Y-26955832D01*
X138776843Y-26946089D01*
X138778510Y-26943204D01*
X138777931Y-26939921D01*
X138779649Y-26930180D01*
X138779649Y-26917156D01*
X139726027Y-26917156D01*
X139734936Y-26967680D01*
X139774236Y-27000657D01*
X139799888Y-27005180D01*
X140371316Y-27005180D01*
X140419525Y-26987633D01*
X140445177Y-26943204D01*
X140442880Y-26930180D01*
X140629650Y-26930180D01*
X140647197Y-26978389D01*
X140691626Y-27004041D01*
X140742150Y-26995132D01*
X140775127Y-26955832D01*
X140779650Y-26930180D01*
X140779650Y-26138362D01*
X140813908Y-26069845D01*
X140844314Y-26039439D01*
X140912832Y-26005180D01*
X141067896Y-26005180D01*
X141136412Y-26039438D01*
X141166820Y-26069845D01*
X141201078Y-26138362D01*
X141201078Y-26930180D01*
X141218625Y-26978389D01*
X141263054Y-27004041D01*
X141313578Y-26995132D01*
X141346555Y-26955832D01*
X141351078Y-26930180D01*
X141351078Y-26739704D01*
X141629650Y-26739704D01*
X141631183Y-26743917D01*
X141630142Y-26748278D01*
X141637568Y-26773245D01*
X141685187Y-26868483D01*
X141686376Y-26869608D01*
X141699236Y-26887975D01*
X141746855Y-26935594D01*
X141748336Y-26936285D01*
X141766347Y-26949643D01*
X141861585Y-26997262D01*
X141866038Y-26997774D01*
X141869474Y-27000657D01*
X141895126Y-27005180D01*
X142276078Y-27005180D01*
X142294386Y-26998516D01*
X142313578Y-26995132D01*
X142317928Y-26989947D01*
X142324287Y-26987633D01*
X142334029Y-26970759D01*
X142346555Y-26955832D01*
X142348272Y-26946089D01*
X142349939Y-26943204D01*
X142349360Y-26939921D01*
X142351078Y-26930180D01*
X142677269Y-26930180D01*
X142694816Y-26978389D01*
X142739245Y-27004041D01*
X142789769Y-26995132D01*
X142822746Y-26955832D01*
X142827269Y-26930180D01*
X142827269Y-26212596D01*
X143258579Y-26967391D01*
X143263872Y-26971872D01*
X143266244Y-26978389D01*
X143282981Y-26988052D01*
X143297732Y-27000542D01*
X143304666Y-27000572D01*
X143310673Y-27004041D01*
X143329706Y-27000684D01*
X143349034Y-27000771D01*
X143354367Y-26996336D01*
X143361197Y-26995132D01*
X143373621Y-26980325D01*
X143388481Y-26967969D01*
X143389715Y-26961145D01*
X143394174Y-26955832D01*
X143398697Y-26930180D01*
X143724887Y-26930180D01*
X143742434Y-26978389D01*
X143786863Y-27004041D01*
X143837387Y-26995132D01*
X143870364Y-26955832D01*
X143874887Y-26930180D01*
X143874887Y-25930180D01*
X143857340Y-25881971D01*
X143812911Y-25856319D01*
X143762387Y-25865228D01*
X143729410Y-25904528D01*
X143724887Y-25930180D01*
X143724887Y-26930180D01*
X143398697Y-26930180D01*
X143398697Y-25930180D01*
X143381150Y-25881971D01*
X143336721Y-25856319D01*
X143286197Y-25865228D01*
X143253220Y-25904528D01*
X143248697Y-25930180D01*
X143248697Y-26647763D01*
X142817387Y-25892970D01*
X142812094Y-25888488D01*
X142809722Y-25881971D01*
X142792982Y-25872306D01*
X142778234Y-25859818D01*
X142771299Y-25859787D01*
X142765293Y-25856319D01*
X142746259Y-25859675D01*
X142726932Y-25859589D01*
X142721598Y-25864023D01*
X142714769Y-25865228D01*
X142702344Y-25880034D01*
X142687485Y-25892391D01*
X142686250Y-25899214D01*
X142681792Y-25904528D01*
X142677269Y-25930180D01*
X142677269Y-26930180D01*
X142351078Y-26930180D01*
X142351078Y-25930180D01*
X142333531Y-25881971D01*
X142289102Y-25856319D01*
X142238578Y-25865228D01*
X142205601Y-25904528D01*
X142201078Y-25930180D01*
X142201078Y-26331371D01*
X141895126Y-26331371D01*
X141890912Y-26332904D01*
X141886551Y-26331863D01*
X141861585Y-26339289D01*
X141766347Y-26386908D01*
X141765221Y-26388097D01*
X141746855Y-26400957D01*
X141699236Y-26448576D01*
X141698545Y-26450057D01*
X141685187Y-26468068D01*
X141637568Y-26563306D01*
X141637055Y-26567759D01*
X141634173Y-26571195D01*
X141629650Y-26596847D01*
X141629650Y-26739704D01*
X141351078Y-26739704D01*
X141351078Y-26120657D01*
X141349544Y-26116443D01*
X141350586Y-26112082D01*
X141343160Y-26087116D01*
X141295541Y-25991878D01*
X141294351Y-25990752D01*
X141281492Y-25972386D01*
X141233873Y-25924767D01*
X141232390Y-25924075D01*
X141214382Y-25910718D01*
X141119144Y-25863098D01*
X141114689Y-25862585D01*
X141111254Y-25859703D01*
X141085602Y-25855180D01*
X140895126Y-25855180D01*
X140890912Y-25856713D01*
X140886551Y-25855672D01*
X140861585Y-25863098D01*
X140766346Y-25910718D01*
X140765218Y-25911909D01*
X140746855Y-25924767D01*
X140699236Y-25972386D01*
X140698545Y-25973867D01*
X140685187Y-25991878D01*
X140637568Y-26087116D01*
X140637055Y-26091569D01*
X140634173Y-26095005D01*
X140629650Y-26120657D01*
X140629650Y-26930180D01*
X140442880Y-26930180D01*
X140436268Y-26892680D01*
X140396968Y-26859703D01*
X140371316Y-26855180D01*
X140160602Y-26855180D01*
X140160602Y-25930180D01*
X140143055Y-25881971D01*
X140098626Y-25856319D01*
X140048102Y-25865228D01*
X140015125Y-25904528D01*
X140010602Y-25930180D01*
X140010602Y-26855180D01*
X139799888Y-26855180D01*
X139751679Y-26872727D01*
X139726027Y-26917156D01*
X138779649Y-26917156D01*
X138779649Y-25930180D01*
X138762102Y-25881971D01*
X138717673Y-25856319D01*
X138667149Y-25865228D01*
X138634172Y-25904528D01*
X138629649Y-25930180D01*
X138629649Y-26331371D01*
X138505603Y-26331371D01*
X138194663Y-25887170D01*
X138152642Y-25857739D01*
X138101534Y-25862202D01*
X138065252Y-25898474D01*
X138060774Y-25949581D01*
X138071779Y-25973190D01*
X138322747Y-26331716D01*
X138319483Y-26332904D01*
X138315122Y-26331863D01*
X138290156Y-26339289D01*
X138194918Y-26386908D01*
X138193792Y-26388097D01*
X138175426Y-26400957D01*
X138127807Y-26448576D01*
X138127116Y-26450057D01*
X138113758Y-26468068D01*
X138066139Y-26563306D01*
X138065626Y-26567759D01*
X138062744Y-26571195D01*
X138058221Y-26596847D01*
X138058221Y-26739704D01*
X136726027Y-26739704D01*
X136726027Y-26298109D01*
X136868884Y-26298109D01*
X136877793Y-26348633D01*
X136917093Y-26381610D01*
X136942745Y-26386133D01*
X137704649Y-26386133D01*
X137752858Y-26368586D01*
X137778510Y-26324157D01*
X137769601Y-26273633D01*
X137730301Y-26240656D01*
X137704649Y-26236133D01*
X136942745Y-26236133D01*
X136894536Y-26253680D01*
X136868884Y-26298109D01*
X136726027Y-26298109D01*
X136726027Y-25712323D01*
X144017744Y-25712323D01*
X144017744Y-27148037D01*
G37*
X104127255Y-49269819D02*
X104317731Y-49269819D01*
X104317731Y-49269819D02*
X104412969Y-49317438D01*
X104412969Y-49317438D02*
X104508207Y-49412676D01*
X104508207Y-49412676D02*
X104555826Y-49603152D01*
X104555826Y-49603152D02*
X104555826Y-49936485D01*
X104555826Y-49936485D02*
X104508207Y-50126961D01*
X104508207Y-50126961D02*
X104412969Y-50222200D01*
X104412969Y-50222200D02*
X104317731Y-50269819D01*
X104317731Y-50269819D02*
X104127255Y-50269819D01*
X104127255Y-50269819D02*
X104032017Y-50222200D01*
X104032017Y-50222200D02*
X103936779Y-50126961D01*
X103936779Y-50126961D02*
X103889160Y-49936485D01*
X103889160Y-49936485D02*
X103889160Y-49603152D01*
X103889160Y-49603152D02*
X103936779Y-49412676D01*
X103936779Y-49412676D02*
X104032017Y-49317438D01*
X104032017Y-49317438D02*
X104127255Y-49269819D01*
X104984398Y-49603152D02*
X104984398Y-50603152D01*
X104984398Y-49650771D02*
X105079636Y-49603152D01*
X105079636Y-49603152D02*
X105270112Y-49603152D01*
X105270112Y-49603152D02*
X105365350Y-49650771D01*
X105365350Y-49650771D02*
X105412969Y-49698390D01*
X105412969Y-49698390D02*
X105460588Y-49793628D01*
X105460588Y-49793628D02*
X105460588Y-50079342D01*
X105460588Y-50079342D02*
X105412969Y-50174580D01*
X105412969Y-50174580D02*
X105365350Y-50222200D01*
X105365350Y-50222200D02*
X105270112Y-50269819D01*
X105270112Y-50269819D02*
X105079636Y-50269819D01*
X105079636Y-50269819D02*
X104984398Y-50222200D01*
X105746303Y-49603152D02*
X106127255Y-49603152D01*
X105889160Y-49269819D02*
X105889160Y-50126961D01*
X105889160Y-50126961D02*
X105936779Y-50222200D01*
X105936779Y-50222200D02*
X106032017Y-50269819D01*
X106032017Y-50269819D02*
X106127255Y-50269819D01*
X106460589Y-50269819D02*
X106460589Y-49603152D01*
X106460589Y-49269819D02*
X106412970Y-49317438D01*
X106412970Y-49317438D02*
X106460589Y-49365057D01*
X106460589Y-49365057D02*
X106508208Y-49317438D01*
X106508208Y-49317438D02*
X106460589Y-49269819D01*
X106460589Y-49269819D02*
X106460589Y-49365057D01*
X107079636Y-50269819D02*
X106984398Y-50222200D01*
X106984398Y-50222200D02*
X106936779Y-50174580D01*
X106936779Y-50174580D02*
X106889160Y-50079342D01*
X106889160Y-50079342D02*
X106889160Y-49793628D01*
X106889160Y-49793628D02*
X106936779Y-49698390D01*
X106936779Y-49698390D02*
X106984398Y-49650771D01*
X106984398Y-49650771D02*
X107079636Y-49603152D01*
X107079636Y-49603152D02*
X107222493Y-49603152D01*
X107222493Y-49603152D02*
X107317731Y-49650771D01*
X107317731Y-49650771D02*
X107365350Y-49698390D01*
X107365350Y-49698390D02*
X107412969Y-49793628D01*
X107412969Y-49793628D02*
X107412969Y-50079342D01*
X107412969Y-50079342D02*
X107365350Y-50174580D01*
X107365350Y-50174580D02*
X107317731Y-50222200D01*
X107317731Y-50222200D02*
X107222493Y-50269819D01*
X107222493Y-50269819D02*
X107079636Y-50269819D01*
X107841541Y-49603152D02*
X107841541Y-50269819D01*
X107841541Y-49698390D02*
X107889160Y-49650771D01*
X107889160Y-49650771D02*
X107984398Y-49603152D01*
X107984398Y-49603152D02*
X108127255Y-49603152D01*
X108127255Y-49603152D02*
X108222493Y-49650771D01*
X108222493Y-49650771D02*
X108270112Y-49746009D01*
X108270112Y-49746009D02*
X108270112Y-50269819D01*
X109174874Y-50269819D02*
X109174874Y-49746009D01*
X109174874Y-49746009D02*
X109127255Y-49650771D01*
X109127255Y-49650771D02*
X109032017Y-49603152D01*
X109032017Y-49603152D02*
X108841541Y-49603152D01*
X108841541Y-49603152D02*
X108746303Y-49650771D01*
X109174874Y-50222200D02*
X109079636Y-50269819D01*
X109079636Y-50269819D02*
X108841541Y-50269819D01*
X108841541Y-50269819D02*
X108746303Y-50222200D01*
X108746303Y-50222200D02*
X108698684Y-50126961D01*
X108698684Y-50126961D02*
X108698684Y-50031723D01*
X108698684Y-50031723D02*
X108746303Y-49936485D01*
X108746303Y-49936485D02*
X108841541Y-49888866D01*
X108841541Y-49888866D02*
X109079636Y-49888866D01*
X109079636Y-49888866D02*
X109174874Y-49841247D01*
X109793922Y-50269819D02*
X109698684Y-50222200D01*
X109698684Y-50222200D02*
X109651065Y-50126961D01*
X109651065Y-50126961D02*
X109651065Y-49269819D01*
X111508208Y-50174580D02*
X111460589Y-50222200D01*
X111460589Y-50222200D02*
X111317732Y-50269819D01*
X111317732Y-50269819D02*
X111222494Y-50269819D01*
X111222494Y-50269819D02*
X111079637Y-50222200D01*
X111079637Y-50222200D02*
X110984399Y-50126961D01*
X110984399Y-50126961D02*
X110936780Y-50031723D01*
X110936780Y-50031723D02*
X110889161Y-49841247D01*
X110889161Y-49841247D02*
X110889161Y-49698390D01*
X110889161Y-49698390D02*
X110936780Y-49507914D01*
X110936780Y-49507914D02*
X110984399Y-49412676D01*
X110984399Y-49412676D02*
X111079637Y-49317438D01*
X111079637Y-49317438D02*
X111222494Y-49269819D01*
X111222494Y-49269819D02*
X111317732Y-49269819D01*
X111317732Y-49269819D02*
X111460589Y-49317438D01*
X111460589Y-49317438D02*
X111508208Y-49365057D01*
X112365351Y-49603152D02*
X112365351Y-50269819D01*
X111936780Y-49603152D02*
X111936780Y-50126961D01*
X111936780Y-50126961D02*
X111984399Y-50222200D01*
X111984399Y-50222200D02*
X112079637Y-50269819D01*
X112079637Y-50269819D02*
X112222494Y-50269819D01*
X112222494Y-50269819D02*
X112317732Y-50222200D01*
X112317732Y-50222200D02*
X112365351Y-50174580D01*
X112841542Y-50269819D02*
X112841542Y-49603152D01*
X112841542Y-49793628D02*
X112889161Y-49698390D01*
X112889161Y-49698390D02*
X112936780Y-49650771D01*
X112936780Y-49650771D02*
X113032018Y-49603152D01*
X113032018Y-49603152D02*
X113127256Y-49603152D01*
X113460590Y-50269819D02*
X113460590Y-49603152D01*
X113460590Y-49793628D02*
X113508209Y-49698390D01*
X113508209Y-49698390D02*
X113555828Y-49650771D01*
X113555828Y-49650771D02*
X113651066Y-49603152D01*
X113651066Y-49603152D02*
X113746304Y-49603152D01*
X114460590Y-50222200D02*
X114365352Y-50269819D01*
X114365352Y-50269819D02*
X114174876Y-50269819D01*
X114174876Y-50269819D02*
X114079638Y-50222200D01*
X114079638Y-50222200D02*
X114032019Y-50126961D01*
X114032019Y-50126961D02*
X114032019Y-49746009D01*
X114032019Y-49746009D02*
X114079638Y-49650771D01*
X114079638Y-49650771D02*
X114174876Y-49603152D01*
X114174876Y-49603152D02*
X114365352Y-49603152D01*
X114365352Y-49603152D02*
X114460590Y-49650771D01*
X114460590Y-49650771D02*
X114508209Y-49746009D01*
X114508209Y-49746009D02*
X114508209Y-49841247D01*
X114508209Y-49841247D02*
X114032019Y-49936485D01*
X114936781Y-49603152D02*
X114936781Y-50269819D01*
X114936781Y-49698390D02*
X114984400Y-49650771D01*
X114984400Y-49650771D02*
X115079638Y-49603152D01*
X115079638Y-49603152D02*
X115222495Y-49603152D01*
X115222495Y-49603152D02*
X115317733Y-49650771D01*
X115317733Y-49650771D02*
X115365352Y-49746009D01*
X115365352Y-49746009D02*
X115365352Y-50269819D01*
X115698686Y-49603152D02*
X116079638Y-49603152D01*
X115841543Y-49269819D02*
X115841543Y-50126961D01*
X115841543Y-50126961D02*
X115889162Y-50222200D01*
X115889162Y-50222200D02*
X115984400Y-50269819D01*
X115984400Y-50269819D02*
X116079638Y-50269819D01*
X117127258Y-50222200D02*
X117270115Y-50269819D01*
X117270115Y-50269819D02*
X117508210Y-50269819D01*
X117508210Y-50269819D02*
X117603448Y-50222200D01*
X117603448Y-50222200D02*
X117651067Y-50174580D01*
X117651067Y-50174580D02*
X117698686Y-50079342D01*
X117698686Y-50079342D02*
X117698686Y-49984104D01*
X117698686Y-49984104D02*
X117651067Y-49888866D01*
X117651067Y-49888866D02*
X117603448Y-49841247D01*
X117603448Y-49841247D02*
X117508210Y-49793628D01*
X117508210Y-49793628D02*
X117317734Y-49746009D01*
X117317734Y-49746009D02*
X117222496Y-49698390D01*
X117222496Y-49698390D02*
X117174877Y-49650771D01*
X117174877Y-49650771D02*
X117127258Y-49555533D01*
X117127258Y-49555533D02*
X117127258Y-49460295D01*
X117127258Y-49460295D02*
X117174877Y-49365057D01*
X117174877Y-49365057D02*
X117222496Y-49317438D01*
X117222496Y-49317438D02*
X117317734Y-49269819D01*
X117317734Y-49269819D02*
X117555829Y-49269819D01*
X117555829Y-49269819D02*
X117698686Y-49317438D01*
X118508210Y-50222200D02*
X118412972Y-50269819D01*
X118412972Y-50269819D02*
X118222496Y-50269819D01*
X118222496Y-50269819D02*
X118127258Y-50222200D01*
X118127258Y-50222200D02*
X118079639Y-50126961D01*
X118079639Y-50126961D02*
X118079639Y-49746009D01*
X118079639Y-49746009D02*
X118127258Y-49650771D01*
X118127258Y-49650771D02*
X118222496Y-49603152D01*
X118222496Y-49603152D02*
X118412972Y-49603152D01*
X118412972Y-49603152D02*
X118508210Y-49650771D01*
X118508210Y-49650771D02*
X118555829Y-49746009D01*
X118555829Y-49746009D02*
X118555829Y-49841247D01*
X118555829Y-49841247D02*
X118079639Y-49936485D01*
X118984401Y-49603152D02*
X118984401Y-50269819D01*
X118984401Y-49698390D02*
X119032020Y-49650771D01*
X119032020Y-49650771D02*
X119127258Y-49603152D01*
X119127258Y-49603152D02*
X119270115Y-49603152D01*
X119270115Y-49603152D02*
X119365353Y-49650771D01*
X119365353Y-49650771D02*
X119412972Y-49746009D01*
X119412972Y-49746009D02*
X119412972Y-50269819D01*
X119841544Y-50222200D02*
X119936782Y-50269819D01*
X119936782Y-50269819D02*
X120127258Y-50269819D01*
X120127258Y-50269819D02*
X120222496Y-50222200D01*
X120222496Y-50222200D02*
X120270115Y-50126961D01*
X120270115Y-50126961D02*
X120270115Y-50079342D01*
X120270115Y-50079342D02*
X120222496Y-49984104D01*
X120222496Y-49984104D02*
X120127258Y-49936485D01*
X120127258Y-49936485D02*
X119984401Y-49936485D01*
X119984401Y-49936485D02*
X119889163Y-49888866D01*
X119889163Y-49888866D02*
X119841544Y-49793628D01*
X119841544Y-49793628D02*
X119841544Y-49746009D01*
X119841544Y-49746009D02*
X119889163Y-49650771D01*
X119889163Y-49650771D02*
X119984401Y-49603152D01*
X119984401Y-49603152D02*
X120127258Y-49603152D01*
X120127258Y-49603152D02*
X120222496Y-49650771D01*
X121079639Y-50222200D02*
X120984401Y-50269819D01*
X120984401Y-50269819D02*
X120793925Y-50269819D01*
X120793925Y-50269819D02*
X120698687Y-50222200D01*
X120698687Y-50222200D02*
X120651068Y-50126961D01*
X120651068Y-50126961D02*
X120651068Y-49746009D01*
X120651068Y-49746009D02*
X120698687Y-49650771D01*
X120698687Y-49650771D02*
X120793925Y-49603152D01*
X120793925Y-49603152D02*
X120984401Y-49603152D01*
X120984401Y-49603152D02*
X121079639Y-49650771D01*
X121079639Y-49650771D02*
X121127258Y-49746009D01*
X121127258Y-49746009D02*
X121127258Y-49841247D01*
X121127258Y-49841247D02*
X120651068Y-49936485D01*
D11*
X115474435Y-51891695D02*
X115550625Y-51891695D01*
X115550625Y-51891695D02*
X115626816Y-51929790D01*
X115626816Y-51929790D02*
X115664911Y-51967885D01*
X115664911Y-51967885D02*
X115703006Y-52044076D01*
X115703006Y-52044076D02*
X115741101Y-52196457D01*
X115741101Y-52196457D02*
X115741101Y-52386933D01*
X115741101Y-52386933D02*
X115703006Y-52539314D01*
X115703006Y-52539314D02*
X115664911Y-52615504D01*
X115664911Y-52615504D02*
X115626816Y-52653600D01*
X115626816Y-52653600D02*
X115550625Y-52691695D01*
X115550625Y-52691695D02*
X115474435Y-52691695D01*
X115474435Y-52691695D02*
X115398244Y-52653600D01*
X115398244Y-52653600D02*
X115360149Y-52615504D01*
X115360149Y-52615504D02*
X115322054Y-52539314D01*
X115322054Y-52539314D02*
X115283958Y-52386933D01*
X115283958Y-52386933D02*
X115283958Y-52196457D01*
X115283958Y-52196457D02*
X115322054Y-52044076D01*
X115322054Y-52044076D02*
X115360149Y-51967885D01*
X115360149Y-51967885D02*
X115398244Y-51929790D01*
X115398244Y-51929790D02*
X115474435Y-51891695D01*
X116426816Y-51891695D02*
X116274435Y-51891695D01*
X116274435Y-51891695D02*
X116198244Y-51929790D01*
X116198244Y-51929790D02*
X116160149Y-51967885D01*
X116160149Y-51967885D02*
X116083959Y-52082171D01*
X116083959Y-52082171D02*
X116045863Y-52234552D01*
X116045863Y-52234552D02*
X116045863Y-52539314D01*
X116045863Y-52539314D02*
X116083959Y-52615504D01*
X116083959Y-52615504D02*
X116122054Y-52653600D01*
X116122054Y-52653600D02*
X116198244Y-52691695D01*
X116198244Y-52691695D02*
X116350625Y-52691695D01*
X116350625Y-52691695D02*
X116426816Y-52653600D01*
X116426816Y-52653600D02*
X116464911Y-52615504D01*
X116464911Y-52615504D02*
X116503006Y-52539314D01*
X116503006Y-52539314D02*
X116503006Y-52348838D01*
X116503006Y-52348838D02*
X116464911Y-52272647D01*
X116464911Y-52272647D02*
X116426816Y-52234552D01*
X116426816Y-52234552D02*
X116350625Y-52196457D01*
X116350625Y-52196457D02*
X116198244Y-52196457D01*
X116198244Y-52196457D02*
X116122054Y-52234552D01*
X116122054Y-52234552D02*
X116083959Y-52272647D01*
X116083959Y-52272647D02*
X116045863Y-52348838D01*
X116998245Y-51891695D02*
X117074435Y-51891695D01*
X117074435Y-51891695D02*
X117150626Y-51929790D01*
X117150626Y-51929790D02*
X117188721Y-51967885D01*
X117188721Y-51967885D02*
X117226816Y-52044076D01*
X117226816Y-52044076D02*
X117264911Y-52196457D01*
X117264911Y-52196457D02*
X117264911Y-52386933D01*
X117264911Y-52386933D02*
X117226816Y-52539314D01*
X117226816Y-52539314D02*
X117188721Y-52615504D01*
X117188721Y-52615504D02*
X117150626Y-52653600D01*
X117150626Y-52653600D02*
X117074435Y-52691695D01*
X117074435Y-52691695D02*
X116998245Y-52691695D01*
X116998245Y-52691695D02*
X116922054Y-52653600D01*
X116922054Y-52653600D02*
X116883959Y-52615504D01*
X116883959Y-52615504D02*
X116845864Y-52539314D01*
X116845864Y-52539314D02*
X116807768Y-52386933D01*
X116807768Y-52386933D02*
X116807768Y-52196457D01*
X116807768Y-52196457D02*
X116845864Y-52044076D01*
X116845864Y-52044076D02*
X116883959Y-51967885D01*
X116883959Y-51967885D02*
X116922054Y-51929790D01*
X116922054Y-51929790D02*
X116998245Y-51891695D01*
X117531578Y-51891695D02*
X118026816Y-51891695D01*
X118026816Y-51891695D02*
X117760150Y-52196457D01*
X117760150Y-52196457D02*
X117874435Y-52196457D01*
X117874435Y-52196457D02*
X117950626Y-52234552D01*
X117950626Y-52234552D02*
X117988721Y-52272647D01*
X117988721Y-52272647D02*
X118026816Y-52348838D01*
X118026816Y-52348838D02*
X118026816Y-52539314D01*
X118026816Y-52539314D02*
X117988721Y-52615504D01*
X117988721Y-52615504D02*
X117950626Y-52653600D01*
X117950626Y-52653600D02*
X117874435Y-52691695D01*
X117874435Y-52691695D02*
X117645864Y-52691695D01*
X117645864Y-52691695D02*
X117569673Y-52653600D01*
X117569673Y-52653600D02*
X117531578Y-52615504D01*
D12*
X138445489Y-60770600D02*
X137302632Y-60770600D01*
D10*
X108727255Y-40859819D02*
X108917731Y-40859819D01*
X108917731Y-40859819D02*
X109012969Y-40907438D01*
X109012969Y-40907438D02*
X109108207Y-41002676D01*
X109108207Y-41002676D02*
X109155826Y-41193152D01*
X109155826Y-41193152D02*
X109155826Y-41526485D01*
X109155826Y-41526485D02*
X109108207Y-41716961D01*
X109108207Y-41716961D02*
X109012969Y-41812200D01*
X109012969Y-41812200D02*
X108917731Y-41859819D01*
X108917731Y-41859819D02*
X108727255Y-41859819D01*
X108727255Y-41859819D02*
X108632017Y-41812200D01*
X108632017Y-41812200D02*
X108536779Y-41716961D01*
X108536779Y-41716961D02*
X108489160Y-41526485D01*
X108489160Y-41526485D02*
X108489160Y-41193152D01*
X108489160Y-41193152D02*
X108536779Y-41002676D01*
X108536779Y-41002676D02*
X108632017Y-40907438D01*
X108632017Y-40907438D02*
X108727255Y-40859819D01*
X109584398Y-41193152D02*
X109584398Y-42193152D01*
X109584398Y-41240771D02*
X109679636Y-41193152D01*
X109679636Y-41193152D02*
X109870112Y-41193152D01*
X109870112Y-41193152D02*
X109965350Y-41240771D01*
X109965350Y-41240771D02*
X110012969Y-41288390D01*
X110012969Y-41288390D02*
X110060588Y-41383628D01*
X110060588Y-41383628D02*
X110060588Y-41669342D01*
X110060588Y-41669342D02*
X110012969Y-41764580D01*
X110012969Y-41764580D02*
X109965350Y-41812200D01*
X109965350Y-41812200D02*
X109870112Y-41859819D01*
X109870112Y-41859819D02*
X109679636Y-41859819D01*
X109679636Y-41859819D02*
X109584398Y-41812200D01*
X110346303Y-41193152D02*
X110727255Y-41193152D01*
X110489160Y-40859819D02*
X110489160Y-41716961D01*
X110489160Y-41716961D02*
X110536779Y-41812200D01*
X110536779Y-41812200D02*
X110632017Y-41859819D01*
X110632017Y-41859819D02*
X110727255Y-41859819D01*
X111060589Y-41859819D02*
X111060589Y-41193152D01*
X111060589Y-40859819D02*
X111012970Y-40907438D01*
X111012970Y-40907438D02*
X111060589Y-40955057D01*
X111060589Y-40955057D02*
X111108208Y-40907438D01*
X111108208Y-40907438D02*
X111060589Y-40859819D01*
X111060589Y-40859819D02*
X111060589Y-40955057D01*
X111679636Y-41859819D02*
X111584398Y-41812200D01*
X111584398Y-41812200D02*
X111536779Y-41764580D01*
X111536779Y-41764580D02*
X111489160Y-41669342D01*
X111489160Y-41669342D02*
X111489160Y-41383628D01*
X111489160Y-41383628D02*
X111536779Y-41288390D01*
X111536779Y-41288390D02*
X111584398Y-41240771D01*
X111584398Y-41240771D02*
X111679636Y-41193152D01*
X111679636Y-41193152D02*
X111822493Y-41193152D01*
X111822493Y-41193152D02*
X111917731Y-41240771D01*
X111917731Y-41240771D02*
X111965350Y-41288390D01*
X111965350Y-41288390D02*
X112012969Y-41383628D01*
X112012969Y-41383628D02*
X112012969Y-41669342D01*
X112012969Y-41669342D02*
X111965350Y-41764580D01*
X111965350Y-41764580D02*
X111917731Y-41812200D01*
X111917731Y-41812200D02*
X111822493Y-41859819D01*
X111822493Y-41859819D02*
X111679636Y-41859819D01*
X112441541Y-41193152D02*
X112441541Y-41859819D01*
X112441541Y-41288390D02*
X112489160Y-41240771D01*
X112489160Y-41240771D02*
X112584398Y-41193152D01*
X112584398Y-41193152D02*
X112727255Y-41193152D01*
X112727255Y-41193152D02*
X112822493Y-41240771D01*
X112822493Y-41240771D02*
X112870112Y-41336009D01*
X112870112Y-41336009D02*
X112870112Y-41859819D01*
X113774874Y-41859819D02*
X113774874Y-41336009D01*
X113774874Y-41336009D02*
X113727255Y-41240771D01*
X113727255Y-41240771D02*
X113632017Y-41193152D01*
X113632017Y-41193152D02*
X113441541Y-41193152D01*
X113441541Y-41193152D02*
X113346303Y-41240771D01*
X113774874Y-41812200D02*
X113679636Y-41859819D01*
X113679636Y-41859819D02*
X113441541Y-41859819D01*
X113441541Y-41859819D02*
X113346303Y-41812200D01*
X113346303Y-41812200D02*
X113298684Y-41716961D01*
X113298684Y-41716961D02*
X113298684Y-41621723D01*
X113298684Y-41621723D02*
X113346303Y-41526485D01*
X113346303Y-41526485D02*
X113441541Y-41478866D01*
X113441541Y-41478866D02*
X113679636Y-41478866D01*
X113679636Y-41478866D02*
X113774874Y-41431247D01*
X114393922Y-41859819D02*
X114298684Y-41812200D01*
X114298684Y-41812200D02*
X114251065Y-41716961D01*
X114251065Y-41716961D02*
X114251065Y-40859819D01*
X108489160Y-43184104D02*
X108965350Y-43184104D01*
X108393922Y-43469819D02*
X108727255Y-42469819D01*
X108727255Y-42469819D02*
X109060588Y-43469819D01*
X109251065Y-42803152D02*
X109632017Y-42803152D01*
X109393922Y-42469819D02*
X109393922Y-43326961D01*
X109393922Y-43326961D02*
X109441541Y-43422200D01*
X109441541Y-43422200D02*
X109536779Y-43469819D01*
X109536779Y-43469819D02*
X109632017Y-43469819D01*
X109822494Y-42803152D02*
X110203446Y-42803152D01*
X109965351Y-42469819D02*
X109965351Y-43326961D01*
X109965351Y-43326961D02*
X110012970Y-43422200D01*
X110012970Y-43422200D02*
X110108208Y-43469819D01*
X110108208Y-43469819D02*
X110203446Y-43469819D01*
X110917732Y-43422200D02*
X110822494Y-43469819D01*
X110822494Y-43469819D02*
X110632018Y-43469819D01*
X110632018Y-43469819D02*
X110536780Y-43422200D01*
X110536780Y-43422200D02*
X110489161Y-43326961D01*
X110489161Y-43326961D02*
X110489161Y-42946009D01*
X110489161Y-42946009D02*
X110536780Y-42850771D01*
X110536780Y-42850771D02*
X110632018Y-42803152D01*
X110632018Y-42803152D02*
X110822494Y-42803152D01*
X110822494Y-42803152D02*
X110917732Y-42850771D01*
X110917732Y-42850771D02*
X110965351Y-42946009D01*
X110965351Y-42946009D02*
X110965351Y-43041247D01*
X110965351Y-43041247D02*
X110489161Y-43136485D01*
X111393923Y-42803152D02*
X111393923Y-43469819D01*
X111393923Y-42898390D02*
X111441542Y-42850771D01*
X111441542Y-42850771D02*
X111536780Y-42803152D01*
X111536780Y-42803152D02*
X111679637Y-42803152D01*
X111679637Y-42803152D02*
X111774875Y-42850771D01*
X111774875Y-42850771D02*
X111822494Y-42946009D01*
X111822494Y-42946009D02*
X111822494Y-43469819D01*
X112727256Y-42803152D02*
X112727256Y-43469819D01*
X112298685Y-42803152D02*
X112298685Y-43326961D01*
X112298685Y-43326961D02*
X112346304Y-43422200D01*
X112346304Y-43422200D02*
X112441542Y-43469819D01*
X112441542Y-43469819D02*
X112584399Y-43469819D01*
X112584399Y-43469819D02*
X112679637Y-43422200D01*
X112679637Y-43422200D02*
X112727256Y-43374580D01*
X113632018Y-43469819D02*
X113632018Y-42946009D01*
X113632018Y-42946009D02*
X113584399Y-42850771D01*
X113584399Y-42850771D02*
X113489161Y-42803152D01*
X113489161Y-42803152D02*
X113298685Y-42803152D01*
X113298685Y-42803152D02*
X113203447Y-42850771D01*
X113632018Y-43422200D02*
X113536780Y-43469819D01*
X113536780Y-43469819D02*
X113298685Y-43469819D01*
X113298685Y-43469819D02*
X113203447Y-43422200D01*
X113203447Y-43422200D02*
X113155828Y-43326961D01*
X113155828Y-43326961D02*
X113155828Y-43231723D01*
X113155828Y-43231723D02*
X113203447Y-43136485D01*
X113203447Y-43136485D02*
X113298685Y-43088866D01*
X113298685Y-43088866D02*
X113536780Y-43088866D01*
X113536780Y-43088866D02*
X113632018Y-43041247D01*
X113965352Y-42803152D02*
X114346304Y-42803152D01*
X114108209Y-42469819D02*
X114108209Y-43326961D01*
X114108209Y-43326961D02*
X114155828Y-43422200D01*
X114155828Y-43422200D02*
X114251066Y-43469819D01*
X114251066Y-43469819D02*
X114346304Y-43469819D01*
X114822495Y-43469819D02*
X114727257Y-43422200D01*
X114727257Y-43422200D02*
X114679638Y-43374580D01*
X114679638Y-43374580D02*
X114632019Y-43279342D01*
X114632019Y-43279342D02*
X114632019Y-42993628D01*
X114632019Y-42993628D02*
X114679638Y-42898390D01*
X114679638Y-42898390D02*
X114727257Y-42850771D01*
X114727257Y-42850771D02*
X114822495Y-42803152D01*
X114822495Y-42803152D02*
X114965352Y-42803152D01*
X114965352Y-42803152D02*
X115060590Y-42850771D01*
X115060590Y-42850771D02*
X115108209Y-42898390D01*
X115108209Y-42898390D02*
X115155828Y-42993628D01*
X115155828Y-42993628D02*
X115155828Y-43279342D01*
X115155828Y-43279342D02*
X115108209Y-43374580D01*
X115108209Y-43374580D02*
X115060590Y-43422200D01*
X115060590Y-43422200D02*
X114965352Y-43469819D01*
X114965352Y-43469819D02*
X114822495Y-43469819D01*
X115584400Y-43469819D02*
X115584400Y-42803152D01*
X115584400Y-42993628D02*
X115632019Y-42898390D01*
X115632019Y-42898390D02*
X115679638Y-42850771D01*
X115679638Y-42850771D02*
X115774876Y-42803152D01*
X115774876Y-42803152D02*
X115870114Y-42803152D01*
D12*
X87554510Y-56229400D02*
X88697368Y-56229400D01*
D10*
X98466666Y-57854819D02*
X98466666Y-58569104D01*
X98466666Y-58569104D02*
X98419047Y-58711961D01*
X98419047Y-58711961D02*
X98323809Y-58807200D01*
X98323809Y-58807200D02*
X98180952Y-58854819D01*
X98180952Y-58854819D02*
X98085714Y-58854819D01*
X99466666Y-58854819D02*
X98895238Y-58854819D01*
X99180952Y-58854819D02*
X99180952Y-57854819D01*
X99180952Y-57854819D02*
X99085714Y-57997676D01*
X99085714Y-57997676D02*
X98990476Y-58092914D01*
X98990476Y-58092914D02*
X98895238Y-58140533D01*
X126466666Y-57654819D02*
X126466666Y-58369104D01*
X126466666Y-58369104D02*
X126419047Y-58511961D01*
X126419047Y-58511961D02*
X126323809Y-58607200D01*
X126323809Y-58607200D02*
X126180952Y-58654819D01*
X126180952Y-58654819D02*
X126085714Y-58654819D01*
X126895238Y-57750057D02*
X126942857Y-57702438D01*
X126942857Y-57702438D02*
X127038095Y-57654819D01*
X127038095Y-57654819D02*
X127276190Y-57654819D01*
X127276190Y-57654819D02*
X127371428Y-57702438D01*
X127371428Y-57702438D02*
X127419047Y-57750057D01*
X127419047Y-57750057D02*
X127466666Y-57845295D01*
X127466666Y-57845295D02*
X127466666Y-57940533D01*
X127466666Y-57940533D02*
X127419047Y-58083390D01*
X127419047Y-58083390D02*
X126847619Y-58654819D01*
X126847619Y-58654819D02*
X127466666Y-58654819D01*
X81033333Y-42454819D02*
X80700000Y-41978628D01*
X80461905Y-42454819D02*
X80461905Y-41454819D01*
X80461905Y-41454819D02*
X80842857Y-41454819D01*
X80842857Y-41454819D02*
X80938095Y-41502438D01*
X80938095Y-41502438D02*
X80985714Y-41550057D01*
X80985714Y-41550057D02*
X81033333Y-41645295D01*
X81033333Y-41645295D02*
X81033333Y-41788152D01*
X81033333Y-41788152D02*
X80985714Y-41883390D01*
X80985714Y-41883390D02*
X80938095Y-41931009D01*
X80938095Y-41931009D02*
X80842857Y-41978628D01*
X80842857Y-41978628D02*
X80461905Y-41978628D01*
X81604762Y-41883390D02*
X81509524Y-41835771D01*
X81509524Y-41835771D02*
X81461905Y-41788152D01*
X81461905Y-41788152D02*
X81414286Y-41692914D01*
X81414286Y-41692914D02*
X81414286Y-41645295D01*
X81414286Y-41645295D02*
X81461905Y-41550057D01*
X81461905Y-41550057D02*
X81509524Y-41502438D01*
X81509524Y-41502438D02*
X81604762Y-41454819D01*
X81604762Y-41454819D02*
X81795238Y-41454819D01*
X81795238Y-41454819D02*
X81890476Y-41502438D01*
X81890476Y-41502438D02*
X81938095Y-41550057D01*
X81938095Y-41550057D02*
X81985714Y-41645295D01*
X81985714Y-41645295D02*
X81985714Y-41692914D01*
X81985714Y-41692914D02*
X81938095Y-41788152D01*
X81938095Y-41788152D02*
X81890476Y-41835771D01*
X81890476Y-41835771D02*
X81795238Y-41883390D01*
X81795238Y-41883390D02*
X81604762Y-41883390D01*
X81604762Y-41883390D02*
X81509524Y-41931009D01*
X81509524Y-41931009D02*
X81461905Y-41978628D01*
X81461905Y-41978628D02*
X81414286Y-42073866D01*
X81414286Y-42073866D02*
X81414286Y-42264342D01*
X81414286Y-42264342D02*
X81461905Y-42359580D01*
X81461905Y-42359580D02*
X81509524Y-42407200D01*
X81509524Y-42407200D02*
X81604762Y-42454819D01*
X81604762Y-42454819D02*
X81795238Y-42454819D01*
X81795238Y-42454819D02*
X81890476Y-42407200D01*
X81890476Y-42407200D02*
X81938095Y-42359580D01*
X81938095Y-42359580D02*
X81985714Y-42264342D01*
X81985714Y-42264342D02*
X81985714Y-42073866D01*
X81985714Y-42073866D02*
X81938095Y-41978628D01*
X81938095Y-41978628D02*
X81890476Y-41931009D01*
X81890476Y-41931009D02*
X81795238Y-41883390D01*
X135357142Y-44854819D02*
X135023809Y-44378628D01*
X134785714Y-44854819D02*
X134785714Y-43854819D01*
X134785714Y-43854819D02*
X135166666Y-43854819D01*
X135166666Y-43854819D02*
X135261904Y-43902438D01*
X135261904Y-43902438D02*
X135309523Y-43950057D01*
X135309523Y-43950057D02*
X135357142Y-44045295D01*
X135357142Y-44045295D02*
X135357142Y-44188152D01*
X135357142Y-44188152D02*
X135309523Y-44283390D01*
X135309523Y-44283390D02*
X135261904Y-44331009D01*
X135261904Y-44331009D02*
X135166666Y-44378628D01*
X135166666Y-44378628D02*
X134785714Y-44378628D01*
X136309523Y-44854819D02*
X135738095Y-44854819D01*
X136023809Y-44854819D02*
X136023809Y-43854819D01*
X136023809Y-43854819D02*
X135928571Y-43997676D01*
X135928571Y-43997676D02*
X135833333Y-44092914D01*
X135833333Y-44092914D02*
X135738095Y-44140533D01*
X137166666Y-43854819D02*
X136976190Y-43854819D01*
X136976190Y-43854819D02*
X136880952Y-43902438D01*
X136880952Y-43902438D02*
X136833333Y-43950057D01*
X136833333Y-43950057D02*
X136738095Y-44092914D01*
X136738095Y-44092914D02*
X136690476Y-44283390D01*
X136690476Y-44283390D02*
X136690476Y-44664342D01*
X136690476Y-44664342D02*
X136738095Y-44759580D01*
X136738095Y-44759580D02*
X136785714Y-44807200D01*
X136785714Y-44807200D02*
X136880952Y-44854819D01*
X136880952Y-44854819D02*
X137071428Y-44854819D01*
X137071428Y-44854819D02*
X137166666Y-44807200D01*
X137166666Y-44807200D02*
X137214285Y-44759580D01*
X137214285Y-44759580D02*
X137261904Y-44664342D01*
X137261904Y-44664342D02*
X137261904Y-44426247D01*
X137261904Y-44426247D02*
X137214285Y-44331009D01*
X137214285Y-44331009D02*
X137166666Y-44283390D01*
X137166666Y-44283390D02*
X137071428Y-44235771D01*
X137071428Y-44235771D02*
X136880952Y-44235771D01*
X136880952Y-44235771D02*
X136785714Y-44283390D01*
X136785714Y-44283390D02*
X136738095Y-44331009D01*
X136738095Y-44331009D02*
X136690476Y-44426247D01*
X98357142Y-44854819D02*
X98023809Y-44378628D01*
X97785714Y-44854819D02*
X97785714Y-43854819D01*
X97785714Y-43854819D02*
X98166666Y-43854819D01*
X98166666Y-43854819D02*
X98261904Y-43902438D01*
X98261904Y-43902438D02*
X98309523Y-43950057D01*
X98309523Y-43950057D02*
X98357142Y-44045295D01*
X98357142Y-44045295D02*
X98357142Y-44188152D01*
X98357142Y-44188152D02*
X98309523Y-44283390D01*
X98309523Y-44283390D02*
X98261904Y-44331009D01*
X98261904Y-44331009D02*
X98166666Y-44378628D01*
X98166666Y-44378628D02*
X97785714Y-44378628D01*
X99309523Y-44854819D02*
X98738095Y-44854819D01*
X99023809Y-44854819D02*
X99023809Y-43854819D01*
X99023809Y-43854819D02*
X98928571Y-43997676D01*
X98928571Y-43997676D02*
X98833333Y-44092914D01*
X98833333Y-44092914D02*
X98738095Y-44140533D01*
X100214285Y-43854819D02*
X99738095Y-43854819D01*
X99738095Y-43854819D02*
X99690476Y-44331009D01*
X99690476Y-44331009D02*
X99738095Y-44283390D01*
X99738095Y-44283390D02*
X99833333Y-44235771D01*
X99833333Y-44235771D02*
X100071428Y-44235771D01*
X100071428Y-44235771D02*
X100166666Y-44283390D01*
X100166666Y-44283390D02*
X100214285Y-44331009D01*
X100214285Y-44331009D02*
X100261904Y-44426247D01*
X100261904Y-44426247D02*
X100261904Y-44664342D01*
X100261904Y-44664342D02*
X100214285Y-44759580D01*
X100214285Y-44759580D02*
X100166666Y-44807200D01*
X100166666Y-44807200D02*
X100071428Y-44854819D01*
X100071428Y-44854819D02*
X99833333Y-44854819D01*
X99833333Y-44854819D02*
X99738095Y-44807200D01*
X99738095Y-44807200D02*
X99690476Y-44759580D01*
X80157142Y-44854819D02*
X79823809Y-44378628D01*
X79585714Y-44854819D02*
X79585714Y-43854819D01*
X79585714Y-43854819D02*
X79966666Y-43854819D01*
X79966666Y-43854819D02*
X80061904Y-43902438D01*
X80061904Y-43902438D02*
X80109523Y-43950057D01*
X80109523Y-43950057D02*
X80157142Y-44045295D01*
X80157142Y-44045295D02*
X80157142Y-44188152D01*
X80157142Y-44188152D02*
X80109523Y-44283390D01*
X80109523Y-44283390D02*
X80061904Y-44331009D01*
X80061904Y-44331009D02*
X79966666Y-44378628D01*
X79966666Y-44378628D02*
X79585714Y-44378628D01*
X81109523Y-44854819D02*
X80538095Y-44854819D01*
X80823809Y-44854819D02*
X80823809Y-43854819D01*
X80823809Y-43854819D02*
X80728571Y-43997676D01*
X80728571Y-43997676D02*
X80633333Y-44092914D01*
X80633333Y-44092914D02*
X80538095Y-44140533D01*
X81966666Y-44188152D02*
X81966666Y-44854819D01*
X81728571Y-43807200D02*
X81490476Y-44521485D01*
X81490476Y-44521485D02*
X82109523Y-44521485D01*
X116957142Y-44854819D02*
X116623809Y-44378628D01*
X116385714Y-44854819D02*
X116385714Y-43854819D01*
X116385714Y-43854819D02*
X116766666Y-43854819D01*
X116766666Y-43854819D02*
X116861904Y-43902438D01*
X116861904Y-43902438D02*
X116909523Y-43950057D01*
X116909523Y-43950057D02*
X116957142Y-44045295D01*
X116957142Y-44045295D02*
X116957142Y-44188152D01*
X116957142Y-44188152D02*
X116909523Y-44283390D01*
X116909523Y-44283390D02*
X116861904Y-44331009D01*
X116861904Y-44331009D02*
X116766666Y-44378628D01*
X116766666Y-44378628D02*
X116385714Y-44378628D01*
X117909523Y-44854819D02*
X117338095Y-44854819D01*
X117623809Y-44854819D02*
X117623809Y-43854819D01*
X117623809Y-43854819D02*
X117528571Y-43997676D01*
X117528571Y-43997676D02*
X117433333Y-44092914D01*
X117433333Y-44092914D02*
X117338095Y-44140533D01*
X118242857Y-43854819D02*
X118861904Y-43854819D01*
X118861904Y-43854819D02*
X118528571Y-44235771D01*
X118528571Y-44235771D02*
X118671428Y-44235771D01*
X118671428Y-44235771D02*
X118766666Y-44283390D01*
X118766666Y-44283390D02*
X118814285Y-44331009D01*
X118814285Y-44331009D02*
X118861904Y-44426247D01*
X118861904Y-44426247D02*
X118861904Y-44664342D01*
X118861904Y-44664342D02*
X118814285Y-44759580D01*
X118814285Y-44759580D02*
X118766666Y-44807200D01*
X118766666Y-44807200D02*
X118671428Y-44854819D01*
X118671428Y-44854819D02*
X118385714Y-44854819D01*
X118385714Y-44854819D02*
X118290476Y-44807200D01*
X118290476Y-44807200D02*
X118242857Y-44759580D01*
X135357142Y-42654819D02*
X135023809Y-42178628D01*
X134785714Y-42654819D02*
X134785714Y-41654819D01*
X134785714Y-41654819D02*
X135166666Y-41654819D01*
X135166666Y-41654819D02*
X135261904Y-41702438D01*
X135261904Y-41702438D02*
X135309523Y-41750057D01*
X135309523Y-41750057D02*
X135357142Y-41845295D01*
X135357142Y-41845295D02*
X135357142Y-41988152D01*
X135357142Y-41988152D02*
X135309523Y-42083390D01*
X135309523Y-42083390D02*
X135261904Y-42131009D01*
X135261904Y-42131009D02*
X135166666Y-42178628D01*
X135166666Y-42178628D02*
X134785714Y-42178628D01*
X136309523Y-42654819D02*
X135738095Y-42654819D01*
X136023809Y-42654819D02*
X136023809Y-41654819D01*
X136023809Y-41654819D02*
X135928571Y-41797676D01*
X135928571Y-41797676D02*
X135833333Y-41892914D01*
X135833333Y-41892914D02*
X135738095Y-41940533D01*
X136690476Y-41750057D02*
X136738095Y-41702438D01*
X136738095Y-41702438D02*
X136833333Y-41654819D01*
X136833333Y-41654819D02*
X137071428Y-41654819D01*
X137071428Y-41654819D02*
X137166666Y-41702438D01*
X137166666Y-41702438D02*
X137214285Y-41750057D01*
X137214285Y-41750057D02*
X137261904Y-41845295D01*
X137261904Y-41845295D02*
X137261904Y-41940533D01*
X137261904Y-41940533D02*
X137214285Y-42083390D01*
X137214285Y-42083390D02*
X136642857Y-42654819D01*
X136642857Y-42654819D02*
X137261904Y-42654819D01*
X135557142Y-47254819D02*
X135223809Y-46778628D01*
X134985714Y-47254819D02*
X134985714Y-46254819D01*
X134985714Y-46254819D02*
X135366666Y-46254819D01*
X135366666Y-46254819D02*
X135461904Y-46302438D01*
X135461904Y-46302438D02*
X135509523Y-46350057D01*
X135509523Y-46350057D02*
X135557142Y-46445295D01*
X135557142Y-46445295D02*
X135557142Y-46588152D01*
X135557142Y-46588152D02*
X135509523Y-46683390D01*
X135509523Y-46683390D02*
X135461904Y-46731009D01*
X135461904Y-46731009D02*
X135366666Y-46778628D01*
X135366666Y-46778628D02*
X134985714Y-46778628D01*
X136509523Y-47254819D02*
X135938095Y-47254819D01*
X136223809Y-47254819D02*
X136223809Y-46254819D01*
X136223809Y-46254819D02*
X136128571Y-46397676D01*
X136128571Y-46397676D02*
X136033333Y-46492914D01*
X136033333Y-46492914D02*
X135938095Y-46540533D01*
X137461904Y-47254819D02*
X136890476Y-47254819D01*
X137176190Y-47254819D02*
X137176190Y-46254819D01*
X137176190Y-46254819D02*
X137080952Y-46397676D01*
X137080952Y-46397676D02*
X136985714Y-46492914D01*
X136985714Y-46492914D02*
X136890476Y-46540533D01*
X98357142Y-42454819D02*
X98023809Y-41978628D01*
X97785714Y-42454819D02*
X97785714Y-41454819D01*
X97785714Y-41454819D02*
X98166666Y-41454819D01*
X98166666Y-41454819D02*
X98261904Y-41502438D01*
X98261904Y-41502438D02*
X98309523Y-41550057D01*
X98309523Y-41550057D02*
X98357142Y-41645295D01*
X98357142Y-41645295D02*
X98357142Y-41788152D01*
X98357142Y-41788152D02*
X98309523Y-41883390D01*
X98309523Y-41883390D02*
X98261904Y-41931009D01*
X98261904Y-41931009D02*
X98166666Y-41978628D01*
X98166666Y-41978628D02*
X97785714Y-41978628D01*
X99309523Y-42454819D02*
X98738095Y-42454819D01*
X99023809Y-42454819D02*
X99023809Y-41454819D01*
X99023809Y-41454819D02*
X98928571Y-41597676D01*
X98928571Y-41597676D02*
X98833333Y-41692914D01*
X98833333Y-41692914D02*
X98738095Y-41740533D01*
X99928571Y-41454819D02*
X100023809Y-41454819D01*
X100023809Y-41454819D02*
X100119047Y-41502438D01*
X100119047Y-41502438D02*
X100166666Y-41550057D01*
X100166666Y-41550057D02*
X100214285Y-41645295D01*
X100214285Y-41645295D02*
X100261904Y-41835771D01*
X100261904Y-41835771D02*
X100261904Y-42073866D01*
X100261904Y-42073866D02*
X100214285Y-42264342D01*
X100214285Y-42264342D02*
X100166666Y-42359580D01*
X100166666Y-42359580D02*
X100119047Y-42407200D01*
X100119047Y-42407200D02*
X100023809Y-42454819D01*
X100023809Y-42454819D02*
X99928571Y-42454819D01*
X99928571Y-42454819D02*
X99833333Y-42407200D01*
X99833333Y-42407200D02*
X99785714Y-42359580D01*
X99785714Y-42359580D02*
X99738095Y-42264342D01*
X99738095Y-42264342D02*
X99690476Y-42073866D01*
X99690476Y-42073866D02*
X99690476Y-41835771D01*
X99690476Y-41835771D02*
X99738095Y-41645295D01*
X99738095Y-41645295D02*
X99785714Y-41550057D01*
X99785714Y-41550057D02*
X99833333Y-41502438D01*
X99833333Y-41502438D02*
X99928571Y-41454819D01*
X99233333Y-47254819D02*
X98900000Y-46778628D01*
X98661905Y-47254819D02*
X98661905Y-46254819D01*
X98661905Y-46254819D02*
X99042857Y-46254819D01*
X99042857Y-46254819D02*
X99138095Y-46302438D01*
X99138095Y-46302438D02*
X99185714Y-46350057D01*
X99185714Y-46350057D02*
X99233333Y-46445295D01*
X99233333Y-46445295D02*
X99233333Y-46588152D01*
X99233333Y-46588152D02*
X99185714Y-46683390D01*
X99185714Y-46683390D02*
X99138095Y-46731009D01*
X99138095Y-46731009D02*
X99042857Y-46778628D01*
X99042857Y-46778628D02*
X98661905Y-46778628D01*
X99709524Y-47254819D02*
X99900000Y-47254819D01*
X99900000Y-47254819D02*
X99995238Y-47207200D01*
X99995238Y-47207200D02*
X100042857Y-47159580D01*
X100042857Y-47159580D02*
X100138095Y-47016723D01*
X100138095Y-47016723D02*
X100185714Y-46826247D01*
X100185714Y-46826247D02*
X100185714Y-46445295D01*
X100185714Y-46445295D02*
X100138095Y-46350057D01*
X100138095Y-46350057D02*
X100090476Y-46302438D01*
X100090476Y-46302438D02*
X99995238Y-46254819D01*
X99995238Y-46254819D02*
X99804762Y-46254819D01*
X99804762Y-46254819D02*
X99709524Y-46302438D01*
X99709524Y-46302438D02*
X99661905Y-46350057D01*
X99661905Y-46350057D02*
X99614286Y-46445295D01*
X99614286Y-46445295D02*
X99614286Y-46683390D01*
X99614286Y-46683390D02*
X99661905Y-46778628D01*
X99661905Y-46778628D02*
X99709524Y-46826247D01*
X99709524Y-46826247D02*
X99804762Y-46873866D01*
X99804762Y-46873866D02*
X99995238Y-46873866D01*
X99995238Y-46873866D02*
X100090476Y-46826247D01*
X100090476Y-46826247D02*
X100138095Y-46778628D01*
X100138095Y-46778628D02*
X100185714Y-46683390D01*
X81233333Y-47254819D02*
X80900000Y-46778628D01*
X80661905Y-47254819D02*
X80661905Y-46254819D01*
X80661905Y-46254819D02*
X81042857Y-46254819D01*
X81042857Y-46254819D02*
X81138095Y-46302438D01*
X81138095Y-46302438D02*
X81185714Y-46350057D01*
X81185714Y-46350057D02*
X81233333Y-46445295D01*
X81233333Y-46445295D02*
X81233333Y-46588152D01*
X81233333Y-46588152D02*
X81185714Y-46683390D01*
X81185714Y-46683390D02*
X81138095Y-46731009D01*
X81138095Y-46731009D02*
X81042857Y-46778628D01*
X81042857Y-46778628D02*
X80661905Y-46778628D01*
X81566667Y-46254819D02*
X82233333Y-46254819D01*
X82233333Y-46254819D02*
X81804762Y-47254819D01*
X117833333Y-42454819D02*
X117500000Y-41978628D01*
X117261905Y-42454819D02*
X117261905Y-41454819D01*
X117261905Y-41454819D02*
X117642857Y-41454819D01*
X117642857Y-41454819D02*
X117738095Y-41502438D01*
X117738095Y-41502438D02*
X117785714Y-41550057D01*
X117785714Y-41550057D02*
X117833333Y-41645295D01*
X117833333Y-41645295D02*
X117833333Y-41788152D01*
X117833333Y-41788152D02*
X117785714Y-41883390D01*
X117785714Y-41883390D02*
X117738095Y-41931009D01*
X117738095Y-41931009D02*
X117642857Y-41978628D01*
X117642857Y-41978628D02*
X117261905Y-41978628D01*
X118690476Y-41454819D02*
X118500000Y-41454819D01*
X118500000Y-41454819D02*
X118404762Y-41502438D01*
X118404762Y-41502438D02*
X118357143Y-41550057D01*
X118357143Y-41550057D02*
X118261905Y-41692914D01*
X118261905Y-41692914D02*
X118214286Y-41883390D01*
X118214286Y-41883390D02*
X118214286Y-42264342D01*
X118214286Y-42264342D02*
X118261905Y-42359580D01*
X118261905Y-42359580D02*
X118309524Y-42407200D01*
X118309524Y-42407200D02*
X118404762Y-42454819D01*
X118404762Y-42454819D02*
X118595238Y-42454819D01*
X118595238Y-42454819D02*
X118690476Y-42407200D01*
X118690476Y-42407200D02*
X118738095Y-42359580D01*
X118738095Y-42359580D02*
X118785714Y-42264342D01*
X118785714Y-42264342D02*
X118785714Y-42026247D01*
X118785714Y-42026247D02*
X118738095Y-41931009D01*
X118738095Y-41931009D02*
X118690476Y-41883390D01*
X118690476Y-41883390D02*
X118595238Y-41835771D01*
X118595238Y-41835771D02*
X118404762Y-41835771D01*
X118404762Y-41835771D02*
X118309524Y-41883390D01*
X118309524Y-41883390D02*
X118261905Y-41931009D01*
X118261905Y-41931009D02*
X118214286Y-42026247D01*
X117833333Y-47254819D02*
X117500000Y-46778628D01*
X117261905Y-47254819D02*
X117261905Y-46254819D01*
X117261905Y-46254819D02*
X117642857Y-46254819D01*
X117642857Y-46254819D02*
X117738095Y-46302438D01*
X117738095Y-46302438D02*
X117785714Y-46350057D01*
X117785714Y-46350057D02*
X117833333Y-46445295D01*
X117833333Y-46445295D02*
X117833333Y-46588152D01*
X117833333Y-46588152D02*
X117785714Y-46683390D01*
X117785714Y-46683390D02*
X117738095Y-46731009D01*
X117738095Y-46731009D02*
X117642857Y-46778628D01*
X117642857Y-46778628D02*
X117261905Y-46778628D01*
X118738095Y-46254819D02*
X118261905Y-46254819D01*
X118261905Y-46254819D02*
X118214286Y-46731009D01*
X118214286Y-46731009D02*
X118261905Y-46683390D01*
X118261905Y-46683390D02*
X118357143Y-46635771D01*
X118357143Y-46635771D02*
X118595238Y-46635771D01*
X118595238Y-46635771D02*
X118690476Y-46683390D01*
X118690476Y-46683390D02*
X118738095Y-46731009D01*
X118738095Y-46731009D02*
X118785714Y-46826247D01*
X118785714Y-46826247D02*
X118785714Y-47064342D01*
X118785714Y-47064342D02*
X118738095Y-47159580D01*
X118738095Y-47159580D02*
X118690476Y-47207200D01*
X118690476Y-47207200D02*
X118595238Y-47254819D01*
X118595238Y-47254819D02*
X118357143Y-47254819D01*
X118357143Y-47254819D02*
X118261905Y-47207200D01*
X118261905Y-47207200D02*
X118214286Y-47159580D01*
X105433333Y-59454819D02*
X105100000Y-58978628D01*
X104861905Y-59454819D02*
X104861905Y-58454819D01*
X104861905Y-58454819D02*
X105242857Y-58454819D01*
X105242857Y-58454819D02*
X105338095Y-58502438D01*
X105338095Y-58502438D02*
X105385714Y-58550057D01*
X105385714Y-58550057D02*
X105433333Y-58645295D01*
X105433333Y-58645295D02*
X105433333Y-58788152D01*
X105433333Y-58788152D02*
X105385714Y-58883390D01*
X105385714Y-58883390D02*
X105338095Y-58931009D01*
X105338095Y-58931009D02*
X105242857Y-58978628D01*
X105242857Y-58978628D02*
X104861905Y-58978628D01*
X106290476Y-58788152D02*
X106290476Y-59454819D01*
X106052381Y-58407200D02*
X105814286Y-59121485D01*
X105814286Y-59121485D02*
X106433333Y-59121485D01*
D13*
X136736667Y-32199318D02*
X136736667Y-33106461D01*
X136736667Y-33106461D02*
X136676190Y-33287889D01*
X136676190Y-33287889D02*
X136555238Y-33408842D01*
X136555238Y-33408842D02*
X136373809Y-33469318D01*
X136373809Y-33469318D02*
X136252857Y-33469318D01*
X137885714Y-32199318D02*
X137643809Y-32199318D01*
X137643809Y-32199318D02*
X137522857Y-32259794D01*
X137522857Y-32259794D02*
X137462381Y-32320270D01*
X137462381Y-32320270D02*
X137341428Y-32501699D01*
X137341428Y-32501699D02*
X137280952Y-32743603D01*
X137280952Y-32743603D02*
X137280952Y-33227413D01*
X137280952Y-33227413D02*
X137341428Y-33348365D01*
X137341428Y-33348365D02*
X137401905Y-33408842D01*
X137401905Y-33408842D02*
X137522857Y-33469318D01*
X137522857Y-33469318D02*
X137764762Y-33469318D01*
X137764762Y-33469318D02*
X137885714Y-33408842D01*
X137885714Y-33408842D02*
X137946190Y-33348365D01*
X137946190Y-33348365D02*
X138006667Y-33227413D01*
X138006667Y-33227413D02*
X138006667Y-32925032D01*
X138006667Y-32925032D02*
X137946190Y-32804080D01*
X137946190Y-32804080D02*
X137885714Y-32743603D01*
X137885714Y-32743603D02*
X137764762Y-32683127D01*
X137764762Y-32683127D02*
X137522857Y-32683127D01*
X137522857Y-32683127D02*
X137401905Y-32743603D01*
X137401905Y-32743603D02*
X137341428Y-32804080D01*
X137341428Y-32804080D02*
X137280952Y-32925032D01*
D10*
X143241666Y-44454819D02*
X143241666Y-45169104D01*
X143241666Y-45169104D02*
X143194047Y-45311961D01*
X143194047Y-45311961D02*
X143098809Y-45407200D01*
X143098809Y-45407200D02*
X142955952Y-45454819D01*
X142955952Y-45454819D02*
X142860714Y-45454819D01*
X143717857Y-45454819D02*
X143717857Y-44454819D01*
X143717857Y-44454819D02*
X144098809Y-44454819D01*
X144098809Y-44454819D02*
X144194047Y-44502438D01*
X144194047Y-44502438D02*
X144241666Y-44550057D01*
X144241666Y-44550057D02*
X144289285Y-44645295D01*
X144289285Y-44645295D02*
X144289285Y-44788152D01*
X144289285Y-44788152D02*
X144241666Y-44883390D01*
X144241666Y-44883390D02*
X144194047Y-44931009D01*
X144194047Y-44931009D02*
X144098809Y-44978628D01*
X144098809Y-44978628D02*
X143717857Y-44978628D01*
X145146428Y-44788152D02*
X145146428Y-45454819D01*
X144908333Y-44407200D02*
X144670238Y-45121485D01*
X144670238Y-45121485D02*
X145289285Y-45121485D01*
D13*
X118337063Y-32244318D02*
X118337063Y-33151461D01*
X118337063Y-33151461D02*
X118276586Y-33332889D01*
X118276586Y-33332889D02*
X118155634Y-33453842D01*
X118155634Y-33453842D02*
X117974205Y-33514318D01*
X117974205Y-33514318D02*
X117853253Y-33514318D01*
X118820872Y-32244318D02*
X119607063Y-32244318D01*
X119607063Y-32244318D02*
X119183729Y-32728127D01*
X119183729Y-32728127D02*
X119365158Y-32728127D01*
X119365158Y-32728127D02*
X119486110Y-32788603D01*
X119486110Y-32788603D02*
X119546586Y-32849080D01*
X119546586Y-32849080D02*
X119607063Y-32970032D01*
X119607063Y-32970032D02*
X119607063Y-33272413D01*
X119607063Y-33272413D02*
X119546586Y-33393365D01*
X119546586Y-33393365D02*
X119486110Y-33453842D01*
X119486110Y-33453842D02*
X119365158Y-33514318D01*
X119365158Y-33514318D02*
X119002301Y-33514318D01*
X119002301Y-33514318D02*
X118881348Y-33453842D01*
X118881348Y-33453842D02*
X118820872Y-33393365D01*
X99937460Y-32199318D02*
X99937460Y-33106461D01*
X99937460Y-33106461D02*
X99876983Y-33287889D01*
X99876983Y-33287889D02*
X99756031Y-33408842D01*
X99756031Y-33408842D02*
X99574602Y-33469318D01*
X99574602Y-33469318D02*
X99453650Y-33469318D01*
X101146983Y-32199318D02*
X100542221Y-32199318D01*
X100542221Y-32199318D02*
X100481745Y-32804080D01*
X100481745Y-32804080D02*
X100542221Y-32743603D01*
X100542221Y-32743603D02*
X100663174Y-32683127D01*
X100663174Y-32683127D02*
X100965555Y-32683127D01*
X100965555Y-32683127D02*
X101086507Y-32743603D01*
X101086507Y-32743603D02*
X101146983Y-32804080D01*
X101146983Y-32804080D02*
X101207460Y-32925032D01*
X101207460Y-32925032D02*
X101207460Y-33227413D01*
X101207460Y-33227413D02*
X101146983Y-33348365D01*
X101146983Y-33348365D02*
X101086507Y-33408842D01*
X101086507Y-33408842D02*
X100965555Y-33469318D01*
X100965555Y-33469318D02*
X100663174Y-33469318D01*
X100663174Y-33469318D02*
X100542221Y-33408842D01*
X100542221Y-33408842D02*
X100481745Y-33348365D01*
D10*
X108883333Y-52854819D02*
X108550000Y-52378628D01*
X108311905Y-52854819D02*
X108311905Y-51854819D01*
X108311905Y-51854819D02*
X108692857Y-51854819D01*
X108692857Y-51854819D02*
X108788095Y-51902438D01*
X108788095Y-51902438D02*
X108835714Y-51950057D01*
X108835714Y-51950057D02*
X108883333Y-52045295D01*
X108883333Y-52045295D02*
X108883333Y-52188152D01*
X108883333Y-52188152D02*
X108835714Y-52283390D01*
X108835714Y-52283390D02*
X108788095Y-52331009D01*
X108788095Y-52331009D02*
X108692857Y-52378628D01*
X108692857Y-52378628D02*
X108311905Y-52378628D01*
X109216667Y-51854819D02*
X109835714Y-51854819D01*
X109835714Y-51854819D02*
X109502381Y-52235771D01*
X109502381Y-52235771D02*
X109645238Y-52235771D01*
X109645238Y-52235771D02*
X109740476Y-52283390D01*
X109740476Y-52283390D02*
X109788095Y-52331009D01*
X109788095Y-52331009D02*
X109835714Y-52426247D01*
X109835714Y-52426247D02*
X109835714Y-52664342D01*
X109835714Y-52664342D02*
X109788095Y-52759580D01*
X109788095Y-52759580D02*
X109740476Y-52807200D01*
X109740476Y-52807200D02*
X109645238Y-52854819D01*
X109645238Y-52854819D02*
X109359524Y-52854819D01*
X109359524Y-52854819D02*
X109264286Y-52807200D01*
X109264286Y-52807200D02*
X109216667Y-52759580D01*
X124641666Y-44454819D02*
X124641666Y-45169104D01*
X124641666Y-45169104D02*
X124594047Y-45311961D01*
X124594047Y-45311961D02*
X124498809Y-45407200D01*
X124498809Y-45407200D02*
X124355952Y-45454819D01*
X124355952Y-45454819D02*
X124260714Y-45454819D01*
X125117857Y-45454819D02*
X125117857Y-44454819D01*
X125117857Y-44454819D02*
X125498809Y-44454819D01*
X125498809Y-44454819D02*
X125594047Y-44502438D01*
X125594047Y-44502438D02*
X125641666Y-44550057D01*
X125641666Y-44550057D02*
X125689285Y-44645295D01*
X125689285Y-44645295D02*
X125689285Y-44788152D01*
X125689285Y-44788152D02*
X125641666Y-44883390D01*
X125641666Y-44883390D02*
X125594047Y-44931009D01*
X125594047Y-44931009D02*
X125498809Y-44978628D01*
X125498809Y-44978628D02*
X125117857Y-44978628D01*
X126641666Y-45454819D02*
X126070238Y-45454819D01*
X126355952Y-45454819D02*
X126355952Y-44454819D01*
X126355952Y-44454819D02*
X126260714Y-44597676D01*
X126260714Y-44597676D02*
X126165476Y-44692914D01*
X126165476Y-44692914D02*
X126070238Y-44740533D01*
X111766666Y-62054819D02*
X111766666Y-62769104D01*
X111766666Y-62769104D02*
X111719047Y-62911961D01*
X111719047Y-62911961D02*
X111623809Y-63007200D01*
X111623809Y-63007200D02*
X111480952Y-63054819D01*
X111480952Y-63054819D02*
X111385714Y-63054819D01*
X112242857Y-63054819D02*
X112242857Y-62054819D01*
X112242857Y-62054819D02*
X112623809Y-62054819D01*
X112623809Y-62054819D02*
X112719047Y-62102438D01*
X112719047Y-62102438D02*
X112766666Y-62150057D01*
X112766666Y-62150057D02*
X112814285Y-62245295D01*
X112814285Y-62245295D02*
X112814285Y-62388152D01*
X112814285Y-62388152D02*
X112766666Y-62483390D01*
X112766666Y-62483390D02*
X112719047Y-62531009D01*
X112719047Y-62531009D02*
X112623809Y-62578628D01*
X112623809Y-62578628D02*
X112242857Y-62578628D01*
X113719047Y-62054819D02*
X113242857Y-62054819D01*
X113242857Y-62054819D02*
X113195238Y-62531009D01*
X113195238Y-62531009D02*
X113242857Y-62483390D01*
X113242857Y-62483390D02*
X113338095Y-62435771D01*
X113338095Y-62435771D02*
X113576190Y-62435771D01*
X113576190Y-62435771D02*
X113671428Y-62483390D01*
X113671428Y-62483390D02*
X113719047Y-62531009D01*
X113719047Y-62531009D02*
X113766666Y-62626247D01*
X113766666Y-62626247D02*
X113766666Y-62864342D01*
X113766666Y-62864342D02*
X113719047Y-62959580D01*
X113719047Y-62959580D02*
X113671428Y-63007200D01*
X113671428Y-63007200D02*
X113576190Y-63054819D01*
X113576190Y-63054819D02*
X113338095Y-63054819D01*
X113338095Y-63054819D02*
X113242857Y-63007200D01*
X113242857Y-63007200D02*
X113195238Y-62959580D01*
D13*
X81491667Y-32199318D02*
X81491667Y-33106461D01*
X81491667Y-33106461D02*
X81431190Y-33287889D01*
X81431190Y-33287889D02*
X81310238Y-33408842D01*
X81310238Y-33408842D02*
X81128809Y-33469318D01*
X81128809Y-33469318D02*
X81007857Y-33469318D01*
X82640714Y-32622651D02*
X82640714Y-33469318D01*
X82338333Y-32138842D02*
X82035952Y-33045984D01*
X82035952Y-33045984D02*
X82822143Y-33045984D01*
D10*
X108883333Y-56854819D02*
X108550000Y-56378628D01*
X108311905Y-56854819D02*
X108311905Y-55854819D01*
X108311905Y-55854819D02*
X108692857Y-55854819D01*
X108692857Y-55854819D02*
X108788095Y-55902438D01*
X108788095Y-55902438D02*
X108835714Y-55950057D01*
X108835714Y-55950057D02*
X108883333Y-56045295D01*
X108883333Y-56045295D02*
X108883333Y-56188152D01*
X108883333Y-56188152D02*
X108835714Y-56283390D01*
X108835714Y-56283390D02*
X108788095Y-56331009D01*
X108788095Y-56331009D02*
X108692857Y-56378628D01*
X108692857Y-56378628D02*
X108311905Y-56378628D01*
X109835714Y-56854819D02*
X109264286Y-56854819D01*
X109550000Y-56854819D02*
X109550000Y-55854819D01*
X109550000Y-55854819D02*
X109454762Y-55997676D01*
X109454762Y-55997676D02*
X109359524Y-56092914D01*
X109359524Y-56092914D02*
X109264286Y-56140533D01*
X106766666Y-44454819D02*
X106766666Y-45169104D01*
X106766666Y-45169104D02*
X106719047Y-45311961D01*
X106719047Y-45311961D02*
X106623809Y-45407200D01*
X106623809Y-45407200D02*
X106480952Y-45454819D01*
X106480952Y-45454819D02*
X106385714Y-45454819D01*
X107242857Y-45454819D02*
X107242857Y-44454819D01*
X107242857Y-44454819D02*
X107623809Y-44454819D01*
X107623809Y-44454819D02*
X107719047Y-44502438D01*
X107719047Y-44502438D02*
X107766666Y-44550057D01*
X107766666Y-44550057D02*
X107814285Y-44645295D01*
X107814285Y-44645295D02*
X107814285Y-44788152D01*
X107814285Y-44788152D02*
X107766666Y-44883390D01*
X107766666Y-44883390D02*
X107719047Y-44931009D01*
X107719047Y-44931009D02*
X107623809Y-44978628D01*
X107623809Y-44978628D02*
X107242857Y-44978628D01*
X108147619Y-44454819D02*
X108766666Y-44454819D01*
X108766666Y-44454819D02*
X108433333Y-44835771D01*
X108433333Y-44835771D02*
X108576190Y-44835771D01*
X108576190Y-44835771D02*
X108671428Y-44883390D01*
X108671428Y-44883390D02*
X108719047Y-44931009D01*
X108719047Y-44931009D02*
X108766666Y-45026247D01*
X108766666Y-45026247D02*
X108766666Y-45264342D01*
X108766666Y-45264342D02*
X108719047Y-45359580D01*
X108719047Y-45359580D02*
X108671428Y-45407200D01*
X108671428Y-45407200D02*
X108576190Y-45454819D01*
X108576190Y-45454819D02*
X108290476Y-45454819D01*
X108290476Y-45454819D02*
X108195238Y-45407200D01*
X108195238Y-45407200D02*
X108147619Y-45359580D01*
X87841666Y-44454819D02*
X87841666Y-45169104D01*
X87841666Y-45169104D02*
X87794047Y-45311961D01*
X87794047Y-45311961D02*
X87698809Y-45407200D01*
X87698809Y-45407200D02*
X87555952Y-45454819D01*
X87555952Y-45454819D02*
X87460714Y-45454819D01*
X88317857Y-45454819D02*
X88317857Y-44454819D01*
X88317857Y-44454819D02*
X88698809Y-44454819D01*
X88698809Y-44454819D02*
X88794047Y-44502438D01*
X88794047Y-44502438D02*
X88841666Y-44550057D01*
X88841666Y-44550057D02*
X88889285Y-44645295D01*
X88889285Y-44645295D02*
X88889285Y-44788152D01*
X88889285Y-44788152D02*
X88841666Y-44883390D01*
X88841666Y-44883390D02*
X88794047Y-44931009D01*
X88794047Y-44931009D02*
X88698809Y-44978628D01*
X88698809Y-44978628D02*
X88317857Y-44978628D01*
X89270238Y-44550057D02*
X89317857Y-44502438D01*
X89317857Y-44502438D02*
X89413095Y-44454819D01*
X89413095Y-44454819D02*
X89651190Y-44454819D01*
X89651190Y-44454819D02*
X89746428Y-44502438D01*
X89746428Y-44502438D02*
X89794047Y-44550057D01*
X89794047Y-44550057D02*
X89841666Y-44645295D01*
X89841666Y-44645295D02*
X89841666Y-44740533D01*
X89841666Y-44740533D02*
X89794047Y-44883390D01*
X89794047Y-44883390D02*
X89222619Y-45454819D01*
X89222619Y-45454819D02*
X89841666Y-45454819D01*
X108883333Y-54654819D02*
X108550000Y-54178628D01*
X108311905Y-54654819D02*
X108311905Y-53654819D01*
X108311905Y-53654819D02*
X108692857Y-53654819D01*
X108692857Y-53654819D02*
X108788095Y-53702438D01*
X108788095Y-53702438D02*
X108835714Y-53750057D01*
X108835714Y-53750057D02*
X108883333Y-53845295D01*
X108883333Y-53845295D02*
X108883333Y-53988152D01*
X108883333Y-53988152D02*
X108835714Y-54083390D01*
X108835714Y-54083390D02*
X108788095Y-54131009D01*
X108788095Y-54131009D02*
X108692857Y-54178628D01*
X108692857Y-54178628D02*
X108311905Y-54178628D01*
X109264286Y-53750057D02*
X109311905Y-53702438D01*
X109311905Y-53702438D02*
X109407143Y-53654819D01*
X109407143Y-53654819D02*
X109645238Y-53654819D01*
X109645238Y-53654819D02*
X109740476Y-53702438D01*
X109740476Y-53702438D02*
X109788095Y-53750057D01*
X109788095Y-53750057D02*
X109835714Y-53845295D01*
X109835714Y-53845295D02*
X109835714Y-53940533D01*
X109835714Y-53940533D02*
X109788095Y-54083390D01*
X109788095Y-54083390D02*
X109216667Y-54654819D01*
X109216667Y-54654819D02*
X109835714Y-54654819D01*
D14*
X100135000Y-63085000D02*
X97215000Y-63085000D01*
X100135000Y-54185000D02*
X100135000Y-63085000D01*
X100135000Y-54145000D02*
X97215000Y-54145000D01*
X97215000Y-67835000D02*
X94585000Y-67835000D01*
X97215000Y-63085000D02*
X97215000Y-67835000D01*
X97215000Y-49395000D02*
X97215000Y-54145000D01*
X94585000Y-49395000D02*
X97215000Y-49395000D01*
X91785000Y-67835000D02*
X88185000Y-67835000D01*
X88185000Y-49395000D02*
X91785000Y-49395000D01*
X85780000Y-63848000D02*
X75859000Y-63848000D01*
X85780000Y-53568000D02*
X85780000Y-63848000D01*
X85780000Y-53568000D02*
X75859000Y-53568000D01*
X85485000Y-67835000D02*
X81885000Y-67835000D01*
X82820000Y-53568000D02*
X82820000Y-63848000D01*
X81885000Y-49395000D02*
X85485000Y-49395000D01*
X81794000Y-62318000D02*
X81758000Y-62283000D01*
X81588000Y-62523000D02*
X81542000Y-62476000D01*
X79496000Y-60021000D02*
X79450000Y-59974000D01*
X79280000Y-60214000D02*
X79245000Y-60179000D01*
X77919000Y-53568000D02*
X77919000Y-63848000D01*
X76419000Y-53568000D02*
X76419000Y-63848000D01*
X76365000Y-67835000D02*
X79085000Y-67835000D01*
X76365000Y-64435000D02*
X76365000Y-67835000D01*
X76365000Y-64435000D02*
X73365000Y-64435000D01*
X76365000Y-52795000D02*
X73365000Y-52795000D01*
X76365000Y-49395000D02*
X79085000Y-49395000D01*
X76365000Y-49395000D02*
X76365000Y-52795000D01*
X76359000Y-53328000D02*
X75619000Y-53328000D01*
X75859000Y-53568000D02*
X75859000Y-63848000D01*
X75619000Y-53328000D02*
X75619000Y-53828000D01*
X73365000Y-52795000D02*
X73365000Y-64435000D01*
X82054000Y-56852000D02*
G75*
G03*
X82054426Y-55484958I-1535000J684000D01*
G01*
X79835000Y-57703000D02*
G75*
G03*
X81202042Y-57703426I684000J1535000D01*
G01*
X81203000Y-54633000D02*
G75*
G03*
X79835958Y-54632574I-684000J-1535000D01*
G01*
X78839001Y-56168000D02*
G75*
G03*
X78984245Y-56851318I1679999J0D01*
G01*
X78984001Y-55484000D02*
G75*
G03*
X78838748Y-56196805I1534999J-684000D01*
G01*
X82199000Y-61248000D02*
G75*
G03*
X82199000Y-61248000I-1680000J0D01*
G01*
X125384000Y-54083000D02*
X128304000Y-54083000D01*
X125384000Y-62983000D02*
X125384000Y-54083000D01*
X125384000Y-63023000D02*
X128304000Y-63023000D01*
X128304000Y-49333000D02*
X130934000Y-49333000D01*
X128304000Y-54083000D02*
X128304000Y-49333000D01*
X128304000Y-67773000D02*
X128304000Y-63023000D01*
X130934000Y-67773000D02*
X128304000Y-67773000D01*
X133734000Y-49333000D02*
X137334000Y-49333000D01*
X137334000Y-67773000D02*
X133734000Y-67773000D01*
X139739000Y-53320000D02*
X149660000Y-53320000D01*
X139739000Y-63600000D02*
X139739000Y-53320000D01*
X139739000Y-63600000D02*
X149660000Y-63600000D01*
X140034000Y-49333000D02*
X143634000Y-49333000D01*
X142699000Y-63600000D02*
X142699000Y-53320000D01*
X143634000Y-67773000D02*
X140034000Y-67773000D01*
X143725000Y-54850000D02*
X143761000Y-54885000D01*
X143931000Y-54645000D02*
X143977000Y-54692000D01*
X146023000Y-57147000D02*
X146069000Y-57194000D01*
X146239000Y-56954000D02*
X146274000Y-56989000D01*
X147600000Y-63600000D02*
X147600000Y-53320000D01*
X149100000Y-63600000D02*
X149100000Y-53320000D01*
X149154000Y-49333000D02*
X146434000Y-49333000D01*
X149154000Y-52733000D02*
X149154000Y-49333000D01*
X149154000Y-52733000D02*
X152154000Y-52733000D01*
X149154000Y-64373000D02*
X152154000Y-64373000D01*
X149154000Y-67773000D02*
X146434000Y-67773000D01*
X149154000Y-67773000D02*
X149154000Y-64373000D01*
X149160000Y-63840000D02*
X149900000Y-63840000D01*
X149660000Y-63600000D02*
X149660000Y-53320000D01*
X149900000Y-63840000D02*
X149900000Y-63340000D01*
X152154000Y-64373000D02*
X152154000Y-52733000D01*
X143465000Y-60316000D02*
G75*
G03*
X143464574Y-61683042I1535000J-684000D01*
G01*
X145684000Y-59465000D02*
G75*
G03*
X144316958Y-59464574I-684000J-1535000D01*
G01*
X144316000Y-62535000D02*
G75*
G03*
X145683042Y-62535426I684000J1535000D01*
G01*
X146679999Y-61000000D02*
G75*
G03*
X146534755Y-60316682I-1679999J0D01*
G01*
X146534999Y-61684000D02*
G75*
G03*
X146680252Y-60971195I-1534999J684000D01*
G01*
X146680000Y-55920000D02*
G75*
G03*
X146680000Y-55920000I-1680000J0D01*
G01*
X85377064Y-41090000D02*
X83922936Y-41090000D01*
X85377064Y-42910000D02*
X83922936Y-42910000D01*
X139272936Y-45310000D02*
X140727064Y-45310000D01*
X139272936Y-43490000D02*
X140727064Y-43490000D01*
X103727064Y-43490000D02*
X102272936Y-43490000D01*
X103727064Y-45310000D02*
X102272936Y-45310000D01*
X83922936Y-45310000D02*
X85377064Y-45310000D01*
X83922936Y-43490000D02*
X85377064Y-43490000D01*
X122127064Y-43490000D02*
X120672936Y-43490000D01*
X122127064Y-45310000D02*
X120672936Y-45310000D01*
X140727064Y-41090000D02*
X139272936Y-41090000D01*
X140727064Y-42910000D02*
X139272936Y-42910000D01*
X139272936Y-47710000D02*
X140727064Y-47710000D01*
X139272936Y-45890000D02*
X140727064Y-45890000D01*
X102272936Y-42910000D02*
X103727064Y-42910000D01*
X102272936Y-41090000D02*
X103727064Y-41090000D01*
X103727064Y-45890000D02*
X102272936Y-45890000D01*
X103727064Y-47710000D02*
X102272936Y-47710000D01*
X83935436Y-47710000D02*
X85389564Y-47710000D01*
X83935436Y-45890000D02*
X85389564Y-45890000D01*
X120672936Y-42910000D02*
X122127064Y-42910000D01*
X120672936Y-41090000D02*
X122127064Y-41090000D01*
X122127064Y-45890000D02*
X120672936Y-45890000D01*
X122127064Y-47710000D02*
X120672936Y-47710000D01*
D11*
X146400000Y-34165000D02*
X146400000Y-34165000D01*
X146400000Y-34165000D02*
X146400000Y-34165000D01*
X146500000Y-34165000D02*
X146500000Y-34165000D01*
X146500000Y-34165000D02*
G75*
G03*
X146400000Y-34165000I-50000J0D01*
G01*
X146400000Y-34165000D02*
G75*
G03*
X146500000Y-34165000I50000J0D01*
G01*
X146400000Y-34165000D02*
G75*
G03*
X146500000Y-34165000I50000J0D01*
G01*
D14*
X142675000Y-45800000D02*
X145475000Y-45800000D01*
X142675000Y-47800000D02*
X142675000Y-45800000D01*
X145475000Y-45800000D02*
X145475000Y-47800000D01*
X145475000Y-47800000D02*
X142675000Y-47800000D01*
D11*
X128000396Y-34210000D02*
X128000396Y-34210000D01*
X128000396Y-34210000D02*
X128000396Y-34210000D01*
X128100396Y-34210000D02*
X128100396Y-34210000D01*
X128100396Y-34210000D02*
G75*
G03*
X128000396Y-34210000I-50000J0D01*
G01*
X128000396Y-34210000D02*
G75*
G03*
X128100396Y-34210000I50000J0D01*
G01*
X128000396Y-34210000D02*
G75*
G03*
X128100396Y-34210000I50000J0D01*
G01*
X109600793Y-34165000D02*
X109600793Y-34165000D01*
X109600793Y-34165000D02*
X109600793Y-34165000D01*
X109700793Y-34165000D02*
X109700793Y-34165000D01*
X109700793Y-34165000D02*
G75*
G03*
X109600793Y-34165000I-50000J0D01*
G01*
X109600793Y-34165000D02*
G75*
G03*
X109700793Y-34165000I50000J0D01*
G01*
X109600793Y-34165000D02*
G75*
G03*
X109700793Y-34165000I50000J0D01*
G01*
D14*
X112395276Y-51877500D02*
X112904724Y-51877500D01*
X112395276Y-52922500D02*
X112904724Y-52922500D01*
X124075000Y-45800000D02*
X126875000Y-45800000D01*
X124075000Y-47800000D02*
X124075000Y-45800000D01*
X126875000Y-45800000D02*
X126875000Y-47800000D01*
X126875000Y-47800000D02*
X124075000Y-47800000D01*
X111384314Y-58000000D02*
X114184314Y-58000000D01*
X111384314Y-60000000D02*
X111384314Y-58000000D01*
X114184314Y-58000000D02*
X114184314Y-60000000D01*
X114184314Y-60000000D02*
X111384314Y-60000000D01*
D11*
X91155000Y-34165000D02*
X91155000Y-34165000D01*
X91155000Y-34165000D02*
X91155000Y-34165000D01*
X91255000Y-34165000D02*
X91255000Y-34165000D01*
X91255000Y-34165000D02*
G75*
G03*
X91155000Y-34165000I-50000J0D01*
G01*
X91155000Y-34165000D02*
G75*
G03*
X91255000Y-34165000I50000J0D01*
G01*
X91155000Y-34165000D02*
G75*
G03*
X91255000Y-34165000I50000J0D01*
G01*
D14*
X111922936Y-55490000D02*
X113377064Y-55490000D01*
X111922936Y-57310000D02*
X113377064Y-57310000D01*
X105675000Y-45800000D02*
X108475000Y-45800000D01*
X105675000Y-47800000D02*
X105675000Y-45800000D01*
X108475000Y-45800000D02*
X108475000Y-47800000D01*
X108475000Y-47800000D02*
X105675000Y-47800000D01*
X87275000Y-45800000D02*
X90075000Y-45800000D01*
X87275000Y-47800000D02*
X87275000Y-45800000D01*
X90075000Y-45800000D02*
X90075000Y-47800000D01*
X90075000Y-47800000D02*
X87275000Y-47800000D01*
X112422936Y-53465000D02*
X112877064Y-53465000D01*
X112422936Y-54935000D02*
X112877064Y-54935000D01*
%LPC*%
D15*
X86835000Y-66730000D03*
X86835000Y-50500000D03*
X80485000Y-66730000D03*
D16*
X80519000Y-56168000D03*
D15*
X80485000Y-50500000D03*
X93185000Y-66730000D03*
D17*
X80519000Y-61248000D03*
D15*
X93185000Y-50500000D03*
X138684000Y-50438000D03*
X138684000Y-66668000D03*
X145034000Y-50438000D03*
D16*
X145000000Y-61000000D03*
D15*
X145034000Y-66668000D03*
X132334000Y-50438000D03*
D17*
X145000000Y-55920000D03*
D15*
X132334000Y-66668000D03*
D18*
X86112500Y-42000000D03*
X83187500Y-42000000D03*
D19*
X138537500Y-44400000D03*
X141462500Y-44400000D03*
D18*
X104462500Y-44400000D03*
X101537500Y-44400000D03*
D19*
X83187500Y-44400000D03*
X86112500Y-44400000D03*
D18*
X122862500Y-44400000D03*
X119937500Y-44400000D03*
X141462500Y-42000000D03*
X138537500Y-42000000D03*
D19*
X138537500Y-46800000D03*
X141462500Y-46800000D03*
X101537500Y-42000000D03*
X104462500Y-42000000D03*
D18*
X104462500Y-46800000D03*
X101537500Y-46800000D03*
D19*
X83200000Y-46800000D03*
X86125000Y-46800000D03*
X119937500Y-42000000D03*
X122862500Y-42000000D03*
D18*
X122862500Y-46800000D03*
X119937500Y-46800000D03*
D20*
X108600000Y-59000000D03*
D21*
X116600000Y-59000000D03*
D22*
X139700000Y-34165000D03*
D23*
X139700000Y-29845000D03*
X143430000Y-36325000D03*
X135970000Y-36325000D03*
D24*
X143350000Y-46800000D03*
D25*
X144800000Y-46800000D03*
D22*
X121300396Y-34210000D03*
D23*
X121300396Y-29890000D03*
X125030396Y-36370000D03*
X117570396Y-36370000D03*
D22*
X102900793Y-34165000D03*
D23*
X102900793Y-29845000D03*
X106630793Y-36325000D03*
X99170793Y-36325000D03*
D26*
X111737500Y-52400000D03*
X113562500Y-52400000D03*
D24*
X124750000Y-46800000D03*
D25*
X126200000Y-46800000D03*
D24*
X112059314Y-59000000D03*
D25*
X113509314Y-59000000D03*
D22*
X84455000Y-34165000D03*
D23*
X84455000Y-29845000D03*
X88185000Y-36325000D03*
X80725000Y-36325000D03*
D27*
X111100000Y-56400000D03*
X114200000Y-56400000D03*
D24*
X106350000Y-46800000D03*
D25*
X107800000Y-46800000D03*
D24*
X87950000Y-46800000D03*
D25*
X89400000Y-46800000D03*
D28*
X111650000Y-54200000D03*
X113650000Y-54200000D03*
%LPD*%
M02*
